%TF.GenerationSoftware,KiCad,Pcbnew,8.0.8*%
%TF.CreationDate,2026-04-07T23:28:17-05:00*%
%TF.ProjectId,glove_pcb_esp32,676c6f76-655f-4706-9362-5f6573703332,rev?*%
%TF.SameCoordinates,Original*%
%TF.FileFunction,Copper,L2,Bot*%
%TF.FilePolarity,Positive*%
%FSLAX46Y46*%
G04 Gerber Fmt 4.6, Leading zero omitted, Abs format (unit mm)*
G04 Created by KiCad (PCBNEW 8.0.8) date 2026-04-07 23:28:17*
%MOMM*%
%LPD*%
G01*
G04 APERTURE LIST*
G04 Aperture macros list*
%AMRoundRect*
0 Rectangle with rounded corners*
0 $1 Rounding radius*
0 $2 $3 $4 $5 $6 $7 $8 $9 X,Y pos of 4 corners*
0 Add a 4 corners polygon primitive as box body*
4,1,4,$2,$3,$4,$5,$6,$7,$8,$9,$2,$3,0*
0 Add four circle primitives for the rounded corners*
1,1,$1+$1,$2,$3*
1,1,$1+$1,$4,$5*
1,1,$1+$1,$6,$7*
1,1,$1+$1,$8,$9*
0 Add four rect primitives between the rounded corners*
20,1,$1+$1,$2,$3,$4,$5,0*
20,1,$1+$1,$4,$5,$6,$7,0*
20,1,$1+$1,$6,$7,$8,$9,0*
20,1,$1+$1,$8,$9,$2,$3,0*%
G04 Aperture macros list end*
%TA.AperFunction,ComponentPad*%
%ADD10R,1.700000X1.700000*%
%TD*%
%TA.AperFunction,ComponentPad*%
%ADD11O,1.700000X1.700000*%
%TD*%
%TA.AperFunction,ComponentPad*%
%ADD12RoundRect,0.250001X-0.799999X0.799999X-0.799999X-0.799999X0.799999X-0.799999X0.799999X0.799999X0*%
%TD*%
%TA.AperFunction,ComponentPad*%
%ADD13C,2.100000*%
%TD*%
%TA.AperFunction,ComponentPad*%
%ADD14RoundRect,0.250001X0.799999X-0.799999X0.799999X0.799999X-0.799999X0.799999X-0.799999X-0.799999X0*%
%TD*%
%TA.AperFunction,HeatsinkPad*%
%ADD15O,1.000000X2.100000*%
%TD*%
%TA.AperFunction,HeatsinkPad*%
%ADD16O,1.000000X1.800000*%
%TD*%
%TA.AperFunction,ComponentPad*%
%ADD17RoundRect,0.250001X-0.799999X-0.799999X0.799999X-0.799999X0.799999X0.799999X-0.799999X0.799999X0*%
%TD*%
%TA.AperFunction,HeatsinkPad*%
%ADD18C,0.600000*%
%TD*%
%TA.AperFunction,ComponentPad*%
%ADD19RoundRect,0.250000X-0.625000X0.350000X-0.625000X-0.350000X0.625000X-0.350000X0.625000X0.350000X0*%
%TD*%
%TA.AperFunction,ComponentPad*%
%ADD20O,1.750000X1.200000*%
%TD*%
%TA.AperFunction,ViaPad*%
%ADD21C,0.600000*%
%TD*%
%TA.AperFunction,Conductor*%
%ADD22C,0.508000*%
%TD*%
%TA.AperFunction,Conductor*%
%ADD23C,0.254000*%
%TD*%
%TA.AperFunction,Conductor*%
%ADD24C,0.762000*%
%TD*%
G04 APERTURE END LIST*
D10*
%TO.P,J14,1,Pin_1*%
%TO.N,GND*%
X165705000Y-101570000D03*
D11*
%TO.P,J14,2,Pin_2*%
%TO.N,/BOOT*%
X168245000Y-101570000D03*
%TD*%
D12*
%TO.P,J2,1,Pin_1*%
%TO.N,Net-(IC1-SCL)*%
X107250000Y-105250000D03*
D13*
%TO.P,J2,2,Pin_2*%
%TO.N,Net-(IC1-IN{slash}TRIG)*%
X107250000Y-109850000D03*
%TD*%
D14*
%TO.P,J3,1,Pin_1*%
%TO.N,Net-(IC2-SCL)*%
X184160000Y-110920000D03*
D13*
%TO.P,J3,2,Pin_2*%
%TO.N,Net-(IC2-IN{slash}TRIG)*%
X184160000Y-106320000D03*
%TD*%
D10*
%TO.P,J7,1,Pin_1*%
%TO.N,/IMU_INT1*%
X138830000Y-93130000D03*
%TD*%
%TO.P,J4,1,Pin_1*%
%TO.N,Net-(J4-Pin_1)*%
X129510000Y-113620000D03*
D11*
%TO.P,J4,2,Pin_2*%
%TO.N,SYS_3V3*%
X126970000Y-113620000D03*
%TO.P,J4,3,Pin_3*%
%TO.N,/BB_3V3*%
X124430000Y-113620000D03*
%TD*%
D10*
%TO.P,J13,1,Pin_1*%
%TO.N,/HAPTIC_DRIVER2_EN*%
X145985000Y-94800000D03*
D11*
%TO.P,J13,2,Pin_2*%
%TO.N,/HAPTIC_DRIVER1_EN*%
X143445000Y-94800000D03*
%TD*%
D15*
%TO.P,J10,S1,SHIELD*%
%TO.N,GND*%
X184662000Y-69458000D03*
D16*
X184662000Y-65278000D03*
D15*
X176022000Y-69458000D03*
D16*
X176022000Y-65278000D03*
%TD*%
D17*
%TO.P,J8,1,Pin_1*%
%TO.N,Net-(J8-Pin_1)*%
X114850000Y-65650000D03*
D13*
%TO.P,J8,2,Pin_2*%
%TO.N,GND*%
X119450000Y-65650000D03*
%TD*%
D10*
%TO.P,J11,1,Pin_1*%
%TO.N,/FLEX5_ADC*%
X150390000Y-74410000D03*
D11*
%TO.P,J11,2,Pin_2*%
%TO.N,/FLEX4_ADC*%
X147850000Y-74410000D03*
%TO.P,J11,3,Pin_3*%
%TO.N,/FLEX3_ADC*%
X145310000Y-74410000D03*
%TO.P,J11,4,Pin_4*%
%TO.N,/FLEX2_ADC*%
X142770000Y-74410000D03*
%TO.P,J11,5,Pin_5*%
%TO.N,/FLEX1_ADC*%
X140230000Y-74410000D03*
%TD*%
D18*
%TO.P,U1,41,GND*%
%TO.N,GND*%
X177740000Y-86120000D03*
X176340000Y-86120000D03*
X178440000Y-86820000D03*
X177040000Y-86820000D03*
X175640000Y-86820000D03*
X177740000Y-87520000D03*
X176340000Y-87520000D03*
X178440000Y-88220000D03*
X177040000Y-88220000D03*
X175640000Y-88220000D03*
X177740000Y-88920000D03*
X176340000Y-88920000D03*
%TD*%
D14*
%TO.P,J5,1,Pin_1*%
%TO.N,Net-(J5-Pin_1)*%
X108570000Y-77920000D03*
D13*
%TO.P,J5,2,Pin_2*%
%TO.N,GND*%
X108570000Y-73320000D03*
%TD*%
D17*
%TO.P,J17,1,Pin_1*%
%TO.N,Net-(J17-Pin_1)*%
X164480000Y-65680000D03*
D13*
%TO.P,J17,2,Pin_2*%
%TO.N,GND*%
X169080000Y-65680000D03*
%TD*%
D17*
%TO.P,J12,1,Pin_1*%
%TO.N,Net-(J12-Pin_1)*%
X132740000Y-65520000D03*
D13*
%TO.P,J12,2,Pin_2*%
%TO.N,GND*%
X137340000Y-65520000D03*
%TD*%
D19*
%TO.P,J1,1,Pin_1*%
%TO.N,+3.7V*%
X108030000Y-94480000D03*
D20*
%TO.P,J1,2,Pin_2*%
%TO.N,GND*%
X108030000Y-96480000D03*
%TD*%
D10*
%TO.P,J9,1,Pin_1*%
%TO.N,/I2C_SCL*%
X158410000Y-80725000D03*
D11*
%TO.P,J9,2,Pin_2*%
%TO.N,/I2C_SDA*%
X158410000Y-78185000D03*
%TD*%
D10*
%TO.P,J6,1,Pin_1*%
%TO.N,GND*%
X151275000Y-113630000D03*
D11*
%TO.P,J6,2,Pin_2*%
%TO.N,/EXT_3V3*%
X148735000Y-113630000D03*
%TD*%
D10*
%TO.P,J18,1,Pin_1*%
%TO.N,GND*%
X176240000Y-101550000D03*
D11*
%TO.P,J18,2,Pin_2*%
%TO.N,/UART_RX*%
X178780000Y-101550000D03*
%TO.P,J18,3,Pin_3*%
%TO.N,/UART_TX*%
X181320000Y-101550000D03*
%TO.P,J18,4,Pin_4*%
%TO.N,SYS_3V3*%
X183860000Y-101550000D03*
%TD*%
D17*
%TO.P,J15,1,Pin_1*%
%TO.N,Net-(J15-Pin_1)*%
X149560000Y-65740000D03*
D13*
%TO.P,J15,2,Pin_2*%
%TO.N,GND*%
X154160000Y-65740000D03*
%TD*%
D21*
%TO.N,SYS_3V3*%
X176210000Y-114180000D03*
X161230000Y-103860000D03*
X179560000Y-77380000D03*
X146605433Y-88145433D03*
X142973554Y-91777312D03*
X163470000Y-79180000D03*
X135550432Y-99200432D03*
X147725433Y-87025433D03*
X145510000Y-97670000D03*
X166200000Y-76140000D03*
X111660000Y-100610000D03*
%TO.N,GND*%
X179620000Y-108000000D03*
X181330000Y-87030000D03*
X162350000Y-95470000D03*
X166230000Y-68950000D03*
X130780000Y-85270000D03*
X184900000Y-84950000D03*
X172120000Y-90370000D03*
X131870000Y-88340000D03*
X183550000Y-75310000D03*
X129180000Y-91560000D03*
X114860000Y-89510000D03*
X142430000Y-87470000D03*
X145020000Y-77890000D03*
X114670000Y-82150000D03*
X120690000Y-81060000D03*
X136000000Y-85700000D03*
X124650000Y-80550000D03*
X155750000Y-112420000D03*
X181102000Y-65532000D03*
X163280000Y-97170000D03*
X145640000Y-86060000D03*
X146740000Y-89340000D03*
X180830000Y-110530000D03*
X116580000Y-99070000D03*
X143320000Y-80010000D03*
X169640000Y-107800000D03*
X180420000Y-74530000D03*
X162810000Y-94420000D03*
X172930000Y-86850000D03*
X111930000Y-87430000D03*
X177800000Y-72390000D03*
X118450000Y-108177000D03*
X121830000Y-85360000D03*
X113590000Y-92760000D03*
X184690000Y-78880000D03*
X127260000Y-80920000D03*
X138690000Y-77190000D03*
X140040000Y-80670000D03*
X123680000Y-89850000D03*
X117690000Y-105100000D03*
X116250000Y-96930000D03*
X109980000Y-81160000D03*
X183920000Y-81800000D03*
X158020000Y-70390000D03*
X108400000Y-107510000D03*
X165670000Y-111260000D03*
X177680000Y-92760000D03*
X172970000Y-93230000D03*
%TO.N,/IMU_INT1*%
X150740000Y-82550000D03*
X143350000Y-89400000D03*
%TO.N,/I2C_SCL*%
X148570000Y-102030000D03*
X149370000Y-96340000D03*
%TO.N,Net-(C11-Pad1)*%
X129310000Y-93580000D03*
X123240000Y-93590000D03*
%TO.N,/BB_3V3*%
X126220000Y-90070000D03*
X132690000Y-85980000D03*
X125360000Y-102950000D03*
%TO.N,/FLEX3_ADC*%
X165700000Y-82130000D03*
%TO.N,/FLEX4_ADC*%
X180870000Y-78400000D03*
X164190000Y-73580000D03*
%TO.N,/FLEX5_ADC*%
X179670000Y-78380000D03*
X168990000Y-73140000D03*
%TO.N,Net-(IC1-OUT-)*%
X119780000Y-104940000D03*
X122550000Y-106710000D03*
%TO.N,Net-(IC2-OUT-)*%
X148890000Y-108470000D03*
X139800000Y-104620000D03*
%TO.N,Net-(IC2-GND)*%
X149870000Y-107843000D03*
X139820000Y-103350000D03*
%TO.N,/Dn*%
X169690000Y-82140000D03*
X179320000Y-73480000D03*
X180594000Y-68326000D03*
X173840000Y-78640000D03*
%TO.N,/Dp*%
X168610000Y-82150000D03*
X171880000Y-78630000D03*
%TO.N,Net-(J15-Pin_1)*%
X148620000Y-70090000D03*
%TO.N,Net-(J17-Pin_1)*%
X162800000Y-69370000D03*
%TO.N,/EN*%
X182150000Y-83090000D03*
X164810000Y-86600000D03*
%TD*%
D22*
%TO.N,SYS_3V3*%
X137005433Y-97745433D02*
X139770433Y-94980433D01*
X135550433Y-99200432D02*
X137005433Y-97745433D01*
X126970000Y-113620000D02*
X126970000Y-107780865D01*
X134140866Y-100610000D02*
X111660000Y-100610000D01*
X139770433Y-94980433D02*
X142973554Y-91777312D01*
X127170433Y-107580433D02*
X128814000Y-109224000D01*
X135550432Y-99200433D02*
X135550432Y-99200432D01*
X178320000Y-76140000D02*
X179560000Y-77380000D01*
X160822000Y-114180000D02*
X176210000Y-114180000D01*
X128814000Y-109224000D02*
X155866000Y-109224000D01*
X142973554Y-91777312D02*
X146605433Y-88145433D01*
D23*
X142460000Y-97670000D02*
X139770433Y-94980433D01*
D22*
X127170433Y-107580433D02*
X135550432Y-99200433D01*
X166200000Y-76140000D02*
X178320000Y-76140000D01*
X155866000Y-109224000D02*
X160822000Y-114180000D01*
X146605433Y-88145433D02*
X147725433Y-87025433D01*
X166200000Y-76450000D02*
X163470000Y-79180000D01*
D23*
X145510000Y-97670000D02*
X142460000Y-97670000D01*
D22*
X166200000Y-76140000D02*
X166200000Y-76450000D01*
X147725433Y-87025433D02*
X158610865Y-76140000D01*
X158610865Y-76140000D02*
X166200000Y-76140000D01*
X126970000Y-107780865D02*
X127170433Y-107580433D01*
X155866000Y-109224000D02*
X161230000Y-103860000D01*
X137005433Y-97745433D02*
X134140866Y-100610000D01*
X135550432Y-99200432D02*
X135550433Y-99200432D01*
D23*
%TO.N,/IMU_INT1*%
X150200000Y-82550000D02*
X150740000Y-82550000D01*
X143350000Y-89400000D02*
X150200000Y-82550000D01*
X143350000Y-89400000D02*
X142560000Y-89400000D01*
X142560000Y-89400000D02*
X138830000Y-93130000D01*
%TO.N,/I2C_SCL*%
X149370000Y-101230000D02*
X148570000Y-102030000D01*
X149370000Y-96340000D02*
X149370000Y-101230000D01*
%TO.N,Net-(C11-Pad1)*%
X129300000Y-93590000D02*
X129310000Y-93580000D01*
X123240000Y-93590000D02*
X129300000Y-93590000D01*
%TO.N,/BB_3V3*%
X126220000Y-90070000D02*
X128600000Y-90070000D01*
X128600000Y-90070000D02*
X132690000Y-85980000D01*
D24*
X124430000Y-113620000D02*
X124430000Y-103880000D01*
X124430000Y-103880000D02*
X125360000Y-102950000D01*
D23*
%TO.N,/FLEX3_ADC*%
X176441053Y-72059000D02*
X182880000Y-78497947D01*
X164593288Y-87270000D02*
X164183000Y-86859712D01*
X164183000Y-83647000D02*
X165700000Y-82130000D01*
X164183000Y-86859712D02*
X164183000Y-83647000D01*
X182880000Y-83246712D02*
X180633712Y-85493000D01*
X166494105Y-87270000D02*
X164593288Y-87270000D01*
X145310000Y-74410000D02*
X147661000Y-72059000D01*
X147661000Y-72059000D02*
X176441053Y-72059000D01*
X180633712Y-85493000D02*
X168271105Y-85493000D01*
X168271105Y-85493000D02*
X166494105Y-87270000D01*
X182880000Y-78497947D02*
X182880000Y-83246712D01*
%TO.N,/FLEX4_ADC*%
X165257000Y-72513000D02*
X176253000Y-72513000D01*
X164190000Y-73580000D02*
X165257000Y-72513000D01*
X176253000Y-72513000D02*
X180870000Y-77130000D01*
X180870000Y-77130000D02*
X180870000Y-78400000D01*
%TO.N,/FLEX5_ADC*%
X180187000Y-77863000D02*
X179670000Y-78380000D01*
X180187000Y-77120288D02*
X180187000Y-77863000D01*
X176206712Y-73140000D02*
X180187000Y-77120288D01*
X168990000Y-73140000D02*
X176206712Y-73140000D01*
%TO.N,Net-(IC1-OUT-)*%
X121550000Y-106710000D02*
X119780000Y-104940000D01*
X122550000Y-106710000D02*
X121550000Y-106710000D01*
%TO.N,Net-(IC2-OUT-)*%
X145040000Y-104620000D02*
X139800000Y-104620000D01*
X148890000Y-108470000D02*
X145040000Y-104620000D01*
%TO.N,Net-(IC2-GND)*%
X145377000Y-103350000D02*
X139820000Y-103350000D01*
X149870000Y-107843000D02*
X145377000Y-103350000D01*
%TO.N,/Dn*%
X179320000Y-73480000D02*
X180594000Y-72206000D01*
X180594000Y-72206000D02*
X180594000Y-68326000D01*
X173840000Y-78640000D02*
X170340000Y-82140000D01*
X170340000Y-82140000D02*
X169690000Y-82140000D01*
%TO.N,/Dp*%
X171880000Y-78630000D02*
X168610000Y-81900000D01*
X168610000Y-81900000D02*
X168610000Y-82150000D01*
%TO.N,Net-(J15-Pin_1)*%
X149560000Y-69150000D02*
X148620000Y-70090000D01*
X149560000Y-65740000D02*
X149560000Y-69150000D01*
%TO.N,Net-(J17-Pin_1)*%
X162800000Y-69370000D02*
X164480000Y-67690000D01*
X164480000Y-67690000D02*
X164480000Y-65680000D01*
%TO.N,/EN*%
X166522052Y-86600000D02*
X170032052Y-83090000D01*
X164810000Y-86600000D02*
X166522052Y-86600000D01*
X170032052Y-83090000D02*
X182150000Y-83090000D01*
%TD*%
%TA.AperFunction,Conductor*%
%TO.N,GND*%
G36*
X185732891Y-62690185D02*
G01*
X185778646Y-62742989D01*
X185789852Y-62794636D01*
X185788130Y-64360337D01*
X185768372Y-64427355D01*
X185715517Y-64473052D01*
X185646348Y-64482919D01*
X185582824Y-64453825D01*
X185549567Y-64407650D01*
X185548187Y-64404320D01*
X185548185Y-64404315D01*
X185438751Y-64240537D01*
X185438748Y-64240533D01*
X185299466Y-64101251D01*
X185299462Y-64101248D01*
X185135684Y-63991814D01*
X185135671Y-63991807D01*
X184953691Y-63916429D01*
X184953683Y-63916427D01*
X184912000Y-63908135D01*
X184912000Y-64711011D01*
X184902060Y-64693795D01*
X184846205Y-64637940D01*
X184777796Y-64598444D01*
X184701496Y-64578000D01*
X184622504Y-64578000D01*
X184546204Y-64598444D01*
X184477795Y-64637940D01*
X184421940Y-64693795D01*
X184412000Y-64711011D01*
X184412000Y-63908136D01*
X184411999Y-63908135D01*
X184370316Y-63916427D01*
X184370308Y-63916429D01*
X184188328Y-63991807D01*
X184188315Y-63991814D01*
X184024537Y-64101248D01*
X184024533Y-64101251D01*
X183885251Y-64240533D01*
X183885248Y-64240537D01*
X183775814Y-64404315D01*
X183775807Y-64404328D01*
X183700430Y-64586306D01*
X183700427Y-64586318D01*
X183662000Y-64779504D01*
X183662000Y-65028000D01*
X184362000Y-65028000D01*
X184362000Y-65528000D01*
X183662000Y-65528000D01*
X183662000Y-65776495D01*
X183700427Y-65969681D01*
X183700430Y-65969693D01*
X183775807Y-66151671D01*
X183775814Y-66151684D01*
X183885248Y-66315462D01*
X183885251Y-66315466D01*
X184024533Y-66454748D01*
X184024537Y-66454751D01*
X184188315Y-66564185D01*
X184188328Y-66564192D01*
X184370308Y-66639569D01*
X184412000Y-66647862D01*
X184412000Y-65844988D01*
X184421940Y-65862205D01*
X184477795Y-65918060D01*
X184546204Y-65957556D01*
X184622504Y-65978000D01*
X184701496Y-65978000D01*
X184777796Y-65957556D01*
X184846205Y-65918060D01*
X184902060Y-65862205D01*
X184912000Y-65844988D01*
X184912000Y-66647862D01*
X184953690Y-66639569D01*
X184953692Y-66639569D01*
X185135671Y-66564192D01*
X185135684Y-66564185D01*
X185299462Y-66454751D01*
X185299466Y-66454748D01*
X185438748Y-66315466D01*
X185438751Y-66315462D01*
X185548185Y-66151684D01*
X185551059Y-66146308D01*
X185552504Y-66147080D01*
X185591380Y-66098832D01*
X185657672Y-66076762D01*
X185725373Y-66094037D01*
X185772987Y-66145171D01*
X185786107Y-66200819D01*
X185783711Y-68380053D01*
X185763953Y-68447071D01*
X185711098Y-68492768D01*
X185641929Y-68502635D01*
X185578405Y-68473541D01*
X185550350Y-68438365D01*
X185548187Y-68434318D01*
X185438751Y-68270537D01*
X185438748Y-68270533D01*
X185299466Y-68131251D01*
X185299462Y-68131248D01*
X185135684Y-68021814D01*
X185135671Y-68021807D01*
X184953691Y-67946429D01*
X184953683Y-67946427D01*
X184912000Y-67938135D01*
X184912000Y-68741011D01*
X184902060Y-68723795D01*
X184846205Y-68667940D01*
X184777796Y-68628444D01*
X184701496Y-68608000D01*
X184622504Y-68608000D01*
X184546204Y-68628444D01*
X184477795Y-68667940D01*
X184421940Y-68723795D01*
X184412000Y-68741011D01*
X184412000Y-67938136D01*
X184411999Y-67938135D01*
X184370316Y-67946427D01*
X184370308Y-67946429D01*
X184188328Y-68021807D01*
X184188315Y-68021814D01*
X184024537Y-68131248D01*
X184024533Y-68131251D01*
X183885251Y-68270533D01*
X183885248Y-68270537D01*
X183775814Y-68434315D01*
X183775809Y-68434324D01*
X183771866Y-68443845D01*
X183728023Y-68498247D01*
X183661728Y-68520310D01*
X183594030Y-68503029D01*
X183588597Y-68499351D01*
X183454136Y-68421719D01*
X183380950Y-68402109D01*
X183307766Y-68382500D01*
X183156234Y-68382500D01*
X183009863Y-68421719D01*
X182878635Y-68497485D01*
X182878632Y-68497487D01*
X182771487Y-68604632D01*
X182771485Y-68604635D01*
X182695719Y-68735863D01*
X182656500Y-68882234D01*
X182656500Y-69033765D01*
X182695719Y-69180136D01*
X182714003Y-69211804D01*
X182771485Y-69311365D01*
X182878635Y-69418515D01*
X183009865Y-69494281D01*
X183156234Y-69533500D01*
X183156236Y-69533500D01*
X183307764Y-69533500D01*
X183307766Y-69533500D01*
X183454135Y-69494281D01*
X183585365Y-69418515D01*
X183692515Y-69311365D01*
X183716397Y-69269999D01*
X183766964Y-69221784D01*
X183823784Y-69208000D01*
X184362000Y-69208000D01*
X184362000Y-69708000D01*
X183662000Y-69708000D01*
X183662000Y-70106495D01*
X183700427Y-70299681D01*
X183700430Y-70299693D01*
X183775807Y-70481671D01*
X183775814Y-70481684D01*
X183885248Y-70645462D01*
X183885251Y-70645466D01*
X184024533Y-70784748D01*
X184024537Y-70784751D01*
X184188315Y-70894185D01*
X184188328Y-70894192D01*
X184370308Y-70969569D01*
X184412000Y-70977862D01*
X184412000Y-70174988D01*
X184421940Y-70192205D01*
X184477795Y-70248060D01*
X184546204Y-70287556D01*
X184622504Y-70308000D01*
X184701496Y-70308000D01*
X184777796Y-70287556D01*
X184846205Y-70248060D01*
X184902060Y-70192205D01*
X184912000Y-70174988D01*
X184912000Y-70977862D01*
X184953690Y-70969569D01*
X184953692Y-70969569D01*
X185135671Y-70894192D01*
X185135684Y-70894185D01*
X185299462Y-70784751D01*
X185299466Y-70784748D01*
X185438748Y-70645466D01*
X185438751Y-70645462D01*
X185551574Y-70476613D01*
X185552643Y-70477327D01*
X185596927Y-70432236D01*
X185665062Y-70416767D01*
X185730745Y-70440590D01*
X185773121Y-70496143D01*
X185781336Y-70540662D01*
X185742909Y-105496067D01*
X185723151Y-105563085D01*
X185670296Y-105608782D01*
X185601127Y-105618649D01*
X185537603Y-105589555D01*
X185513184Y-105560725D01*
X185418259Y-105405821D01*
X185259759Y-105220241D01*
X185137063Y-105115449D01*
X185074176Y-105061738D01*
X185074173Y-105061737D01*
X184866089Y-104934222D01*
X184640618Y-104840830D01*
X184640621Y-104840830D01*
X184489851Y-104804633D01*
X184403302Y-104783854D01*
X184403300Y-104783853D01*
X184403297Y-104783853D01*
X184160000Y-104764706D01*
X183916702Y-104783853D01*
X183679380Y-104840830D01*
X183453910Y-104934222D01*
X183245826Y-105061737D01*
X183245823Y-105061738D01*
X183060241Y-105220241D01*
X182901738Y-105405823D01*
X182901737Y-105405826D01*
X182774222Y-105613910D01*
X182680830Y-105839380D01*
X182623853Y-106076702D01*
X182604706Y-106320000D01*
X182623853Y-106563297D01*
X182623853Y-106563300D01*
X182623854Y-106563302D01*
X182642918Y-106642710D01*
X182680830Y-106800619D01*
X182774222Y-107026089D01*
X182901737Y-107234173D01*
X182901738Y-107234176D01*
X182940821Y-107279936D01*
X183060241Y-107419759D01*
X183172416Y-107515565D01*
X183245823Y-107578261D01*
X183245826Y-107578262D01*
X183453910Y-107705777D01*
X183679381Y-107799169D01*
X183679378Y-107799169D01*
X183679384Y-107799170D01*
X183679388Y-107799172D01*
X183916698Y-107856146D01*
X184160000Y-107875294D01*
X184403302Y-107856146D01*
X184640612Y-107799172D01*
X184866089Y-107705777D01*
X185074179Y-107578259D01*
X185259759Y-107419759D01*
X185418259Y-107234179D01*
X185511368Y-107082239D01*
X185563178Y-107035365D01*
X185632108Y-107023942D01*
X185696271Y-107051599D01*
X185735295Y-107109554D01*
X185741094Y-107147166D01*
X185738466Y-109537874D01*
X185718708Y-109604892D01*
X185665853Y-109650589D01*
X185596684Y-109660456D01*
X185533160Y-109631362D01*
X185526785Y-109625419D01*
X185428655Y-109527289D01*
X185428651Y-109527286D01*
X185279337Y-109435187D01*
X185279335Y-109435186D01*
X185194797Y-109407173D01*
X185112797Y-109380001D01*
X185112795Y-109380000D01*
X185010015Y-109369500D01*
X185010008Y-109369500D01*
X183309992Y-109369500D01*
X183309984Y-109369500D01*
X183207204Y-109380000D01*
X183207203Y-109380001D01*
X183040664Y-109435186D01*
X183040662Y-109435187D01*
X182891348Y-109527286D01*
X182891344Y-109527289D01*
X182767289Y-109651344D01*
X182767286Y-109651348D01*
X182675187Y-109800662D01*
X182675186Y-109800664D01*
X182620001Y-109967203D01*
X182620000Y-109967204D01*
X182609500Y-110069984D01*
X182609500Y-111770015D01*
X182620000Y-111872795D01*
X182620001Y-111872796D01*
X182675186Y-112039335D01*
X182675187Y-112039337D01*
X182767286Y-112188651D01*
X182767289Y-112188655D01*
X182891344Y-112312710D01*
X182891348Y-112312713D01*
X183040662Y-112404812D01*
X183040664Y-112404813D01*
X183040666Y-112404814D01*
X183207203Y-112459999D01*
X183309992Y-112470500D01*
X183309997Y-112470500D01*
X185010003Y-112470500D01*
X185010008Y-112470500D01*
X185112797Y-112459999D01*
X185279334Y-112404814D01*
X185428655Y-112312711D01*
X185523746Y-112217619D01*
X185585065Y-112184137D01*
X185654757Y-112189121D01*
X185710691Y-112230992D01*
X185735108Y-112296456D01*
X185735424Y-112305439D01*
X185730831Y-116483636D01*
X185711073Y-116550654D01*
X185658218Y-116596351D01*
X185606831Y-116607500D01*
X105804798Y-116607500D01*
X105737759Y-116587815D01*
X105692004Y-116535011D01*
X105680798Y-116483367D01*
X105687149Y-110706661D01*
X105706906Y-110639647D01*
X105759761Y-110593950D01*
X105828930Y-110584083D01*
X105892454Y-110613177D01*
X105916875Y-110642011D01*
X105991737Y-110764173D01*
X105991738Y-110764176D01*
X105991741Y-110764179D01*
X106150241Y-110949759D01*
X106293897Y-111072453D01*
X106335823Y-111108261D01*
X106335826Y-111108262D01*
X106543910Y-111235777D01*
X106769381Y-111329169D01*
X106769378Y-111329169D01*
X106769384Y-111329170D01*
X106769388Y-111329172D01*
X107006698Y-111386146D01*
X107250000Y-111405294D01*
X107493302Y-111386146D01*
X107730612Y-111329172D01*
X107956089Y-111235777D01*
X108164179Y-111108259D01*
X108349759Y-110949759D01*
X108508259Y-110764179D01*
X108635777Y-110556089D01*
X108729172Y-110330612D01*
X108786146Y-110093302D01*
X108805294Y-109850000D01*
X108786146Y-109606698D01*
X108729172Y-109369388D01*
X108635777Y-109143911D01*
X108635777Y-109143910D01*
X108508262Y-108935826D01*
X108508261Y-108935823D01*
X108472453Y-108893897D01*
X108349759Y-108750241D01*
X108227063Y-108645449D01*
X108164176Y-108591738D01*
X108164173Y-108591737D01*
X107956089Y-108464222D01*
X107730618Y-108370830D01*
X107730621Y-108370830D01*
X107551611Y-108327853D01*
X107493302Y-108313854D01*
X107493300Y-108313853D01*
X107493297Y-108313853D01*
X107250000Y-108294706D01*
X107006702Y-108313853D01*
X106769380Y-108370830D01*
X106543910Y-108464222D01*
X106335826Y-108591737D01*
X106335823Y-108591738D01*
X106150241Y-108750241D01*
X105991740Y-108935822D01*
X105918762Y-109054910D01*
X105866950Y-109101785D01*
X105798020Y-109113207D01*
X105733857Y-109085549D01*
X105694833Y-109027593D01*
X105689036Y-108989990D01*
X105691606Y-106652193D01*
X105711363Y-106585179D01*
X105764218Y-106539482D01*
X105833387Y-106529615D01*
X105896911Y-106558709D01*
X105903286Y-106564652D01*
X105981344Y-106642710D01*
X105981348Y-106642713D01*
X106130662Y-106734812D01*
X106130664Y-106734813D01*
X106130666Y-106734814D01*
X106297203Y-106789999D01*
X106399992Y-106800500D01*
X106399997Y-106800500D01*
X108100003Y-106800500D01*
X108100008Y-106800500D01*
X108202797Y-106789999D01*
X108369334Y-106734814D01*
X108518655Y-106642711D01*
X108642711Y-106518655D01*
X108734814Y-106369334D01*
X108789999Y-106202797D01*
X108800500Y-106100008D01*
X108800500Y-104399992D01*
X108789999Y-104297203D01*
X108734814Y-104130666D01*
X108726839Y-104117737D01*
X108642713Y-103981348D01*
X108642710Y-103981344D01*
X108518655Y-103857289D01*
X108518651Y-103857286D01*
X108369337Y-103765187D01*
X108369335Y-103765186D01*
X108286065Y-103737593D01*
X108202797Y-103710001D01*
X108202795Y-103710000D01*
X108100015Y-103699500D01*
X108100008Y-103699500D01*
X106399992Y-103699500D01*
X106399984Y-103699500D01*
X106297204Y-103710000D01*
X106297203Y-103710001D01*
X106130664Y-103765186D01*
X106130662Y-103765187D01*
X105981348Y-103857286D01*
X105906373Y-103932261D01*
X105845049Y-103965745D01*
X105775358Y-103960760D01*
X105719424Y-103918889D01*
X105695008Y-103853424D01*
X105694692Y-103844462D01*
X105698248Y-100609996D01*
X110854435Y-100609996D01*
X110854435Y-100610003D01*
X110874630Y-100789249D01*
X110874631Y-100789254D01*
X110934211Y-100959523D01*
X110991062Y-101050000D01*
X111030184Y-101112262D01*
X111157738Y-101239816D01*
X111165403Y-101244632D01*
X111276749Y-101314596D01*
X111310478Y-101335789D01*
X111448786Y-101384185D01*
X111480745Y-101395368D01*
X111480750Y-101395369D01*
X111659996Y-101415565D01*
X111660000Y-101415565D01*
X111660004Y-101415565D01*
X111839249Y-101395369D01*
X111839251Y-101395368D01*
X111839255Y-101395368D01*
X111839258Y-101395366D01*
X111839262Y-101395366D01*
X111907585Y-101371459D01*
X111948540Y-101364500D01*
X132019978Y-101364500D01*
X132087017Y-101384185D01*
X132132772Y-101436989D01*
X132142716Y-101506147D01*
X132113691Y-101569703D01*
X132107659Y-101576181D01*
X129387350Y-104296491D01*
X126689468Y-106994373D01*
X126689467Y-106994374D01*
X126591443Y-107092398D01*
X126591442Y-107092397D01*
X126591440Y-107092400D01*
X126591440Y-107092401D01*
X126584374Y-107099467D01*
X126584372Y-107099468D01*
X126539198Y-107144641D01*
X126492152Y-107191688D01*
X126492151Y-107191687D01*
X126383942Y-107299896D01*
X126328958Y-107382188D01*
X126328957Y-107382189D01*
X126301369Y-107423476D01*
X126277812Y-107480350D01*
X126244496Y-107560780D01*
X126244493Y-107560792D01*
X126225805Y-107654744D01*
X126225805Y-107654746D01*
X126215499Y-107706550D01*
X126215499Y-107861288D01*
X126215500Y-107861309D01*
X126215500Y-112435099D01*
X126195815Y-112502138D01*
X126162624Y-112536674D01*
X126098599Y-112581505D01*
X126098597Y-112581506D01*
X125931505Y-112748597D01*
X125801575Y-112934158D01*
X125746998Y-112977783D01*
X125677500Y-112984977D01*
X125615145Y-112953454D01*
X125598425Y-112934158D01*
X125468494Y-112748597D01*
X125347819Y-112627922D01*
X125314334Y-112566599D01*
X125311500Y-112540241D01*
X125311500Y-104296491D01*
X125331185Y-104229452D01*
X125347819Y-104208810D01*
X126044706Y-103511923D01*
X126141171Y-103367552D01*
X126141171Y-103367551D01*
X126141175Y-103367546D01*
X126207625Y-103207124D01*
X126241500Y-103036820D01*
X126241500Y-102863179D01*
X126207625Y-102692876D01*
X126154504Y-102564631D01*
X126141176Y-102532454D01*
X126044704Y-102388073D01*
X125921926Y-102265295D01*
X125777545Y-102168823D01*
X125617124Y-102102375D01*
X125617116Y-102102373D01*
X125446825Y-102068500D01*
X125446821Y-102068500D01*
X125273180Y-102068500D01*
X125273175Y-102068500D01*
X125102883Y-102102373D01*
X125102875Y-102102375D01*
X124942457Y-102168823D01*
X124942447Y-102168828D01*
X124798076Y-102265293D01*
X124798073Y-102265296D01*
X123745296Y-103318072D01*
X123745295Y-103318073D01*
X123648822Y-103462456D01*
X123582377Y-103622871D01*
X123582374Y-103622883D01*
X123550222Y-103784524D01*
X123550221Y-103784530D01*
X123548500Y-103793179D01*
X123548500Y-106410027D01*
X123528815Y-106477066D01*
X123476011Y-106522821D01*
X123406853Y-106532765D01*
X123343297Y-106503740D01*
X123307459Y-106450982D01*
X123275790Y-106360480D01*
X123179815Y-106207737D01*
X123052262Y-106080184D01*
X122899523Y-105984211D01*
X122729254Y-105924631D01*
X122729249Y-105924630D01*
X122550004Y-105904435D01*
X122549996Y-105904435D01*
X122370750Y-105924630D01*
X122370745Y-105924631D01*
X122200476Y-105984211D01*
X122074300Y-106063494D01*
X122008328Y-106082500D01*
X121861281Y-106082500D01*
X121794242Y-106062815D01*
X121773600Y-106046181D01*
X120605852Y-104878433D01*
X120572367Y-104817110D01*
X120570314Y-104804648D01*
X120565368Y-104760745D01*
X120505789Y-104590478D01*
X120505171Y-104589495D01*
X120442538Y-104489815D01*
X120409816Y-104437738D01*
X120282262Y-104310184D01*
X120129523Y-104214211D01*
X119959254Y-104154631D01*
X119959249Y-104154630D01*
X119780004Y-104134435D01*
X119779996Y-104134435D01*
X119600750Y-104154630D01*
X119600745Y-104154631D01*
X119430476Y-104214211D01*
X119277737Y-104310184D01*
X119150184Y-104437737D01*
X119054211Y-104590476D01*
X118994631Y-104760745D01*
X118994630Y-104760750D01*
X118974435Y-104939996D01*
X118974435Y-104940003D01*
X118994630Y-105119249D01*
X118994631Y-105119254D01*
X119054211Y-105289523D01*
X119127288Y-105405823D01*
X119150184Y-105442262D01*
X119277738Y-105569816D01*
X119430478Y-105665789D01*
X119600745Y-105725368D01*
X119644635Y-105730313D01*
X119709048Y-105757378D01*
X119718433Y-105765852D01*
X121062589Y-107110008D01*
X121144268Y-107191687D01*
X121149994Y-107197413D01*
X121149997Y-107197414D01*
X121252767Y-107266083D01*
X121286215Y-107279937D01*
X121366965Y-107313386D01*
X121488192Y-107337499D01*
X121488196Y-107337500D01*
X121488197Y-107337500D01*
X122008328Y-107337500D01*
X122074300Y-107356506D01*
X122180878Y-107423474D01*
X122200478Y-107435789D01*
X122327826Y-107480350D01*
X122370745Y-107495368D01*
X122370750Y-107495369D01*
X122549996Y-107515565D01*
X122550000Y-107515565D01*
X122550004Y-107515565D01*
X122729249Y-107495369D01*
X122729252Y-107495368D01*
X122729255Y-107495368D01*
X122899522Y-107435789D01*
X123052262Y-107339816D01*
X123179816Y-107212262D01*
X123275789Y-107059522D01*
X123307458Y-106969016D01*
X123348180Y-106912241D01*
X123413133Y-106886494D01*
X123481694Y-106899950D01*
X123532097Y-106948337D01*
X123548500Y-107009972D01*
X123548500Y-112540241D01*
X123528815Y-112607280D01*
X123512181Y-112627922D01*
X123391505Y-112748597D01*
X123255965Y-112942169D01*
X123255964Y-112942171D01*
X123156098Y-113156335D01*
X123156094Y-113156344D01*
X123094938Y-113384586D01*
X123094936Y-113384596D01*
X123074341Y-113619999D01*
X123074341Y-113620000D01*
X123094936Y-113855403D01*
X123094938Y-113855413D01*
X123156094Y-114083655D01*
X123156096Y-114083659D01*
X123156097Y-114083663D01*
X123236004Y-114255023D01*
X123255965Y-114297830D01*
X123255967Y-114297834D01*
X123298975Y-114359255D01*
X123391505Y-114491401D01*
X123558599Y-114658495D01*
X123649416Y-114722086D01*
X123752165Y-114794032D01*
X123752167Y-114794033D01*
X123752170Y-114794035D01*
X123966337Y-114893903D01*
X123966343Y-114893904D01*
X123966344Y-114893905D01*
X124010693Y-114905788D01*
X124194592Y-114955063D01*
X124371034Y-114970500D01*
X124429999Y-114975659D01*
X124430000Y-114975659D01*
X124430001Y-114975659D01*
X124488966Y-114970500D01*
X124665408Y-114955063D01*
X124893663Y-114893903D01*
X125107830Y-114794035D01*
X125301401Y-114658495D01*
X125468495Y-114491401D01*
X125598425Y-114305842D01*
X125653002Y-114262217D01*
X125722500Y-114255023D01*
X125784855Y-114286546D01*
X125801575Y-114305842D01*
X125931500Y-114491395D01*
X125931505Y-114491401D01*
X126098599Y-114658495D01*
X126189416Y-114722086D01*
X126292165Y-114794032D01*
X126292167Y-114794033D01*
X126292170Y-114794035D01*
X126506337Y-114893903D01*
X126506343Y-114893904D01*
X126506344Y-114893905D01*
X126550693Y-114905788D01*
X126734592Y-114955063D01*
X126911034Y-114970500D01*
X126969999Y-114975659D01*
X126970000Y-114975659D01*
X126970001Y-114975659D01*
X127028966Y-114970500D01*
X127205408Y-114955063D01*
X127433663Y-114893903D01*
X127647830Y-114794035D01*
X127841401Y-114658495D01*
X127963329Y-114536566D01*
X128024648Y-114503084D01*
X128094340Y-114508068D01*
X128150274Y-114549939D01*
X128167189Y-114580917D01*
X128216202Y-114712328D01*
X128216206Y-114712335D01*
X128302452Y-114827544D01*
X128302455Y-114827547D01*
X128417664Y-114913793D01*
X128417671Y-114913797D01*
X128552517Y-114964091D01*
X128552516Y-114964091D01*
X128559444Y-114964835D01*
X128612127Y-114970500D01*
X130407872Y-114970499D01*
X130467483Y-114964091D01*
X130602331Y-114913796D01*
X130717546Y-114827546D01*
X130803796Y-114712331D01*
X130854091Y-114577483D01*
X130860500Y-114517873D01*
X130860500Y-113629999D01*
X147379341Y-113629999D01*
X147379341Y-113630000D01*
X147399936Y-113865403D01*
X147399938Y-113865413D01*
X147461094Y-114093655D01*
X147461096Y-114093659D01*
X147461097Y-114093663D01*
X147501355Y-114179996D01*
X147560965Y-114307830D01*
X147560967Y-114307834D01*
X147596973Y-114359255D01*
X147696505Y-114501401D01*
X147863599Y-114668495D01*
X147926199Y-114712328D01*
X148057165Y-114804032D01*
X148057167Y-114804033D01*
X148057170Y-114804035D01*
X148271337Y-114903903D01*
X148271343Y-114903904D01*
X148271344Y-114903905D01*
X148308262Y-114913797D01*
X148499592Y-114965063D01*
X148670319Y-114980000D01*
X148734999Y-114985659D01*
X148735000Y-114985659D01*
X148735001Y-114985659D01*
X148799681Y-114980000D01*
X148970408Y-114965063D01*
X149198663Y-114903903D01*
X149412830Y-114804035D01*
X149606401Y-114668495D01*
X149728717Y-114546178D01*
X149790036Y-114512696D01*
X149859728Y-114517680D01*
X149915662Y-114559551D01*
X149932577Y-114590528D01*
X149981646Y-114722088D01*
X149981649Y-114722093D01*
X150067809Y-114837187D01*
X150067812Y-114837190D01*
X150182906Y-114923350D01*
X150182913Y-114923354D01*
X150317620Y-114973596D01*
X150317627Y-114973598D01*
X150377155Y-114979999D01*
X150377172Y-114980000D01*
X151025000Y-114980000D01*
X151025000Y-114063012D01*
X151082007Y-114095925D01*
X151209174Y-114130000D01*
X151340826Y-114130000D01*
X151467993Y-114095925D01*
X151525000Y-114063012D01*
X151525000Y-114980000D01*
X152172828Y-114980000D01*
X152172844Y-114979999D01*
X152232372Y-114973598D01*
X152232379Y-114973596D01*
X152367086Y-114923354D01*
X152367093Y-114923350D01*
X152482187Y-114837190D01*
X152482190Y-114837187D01*
X152568350Y-114722093D01*
X152568354Y-114722086D01*
X152618596Y-114587379D01*
X152618598Y-114587372D01*
X152624999Y-114527844D01*
X152625000Y-114527827D01*
X152625000Y-113880000D01*
X151708012Y-113880000D01*
X151740925Y-113822993D01*
X151775000Y-113695826D01*
X151775000Y-113564174D01*
X151740925Y-113437007D01*
X151708012Y-113380000D01*
X152625000Y-113380000D01*
X152625000Y-112732172D01*
X152624999Y-112732155D01*
X152618598Y-112672627D01*
X152618596Y-112672620D01*
X152568354Y-112537913D01*
X152568350Y-112537906D01*
X152482190Y-112422812D01*
X152482187Y-112422809D01*
X152367093Y-112336649D01*
X152367086Y-112336645D01*
X152232379Y-112286403D01*
X152232372Y-112286401D01*
X152172844Y-112280000D01*
X151525000Y-112280000D01*
X151525000Y-113196988D01*
X151467993Y-113164075D01*
X151340826Y-113130000D01*
X151209174Y-113130000D01*
X151082007Y-113164075D01*
X151025000Y-113196988D01*
X151025000Y-112280000D01*
X150377155Y-112280000D01*
X150317627Y-112286401D01*
X150317620Y-112286403D01*
X150182913Y-112336645D01*
X150182906Y-112336649D01*
X150067812Y-112422809D01*
X150067809Y-112422812D01*
X149981649Y-112537906D01*
X149981645Y-112537913D01*
X149932578Y-112669470D01*
X149890707Y-112725404D01*
X149825242Y-112749821D01*
X149756969Y-112734969D01*
X149728715Y-112713819D01*
X149673979Y-112659083D01*
X149606401Y-112591505D01*
X149606397Y-112591502D01*
X149606396Y-112591501D01*
X149412834Y-112455967D01*
X149412830Y-112455965D01*
X149341727Y-112422809D01*
X149198663Y-112356097D01*
X149198659Y-112356096D01*
X149198655Y-112356094D01*
X148970413Y-112294938D01*
X148970403Y-112294936D01*
X148735001Y-112274341D01*
X148734999Y-112274341D01*
X148499596Y-112294936D01*
X148499586Y-112294938D01*
X148271344Y-112356094D01*
X148271335Y-112356098D01*
X148057171Y-112455964D01*
X148057169Y-112455965D01*
X147863597Y-112591505D01*
X147696505Y-112758597D01*
X147560965Y-112952169D01*
X147560964Y-112952171D01*
X147461098Y-113166335D01*
X147461094Y-113166344D01*
X147399938Y-113394586D01*
X147399936Y-113394596D01*
X147379341Y-113629999D01*
X130860500Y-113629999D01*
X130860499Y-112722128D01*
X130854091Y-112662517D01*
X130852810Y-112659083D01*
X130803797Y-112527671D01*
X130803793Y-112527664D01*
X130717547Y-112412455D01*
X130717544Y-112412452D01*
X130602335Y-112326206D01*
X130602328Y-112326202D01*
X130467482Y-112275908D01*
X130467483Y-112275908D01*
X130407883Y-112269501D01*
X130407881Y-112269500D01*
X130407873Y-112269500D01*
X130407864Y-112269500D01*
X128612129Y-112269500D01*
X128612123Y-112269501D01*
X128552516Y-112275908D01*
X128417671Y-112326202D01*
X128417664Y-112326206D01*
X128302455Y-112412452D01*
X128302452Y-112412455D01*
X128216206Y-112527664D01*
X128216203Y-112527669D01*
X128167189Y-112659083D01*
X128125317Y-112715016D01*
X128059853Y-112739433D01*
X127991580Y-112724581D01*
X127963326Y-112703430D01*
X127841404Y-112581508D01*
X127841402Y-112581506D01*
X127841401Y-112581505D01*
X127841396Y-112581501D01*
X127841393Y-112581499D01*
X127777376Y-112536673D01*
X127733751Y-112482096D01*
X127724500Y-112435099D01*
X127724500Y-109500886D01*
X127744185Y-109433847D01*
X127796989Y-109388092D01*
X127866147Y-109378148D01*
X127929703Y-109407173D01*
X127936181Y-109413205D01*
X128223600Y-109700624D01*
X128223621Y-109700647D01*
X128333031Y-109810057D01*
X128333034Y-109810059D01*
X128392811Y-109850000D01*
X128456611Y-109892630D01*
X128498231Y-109909869D01*
X128498232Y-109909870D01*
X128498233Y-109909870D01*
X128593920Y-109949505D01*
X128613828Y-109953465D01*
X128739686Y-109978501D01*
X128739688Y-109978501D01*
X128894426Y-109978501D01*
X128894446Y-109978500D01*
X155502113Y-109978500D01*
X155569152Y-109998185D01*
X155589794Y-110014819D01*
X160231600Y-114656624D01*
X160231621Y-114656647D01*
X160341031Y-114766057D01*
X160341034Y-114766059D01*
X160397870Y-114804035D01*
X160464610Y-114848629D01*
X160601920Y-114905505D01*
X160747683Y-114934499D01*
X160747687Y-114934500D01*
X160747688Y-114934500D01*
X160896312Y-114934500D01*
X175921460Y-114934500D01*
X175962415Y-114941459D01*
X176030737Y-114965366D01*
X176030743Y-114965367D01*
X176030745Y-114965368D01*
X176030746Y-114965368D01*
X176030750Y-114965369D01*
X176209996Y-114985565D01*
X176210000Y-114985565D01*
X176210004Y-114985565D01*
X176389249Y-114965369D01*
X176389252Y-114965368D01*
X176389255Y-114965368D01*
X176559522Y-114905789D01*
X176712262Y-114809816D01*
X176839816Y-114682262D01*
X176935789Y-114529522D01*
X176995368Y-114359255D01*
X177001386Y-114305842D01*
X177015565Y-114180003D01*
X177015565Y-114179996D01*
X176995369Y-114000750D01*
X176995368Y-114000745D01*
X176948013Y-113865413D01*
X176935789Y-113830478D01*
X176839816Y-113677738D01*
X176712262Y-113550184D01*
X176559523Y-113454211D01*
X176389254Y-113394631D01*
X176389249Y-113394630D01*
X176210004Y-113374435D01*
X176209996Y-113374435D01*
X176030750Y-113394630D01*
X176030737Y-113394633D01*
X175962415Y-113418541D01*
X175921460Y-113425500D01*
X161185886Y-113425500D01*
X161118847Y-113405815D01*
X161098205Y-113389181D01*
X157020704Y-109311680D01*
X156987219Y-109250357D01*
X156992203Y-109180665D01*
X157020700Y-109136323D01*
X161548639Y-104608383D01*
X161574130Y-104590301D01*
X161573624Y-104589495D01*
X161579522Y-104585789D01*
X161732262Y-104489816D01*
X161859816Y-104362262D01*
X161955789Y-104209522D01*
X162015368Y-104039255D01*
X162015369Y-104039249D01*
X162035565Y-103860003D01*
X162035565Y-103859996D01*
X162015369Y-103680750D01*
X162015368Y-103680745D01*
X161995117Y-103622871D01*
X161955789Y-103510478D01*
X161859816Y-103357738D01*
X161732262Y-103230184D01*
X161695550Y-103207116D01*
X161579523Y-103134211D01*
X161409254Y-103074631D01*
X161409249Y-103074630D01*
X161230004Y-103054435D01*
X161229996Y-103054435D01*
X161050750Y-103074630D01*
X161050745Y-103074631D01*
X160880476Y-103134211D01*
X160727737Y-103230184D01*
X160600184Y-103357737D01*
X160500507Y-103516373D01*
X160499705Y-103515869D01*
X160481615Y-103541359D01*
X155589794Y-108433181D01*
X155528471Y-108466666D01*
X155502113Y-108469500D01*
X150646113Y-108469500D01*
X150579074Y-108449815D01*
X150533319Y-108397011D01*
X150523375Y-108327853D01*
X150541120Y-108279527D01*
X150595788Y-108192524D01*
X150655368Y-108022254D01*
X150655369Y-108022249D01*
X150675565Y-107843003D01*
X150675565Y-107842996D01*
X150655369Y-107663750D01*
X150655368Y-107663745D01*
X150652218Y-107654744D01*
X150595789Y-107493478D01*
X150499816Y-107340738D01*
X150372262Y-107213184D01*
X150347163Y-107197413D01*
X150219521Y-107117210D01*
X150049249Y-107057630D01*
X150005361Y-107052685D01*
X149940947Y-107025617D01*
X149931565Y-107017146D01*
X145777013Y-102862593D01*
X145777009Y-102862590D01*
X145777008Y-102862589D01*
X145749042Y-102843903D01*
X145749040Y-102843901D01*
X145674239Y-102793920D01*
X145674226Y-102793913D01*
X145640785Y-102780062D01*
X145560035Y-102746614D01*
X145560027Y-102746612D01*
X145438807Y-102722500D01*
X145438803Y-102722500D01*
X140361672Y-102722500D01*
X140295700Y-102703494D01*
X140169523Y-102624211D01*
X139999254Y-102564631D01*
X139999249Y-102564630D01*
X139820004Y-102544435D01*
X139819996Y-102544435D01*
X139640750Y-102564630D01*
X139640745Y-102564631D01*
X139470476Y-102624211D01*
X139317737Y-102720184D01*
X139190184Y-102847737D01*
X139094211Y-103000476D01*
X139034631Y-103170745D01*
X139034630Y-103170750D01*
X139014435Y-103349996D01*
X139014435Y-103350003D01*
X139034630Y-103529249D01*
X139034631Y-103529254D01*
X139094211Y-103699523D01*
X139190184Y-103852262D01*
X139225241Y-103887319D01*
X139258726Y-103948642D01*
X139253742Y-104018334D01*
X139225241Y-104062681D01*
X139170184Y-104117737D01*
X139074211Y-104270476D01*
X139014631Y-104440745D01*
X139014630Y-104440750D01*
X138994435Y-104619996D01*
X138994435Y-104620003D01*
X139014630Y-104799249D01*
X139014631Y-104799254D01*
X139074211Y-104969523D01*
X139132154Y-105061738D01*
X139170184Y-105122262D01*
X139297738Y-105249816D01*
X139450478Y-105345789D01*
X139620745Y-105405368D01*
X139620750Y-105405369D01*
X139799996Y-105425565D01*
X139800000Y-105425565D01*
X139800004Y-105425565D01*
X139979249Y-105405369D01*
X139979252Y-105405368D01*
X139979255Y-105405368D01*
X140149522Y-105345789D01*
X140275700Y-105266505D01*
X140341672Y-105247500D01*
X144728719Y-105247500D01*
X144795758Y-105267185D01*
X144816400Y-105283819D01*
X147790400Y-108257819D01*
X147823885Y-108319142D01*
X147818901Y-108388834D01*
X147777029Y-108444767D01*
X147711565Y-108469184D01*
X147702719Y-108469500D01*
X129177886Y-108469500D01*
X129110847Y-108449815D01*
X129090205Y-108433181D01*
X128325137Y-107668113D01*
X128291652Y-107606790D01*
X128296636Y-107537098D01*
X128325133Y-107492756D01*
X133787892Y-102029996D01*
X147764435Y-102029996D01*
X147764435Y-102030003D01*
X147784630Y-102209249D01*
X147784631Y-102209254D01*
X147844211Y-102379523D01*
X147924549Y-102507379D01*
X147940184Y-102532262D01*
X148067738Y-102659816D01*
X148071351Y-102662086D01*
X148201771Y-102744035D01*
X148220478Y-102755789D01*
X148329430Y-102793913D01*
X148390745Y-102815368D01*
X148390750Y-102815369D01*
X148569996Y-102835565D01*
X148570000Y-102835565D01*
X148570004Y-102835565D01*
X148749249Y-102815369D01*
X148749252Y-102815368D01*
X148749255Y-102815368D01*
X148919522Y-102755789D01*
X149072262Y-102659816D01*
X149199816Y-102532262D01*
X149295789Y-102379522D01*
X149355368Y-102209255D01*
X149360313Y-102165361D01*
X149387378Y-102100951D01*
X149395832Y-102091585D01*
X149857411Y-101630008D01*
X149857422Y-101629992D01*
X149926083Y-101527233D01*
X149949185Y-101471459D01*
X149973386Y-101413034D01*
X149997500Y-101291803D01*
X149997500Y-101168197D01*
X149997500Y-100672155D01*
X164355000Y-100672155D01*
X164355000Y-101320000D01*
X165271988Y-101320000D01*
X165239075Y-101377007D01*
X165205000Y-101504174D01*
X165205000Y-101635826D01*
X165239075Y-101762993D01*
X165271988Y-101820000D01*
X164355000Y-101820000D01*
X164355000Y-102467844D01*
X164361401Y-102527372D01*
X164361403Y-102527379D01*
X164411645Y-102662086D01*
X164411649Y-102662093D01*
X164497809Y-102777187D01*
X164497812Y-102777190D01*
X164612906Y-102863350D01*
X164612913Y-102863354D01*
X164747620Y-102913596D01*
X164747627Y-102913598D01*
X164807155Y-102919999D01*
X164807172Y-102920000D01*
X165455000Y-102920000D01*
X165455000Y-102003012D01*
X165512007Y-102035925D01*
X165639174Y-102070000D01*
X165770826Y-102070000D01*
X165897993Y-102035925D01*
X165955000Y-102003012D01*
X165955000Y-102920000D01*
X166602828Y-102920000D01*
X166602844Y-102919999D01*
X166662372Y-102913598D01*
X166662379Y-102913596D01*
X166797086Y-102863354D01*
X166797093Y-102863350D01*
X166912187Y-102777190D01*
X166912190Y-102777187D01*
X166998350Y-102662093D01*
X166998354Y-102662086D01*
X167047422Y-102530529D01*
X167089293Y-102474595D01*
X167154757Y-102450178D01*
X167223030Y-102465030D01*
X167251285Y-102486181D01*
X167373599Y-102608495D01*
X167446893Y-102659816D01*
X167567165Y-102744032D01*
X167567167Y-102744033D01*
X167567170Y-102744035D01*
X167781337Y-102843903D01*
X167781343Y-102843904D01*
X167781344Y-102843905D01*
X167836285Y-102858626D01*
X168009592Y-102905063D01*
X168180319Y-102920000D01*
X168244999Y-102925659D01*
X168245000Y-102925659D01*
X168245001Y-102925659D01*
X168309681Y-102920000D01*
X168480408Y-102905063D01*
X168708663Y-102843903D01*
X168922830Y-102744035D01*
X169116401Y-102608495D01*
X169283495Y-102441401D01*
X169419035Y-102247830D01*
X169518903Y-102033663D01*
X169580063Y-101805408D01*
X169600659Y-101570000D01*
X169580063Y-101334592D01*
X169518903Y-101106337D01*
X169419035Y-100892171D01*
X169412932Y-100883454D01*
X169283494Y-100698597D01*
X169237052Y-100652155D01*
X174890000Y-100652155D01*
X174890000Y-101300000D01*
X175806988Y-101300000D01*
X175774075Y-101357007D01*
X175740000Y-101484174D01*
X175740000Y-101615826D01*
X175774075Y-101742993D01*
X175806988Y-101800000D01*
X174890000Y-101800000D01*
X174890000Y-102447844D01*
X174896401Y-102507372D01*
X174896403Y-102507379D01*
X174946645Y-102642086D01*
X174946649Y-102642093D01*
X175032809Y-102757187D01*
X175032812Y-102757190D01*
X175147906Y-102843350D01*
X175147913Y-102843354D01*
X175282620Y-102893596D01*
X175282627Y-102893598D01*
X175342155Y-102899999D01*
X175342172Y-102900000D01*
X175990000Y-102900000D01*
X175990000Y-101983012D01*
X176047007Y-102015925D01*
X176174174Y-102050000D01*
X176305826Y-102050000D01*
X176432993Y-102015925D01*
X176490000Y-101983012D01*
X176490000Y-102900000D01*
X177137828Y-102900000D01*
X177137844Y-102899999D01*
X177197372Y-102893598D01*
X177197379Y-102893596D01*
X177332086Y-102843354D01*
X177332093Y-102843350D01*
X177447187Y-102757190D01*
X177447190Y-102757187D01*
X177533350Y-102642093D01*
X177533354Y-102642086D01*
X177582422Y-102510529D01*
X177624293Y-102454595D01*
X177689757Y-102430178D01*
X177758030Y-102445030D01*
X177786285Y-102466181D01*
X177908599Y-102588495D01*
X177959607Y-102624211D01*
X178102165Y-102724032D01*
X178102167Y-102724033D01*
X178102170Y-102724035D01*
X178316337Y-102823903D01*
X178544592Y-102885063D01*
X178715319Y-102900000D01*
X178779999Y-102905659D01*
X178780000Y-102905659D01*
X178780001Y-102905659D01*
X178844681Y-102900000D01*
X179015408Y-102885063D01*
X179243663Y-102823903D01*
X179457830Y-102724035D01*
X179651401Y-102588495D01*
X179818495Y-102421401D01*
X179948425Y-102235842D01*
X180003002Y-102192217D01*
X180072500Y-102185023D01*
X180134855Y-102216546D01*
X180151575Y-102235842D01*
X180281500Y-102421395D01*
X180281505Y-102421401D01*
X180448599Y-102588495D01*
X180499607Y-102624211D01*
X180642165Y-102724032D01*
X180642167Y-102724033D01*
X180642170Y-102724035D01*
X180856337Y-102823903D01*
X181084592Y-102885063D01*
X181255319Y-102900000D01*
X181319999Y-102905659D01*
X181320000Y-102905659D01*
X181320001Y-102905659D01*
X181384681Y-102900000D01*
X181555408Y-102885063D01*
X181783663Y-102823903D01*
X181997830Y-102724035D01*
X182191401Y-102588495D01*
X182358495Y-102421401D01*
X182488425Y-102235842D01*
X182543002Y-102192217D01*
X182612500Y-102185023D01*
X182674855Y-102216546D01*
X182691575Y-102235842D01*
X182821500Y-102421395D01*
X182821505Y-102421401D01*
X182988599Y-102588495D01*
X183039607Y-102624211D01*
X183182165Y-102724032D01*
X183182167Y-102724033D01*
X183182170Y-102724035D01*
X183396337Y-102823903D01*
X183624592Y-102885063D01*
X183795319Y-102900000D01*
X183859999Y-102905659D01*
X183860000Y-102905659D01*
X183860001Y-102905659D01*
X183924681Y-102900000D01*
X184095408Y-102885063D01*
X184323663Y-102823903D01*
X184537830Y-102724035D01*
X184731401Y-102588495D01*
X184898495Y-102421401D01*
X185034035Y-102227830D01*
X185133903Y-102013663D01*
X185195063Y-101785408D01*
X185215659Y-101550000D01*
X185195063Y-101314592D01*
X185148626Y-101141285D01*
X185133905Y-101086344D01*
X185133904Y-101086343D01*
X185133903Y-101086337D01*
X185034035Y-100872171D01*
X185028425Y-100864158D01*
X184898494Y-100678597D01*
X184731402Y-100511506D01*
X184731395Y-100511501D01*
X184537834Y-100375967D01*
X184537830Y-100375965D01*
X184466727Y-100342809D01*
X184323663Y-100276097D01*
X184323659Y-100276096D01*
X184323655Y-100276094D01*
X184095413Y-100214938D01*
X184095403Y-100214936D01*
X183860001Y-100194341D01*
X183859999Y-100194341D01*
X183624596Y-100214936D01*
X183624586Y-100214938D01*
X183396344Y-100276094D01*
X183396335Y-100276098D01*
X183182171Y-100375964D01*
X183182169Y-100375965D01*
X182988597Y-100511505D01*
X182821505Y-100678597D01*
X182691575Y-100864158D01*
X182636998Y-100907783D01*
X182567500Y-100914977D01*
X182505145Y-100883454D01*
X182488425Y-100864158D01*
X182358494Y-100678597D01*
X182191402Y-100511506D01*
X182191395Y-100511501D01*
X181997834Y-100375967D01*
X181997830Y-100375965D01*
X181926727Y-100342809D01*
X181783663Y-100276097D01*
X181783659Y-100276096D01*
X181783655Y-100276094D01*
X181555413Y-100214938D01*
X181555403Y-100214936D01*
X181320001Y-100194341D01*
X181319999Y-100194341D01*
X181084596Y-100214936D01*
X181084586Y-100214938D01*
X180856344Y-100276094D01*
X180856335Y-100276098D01*
X180642171Y-100375964D01*
X180642169Y-100375965D01*
X180448597Y-100511505D01*
X180281505Y-100678597D01*
X180151575Y-100864158D01*
X180096998Y-100907783D01*
X180027500Y-100914977D01*
X179965145Y-100883454D01*
X179948425Y-100864158D01*
X179818494Y-100678597D01*
X179651402Y-100511506D01*
X179651395Y-100511501D01*
X179457834Y-100375967D01*
X179457830Y-100375965D01*
X179386727Y-100342809D01*
X179243663Y-100276097D01*
X179243659Y-100276096D01*
X179243655Y-100276094D01*
X179015413Y-100214938D01*
X179015403Y-100214936D01*
X178780001Y-100194341D01*
X178779999Y-100194341D01*
X178544596Y-100214936D01*
X178544586Y-100214938D01*
X178316344Y-100276094D01*
X178316335Y-100276098D01*
X178102171Y-100375964D01*
X178102169Y-100375965D01*
X177908600Y-100511503D01*
X177786284Y-100633819D01*
X177724961Y-100667303D01*
X177655269Y-100662319D01*
X177599336Y-100620447D01*
X177582421Y-100589470D01*
X177533354Y-100457913D01*
X177533350Y-100457906D01*
X177447190Y-100342812D01*
X177447187Y-100342809D01*
X177332093Y-100256649D01*
X177332086Y-100256645D01*
X177197379Y-100206403D01*
X177197372Y-100206401D01*
X177137844Y-100200000D01*
X176490000Y-100200000D01*
X176490000Y-101116988D01*
X176432993Y-101084075D01*
X176305826Y-101050000D01*
X176174174Y-101050000D01*
X176047007Y-101084075D01*
X175990000Y-101116988D01*
X175990000Y-100200000D01*
X175342155Y-100200000D01*
X175282627Y-100206401D01*
X175282620Y-100206403D01*
X175147913Y-100256645D01*
X175147906Y-100256649D01*
X175032812Y-100342809D01*
X175032809Y-100342812D01*
X174946649Y-100457906D01*
X174946645Y-100457913D01*
X174896403Y-100592620D01*
X174896401Y-100592627D01*
X174890000Y-100652155D01*
X169237052Y-100652155D01*
X169116402Y-100531506D01*
X169116395Y-100531501D01*
X168922834Y-100395967D01*
X168922830Y-100395965D01*
X168808843Y-100342812D01*
X168708663Y-100296097D01*
X168708659Y-100296096D01*
X168708655Y-100296094D01*
X168480413Y-100234938D01*
X168480403Y-100234936D01*
X168245001Y-100214341D01*
X168244999Y-100214341D01*
X168009596Y-100234936D01*
X168009586Y-100234938D01*
X167781344Y-100296094D01*
X167781335Y-100296098D01*
X167567171Y-100395964D01*
X167567169Y-100395965D01*
X167373600Y-100531503D01*
X167251284Y-100653819D01*
X167189961Y-100687303D01*
X167120269Y-100682319D01*
X167064336Y-100640447D01*
X167047421Y-100609470D01*
X166998354Y-100477913D01*
X166998350Y-100477906D01*
X166912190Y-100362812D01*
X166912187Y-100362809D01*
X166797093Y-100276649D01*
X166797086Y-100276645D01*
X166662379Y-100226403D01*
X166662372Y-100226401D01*
X166602844Y-100220000D01*
X165955000Y-100220000D01*
X165955000Y-101136988D01*
X165897993Y-101104075D01*
X165770826Y-101070000D01*
X165639174Y-101070000D01*
X165512007Y-101104075D01*
X165455000Y-101136988D01*
X165455000Y-100220000D01*
X164807155Y-100220000D01*
X164747627Y-100226401D01*
X164747620Y-100226403D01*
X164612913Y-100276645D01*
X164612906Y-100276649D01*
X164497812Y-100362809D01*
X164497809Y-100362812D01*
X164411649Y-100477906D01*
X164411645Y-100477913D01*
X164361403Y-100612620D01*
X164361401Y-100612627D01*
X164355000Y-100672155D01*
X149997500Y-100672155D01*
X149997500Y-96881671D01*
X150016507Y-96815698D01*
X150095788Y-96689524D01*
X150118455Y-96624745D01*
X150155368Y-96519255D01*
X150175565Y-96340000D01*
X150175030Y-96335255D01*
X150155369Y-96160750D01*
X150155368Y-96160745D01*
X150151782Y-96150498D01*
X150095789Y-95990478D01*
X149999816Y-95837738D01*
X149872262Y-95710184D01*
X149810541Y-95671402D01*
X149719523Y-95614211D01*
X149549254Y-95554631D01*
X149549249Y-95554630D01*
X149370004Y-95534435D01*
X149369996Y-95534435D01*
X149190750Y-95554630D01*
X149190745Y-95554631D01*
X149020476Y-95614211D01*
X148867737Y-95710184D01*
X148740184Y-95837737D01*
X148644211Y-95990476D01*
X148584631Y-96160745D01*
X148584630Y-96160750D01*
X148564435Y-96339996D01*
X148564435Y-96340003D01*
X148584630Y-96519249D01*
X148584631Y-96519254D01*
X148644211Y-96689524D01*
X148723493Y-96815698D01*
X148742500Y-96881671D01*
X148742500Y-100918718D01*
X148722815Y-100985757D01*
X148706181Y-101006399D01*
X148508432Y-101204147D01*
X148447109Y-101237632D01*
X148434637Y-101239686D01*
X148390745Y-101244632D01*
X148220478Y-101304210D01*
X148067737Y-101400184D01*
X147940184Y-101527737D01*
X147844211Y-101680476D01*
X147784631Y-101850745D01*
X147784630Y-101850750D01*
X147764435Y-102029996D01*
X133787892Y-102029996D01*
X134616450Y-101201438D01*
X134616468Y-101201423D01*
X134925722Y-100892169D01*
X135869077Y-99948812D01*
X135894563Y-99930732D01*
X135894057Y-99929926D01*
X135899952Y-99926221D01*
X135899954Y-99926221D01*
X136052694Y-99830248D01*
X136180248Y-99702694D01*
X136276221Y-99549954D01*
X136276221Y-99549952D01*
X136279926Y-99544057D01*
X136280732Y-99544563D01*
X136298812Y-99519077D01*
X137476189Y-98341699D01*
X137476194Y-98341696D01*
X137486397Y-98331492D01*
X137486399Y-98331492D01*
X139772554Y-96045334D01*
X139833877Y-96011850D01*
X139903569Y-96016834D01*
X139947916Y-96045335D01*
X141972589Y-98070008D01*
X142059992Y-98157411D01*
X142059993Y-98157412D01*
X142162760Y-98226079D01*
X142162773Y-98226086D01*
X142276960Y-98273383D01*
X142276965Y-98273385D01*
X142276969Y-98273385D01*
X142276970Y-98273386D01*
X142398194Y-98297500D01*
X142398197Y-98297500D01*
X144968328Y-98297500D01*
X145034300Y-98316506D01*
X145074389Y-98341696D01*
X145160478Y-98395789D01*
X145321251Y-98452046D01*
X145330745Y-98455368D01*
X145330750Y-98455369D01*
X145509996Y-98475565D01*
X145510000Y-98475565D01*
X145510004Y-98475565D01*
X145689249Y-98455369D01*
X145689252Y-98455368D01*
X145689255Y-98455368D01*
X145859522Y-98395789D01*
X146012262Y-98299816D01*
X146139816Y-98172262D01*
X146235789Y-98019522D01*
X146295368Y-97849255D01*
X146315565Y-97670000D01*
X146296344Y-97499408D01*
X146295369Y-97490750D01*
X146295368Y-97490745D01*
X146235789Y-97320478D01*
X146234880Y-97319032D01*
X146139815Y-97167737D01*
X146012262Y-97040184D01*
X145859523Y-96944211D01*
X145689254Y-96884631D01*
X145689249Y-96884630D01*
X145510004Y-96864435D01*
X145509996Y-96864435D01*
X145330750Y-96884630D01*
X145330745Y-96884631D01*
X145160476Y-96944211D01*
X145034300Y-97023494D01*
X144968328Y-97042500D01*
X142771281Y-97042500D01*
X142704242Y-97022815D01*
X142683600Y-97006181D01*
X140835335Y-95157916D01*
X140801850Y-95096593D01*
X140806834Y-95026901D01*
X140835335Y-94982554D01*
X141017890Y-94799999D01*
X142089341Y-94799999D01*
X142089341Y-94800000D01*
X142109936Y-95035403D01*
X142109938Y-95035413D01*
X142171094Y-95263655D01*
X142171096Y-95263659D01*
X142171097Y-95263663D01*
X142187415Y-95298656D01*
X142270965Y-95477830D01*
X142270967Y-95477834D01*
X142342855Y-95580500D01*
X142406505Y-95671401D01*
X142573599Y-95838495D01*
X142666400Y-95903475D01*
X142767165Y-95974032D01*
X142767167Y-95974033D01*
X142767170Y-95974035D01*
X142981337Y-96073903D01*
X143209592Y-96135063D01*
X143386034Y-96150500D01*
X143444999Y-96155659D01*
X143445000Y-96155659D01*
X143445001Y-96155659D01*
X143503966Y-96150500D01*
X143680408Y-96135063D01*
X143908663Y-96073903D01*
X144122830Y-95974035D01*
X144316401Y-95838495D01*
X144438329Y-95716566D01*
X144499648Y-95683084D01*
X144569340Y-95688068D01*
X144625274Y-95729939D01*
X144642189Y-95760917D01*
X144691202Y-95892328D01*
X144691206Y-95892335D01*
X144777452Y-96007544D01*
X144777455Y-96007547D01*
X144892664Y-96093793D01*
X144892671Y-96093797D01*
X145027517Y-96144091D01*
X145027516Y-96144091D01*
X145034444Y-96144835D01*
X145087127Y-96150500D01*
X146882872Y-96150499D01*
X146942483Y-96144091D01*
X147077331Y-96093796D01*
X147192546Y-96007546D01*
X147278796Y-95892331D01*
X147329091Y-95757483D01*
X147335500Y-95697873D01*
X147335499Y-93902128D01*
X147329091Y-93842517D01*
X147327810Y-93839083D01*
X147278797Y-93707671D01*
X147278793Y-93707664D01*
X147192547Y-93592455D01*
X147192544Y-93592452D01*
X147077335Y-93506206D01*
X147077328Y-93506202D01*
X146942482Y-93455908D01*
X146942483Y-93455908D01*
X146882883Y-93449501D01*
X146882881Y-93449500D01*
X146882873Y-93449500D01*
X146882864Y-93449500D01*
X145087129Y-93449500D01*
X145087123Y-93449501D01*
X145027516Y-93455908D01*
X144892671Y-93506202D01*
X144892664Y-93506206D01*
X144777455Y-93592452D01*
X144777452Y-93592455D01*
X144691206Y-93707664D01*
X144691203Y-93707669D01*
X144642189Y-93839083D01*
X144600317Y-93895016D01*
X144534853Y-93919433D01*
X144466580Y-93904581D01*
X144438326Y-93883430D01*
X144316402Y-93761506D01*
X144316395Y-93761501D01*
X144313187Y-93759255D01*
X144239518Y-93707671D01*
X144122834Y-93625967D01*
X144122830Y-93625965D01*
X144122828Y-93625964D01*
X143908663Y-93526097D01*
X143908659Y-93526096D01*
X143908655Y-93526094D01*
X143680413Y-93464938D01*
X143680403Y-93464936D01*
X143445001Y-93444341D01*
X143444999Y-93444341D01*
X143209596Y-93464936D01*
X143209586Y-93464938D01*
X142981344Y-93526094D01*
X142981335Y-93526098D01*
X142767171Y-93625964D01*
X142767169Y-93625965D01*
X142573597Y-93761505D01*
X142406505Y-93928597D01*
X142270965Y-94122169D01*
X142270964Y-94122171D01*
X142171098Y-94336335D01*
X142171094Y-94336344D01*
X142109938Y-94564586D01*
X142109936Y-94564596D01*
X142089341Y-94799999D01*
X141017890Y-94799999D01*
X142058640Y-93759249D01*
X143292193Y-92525695D01*
X143317684Y-92507613D01*
X143317178Y-92506807D01*
X143323076Y-92503101D01*
X143475816Y-92407128D01*
X143603370Y-92279574D01*
X143699343Y-92126834D01*
X143699343Y-92126832D01*
X143703048Y-92120937D01*
X143703853Y-92121443D01*
X143721936Y-92095953D01*
X146924072Y-88893816D01*
X146949563Y-88875734D01*
X146949057Y-88874928D01*
X146954955Y-88871222D01*
X147107695Y-88775249D01*
X147235249Y-88647695D01*
X147331222Y-88494955D01*
X147331222Y-88494953D01*
X147334927Y-88489058D01*
X147335732Y-88489564D01*
X147353815Y-88464074D01*
X148044072Y-87773816D01*
X148069563Y-87755734D01*
X148069057Y-87754928D01*
X148074955Y-87751222D01*
X148227695Y-87655249D01*
X148355249Y-87527695D01*
X148451222Y-87374955D01*
X148451222Y-87374953D01*
X148454927Y-87369058D01*
X148455732Y-87369564D01*
X148473815Y-87344074D01*
X157021412Y-78796475D01*
X157082733Y-78762992D01*
X157152425Y-78767976D01*
X157208358Y-78809848D01*
X157221473Y-78831752D01*
X157235966Y-78862832D01*
X157277451Y-78922078D01*
X157371501Y-79056396D01*
X157371506Y-79056402D01*
X157493430Y-79178326D01*
X157526915Y-79239649D01*
X157521931Y-79309341D01*
X157480059Y-79365274D01*
X157449083Y-79382189D01*
X157317669Y-79431203D01*
X157317664Y-79431206D01*
X157202455Y-79517452D01*
X157202452Y-79517455D01*
X157116206Y-79632664D01*
X157116202Y-79632671D01*
X157065908Y-79767517D01*
X157061361Y-79809815D01*
X157059501Y-79827123D01*
X157059500Y-79827135D01*
X157059500Y-81622870D01*
X157059501Y-81622876D01*
X157065908Y-81682483D01*
X157116202Y-81817328D01*
X157116206Y-81817335D01*
X157202452Y-81932544D01*
X157202455Y-81932547D01*
X157317664Y-82018793D01*
X157317671Y-82018797D01*
X157452517Y-82069091D01*
X157452516Y-82069091D01*
X157459444Y-82069835D01*
X157512127Y-82075500D01*
X159307872Y-82075499D01*
X159367483Y-82069091D01*
X159502331Y-82018796D01*
X159617546Y-81932546D01*
X159703796Y-81817331D01*
X159754091Y-81682483D01*
X159760500Y-81622873D01*
X159760499Y-79827128D01*
X159754091Y-79767517D01*
X159703796Y-79632669D01*
X159703795Y-79632668D01*
X159703793Y-79632664D01*
X159617547Y-79517455D01*
X159617544Y-79517452D01*
X159502335Y-79431206D01*
X159502328Y-79431202D01*
X159370917Y-79382189D01*
X159314983Y-79340318D01*
X159290566Y-79274853D01*
X159305418Y-79206580D01*
X159326563Y-79178332D01*
X159448495Y-79056401D01*
X159584035Y-78862830D01*
X159683903Y-78648663D01*
X159745063Y-78420408D01*
X159765659Y-78185000D01*
X159745063Y-77949592D01*
X159683903Y-77721337D01*
X159584035Y-77507171D01*
X159448495Y-77313599D01*
X159448494Y-77313597D01*
X159281402Y-77146506D01*
X159281401Y-77146505D01*
X159243654Y-77120074D01*
X159200030Y-77065497D01*
X159192838Y-76995999D01*
X159224360Y-76933644D01*
X159284590Y-76898231D01*
X159314779Y-76894500D01*
X164389113Y-76894500D01*
X164456152Y-76914185D01*
X164501907Y-76966989D01*
X164511851Y-77036147D01*
X164482826Y-77099703D01*
X164476794Y-77106181D01*
X163151357Y-78431616D01*
X163125869Y-78449705D01*
X163126373Y-78450507D01*
X162967737Y-78550184D01*
X162840184Y-78677737D01*
X162744211Y-78830476D01*
X162684631Y-79000745D01*
X162684630Y-79000750D01*
X162664435Y-79179996D01*
X162664435Y-79180003D01*
X162684630Y-79359249D01*
X162684631Y-79359254D01*
X162744211Y-79529523D01*
X162809024Y-79632671D01*
X162840184Y-79682262D01*
X162967738Y-79809816D01*
X163120478Y-79905789D01*
X163290745Y-79965368D01*
X163290750Y-79965369D01*
X163469996Y-79985565D01*
X163470000Y-79985565D01*
X163470004Y-79985565D01*
X163649249Y-79965369D01*
X163649252Y-79965368D01*
X163649255Y-79965368D01*
X163819522Y-79905789D01*
X163972262Y-79809816D01*
X164099816Y-79682262D01*
X164195789Y-79529522D01*
X164195789Y-79529520D01*
X164199494Y-79523625D01*
X164200299Y-79524131D01*
X164218382Y-79498641D01*
X166209856Y-77507169D01*
X166786207Y-76930819D01*
X166847530Y-76897334D01*
X166873888Y-76894500D01*
X177956113Y-76894500D01*
X178023152Y-76914185D01*
X178043794Y-76930819D01*
X178811615Y-77698639D01*
X178829704Y-77724130D01*
X178830507Y-77723626D01*
X178834210Y-77729519D01*
X178834211Y-77729522D01*
X178912822Y-77854630D01*
X178930184Y-77882262D01*
X178934525Y-77887705D01*
X178932269Y-77889503D01*
X178959553Y-77939469D01*
X178954569Y-78009161D01*
X178947152Y-78024168D01*
X178947231Y-78024206D01*
X178944210Y-78030478D01*
X178884633Y-78200737D01*
X178884630Y-78200750D01*
X178864435Y-78379996D01*
X178864435Y-78380003D01*
X178884630Y-78559249D01*
X178884631Y-78559254D01*
X178944211Y-78729523D01*
X179034235Y-78872795D01*
X179040184Y-78882262D01*
X179167738Y-79009816D01*
X179320478Y-79105789D01*
X179377632Y-79125788D01*
X179490745Y-79165368D01*
X179490750Y-79165369D01*
X179669996Y-79185565D01*
X179670000Y-79185565D01*
X179670004Y-79185565D01*
X179849249Y-79165369D01*
X179849252Y-79165368D01*
X179849255Y-79165368D01*
X180019522Y-79105789D01*
X180172262Y-79009816D01*
X180172319Y-79009759D01*
X180172364Y-79009734D01*
X180177705Y-79005475D01*
X180178451Y-79006410D01*
X180233642Y-78976274D01*
X180303334Y-78981258D01*
X180347681Y-79009759D01*
X180367738Y-79029816D01*
X180458080Y-79086582D01*
X180488646Y-79105788D01*
X180520478Y-79125789D01*
X180633591Y-79165369D01*
X180690745Y-79185368D01*
X180690750Y-79185369D01*
X180869996Y-79205565D01*
X180870000Y-79205565D01*
X180870004Y-79205565D01*
X181049249Y-79185369D01*
X181049252Y-79185368D01*
X181049255Y-79185368D01*
X181219522Y-79125789D01*
X181372262Y-79029816D01*
X181499816Y-78902262D01*
X181595789Y-78749522D01*
X181655368Y-78579255D01*
X181656588Y-78568432D01*
X181668919Y-78458984D01*
X181695985Y-78394570D01*
X181753579Y-78355015D01*
X181823416Y-78352876D01*
X181879820Y-78385186D01*
X182216181Y-78721547D01*
X182249666Y-78782870D01*
X182252500Y-78809228D01*
X182252500Y-82162072D01*
X182232815Y-82229111D01*
X182180011Y-82274866D01*
X182142384Y-82285292D01*
X181970749Y-82304630D01*
X181970745Y-82304631D01*
X181800476Y-82364211D01*
X181674300Y-82443494D01*
X181608328Y-82462500D01*
X171204281Y-82462500D01*
X171137242Y-82442815D01*
X171091487Y-82390011D01*
X171081543Y-82320853D01*
X171110568Y-82257297D01*
X171116600Y-82250819D01*
X171744555Y-81622864D01*
X173901567Y-79465850D01*
X173962888Y-79432367D01*
X173975345Y-79430315D01*
X174019255Y-79425368D01*
X174189522Y-79365789D01*
X174342262Y-79269816D01*
X174469816Y-79142262D01*
X174565789Y-78989522D01*
X174625368Y-78819255D01*
X174626498Y-78809228D01*
X174645565Y-78640003D01*
X174645565Y-78639996D01*
X174625369Y-78460750D01*
X174625368Y-78460745D01*
X174587623Y-78352876D01*
X174565789Y-78290478D01*
X174559504Y-78280476D01*
X174469815Y-78137737D01*
X174342262Y-78010184D01*
X174189523Y-77914211D01*
X174019254Y-77854631D01*
X174019249Y-77854630D01*
X173840004Y-77834435D01*
X173839996Y-77834435D01*
X173660750Y-77854630D01*
X173660745Y-77854631D01*
X173490476Y-77914211D01*
X173337737Y-78010184D01*
X173210184Y-78137737D01*
X173114210Y-78290478D01*
X173054632Y-78460745D01*
X173049686Y-78504637D01*
X173022618Y-78569051D01*
X173014147Y-78578432D01*
X172895688Y-78696891D01*
X172834365Y-78730376D01*
X172764673Y-78725392D01*
X172708740Y-78683520D01*
X172684787Y-78623093D01*
X172665369Y-78450750D01*
X172665368Y-78450745D01*
X172654751Y-78420403D01*
X172605789Y-78280478D01*
X172509816Y-78127738D01*
X172382262Y-78000184D01*
X172301752Y-77949596D01*
X172229523Y-77904211D01*
X172059254Y-77844631D01*
X172059249Y-77844630D01*
X171880004Y-77824435D01*
X171879996Y-77824435D01*
X171700750Y-77844630D01*
X171700745Y-77844631D01*
X171530476Y-77904211D01*
X171377737Y-78000184D01*
X171250184Y-78127737D01*
X171154210Y-78280478D01*
X171094632Y-78450745D01*
X171089686Y-78494637D01*
X171062618Y-78559051D01*
X171054147Y-78568432D01*
X168298146Y-81324435D01*
X168209992Y-81412589D01*
X168166290Y-81456290D01*
X168122589Y-81499991D01*
X168122586Y-81499995D01*
X168118610Y-81505945D01*
X168103197Y-81524724D01*
X167980183Y-81647739D01*
X167884211Y-81800476D01*
X167824631Y-81970745D01*
X167824630Y-81970750D01*
X167804435Y-82149996D01*
X167804435Y-82150003D01*
X167824630Y-82329249D01*
X167824631Y-82329254D01*
X167884211Y-82499523D01*
X167967617Y-82632262D01*
X167980184Y-82652262D01*
X168107738Y-82779816D01*
X168130342Y-82794019D01*
X168256263Y-82873141D01*
X168260478Y-82875789D01*
X168393590Y-82922367D01*
X168430745Y-82935368D01*
X168430750Y-82935369D01*
X168609996Y-82955565D01*
X168610000Y-82955565D01*
X168610004Y-82955565D01*
X168789249Y-82935369D01*
X168789252Y-82935368D01*
X168789255Y-82935368D01*
X168959522Y-82875789D01*
X168963737Y-82873141D01*
X169006356Y-82846361D01*
X169091985Y-82792556D01*
X169159221Y-82773556D01*
X169223946Y-82792567D01*
X169226256Y-82794019D01*
X169272539Y-82846361D01*
X169283176Y-82915416D01*
X169254790Y-82979260D01*
X169247948Y-82986683D01*
X166298452Y-85936181D01*
X166237129Y-85969666D01*
X166210771Y-85972500D01*
X165351672Y-85972500D01*
X165285700Y-85953494D01*
X165159521Y-85874210D01*
X164989249Y-85814630D01*
X164920616Y-85806897D01*
X164856202Y-85779830D01*
X164816647Y-85722235D01*
X164810500Y-85683677D01*
X164810500Y-83958280D01*
X164830185Y-83891241D01*
X164846815Y-83870603D01*
X165761567Y-82955850D01*
X165822888Y-82922367D01*
X165835345Y-82920315D01*
X165879255Y-82915368D01*
X166049522Y-82855789D01*
X166202262Y-82759816D01*
X166329816Y-82632262D01*
X166425789Y-82479522D01*
X166485368Y-82309255D01*
X166485889Y-82304630D01*
X166505565Y-82130003D01*
X166505565Y-82129996D01*
X166485369Y-81950750D01*
X166485368Y-81950745D01*
X166425789Y-81780478D01*
X166329816Y-81627738D01*
X166202262Y-81500184D01*
X166150706Y-81467789D01*
X166049523Y-81404211D01*
X165879254Y-81344631D01*
X165879249Y-81344630D01*
X165700004Y-81324435D01*
X165699996Y-81324435D01*
X165520750Y-81344630D01*
X165520745Y-81344631D01*
X165350476Y-81404211D01*
X165197737Y-81500184D01*
X165070184Y-81627737D01*
X164974210Y-81780478D01*
X164914632Y-81950745D01*
X164909686Y-81994637D01*
X164882618Y-82059051D01*
X164874147Y-82068432D01*
X164027214Y-82915367D01*
X163782992Y-83159589D01*
X163695589Y-83246992D01*
X163676348Y-83275789D01*
X163626916Y-83349769D01*
X163613061Y-83383214D01*
X163613062Y-83383215D01*
X163579615Y-83463962D01*
X163579612Y-83463972D01*
X163557049Y-83577404D01*
X163557050Y-83577405D01*
X163555500Y-83585198D01*
X163555500Y-86921519D01*
X163579612Y-87042739D01*
X163579614Y-87042747D01*
X163613062Y-87123496D01*
X163626917Y-87156945D01*
X163675608Y-87229816D01*
X163695589Y-87259720D01*
X163695590Y-87259721D01*
X163695593Y-87259725D01*
X164105877Y-87670008D01*
X164187091Y-87751222D01*
X164193282Y-87757413D01*
X164193284Y-87757414D01*
X164296044Y-87826076D01*
X164296046Y-87826077D01*
X164296055Y-87826083D01*
X164331849Y-87840909D01*
X164331850Y-87840910D01*
X164331851Y-87840910D01*
X164410254Y-87873386D01*
X164531480Y-87897499D01*
X164531484Y-87897500D01*
X164531485Y-87897500D01*
X166555909Y-87897500D01*
X166555910Y-87897499D01*
X166677140Y-87873386D01*
X166757889Y-87839937D01*
X166791338Y-87826083D01*
X166894113Y-87757411D01*
X166981516Y-87670008D01*
X168494705Y-86156819D01*
X168556028Y-86123334D01*
X168582386Y-86120500D01*
X180695516Y-86120500D01*
X180695517Y-86120499D01*
X180816747Y-86096386D01*
X180902858Y-86060717D01*
X180902859Y-86060717D01*
X180930938Y-86049086D01*
X180930938Y-86049085D01*
X180930945Y-86049083D01*
X181033720Y-85980411D01*
X181121123Y-85893008D01*
X183367411Y-83646720D01*
X183379062Y-83629283D01*
X183436083Y-83543945D01*
X183449937Y-83510496D01*
X183483386Y-83429747D01*
X183507500Y-83308515D01*
X183507500Y-83184909D01*
X183507500Y-78436144D01*
X183507500Y-78436141D01*
X183483386Y-78314917D01*
X183483385Y-78314916D01*
X183483385Y-78314912D01*
X183473264Y-78290478D01*
X183436086Y-78200720D01*
X183436079Y-78200707D01*
X183367412Y-78097940D01*
X183367411Y-78097939D01*
X183280008Y-78010536D01*
X179660170Y-74390698D01*
X179626685Y-74329375D01*
X179631669Y-74259683D01*
X179673541Y-74203750D01*
X179681863Y-74198034D01*
X179822262Y-74109816D01*
X179949816Y-73982262D01*
X180045789Y-73829522D01*
X180105368Y-73659255D01*
X180110313Y-73615361D01*
X180137378Y-73550951D01*
X180145842Y-73541575D01*
X181081411Y-72606008D01*
X181121232Y-72546411D01*
X181150083Y-72503233D01*
X181197385Y-72389035D01*
X181221500Y-72267803D01*
X181221500Y-68867671D01*
X181240507Y-68801698D01*
X181319788Y-68675524D01*
X181330745Y-68644211D01*
X181379368Y-68505255D01*
X181379619Y-68503029D01*
X181399565Y-68326003D01*
X181399565Y-68325996D01*
X181379369Y-68146750D01*
X181379368Y-68146745D01*
X181359515Y-68090008D01*
X181319789Y-67976478D01*
X181295696Y-67938135D01*
X181223815Y-67823737D01*
X181096262Y-67696184D01*
X180943523Y-67600211D01*
X180773254Y-67540631D01*
X180773249Y-67540630D01*
X180594004Y-67520435D01*
X180593996Y-67520435D01*
X180414750Y-67540630D01*
X180414745Y-67540631D01*
X180244476Y-67600211D01*
X180091737Y-67696184D01*
X179964184Y-67823737D01*
X179868211Y-67976476D01*
X179808631Y-68146745D01*
X179808630Y-68146750D01*
X179788435Y-68325996D01*
X179788435Y-68326003D01*
X179808630Y-68505249D01*
X179808631Y-68505254D01*
X179868211Y-68675524D01*
X179947493Y-68801698D01*
X179966500Y-68867671D01*
X179966500Y-71894718D01*
X179946815Y-71961757D01*
X179930181Y-71982399D01*
X179258432Y-72654147D01*
X179197109Y-72687632D01*
X179184637Y-72689686D01*
X179140745Y-72694632D01*
X178970478Y-72754210D01*
X178817737Y-72850184D01*
X178690184Y-72977737D01*
X178690182Y-72977740D01*
X178601974Y-73118120D01*
X178549639Y-73164411D01*
X178480586Y-73175058D01*
X178416737Y-73146683D01*
X178409300Y-73139828D01*
X176841064Y-71571591D01*
X176841060Y-71571588D01*
X176738292Y-71502920D01*
X176738279Y-71502913D01*
X176704838Y-71489062D01*
X176624088Y-71455614D01*
X176624080Y-71455612D01*
X176502860Y-71431500D01*
X176502856Y-71431500D01*
X147599197Y-71431500D01*
X147599195Y-71431500D01*
X147477970Y-71455613D01*
X147477960Y-71455616D01*
X147363773Y-71502913D01*
X147363760Y-71502920D01*
X147260992Y-71571588D01*
X147260988Y-71571591D01*
X145763415Y-73069164D01*
X145702092Y-73102649D01*
X145643641Y-73101258D01*
X145545413Y-73074938D01*
X145545403Y-73074936D01*
X145310001Y-73054341D01*
X145309999Y-73054341D01*
X145074596Y-73074936D01*
X145074586Y-73074938D01*
X144846344Y-73136094D01*
X144846335Y-73136098D01*
X144632171Y-73235964D01*
X144632169Y-73235965D01*
X144438597Y-73371505D01*
X144271505Y-73538597D01*
X144141575Y-73724158D01*
X144086998Y-73767783D01*
X144017500Y-73774977D01*
X143955145Y-73743454D01*
X143938425Y-73724158D01*
X143808494Y-73538597D01*
X143641402Y-73371506D01*
X143641395Y-73371501D01*
X143447834Y-73235967D01*
X143447830Y-73235965D01*
X143398558Y-73212989D01*
X143233663Y-73136097D01*
X143233659Y-73136096D01*
X143233655Y-73136094D01*
X143005413Y-73074938D01*
X143005403Y-73074936D01*
X142770001Y-73054341D01*
X142769999Y-73054341D01*
X142534596Y-73074936D01*
X142534586Y-73074938D01*
X142306344Y-73136094D01*
X142306335Y-73136098D01*
X142092171Y-73235964D01*
X142092169Y-73235965D01*
X141898597Y-73371505D01*
X141731505Y-73538597D01*
X141601575Y-73724158D01*
X141546998Y-73767783D01*
X141477500Y-73774977D01*
X141415145Y-73743454D01*
X141398425Y-73724158D01*
X141268494Y-73538597D01*
X141101402Y-73371506D01*
X141101395Y-73371501D01*
X140907834Y-73235967D01*
X140907830Y-73235965D01*
X140858558Y-73212989D01*
X140693663Y-73136097D01*
X140693659Y-73136096D01*
X140693655Y-73136094D01*
X140465413Y-73074938D01*
X140465403Y-73074936D01*
X140230001Y-73054341D01*
X140229999Y-73054341D01*
X139994596Y-73074936D01*
X139994586Y-73074938D01*
X139766344Y-73136094D01*
X139766335Y-73136098D01*
X139552171Y-73235964D01*
X139552169Y-73235965D01*
X139358597Y-73371505D01*
X139191505Y-73538597D01*
X139055965Y-73732169D01*
X139055964Y-73732171D01*
X138956098Y-73946335D01*
X138956094Y-73946344D01*
X138894938Y-74174586D01*
X138894936Y-74174596D01*
X138874341Y-74409999D01*
X138874341Y-74410000D01*
X138894936Y-74645403D01*
X138894938Y-74645413D01*
X138956094Y-74873655D01*
X138956096Y-74873659D01*
X138956097Y-74873663D01*
X138960000Y-74882032D01*
X139055965Y-75087830D01*
X139055967Y-75087834D01*
X139116175Y-75173819D01*
X139191505Y-75281401D01*
X139358599Y-75448495D01*
X139455384Y-75516265D01*
X139552165Y-75584032D01*
X139552167Y-75584033D01*
X139552170Y-75584035D01*
X139766337Y-75683903D01*
X139994592Y-75745063D01*
X140171034Y-75760500D01*
X140229999Y-75765659D01*
X140230000Y-75765659D01*
X140230001Y-75765659D01*
X140288966Y-75760500D01*
X140465408Y-75745063D01*
X140693663Y-75683903D01*
X140907830Y-75584035D01*
X141101401Y-75448495D01*
X141268495Y-75281401D01*
X141398425Y-75095842D01*
X141453002Y-75052217D01*
X141522500Y-75045023D01*
X141584855Y-75076546D01*
X141601575Y-75095842D01*
X141731500Y-75281395D01*
X141731505Y-75281401D01*
X141898599Y-75448495D01*
X141995384Y-75516265D01*
X142092165Y-75584032D01*
X142092167Y-75584033D01*
X142092170Y-75584035D01*
X142306337Y-75683903D01*
X142534592Y-75745063D01*
X142711034Y-75760500D01*
X142769999Y-75765659D01*
X142770000Y-75765659D01*
X142770001Y-75765659D01*
X142828966Y-75760500D01*
X143005408Y-75745063D01*
X143233663Y-75683903D01*
X143447830Y-75584035D01*
X143641401Y-75448495D01*
X143808495Y-75281401D01*
X143938425Y-75095842D01*
X143993002Y-75052217D01*
X144062500Y-75045023D01*
X144124855Y-75076546D01*
X144141575Y-75095842D01*
X144271500Y-75281395D01*
X144271505Y-75281401D01*
X144438599Y-75448495D01*
X144535384Y-75516265D01*
X144632165Y-75584032D01*
X144632167Y-75584033D01*
X144632170Y-75584035D01*
X144846337Y-75683903D01*
X145074592Y-75745063D01*
X145251034Y-75760500D01*
X145309999Y-75765659D01*
X145310000Y-75765659D01*
X145310001Y-75765659D01*
X145368966Y-75760500D01*
X145545408Y-75745063D01*
X145773663Y-75683903D01*
X145987830Y-75584035D01*
X146181401Y-75448495D01*
X146348495Y-75281401D01*
X146478425Y-75095842D01*
X146533002Y-75052217D01*
X146602500Y-75045023D01*
X146664855Y-75076546D01*
X146681575Y-75095842D01*
X146811500Y-75281395D01*
X146811505Y-75281401D01*
X146978599Y-75448495D01*
X147075384Y-75516265D01*
X147172165Y-75584032D01*
X147172167Y-75584033D01*
X147172170Y-75584035D01*
X147386337Y-75683903D01*
X147614592Y-75745063D01*
X147791034Y-75760500D01*
X147849999Y-75765659D01*
X147850000Y-75765659D01*
X147850001Y-75765659D01*
X147908966Y-75760500D01*
X148085408Y-75745063D01*
X148313663Y-75683903D01*
X148527830Y-75584035D01*
X148721401Y-75448495D01*
X148843329Y-75326566D01*
X148904648Y-75293084D01*
X148974340Y-75298068D01*
X149030274Y-75339939D01*
X149047189Y-75370917D01*
X149096202Y-75502328D01*
X149096206Y-75502335D01*
X149182452Y-75617544D01*
X149182455Y-75617547D01*
X149297664Y-75703793D01*
X149297671Y-75703797D01*
X149432517Y-75754091D01*
X149432516Y-75754091D01*
X149439444Y-75754835D01*
X149492127Y-75760500D01*
X151287872Y-75760499D01*
X151347483Y-75754091D01*
X151482331Y-75703796D01*
X151597546Y-75617546D01*
X151683796Y-75502331D01*
X151734091Y-75367483D01*
X151740500Y-75307873D01*
X151740499Y-73512128D01*
X151734091Y-73452517D01*
X151732810Y-73449083D01*
X151683797Y-73317671D01*
X151683793Y-73317664D01*
X151597547Y-73202455D01*
X151597544Y-73202452D01*
X151482335Y-73116206D01*
X151482328Y-73116202D01*
X151347482Y-73065908D01*
X151347483Y-73065908D01*
X151287883Y-73059501D01*
X151287881Y-73059500D01*
X151287873Y-73059500D01*
X151287864Y-73059500D01*
X149492129Y-73059500D01*
X149492123Y-73059501D01*
X149432516Y-73065908D01*
X149297671Y-73116202D01*
X149297664Y-73116206D01*
X149182455Y-73202452D01*
X149182452Y-73202455D01*
X149096206Y-73317664D01*
X149096203Y-73317669D01*
X149047189Y-73449083D01*
X149005317Y-73505016D01*
X148939853Y-73529433D01*
X148871580Y-73514581D01*
X148843326Y-73493430D01*
X148721402Y-73371506D01*
X148721395Y-73371501D01*
X148527834Y-73235967D01*
X148527830Y-73235965D01*
X148478558Y-73212989D01*
X148313663Y-73136097D01*
X148313659Y-73136096D01*
X148313655Y-73136094D01*
X148085413Y-73074938D01*
X148085403Y-73074936D01*
X147844606Y-73053869D01*
X147844761Y-73052086D01*
X147785401Y-73034656D01*
X147739646Y-72981852D01*
X147729702Y-72912694D01*
X147758727Y-72849138D01*
X147764759Y-72842660D01*
X147884600Y-72722819D01*
X147945923Y-72689334D01*
X147972281Y-72686500D01*
X163676975Y-72686500D01*
X163744014Y-72706185D01*
X163789769Y-72758989D01*
X163799713Y-72828147D01*
X163770688Y-72891703D01*
X163742947Y-72915494D01*
X163687737Y-72950184D01*
X163560184Y-73077737D01*
X163464211Y-73230476D01*
X163404631Y-73400745D01*
X163404630Y-73400750D01*
X163384435Y-73579996D01*
X163384435Y-73580003D01*
X163404630Y-73759249D01*
X163404631Y-73759254D01*
X163464211Y-73929523D01*
X163524745Y-74025861D01*
X163560184Y-74082262D01*
X163687738Y-74209816D01*
X163840478Y-74305789D01*
X163907883Y-74329375D01*
X164010745Y-74365368D01*
X164010750Y-74365369D01*
X164189996Y-74385565D01*
X164190000Y-74385565D01*
X164190004Y-74385565D01*
X164369249Y-74365369D01*
X164369252Y-74365368D01*
X164369255Y-74365368D01*
X164539522Y-74305789D01*
X164692262Y-74209816D01*
X164819816Y-74082262D01*
X164915789Y-73929522D01*
X164975368Y-73759255D01*
X164980313Y-73715361D01*
X165007378Y-73650951D01*
X165015842Y-73641575D01*
X165480600Y-73176819D01*
X165541923Y-73143334D01*
X165568281Y-73140500D01*
X168073678Y-73140500D01*
X168140717Y-73160185D01*
X168186472Y-73212989D01*
X168196898Y-73250617D01*
X168204630Y-73319249D01*
X168264210Y-73489521D01*
X168321062Y-73580000D01*
X168360184Y-73642262D01*
X168487738Y-73769816D01*
X168578080Y-73826582D01*
X168587527Y-73832518D01*
X168640478Y-73865789D01*
X168810745Y-73925368D01*
X168810750Y-73925369D01*
X168989996Y-73945565D01*
X168990000Y-73945565D01*
X168990004Y-73945565D01*
X169169249Y-73925369D01*
X169169252Y-73925368D01*
X169169255Y-73925368D01*
X169339522Y-73865789D01*
X169465700Y-73786505D01*
X169531672Y-73767500D01*
X175895431Y-73767500D01*
X175962470Y-73787185D01*
X175983112Y-73803819D01*
X177353112Y-75173819D01*
X177386597Y-75235142D01*
X177381613Y-75304834D01*
X177339741Y-75360767D01*
X177274277Y-75385184D01*
X177265431Y-75385500D01*
X166488540Y-75385500D01*
X166447585Y-75378541D01*
X166379262Y-75354633D01*
X166379249Y-75354630D01*
X166200004Y-75334435D01*
X166199996Y-75334435D01*
X166020750Y-75354630D01*
X166020737Y-75354633D01*
X165952415Y-75378541D01*
X165911460Y-75385500D01*
X158536548Y-75385500D01*
X158390792Y-75414493D01*
X158390784Y-75414495D01*
X158253473Y-75471371D01*
X158129900Y-75553939D01*
X158129899Y-75553940D01*
X158099808Y-75584032D01*
X158024806Y-75659034D01*
X158024803Y-75659037D01*
X151582518Y-82101321D01*
X151521195Y-82134806D01*
X151451503Y-82129822D01*
X151395570Y-82087950D01*
X151389843Y-82079611D01*
X151379147Y-82062589D01*
X151369816Y-82047738D01*
X151242262Y-81920184D01*
X151215700Y-81903494D01*
X151089523Y-81824211D01*
X150919254Y-81764631D01*
X150919249Y-81764630D01*
X150740004Y-81744435D01*
X150739996Y-81744435D01*
X150560750Y-81764630D01*
X150560745Y-81764631D01*
X150390476Y-81824211D01*
X150264300Y-81903494D01*
X150198328Y-81922500D01*
X150138192Y-81922500D01*
X150016972Y-81946612D01*
X150016964Y-81946614D01*
X149952825Y-81973182D01*
X149902767Y-81993916D01*
X149822218Y-82047738D01*
X149822217Y-82047739D01*
X149799989Y-82062590D01*
X143288432Y-88574147D01*
X143227109Y-88607632D01*
X143214637Y-88609686D01*
X143170745Y-88614632D01*
X143000478Y-88674210D01*
X142874300Y-88753494D01*
X142808328Y-88772500D01*
X142498192Y-88772500D01*
X142376973Y-88796612D01*
X142376965Y-88796614D01*
X142334841Y-88814063D01*
X142334840Y-88814063D01*
X142262773Y-88843913D01*
X142262760Y-88843920D01*
X142182218Y-88897738D01*
X142182217Y-88897739D01*
X142159989Y-88912590D01*
X139329398Y-91743181D01*
X139268075Y-91776666D01*
X139241717Y-91779500D01*
X137932129Y-91779500D01*
X137932123Y-91779501D01*
X137872516Y-91785908D01*
X137737671Y-91836202D01*
X137737664Y-91836206D01*
X137622455Y-91922452D01*
X137622452Y-91922455D01*
X137536206Y-92037664D01*
X137536202Y-92037671D01*
X137485908Y-92172517D01*
X137479501Y-92232116D01*
X137479500Y-92232135D01*
X137479500Y-94027870D01*
X137479501Y-94027876D01*
X137485908Y-94087483D01*
X137536202Y-94222328D01*
X137536206Y-94222335D01*
X137622452Y-94337544D01*
X137622455Y-94337547D01*
X137737664Y-94423793D01*
X137737671Y-94423797D01*
X137872517Y-94474091D01*
X137872516Y-94474091D01*
X137879444Y-94474835D01*
X137932127Y-94480500D01*
X138903979Y-94480499D01*
X138971018Y-94500183D01*
X139016773Y-94552987D01*
X139026717Y-94622146D01*
X138997692Y-94685702D01*
X138991660Y-94692180D01*
X136419374Y-97264467D01*
X136419372Y-97264469D01*
X135231793Y-98452046D01*
X135206301Y-98470137D01*
X135206805Y-98470939D01*
X135048169Y-98570616D01*
X134920616Y-98698169D01*
X134820939Y-98856805D01*
X134820137Y-98856301D01*
X134802047Y-98881791D01*
X133864659Y-99819181D01*
X133803336Y-99852666D01*
X133776978Y-99855500D01*
X111948540Y-99855500D01*
X111907585Y-99848541D01*
X111839262Y-99824633D01*
X111839249Y-99824630D01*
X111660004Y-99804435D01*
X111659996Y-99804435D01*
X111480750Y-99824630D01*
X111480745Y-99824631D01*
X111310476Y-99884211D01*
X111157737Y-99980184D01*
X111030184Y-100107737D01*
X110934211Y-100260476D01*
X110874631Y-100430745D01*
X110874630Y-100430750D01*
X110854435Y-100609996D01*
X105698248Y-100609996D01*
X105705426Y-94079983D01*
X106654500Y-94079983D01*
X106654500Y-94880001D01*
X106654501Y-94880019D01*
X106665000Y-94982796D01*
X106665001Y-94982799D01*
X106682436Y-95035413D01*
X106720186Y-95149334D01*
X106812288Y-95298656D01*
X106936344Y-95422712D01*
X107000981Y-95462580D01*
X107047705Y-95514526D01*
X107058928Y-95583489D01*
X107031085Y-95647571D01*
X107023566Y-95655799D01*
X106915964Y-95763401D01*
X106814195Y-95903475D01*
X106735591Y-96057744D01*
X106682085Y-96222415D01*
X106680884Y-96229999D01*
X106680885Y-96230000D01*
X107749670Y-96230000D01*
X107729925Y-96249745D01*
X107680556Y-96335255D01*
X107655000Y-96430630D01*
X107655000Y-96529370D01*
X107680556Y-96624745D01*
X107729925Y-96710255D01*
X107749670Y-96730000D01*
X106680885Y-96730000D01*
X106682085Y-96737584D01*
X106735591Y-96902255D01*
X106814195Y-97056524D01*
X106915967Y-97196602D01*
X107038397Y-97319032D01*
X107178475Y-97420804D01*
X107332742Y-97499408D01*
X107497415Y-97552914D01*
X107668429Y-97580000D01*
X107780000Y-97580000D01*
X107780000Y-96760330D01*
X107799745Y-96780075D01*
X107885255Y-96829444D01*
X107980630Y-96855000D01*
X108079370Y-96855000D01*
X108174745Y-96829444D01*
X108260255Y-96780075D01*
X108280000Y-96760330D01*
X108280000Y-97580000D01*
X108391571Y-97580000D01*
X108562584Y-97552914D01*
X108727257Y-97499408D01*
X108881524Y-97420804D01*
X109021602Y-97319032D01*
X109144032Y-97196602D01*
X109245804Y-97056524D01*
X109324408Y-96902255D01*
X109377914Y-96737584D01*
X109379115Y-96730000D01*
X108310330Y-96730000D01*
X108330075Y-96710255D01*
X108379444Y-96624745D01*
X108405000Y-96529370D01*
X108405000Y-96430630D01*
X108379444Y-96335255D01*
X108330075Y-96249745D01*
X108310330Y-96230000D01*
X109379115Y-96230000D01*
X109379115Y-96229999D01*
X109377914Y-96222415D01*
X109324408Y-96057744D01*
X109245804Y-95903475D01*
X109144032Y-95763397D01*
X109036434Y-95655799D01*
X109002949Y-95594476D01*
X109007933Y-95524784D01*
X109049805Y-95468851D01*
X109058995Y-95462594D01*
X109123656Y-95422712D01*
X109247712Y-95298656D01*
X109339814Y-95149334D01*
X109394999Y-94982797D01*
X109405500Y-94880009D01*
X109405499Y-94079992D01*
X109394999Y-93977203D01*
X109339814Y-93810666D01*
X109247712Y-93661344D01*
X109176364Y-93589996D01*
X122434435Y-93589996D01*
X122434435Y-93590003D01*
X122454630Y-93769249D01*
X122454631Y-93769254D01*
X122514211Y-93939523D01*
X122602467Y-94079980D01*
X122610184Y-94092262D01*
X122737738Y-94219816D01*
X122764300Y-94236506D01*
X122874561Y-94305788D01*
X122890478Y-94315789D01*
X123060745Y-94375368D01*
X123060750Y-94375369D01*
X123239996Y-94395565D01*
X123240000Y-94395565D01*
X123240004Y-94395565D01*
X123419249Y-94375369D01*
X123419252Y-94375368D01*
X123419255Y-94375368D01*
X123589522Y-94315789D01*
X123715700Y-94236505D01*
X123781672Y-94217500D01*
X128784243Y-94217500D01*
X128850214Y-94236505D01*
X128960478Y-94305789D01*
X129130745Y-94365368D01*
X129130750Y-94365369D01*
X129309996Y-94385565D01*
X129310000Y-94385565D01*
X129310004Y-94385565D01*
X129489249Y-94365369D01*
X129489252Y-94365368D01*
X129489255Y-94365368D01*
X129659522Y-94305789D01*
X129812262Y-94209816D01*
X129939816Y-94082262D01*
X130035789Y-93929522D01*
X130095368Y-93759255D01*
X130101180Y-93707671D01*
X130115565Y-93580003D01*
X130115565Y-93579996D01*
X130095369Y-93400750D01*
X130095368Y-93400745D01*
X130035789Y-93230478D01*
X129939816Y-93077738D01*
X129812262Y-92950184D01*
X129801615Y-92943494D01*
X129659523Y-92854211D01*
X129489254Y-92794631D01*
X129489249Y-92794630D01*
X129310004Y-92774435D01*
X129309996Y-92774435D01*
X129130750Y-92794630D01*
X129130745Y-92794631D01*
X128960476Y-92854211D01*
X128818385Y-92943494D01*
X128752413Y-92962500D01*
X123781672Y-92962500D01*
X123715700Y-92943494D01*
X123589523Y-92864211D01*
X123419254Y-92804631D01*
X123419249Y-92804630D01*
X123240004Y-92784435D01*
X123239996Y-92784435D01*
X123060750Y-92804630D01*
X123060745Y-92804631D01*
X122890476Y-92864211D01*
X122737737Y-92960184D01*
X122610184Y-93087737D01*
X122514211Y-93240476D01*
X122454631Y-93410745D01*
X122454630Y-93410750D01*
X122434435Y-93589996D01*
X109176364Y-93589996D01*
X109123656Y-93537288D01*
X108974334Y-93445186D01*
X108807797Y-93390001D01*
X108807795Y-93390000D01*
X108705010Y-93379500D01*
X107354998Y-93379500D01*
X107354981Y-93379501D01*
X107252203Y-93390000D01*
X107252200Y-93390001D01*
X107085668Y-93445185D01*
X107085663Y-93445187D01*
X106936342Y-93537289D01*
X106812289Y-93661342D01*
X106720187Y-93810663D01*
X106720185Y-93810668D01*
X106696074Y-93883430D01*
X106665001Y-93977203D01*
X106665001Y-93977204D01*
X106665000Y-93977204D01*
X106654500Y-94079983D01*
X105705426Y-94079983D01*
X105709834Y-90069996D01*
X125414435Y-90069996D01*
X125414435Y-90070003D01*
X125434630Y-90249249D01*
X125434631Y-90249254D01*
X125494211Y-90419523D01*
X125525933Y-90470008D01*
X125590184Y-90572262D01*
X125717738Y-90699816D01*
X125870478Y-90795789D01*
X126040745Y-90855368D01*
X126040750Y-90855369D01*
X126219996Y-90875565D01*
X126220000Y-90875565D01*
X126220004Y-90875565D01*
X126399249Y-90855369D01*
X126399252Y-90855368D01*
X126399255Y-90855368D01*
X126569522Y-90795789D01*
X126695700Y-90716505D01*
X126761672Y-90697500D01*
X128661804Y-90697500D01*
X128661805Y-90697499D01*
X128783035Y-90673386D01*
X128863784Y-90639937D01*
X128897233Y-90626083D01*
X129000008Y-90557411D01*
X129087411Y-90470008D01*
X132751567Y-86805850D01*
X132812888Y-86772367D01*
X132825345Y-86770315D01*
X132869255Y-86765368D01*
X133039522Y-86705789D01*
X133192262Y-86609816D01*
X133319816Y-86482262D01*
X133415789Y-86329522D01*
X133475368Y-86159255D01*
X133475369Y-86159249D01*
X133495565Y-85980003D01*
X133495565Y-85979996D01*
X133475369Y-85800750D01*
X133475368Y-85800745D01*
X133473180Y-85794491D01*
X133415789Y-85630478D01*
X133319816Y-85477738D01*
X133192262Y-85350184D01*
X133039523Y-85254211D01*
X132869254Y-85194631D01*
X132869249Y-85194630D01*
X132690004Y-85174435D01*
X132689996Y-85174435D01*
X132510750Y-85194630D01*
X132510745Y-85194631D01*
X132340476Y-85254211D01*
X132187737Y-85350184D01*
X132060184Y-85477737D01*
X131964210Y-85630478D01*
X131904632Y-85800745D01*
X131899686Y-85844637D01*
X131872618Y-85909051D01*
X131864147Y-85918432D01*
X128376400Y-89406181D01*
X128315077Y-89439666D01*
X128288719Y-89442500D01*
X126761672Y-89442500D01*
X126695700Y-89423494D01*
X126569523Y-89344211D01*
X126399254Y-89284631D01*
X126399249Y-89284630D01*
X126220004Y-89264435D01*
X126219996Y-89264435D01*
X126040750Y-89284630D01*
X126040745Y-89284631D01*
X125870476Y-89344211D01*
X125717737Y-89440184D01*
X125590184Y-89567737D01*
X125494211Y-89720476D01*
X125434631Y-89890745D01*
X125434630Y-89890750D01*
X125414435Y-90069996D01*
X105709834Y-90069996D01*
X105724126Y-77069984D01*
X107019500Y-77069984D01*
X107019500Y-78770015D01*
X107030000Y-78872795D01*
X107030001Y-78872797D01*
X107039765Y-78902262D01*
X107085186Y-79039335D01*
X107085187Y-79039337D01*
X107177286Y-79188651D01*
X107177289Y-79188655D01*
X107301344Y-79312710D01*
X107301348Y-79312713D01*
X107450662Y-79404812D01*
X107450664Y-79404813D01*
X107450666Y-79404814D01*
X107617203Y-79459999D01*
X107719992Y-79470500D01*
X107719997Y-79470500D01*
X109420003Y-79470500D01*
X109420008Y-79470500D01*
X109522797Y-79459999D01*
X109689334Y-79404814D01*
X109838655Y-79312711D01*
X109962711Y-79188655D01*
X110054814Y-79039334D01*
X110109999Y-78872797D01*
X110120500Y-78770008D01*
X110120500Y-77069992D01*
X110109999Y-76967203D01*
X110054814Y-76800666D01*
X109962711Y-76651345D01*
X109838655Y-76527289D01*
X109838651Y-76527286D01*
X109689337Y-76435187D01*
X109689335Y-76435186D01*
X109606065Y-76407593D01*
X109522797Y-76380001D01*
X109522795Y-76380000D01*
X109420015Y-76369500D01*
X109420008Y-76369500D01*
X107719992Y-76369500D01*
X107719984Y-76369500D01*
X107617204Y-76380000D01*
X107617203Y-76380001D01*
X107450664Y-76435186D01*
X107450662Y-76435187D01*
X107301348Y-76527286D01*
X107301344Y-76527289D01*
X107177289Y-76651344D01*
X107177286Y-76651348D01*
X107085187Y-76800662D01*
X107085186Y-76800664D01*
X107030001Y-76967203D01*
X107030000Y-76967204D01*
X107019500Y-77069984D01*
X105724126Y-77069984D01*
X105728248Y-73320000D01*
X107015207Y-73320000D01*
X107034348Y-73563219D01*
X107091303Y-73800457D01*
X107184668Y-74025861D01*
X107308504Y-74227942D01*
X108046212Y-73490234D01*
X108057482Y-73532292D01*
X108129890Y-73657708D01*
X108232292Y-73760110D01*
X108357708Y-73832518D01*
X108399765Y-73843787D01*
X107662056Y-74581494D01*
X107864138Y-74705331D01*
X108089542Y-74798696D01*
X108326780Y-74855651D01*
X108326779Y-74855651D01*
X108570000Y-74874792D01*
X108813219Y-74855651D01*
X109050457Y-74798696D01*
X109275861Y-74705331D01*
X109477942Y-74581494D01*
X108740234Y-73843787D01*
X108782292Y-73832518D01*
X108907708Y-73760110D01*
X109010110Y-73657708D01*
X109082518Y-73532292D01*
X109093787Y-73490235D01*
X109831494Y-74227942D01*
X109955331Y-74025861D01*
X110048696Y-73800457D01*
X110105651Y-73563219D01*
X110124792Y-73320000D01*
X110105651Y-73076780D01*
X110048696Y-72839542D01*
X109955331Y-72614138D01*
X109831494Y-72412056D01*
X109093787Y-73149764D01*
X109082518Y-73107708D01*
X109010110Y-72982292D01*
X108907708Y-72879890D01*
X108782292Y-72807482D01*
X108740233Y-72796212D01*
X109477942Y-72058504D01*
X109275861Y-71934668D01*
X109050457Y-71841303D01*
X108813219Y-71784348D01*
X108813220Y-71784348D01*
X108570000Y-71765207D01*
X108326780Y-71784348D01*
X108089542Y-71841303D01*
X107864146Y-71934665D01*
X107864141Y-71934668D01*
X107662056Y-72058504D01*
X108399765Y-72796212D01*
X108357708Y-72807482D01*
X108232292Y-72879890D01*
X108129890Y-72982292D01*
X108057482Y-73107708D01*
X108046212Y-73149765D01*
X107308504Y-72412056D01*
X107184668Y-72614141D01*
X107184665Y-72614146D01*
X107091303Y-72839542D01*
X107034348Y-73076780D01*
X107015207Y-73320000D01*
X105728248Y-73320000D01*
X105731799Y-70089996D01*
X147814435Y-70089996D01*
X147814435Y-70090003D01*
X147834630Y-70269249D01*
X147834631Y-70269254D01*
X147894211Y-70439523D01*
X147990184Y-70592262D01*
X148117738Y-70719816D01*
X148208080Y-70776582D01*
X148221076Y-70784748D01*
X148270478Y-70815789D01*
X148440745Y-70875368D01*
X148440750Y-70875369D01*
X148619996Y-70895565D01*
X148620000Y-70895565D01*
X148620004Y-70895565D01*
X148799249Y-70875369D01*
X148799252Y-70875368D01*
X148799255Y-70875368D01*
X148969522Y-70815789D01*
X149122262Y-70719816D01*
X149249816Y-70592262D01*
X149345789Y-70439522D01*
X149405368Y-70269255D01*
X149410313Y-70225361D01*
X149437378Y-70160951D01*
X149445842Y-70151575D01*
X150047411Y-69550008D01*
X150062906Y-69526818D01*
X150116083Y-69447233D01*
X150148076Y-69369996D01*
X161994435Y-69369996D01*
X161994435Y-69370003D01*
X162014630Y-69549249D01*
X162014631Y-69549254D01*
X162074211Y-69719523D01*
X162170184Y-69872262D01*
X162297738Y-69999816D01*
X162373620Y-70047496D01*
X162441269Y-70090003D01*
X162450478Y-70095789D01*
X162609877Y-70151565D01*
X162620745Y-70155368D01*
X162620750Y-70155369D01*
X162799996Y-70175565D01*
X162800000Y-70175565D01*
X162800004Y-70175565D01*
X162979249Y-70155369D01*
X162979252Y-70155368D01*
X162979255Y-70155368D01*
X163149522Y-70095789D01*
X163302262Y-69999816D01*
X163429816Y-69872262D01*
X163525789Y-69719522D01*
X163585368Y-69549255D01*
X163590313Y-69505361D01*
X163617378Y-69440951D01*
X163625842Y-69431575D01*
X164247914Y-68809504D01*
X175022000Y-68809504D01*
X175022000Y-69208000D01*
X175722000Y-69208000D01*
X175722000Y-69708000D01*
X175022000Y-69708000D01*
X175022000Y-70106495D01*
X175060427Y-70299681D01*
X175060430Y-70299693D01*
X175135807Y-70481671D01*
X175135814Y-70481684D01*
X175245248Y-70645462D01*
X175245251Y-70645466D01*
X175384533Y-70784748D01*
X175384537Y-70784751D01*
X175548315Y-70894185D01*
X175548328Y-70894192D01*
X175730308Y-70969569D01*
X175772000Y-70977862D01*
X175772000Y-70174988D01*
X175781940Y-70192205D01*
X175837795Y-70248060D01*
X175906204Y-70287556D01*
X175982504Y-70308000D01*
X176061496Y-70308000D01*
X176137796Y-70287556D01*
X176206205Y-70248060D01*
X176262060Y-70192205D01*
X176272000Y-70174988D01*
X176272000Y-70977862D01*
X176313690Y-70969569D01*
X176313692Y-70969569D01*
X176495671Y-70894192D01*
X176495684Y-70894185D01*
X176659462Y-70784751D01*
X176659466Y-70784748D01*
X176798748Y-70645466D01*
X176798751Y-70645462D01*
X176908185Y-70481684D01*
X176908192Y-70481671D01*
X176983569Y-70299693D01*
X176983572Y-70299681D01*
X177021999Y-70106495D01*
X177022000Y-70106492D01*
X177022000Y-69708000D01*
X176322000Y-69708000D01*
X176322000Y-69208000D01*
X176860216Y-69208000D01*
X176927255Y-69227685D01*
X176967602Y-69269999D01*
X176991485Y-69311365D01*
X177098635Y-69418515D01*
X177229865Y-69494281D01*
X177376234Y-69533500D01*
X177376236Y-69533500D01*
X177527764Y-69533500D01*
X177527766Y-69533500D01*
X177674135Y-69494281D01*
X177805365Y-69418515D01*
X177912515Y-69311365D01*
X177988281Y-69180135D01*
X178027500Y-69033766D01*
X178027500Y-68882234D01*
X177988281Y-68735865D01*
X177912515Y-68604635D01*
X177805365Y-68497485D01*
X177718046Y-68447071D01*
X177674136Y-68421719D01*
X177600950Y-68402109D01*
X177527766Y-68382500D01*
X177376234Y-68382500D01*
X177229863Y-68421719D01*
X177140107Y-68473541D01*
X177098635Y-68497485D01*
X177098633Y-68497486D01*
X177091597Y-68501549D01*
X177090327Y-68499349D01*
X177036995Y-68519960D01*
X176968552Y-68505914D01*
X176918568Y-68457094D01*
X176912131Y-68443838D01*
X176908192Y-68434328D01*
X176908185Y-68434315D01*
X176798751Y-68270537D01*
X176798748Y-68270533D01*
X176659466Y-68131251D01*
X176659462Y-68131248D01*
X176495684Y-68021814D01*
X176495671Y-68021807D01*
X176313691Y-67946429D01*
X176313683Y-67946427D01*
X176272000Y-67938135D01*
X176272000Y-68741011D01*
X176262060Y-68723795D01*
X176206205Y-68667940D01*
X176137796Y-68628444D01*
X176061496Y-68608000D01*
X175982504Y-68608000D01*
X175906204Y-68628444D01*
X175837795Y-68667940D01*
X175781940Y-68723795D01*
X175772000Y-68741011D01*
X175772000Y-67938136D01*
X175771999Y-67938135D01*
X175730316Y-67946427D01*
X175730308Y-67946429D01*
X175548328Y-68021807D01*
X175548315Y-68021814D01*
X175384537Y-68131248D01*
X175384533Y-68131251D01*
X175245251Y-68270533D01*
X175245248Y-68270537D01*
X175135814Y-68434315D01*
X175135807Y-68434328D01*
X175060430Y-68616306D01*
X175060427Y-68616318D01*
X175022000Y-68809504D01*
X164247914Y-68809504D01*
X164967411Y-68090008D01*
X165036083Y-67987233D01*
X165075749Y-67891470D01*
X165083386Y-67873034D01*
X165107500Y-67751803D01*
X165107500Y-67628197D01*
X165107500Y-67354500D01*
X165127185Y-67287461D01*
X165179989Y-67241706D01*
X165231500Y-67230500D01*
X165330003Y-67230500D01*
X165330008Y-67230500D01*
X165432797Y-67219999D01*
X165599334Y-67164814D01*
X165748655Y-67072711D01*
X165872711Y-66948655D01*
X165964814Y-66799334D01*
X166019999Y-66632797D01*
X166030500Y-66530008D01*
X166030500Y-65680000D01*
X167525207Y-65680000D01*
X167544348Y-65923219D01*
X167601303Y-66160457D01*
X167694668Y-66385861D01*
X167818504Y-66587942D01*
X168556212Y-65850234D01*
X168567482Y-65892292D01*
X168639890Y-66017708D01*
X168742292Y-66120110D01*
X168867708Y-66192518D01*
X168909765Y-66203787D01*
X168172056Y-66941494D01*
X168374138Y-67065331D01*
X168599542Y-67158696D01*
X168836780Y-67215651D01*
X168836779Y-67215651D01*
X169080000Y-67234792D01*
X169323219Y-67215651D01*
X169560457Y-67158696D01*
X169785861Y-67065331D01*
X169987942Y-66941494D01*
X169250234Y-66203787D01*
X169292292Y-66192518D01*
X169417708Y-66120110D01*
X169520110Y-66017708D01*
X169592518Y-65892292D01*
X169603787Y-65850235D01*
X170341494Y-66587942D01*
X170465331Y-66385861D01*
X170558696Y-66160457D01*
X170615651Y-65923219D01*
X170634792Y-65680000D01*
X170615651Y-65436780D01*
X170558696Y-65199542D01*
X170465331Y-64974138D01*
X170346058Y-64779504D01*
X175022000Y-64779504D01*
X175022000Y-65028000D01*
X175722000Y-65028000D01*
X175722000Y-65528000D01*
X175022000Y-65528000D01*
X175022000Y-65776495D01*
X175060427Y-65969681D01*
X175060430Y-65969693D01*
X175135807Y-66151671D01*
X175135814Y-66151684D01*
X175245248Y-66315462D01*
X175245251Y-66315466D01*
X175384533Y-66454748D01*
X175384537Y-66454751D01*
X175548315Y-66564185D01*
X175548328Y-66564192D01*
X175730308Y-66639569D01*
X175772000Y-66647862D01*
X175772000Y-65844988D01*
X175781940Y-65862205D01*
X175837795Y-65918060D01*
X175906204Y-65957556D01*
X175982504Y-65978000D01*
X176061496Y-65978000D01*
X176137796Y-65957556D01*
X176206205Y-65918060D01*
X176262060Y-65862205D01*
X176272000Y-65844988D01*
X176272000Y-66647862D01*
X176313690Y-66639569D01*
X176313692Y-66639569D01*
X176495671Y-66564192D01*
X176495684Y-66564185D01*
X176659462Y-66454751D01*
X176659466Y-66454748D01*
X176798748Y-66315466D01*
X176798751Y-66315462D01*
X176908185Y-66151684D01*
X176908192Y-66151671D01*
X176983569Y-65969693D01*
X176983572Y-65969681D01*
X177021999Y-65776495D01*
X177022000Y-65776492D01*
X177022000Y-65528000D01*
X176322000Y-65528000D01*
X176322000Y-65028000D01*
X177022000Y-65028000D01*
X177022000Y-64779508D01*
X177021999Y-64779504D01*
X176983572Y-64586318D01*
X176983569Y-64586306D01*
X176908192Y-64404328D01*
X176908185Y-64404315D01*
X176798751Y-64240537D01*
X176798748Y-64240533D01*
X176659466Y-64101251D01*
X176659462Y-64101248D01*
X176495684Y-63991814D01*
X176495671Y-63991807D01*
X176313691Y-63916429D01*
X176313683Y-63916427D01*
X176272000Y-63908135D01*
X176272000Y-64711011D01*
X176262060Y-64693795D01*
X176206205Y-64637940D01*
X176137796Y-64598444D01*
X176061496Y-64578000D01*
X175982504Y-64578000D01*
X175906204Y-64598444D01*
X175837795Y-64637940D01*
X175781940Y-64693795D01*
X175772000Y-64711011D01*
X175772000Y-63908136D01*
X175771999Y-63908135D01*
X175730316Y-63916427D01*
X175730308Y-63916429D01*
X175548328Y-63991807D01*
X175548315Y-63991814D01*
X175384537Y-64101248D01*
X175384533Y-64101251D01*
X175245251Y-64240533D01*
X175245248Y-64240537D01*
X175135814Y-64404315D01*
X175135807Y-64404328D01*
X175060430Y-64586306D01*
X175060427Y-64586318D01*
X175022000Y-64779504D01*
X170346058Y-64779504D01*
X170341494Y-64772056D01*
X169603787Y-65509764D01*
X169592518Y-65467708D01*
X169520110Y-65342292D01*
X169417708Y-65239890D01*
X169292292Y-65167482D01*
X169250233Y-65156212D01*
X169987942Y-64418504D01*
X169785861Y-64294668D01*
X169560457Y-64201303D01*
X169323219Y-64144348D01*
X169323220Y-64144348D01*
X169080000Y-64125207D01*
X168836780Y-64144348D01*
X168599542Y-64201303D01*
X168374146Y-64294665D01*
X168374141Y-64294668D01*
X168172056Y-64418504D01*
X168909765Y-65156212D01*
X168867708Y-65167482D01*
X168742292Y-65239890D01*
X168639890Y-65342292D01*
X168567482Y-65467708D01*
X168556212Y-65509765D01*
X167818504Y-64772056D01*
X167694668Y-64974141D01*
X167694665Y-64974146D01*
X167601303Y-65199542D01*
X167544348Y-65436780D01*
X167525207Y-65680000D01*
X166030500Y-65680000D01*
X166030500Y-64829992D01*
X166019999Y-64727203D01*
X165964814Y-64560666D01*
X165946308Y-64530664D01*
X165872713Y-64411348D01*
X165872710Y-64411344D01*
X165748655Y-64287289D01*
X165748651Y-64287286D01*
X165599337Y-64195187D01*
X165599335Y-64195186D01*
X165445915Y-64144348D01*
X165432797Y-64140001D01*
X165432795Y-64140000D01*
X165330015Y-64129500D01*
X165330008Y-64129500D01*
X163629992Y-64129500D01*
X163629984Y-64129500D01*
X163527204Y-64140000D01*
X163527203Y-64140001D01*
X163360664Y-64195186D01*
X163360662Y-64195187D01*
X163211348Y-64287286D01*
X163211344Y-64287289D01*
X163087289Y-64411344D01*
X163087286Y-64411348D01*
X162995187Y-64560662D01*
X162995186Y-64560664D01*
X162940001Y-64727203D01*
X162940000Y-64727204D01*
X162929500Y-64829984D01*
X162929500Y-66530015D01*
X162935630Y-66590015D01*
X162940001Y-66632797D01*
X162942168Y-66639337D01*
X162995186Y-66799335D01*
X162995187Y-66799337D01*
X163087286Y-66948651D01*
X163087289Y-66948655D01*
X163211344Y-67072710D01*
X163211348Y-67072713D01*
X163360662Y-67164812D01*
X163360664Y-67164813D01*
X163360666Y-67164814D01*
X163527203Y-67219999D01*
X163629992Y-67230500D01*
X163728500Y-67230500D01*
X163795539Y-67250185D01*
X163841294Y-67302989D01*
X163852500Y-67354500D01*
X163852500Y-67378718D01*
X163832815Y-67445757D01*
X163816181Y-67466399D01*
X162738432Y-68544147D01*
X162677109Y-68577632D01*
X162664637Y-68579686D01*
X162620745Y-68584632D01*
X162450478Y-68644210D01*
X162297737Y-68740184D01*
X162170184Y-68867737D01*
X162074211Y-69020476D01*
X162014631Y-69190745D01*
X162014630Y-69190750D01*
X161994435Y-69369996D01*
X150148076Y-69369996D01*
X150150472Y-69364211D01*
X150163386Y-69333034D01*
X150187500Y-69211803D01*
X150187500Y-69088197D01*
X150187500Y-67414500D01*
X150207185Y-67347461D01*
X150259989Y-67301706D01*
X150311500Y-67290500D01*
X150410003Y-67290500D01*
X150410008Y-67290500D01*
X150512797Y-67279999D01*
X150679334Y-67224814D01*
X150828655Y-67132711D01*
X150952711Y-67008655D01*
X151044814Y-66859334D01*
X151099999Y-66692797D01*
X151110500Y-66590008D01*
X151110500Y-65740000D01*
X152605207Y-65740000D01*
X152624348Y-65983219D01*
X152681303Y-66220457D01*
X152774668Y-66445861D01*
X152898504Y-66647942D01*
X153636212Y-65910234D01*
X153647482Y-65952292D01*
X153719890Y-66077708D01*
X153822292Y-66180110D01*
X153947708Y-66252518D01*
X153989765Y-66263787D01*
X153252056Y-67001494D01*
X153454138Y-67125331D01*
X153679542Y-67218696D01*
X153916780Y-67275651D01*
X153916779Y-67275651D01*
X154160000Y-67294792D01*
X154403219Y-67275651D01*
X154640457Y-67218696D01*
X154865861Y-67125331D01*
X155067942Y-67001494D01*
X154330234Y-66263787D01*
X154372292Y-66252518D01*
X154497708Y-66180110D01*
X154600110Y-66077708D01*
X154672518Y-65952292D01*
X154683787Y-65910235D01*
X155421494Y-66647942D01*
X155545331Y-66445861D01*
X155638696Y-66220457D01*
X155695651Y-65983219D01*
X155714792Y-65740000D01*
X155695651Y-65496780D01*
X155638696Y-65259542D01*
X155545331Y-65034138D01*
X155421494Y-64832056D01*
X154683787Y-65569764D01*
X154672518Y-65527708D01*
X154600110Y-65402292D01*
X154497708Y-65299890D01*
X154372292Y-65227482D01*
X154330233Y-65216212D01*
X155067942Y-64478504D01*
X154865861Y-64354668D01*
X154640457Y-64261303D01*
X154403219Y-64204348D01*
X154403220Y-64204348D01*
X154160000Y-64185207D01*
X153916780Y-64204348D01*
X153679542Y-64261303D01*
X153454146Y-64354665D01*
X153454141Y-64354668D01*
X153252056Y-64478504D01*
X153989765Y-65216212D01*
X153947708Y-65227482D01*
X153822292Y-65299890D01*
X153719890Y-65402292D01*
X153647482Y-65527708D01*
X153636212Y-65569765D01*
X152898504Y-64832056D01*
X152774668Y-65034141D01*
X152774665Y-65034146D01*
X152681303Y-65259542D01*
X152624348Y-65496780D01*
X152605207Y-65740000D01*
X151110500Y-65740000D01*
X151110500Y-64889992D01*
X151099999Y-64787203D01*
X151044814Y-64620666D01*
X151039503Y-64612056D01*
X150952713Y-64471348D01*
X150952710Y-64471344D01*
X150828655Y-64347289D01*
X150828651Y-64347286D01*
X150679337Y-64255187D01*
X150679335Y-64255186D01*
X150525915Y-64204348D01*
X150512797Y-64200001D01*
X150512795Y-64200000D01*
X150410015Y-64189500D01*
X150410008Y-64189500D01*
X148709992Y-64189500D01*
X148709984Y-64189500D01*
X148607204Y-64200000D01*
X148607203Y-64200001D01*
X148440664Y-64255186D01*
X148440662Y-64255187D01*
X148291348Y-64347286D01*
X148291344Y-64347289D01*
X148167289Y-64471344D01*
X148167286Y-64471348D01*
X148075187Y-64620662D01*
X148075186Y-64620664D01*
X148020001Y-64787203D01*
X148020000Y-64787204D01*
X148009500Y-64889984D01*
X148009500Y-66590015D01*
X148020000Y-66692795D01*
X148020001Y-66692796D01*
X148075186Y-66859335D01*
X148075187Y-66859337D01*
X148167286Y-67008651D01*
X148167289Y-67008655D01*
X148291344Y-67132710D01*
X148291348Y-67132713D01*
X148440662Y-67224812D01*
X148440664Y-67224813D01*
X148440666Y-67224814D01*
X148607203Y-67279999D01*
X148709992Y-67290500D01*
X148808500Y-67290500D01*
X148875539Y-67310185D01*
X148921294Y-67362989D01*
X148932500Y-67414500D01*
X148932500Y-68838718D01*
X148912815Y-68905757D01*
X148896181Y-68926399D01*
X148558432Y-69264147D01*
X148497109Y-69297632D01*
X148484637Y-69299686D01*
X148440745Y-69304632D01*
X148270478Y-69364210D01*
X148117737Y-69460184D01*
X147990184Y-69587737D01*
X147894211Y-69740476D01*
X147834631Y-69910745D01*
X147834630Y-69910750D01*
X147814435Y-70089996D01*
X105731799Y-70089996D01*
X105737614Y-64799984D01*
X113299500Y-64799984D01*
X113299500Y-66500015D01*
X113310000Y-66602795D01*
X113310001Y-66602797D01*
X113319942Y-66632796D01*
X113365186Y-66769335D01*
X113365187Y-66769337D01*
X113457286Y-66918651D01*
X113457289Y-66918655D01*
X113581344Y-67042710D01*
X113581348Y-67042713D01*
X113730662Y-67134812D01*
X113730664Y-67134813D01*
X113730666Y-67134814D01*
X113897203Y-67189999D01*
X113999992Y-67200500D01*
X113999997Y-67200500D01*
X115700003Y-67200500D01*
X115700008Y-67200500D01*
X115802797Y-67189999D01*
X115969334Y-67134814D01*
X116118655Y-67042711D01*
X116242711Y-66918655D01*
X116334814Y-66769334D01*
X116389999Y-66602797D01*
X116400500Y-66500008D01*
X116400500Y-65650000D01*
X117895207Y-65650000D01*
X117914348Y-65893219D01*
X117971303Y-66130457D01*
X118064668Y-66355861D01*
X118188504Y-66557942D01*
X118926212Y-65820234D01*
X118937482Y-65862292D01*
X119009890Y-65987708D01*
X119112292Y-66090110D01*
X119237708Y-66162518D01*
X119279765Y-66173787D01*
X118542056Y-66911494D01*
X118744138Y-67035331D01*
X118969542Y-67128696D01*
X119206780Y-67185651D01*
X119206779Y-67185651D01*
X119450000Y-67204792D01*
X119693219Y-67185651D01*
X119930457Y-67128696D01*
X120155861Y-67035331D01*
X120357942Y-66911494D01*
X119620234Y-66173787D01*
X119662292Y-66162518D01*
X119787708Y-66090110D01*
X119890110Y-65987708D01*
X119962518Y-65862292D01*
X119973787Y-65820234D01*
X120711494Y-66557942D01*
X120835331Y-66355861D01*
X120928696Y-66130457D01*
X120985651Y-65893219D01*
X121004792Y-65650000D01*
X120985651Y-65406780D01*
X120928696Y-65169542D01*
X120835331Y-64944138D01*
X120711494Y-64742056D01*
X119973787Y-65479764D01*
X119962518Y-65437708D01*
X119890110Y-65312292D01*
X119787708Y-65209890D01*
X119662292Y-65137482D01*
X119620233Y-65126212D01*
X120076462Y-64669984D01*
X131189500Y-64669984D01*
X131189500Y-66370015D01*
X131200000Y-66472795D01*
X131200001Y-66472796D01*
X131255186Y-66639335D01*
X131255187Y-66639337D01*
X131347286Y-66788651D01*
X131347289Y-66788655D01*
X131471344Y-66912710D01*
X131471348Y-66912713D01*
X131620662Y-67004812D01*
X131620664Y-67004813D01*
X131620666Y-67004814D01*
X131787203Y-67059999D01*
X131889992Y-67070500D01*
X131889997Y-67070500D01*
X133590003Y-67070500D01*
X133590008Y-67070500D01*
X133692797Y-67059999D01*
X133859334Y-67004814D01*
X134008655Y-66912711D01*
X134132711Y-66788655D01*
X134224814Y-66639334D01*
X134279999Y-66472797D01*
X134290500Y-66370008D01*
X134290500Y-65520000D01*
X135785207Y-65520000D01*
X135804348Y-65763219D01*
X135861303Y-66000457D01*
X135954668Y-66225861D01*
X136078504Y-66427942D01*
X136816212Y-65690234D01*
X136827482Y-65732292D01*
X136899890Y-65857708D01*
X137002292Y-65960110D01*
X137127708Y-66032518D01*
X137169765Y-66043787D01*
X136432056Y-66781494D01*
X136634138Y-66905331D01*
X136859542Y-66998696D01*
X137096780Y-67055651D01*
X137096779Y-67055651D01*
X137340000Y-67074792D01*
X137583219Y-67055651D01*
X137820457Y-66998696D01*
X138045861Y-66905331D01*
X138247942Y-66781494D01*
X137510234Y-66043787D01*
X137552292Y-66032518D01*
X137677708Y-65960110D01*
X137780110Y-65857708D01*
X137852518Y-65732292D01*
X137863787Y-65690234D01*
X138601494Y-66427942D01*
X138725331Y-66225861D01*
X138818696Y-66000457D01*
X138875651Y-65763219D01*
X138894792Y-65520000D01*
X138875651Y-65276780D01*
X138818696Y-65039542D01*
X138725331Y-64814138D01*
X138601494Y-64612056D01*
X137863787Y-65349764D01*
X137852518Y-65307708D01*
X137780110Y-65182292D01*
X137677708Y-65079890D01*
X137552292Y-65007482D01*
X137510233Y-64996212D01*
X138247942Y-64258504D01*
X138045861Y-64134668D01*
X137820457Y-64041303D01*
X137583219Y-63984348D01*
X137583220Y-63984348D01*
X137340000Y-63965207D01*
X137096780Y-63984348D01*
X136859542Y-64041303D01*
X136634146Y-64134665D01*
X136634141Y-64134668D01*
X136432056Y-64258504D01*
X137169765Y-64996212D01*
X137127708Y-65007482D01*
X137002292Y-65079890D01*
X136899890Y-65182292D01*
X136827482Y-65307708D01*
X136816212Y-65349765D01*
X136078504Y-64612056D01*
X135954668Y-64814141D01*
X135954665Y-64814146D01*
X135861303Y-65039542D01*
X135804348Y-65276780D01*
X135785207Y-65520000D01*
X134290500Y-65520000D01*
X134290500Y-64669992D01*
X134279999Y-64567203D01*
X134224814Y-64400666D01*
X134217312Y-64388504D01*
X134132713Y-64251348D01*
X134132710Y-64251344D01*
X134008655Y-64127289D01*
X134008651Y-64127286D01*
X133859337Y-64035187D01*
X133859335Y-64035186D01*
X133705915Y-63984348D01*
X133692797Y-63980001D01*
X133692795Y-63980000D01*
X133590015Y-63969500D01*
X133590008Y-63969500D01*
X131889992Y-63969500D01*
X131889984Y-63969500D01*
X131787204Y-63980000D01*
X131787203Y-63980001D01*
X131620664Y-64035186D01*
X131620662Y-64035187D01*
X131471348Y-64127286D01*
X131471344Y-64127289D01*
X131347289Y-64251344D01*
X131347286Y-64251348D01*
X131255187Y-64400662D01*
X131255186Y-64400664D01*
X131200001Y-64567203D01*
X131200000Y-64567204D01*
X131189500Y-64669984D01*
X120076462Y-64669984D01*
X120357942Y-64388504D01*
X120155861Y-64264668D01*
X119930457Y-64171303D01*
X119693219Y-64114348D01*
X119693220Y-64114348D01*
X119450000Y-64095207D01*
X119206780Y-64114348D01*
X118969542Y-64171303D01*
X118744146Y-64264665D01*
X118744141Y-64264668D01*
X118542056Y-64388504D01*
X119279765Y-65126212D01*
X119237708Y-65137482D01*
X119112292Y-65209890D01*
X119009890Y-65312292D01*
X118937482Y-65437708D01*
X118926212Y-65479765D01*
X118188504Y-64742056D01*
X118064668Y-64944141D01*
X118064665Y-64944146D01*
X117971303Y-65169542D01*
X117914348Y-65406780D01*
X117895207Y-65650000D01*
X116400500Y-65650000D01*
X116400500Y-64799992D01*
X116389999Y-64697203D01*
X116334814Y-64530666D01*
X116298223Y-64471344D01*
X116242713Y-64381348D01*
X116242710Y-64381344D01*
X116118655Y-64257289D01*
X116118651Y-64257286D01*
X115969337Y-64165187D01*
X115969335Y-64165186D01*
X115861641Y-64129500D01*
X115802797Y-64110001D01*
X115802795Y-64110000D01*
X115700015Y-64099500D01*
X115700008Y-64099500D01*
X113999992Y-64099500D01*
X113999984Y-64099500D01*
X113897204Y-64110000D01*
X113897203Y-64110001D01*
X113730664Y-64165186D01*
X113730662Y-64165187D01*
X113581348Y-64257286D01*
X113581344Y-64257289D01*
X113457289Y-64381344D01*
X113457286Y-64381348D01*
X113365187Y-64530662D01*
X113365186Y-64530664D01*
X113310001Y-64697203D01*
X113310000Y-64697204D01*
X113299500Y-64799984D01*
X105737614Y-64799984D01*
X105739819Y-62794362D01*
X105759577Y-62727346D01*
X105812432Y-62681649D01*
X105863819Y-62670500D01*
X185665852Y-62670500D01*
X185732891Y-62690185D01*
G37*
%TD.AperFunction*%
%TD*%
M02*
