%TF.GenerationSoftware,KiCad,Pcbnew,8.0.8*%
%TF.CreationDate,2026-04-07T23:28:17-05:00*%
%TF.ProjectId,glove_pcb_esp32,676c6f76-655f-4706-9362-5f6573703332,rev?*%
%TF.SameCoordinates,Original*%
%TF.FileFunction,Legend,Top*%
%TF.FilePolarity,Positive*%
%FSLAX46Y46*%
G04 Gerber Fmt 4.6, Leading zero omitted, Abs format (unit mm)*
G04 Created by KiCad (PCBNEW 8.0.8) date 2026-04-07 23:28:17*
%MOMM*%
%LPD*%
G01*
G04 APERTURE LIST*
%ADD10C,0.150000*%
%ADD11C,0.254000*%
%ADD12C,0.120000*%
%ADD13C,0.200000*%
G04 APERTURE END LIST*
D10*
X139714819Y-87322857D02*
X139238628Y-87656190D01*
X139714819Y-87894285D02*
X138714819Y-87894285D01*
X138714819Y-87894285D02*
X138714819Y-87513333D01*
X138714819Y-87513333D02*
X138762438Y-87418095D01*
X138762438Y-87418095D02*
X138810057Y-87370476D01*
X138810057Y-87370476D02*
X138905295Y-87322857D01*
X138905295Y-87322857D02*
X139048152Y-87322857D01*
X139048152Y-87322857D02*
X139143390Y-87370476D01*
X139143390Y-87370476D02*
X139191009Y-87418095D01*
X139191009Y-87418095D02*
X139238628Y-87513333D01*
X139238628Y-87513333D02*
X139238628Y-87894285D01*
X139714819Y-86370476D02*
X139714819Y-86941904D01*
X139714819Y-86656190D02*
X138714819Y-86656190D01*
X138714819Y-86656190D02*
X138857676Y-86751428D01*
X138857676Y-86751428D02*
X138952914Y-86846666D01*
X138952914Y-86846666D02*
X139000533Y-86941904D01*
X138714819Y-85751428D02*
X138714819Y-85656190D01*
X138714819Y-85656190D02*
X138762438Y-85560952D01*
X138762438Y-85560952D02*
X138810057Y-85513333D01*
X138810057Y-85513333D02*
X138905295Y-85465714D01*
X138905295Y-85465714D02*
X139095771Y-85418095D01*
X139095771Y-85418095D02*
X139333866Y-85418095D01*
X139333866Y-85418095D02*
X139524342Y-85465714D01*
X139524342Y-85465714D02*
X139619580Y-85513333D01*
X139619580Y-85513333D02*
X139667200Y-85560952D01*
X139667200Y-85560952D02*
X139714819Y-85656190D01*
X139714819Y-85656190D02*
X139714819Y-85751428D01*
X139714819Y-85751428D02*
X139667200Y-85846666D01*
X139667200Y-85846666D02*
X139619580Y-85894285D01*
X139619580Y-85894285D02*
X139524342Y-85941904D01*
X139524342Y-85941904D02*
X139333866Y-85989523D01*
X139333866Y-85989523D02*
X139095771Y-85989523D01*
X139095771Y-85989523D02*
X138905295Y-85941904D01*
X138905295Y-85941904D02*
X138810057Y-85894285D01*
X138810057Y-85894285D02*
X138762438Y-85846666D01*
X138762438Y-85846666D02*
X138714819Y-85751428D01*
X162829819Y-102379523D02*
X163544104Y-102379523D01*
X163544104Y-102379523D02*
X163686961Y-102427142D01*
X163686961Y-102427142D02*
X163782200Y-102522380D01*
X163782200Y-102522380D02*
X163829819Y-102665237D01*
X163829819Y-102665237D02*
X163829819Y-102760475D01*
X163829819Y-101379523D02*
X163829819Y-101950951D01*
X163829819Y-101665237D02*
X162829819Y-101665237D01*
X162829819Y-101665237D02*
X162972676Y-101760475D01*
X162972676Y-101760475D02*
X163067914Y-101855713D01*
X163067914Y-101855713D02*
X163115533Y-101950951D01*
X163163152Y-100522380D02*
X163829819Y-100522380D01*
X162782200Y-100760475D02*
X163496485Y-100998570D01*
X163496485Y-100998570D02*
X163496485Y-100379523D01*
X136954819Y-98116666D02*
X136478628Y-98449999D01*
X136954819Y-98688094D02*
X135954819Y-98688094D01*
X135954819Y-98688094D02*
X135954819Y-98307142D01*
X135954819Y-98307142D02*
X136002438Y-98211904D01*
X136002438Y-98211904D02*
X136050057Y-98164285D01*
X136050057Y-98164285D02*
X136145295Y-98116666D01*
X136145295Y-98116666D02*
X136288152Y-98116666D01*
X136288152Y-98116666D02*
X136383390Y-98164285D01*
X136383390Y-98164285D02*
X136431009Y-98211904D01*
X136431009Y-98211904D02*
X136478628Y-98307142D01*
X136478628Y-98307142D02*
X136478628Y-98688094D01*
X136383390Y-97545237D02*
X136335771Y-97640475D01*
X136335771Y-97640475D02*
X136288152Y-97688094D01*
X136288152Y-97688094D02*
X136192914Y-97735713D01*
X136192914Y-97735713D02*
X136145295Y-97735713D01*
X136145295Y-97735713D02*
X136050057Y-97688094D01*
X136050057Y-97688094D02*
X136002438Y-97640475D01*
X136002438Y-97640475D02*
X135954819Y-97545237D01*
X135954819Y-97545237D02*
X135954819Y-97354761D01*
X135954819Y-97354761D02*
X136002438Y-97259523D01*
X136002438Y-97259523D02*
X136050057Y-97211904D01*
X136050057Y-97211904D02*
X136145295Y-97164285D01*
X136145295Y-97164285D02*
X136192914Y-97164285D01*
X136192914Y-97164285D02*
X136288152Y-97211904D01*
X136288152Y-97211904D02*
X136335771Y-97259523D01*
X136335771Y-97259523D02*
X136383390Y-97354761D01*
X136383390Y-97354761D02*
X136383390Y-97545237D01*
X136383390Y-97545237D02*
X136431009Y-97640475D01*
X136431009Y-97640475D02*
X136478628Y-97688094D01*
X136478628Y-97688094D02*
X136573866Y-97735713D01*
X136573866Y-97735713D02*
X136764342Y-97735713D01*
X136764342Y-97735713D02*
X136859580Y-97688094D01*
X136859580Y-97688094D02*
X136907200Y-97640475D01*
X136907200Y-97640475D02*
X136954819Y-97545237D01*
X136954819Y-97545237D02*
X136954819Y-97354761D01*
X136954819Y-97354761D02*
X136907200Y-97259523D01*
X136907200Y-97259523D02*
X136859580Y-97211904D01*
X136859580Y-97211904D02*
X136764342Y-97164285D01*
X136764342Y-97164285D02*
X136573866Y-97164285D01*
X136573866Y-97164285D02*
X136478628Y-97211904D01*
X136478628Y-97211904D02*
X136431009Y-97259523D01*
X136431009Y-97259523D02*
X136383390Y-97354761D01*
X116975833Y-101859580D02*
X116928214Y-101907200D01*
X116928214Y-101907200D02*
X116785357Y-101954819D01*
X116785357Y-101954819D02*
X116690119Y-101954819D01*
X116690119Y-101954819D02*
X116547262Y-101907200D01*
X116547262Y-101907200D02*
X116452024Y-101811961D01*
X116452024Y-101811961D02*
X116404405Y-101716723D01*
X116404405Y-101716723D02*
X116356786Y-101526247D01*
X116356786Y-101526247D02*
X116356786Y-101383390D01*
X116356786Y-101383390D02*
X116404405Y-101192914D01*
X116404405Y-101192914D02*
X116452024Y-101097676D01*
X116452024Y-101097676D02*
X116547262Y-101002438D01*
X116547262Y-101002438D02*
X116690119Y-100954819D01*
X116690119Y-100954819D02*
X116785357Y-100954819D01*
X116785357Y-100954819D02*
X116928214Y-101002438D01*
X116928214Y-101002438D02*
X116975833Y-101050057D01*
X117547262Y-101383390D02*
X117452024Y-101335771D01*
X117452024Y-101335771D02*
X117404405Y-101288152D01*
X117404405Y-101288152D02*
X117356786Y-101192914D01*
X117356786Y-101192914D02*
X117356786Y-101145295D01*
X117356786Y-101145295D02*
X117404405Y-101050057D01*
X117404405Y-101050057D02*
X117452024Y-101002438D01*
X117452024Y-101002438D02*
X117547262Y-100954819D01*
X117547262Y-100954819D02*
X117737738Y-100954819D01*
X117737738Y-100954819D02*
X117832976Y-101002438D01*
X117832976Y-101002438D02*
X117880595Y-101050057D01*
X117880595Y-101050057D02*
X117928214Y-101145295D01*
X117928214Y-101145295D02*
X117928214Y-101192914D01*
X117928214Y-101192914D02*
X117880595Y-101288152D01*
X117880595Y-101288152D02*
X117832976Y-101335771D01*
X117832976Y-101335771D02*
X117737738Y-101383390D01*
X117737738Y-101383390D02*
X117547262Y-101383390D01*
X117547262Y-101383390D02*
X117452024Y-101431009D01*
X117452024Y-101431009D02*
X117404405Y-101478628D01*
X117404405Y-101478628D02*
X117356786Y-101573866D01*
X117356786Y-101573866D02*
X117356786Y-101764342D01*
X117356786Y-101764342D02*
X117404405Y-101859580D01*
X117404405Y-101859580D02*
X117452024Y-101907200D01*
X117452024Y-101907200D02*
X117547262Y-101954819D01*
X117547262Y-101954819D02*
X117737738Y-101954819D01*
X117737738Y-101954819D02*
X117832976Y-101907200D01*
X117832976Y-101907200D02*
X117880595Y-101859580D01*
X117880595Y-101859580D02*
X117928214Y-101764342D01*
X117928214Y-101764342D02*
X117928214Y-101573866D01*
X117928214Y-101573866D02*
X117880595Y-101478628D01*
X117880595Y-101478628D02*
X117832976Y-101431009D01*
X117832976Y-101431009D02*
X117737738Y-101383390D01*
X136524819Y-102426666D02*
X136048628Y-102759999D01*
X136524819Y-102998094D02*
X135524819Y-102998094D01*
X135524819Y-102998094D02*
X135524819Y-102617142D01*
X135524819Y-102617142D02*
X135572438Y-102521904D01*
X135572438Y-102521904D02*
X135620057Y-102474285D01*
X135620057Y-102474285D02*
X135715295Y-102426666D01*
X135715295Y-102426666D02*
X135858152Y-102426666D01*
X135858152Y-102426666D02*
X135953390Y-102474285D01*
X135953390Y-102474285D02*
X136001009Y-102521904D01*
X136001009Y-102521904D02*
X136048628Y-102617142D01*
X136048628Y-102617142D02*
X136048628Y-102998094D01*
X135524819Y-101521904D02*
X135524819Y-101998094D01*
X135524819Y-101998094D02*
X136001009Y-102045713D01*
X136001009Y-102045713D02*
X135953390Y-101998094D01*
X135953390Y-101998094D02*
X135905771Y-101902856D01*
X135905771Y-101902856D02*
X135905771Y-101664761D01*
X135905771Y-101664761D02*
X135953390Y-101569523D01*
X135953390Y-101569523D02*
X136001009Y-101521904D01*
X136001009Y-101521904D02*
X136096247Y-101474285D01*
X136096247Y-101474285D02*
X136334342Y-101474285D01*
X136334342Y-101474285D02*
X136429580Y-101521904D01*
X136429580Y-101521904D02*
X136477200Y-101569523D01*
X136477200Y-101569523D02*
X136524819Y-101664761D01*
X136524819Y-101664761D02*
X136524819Y-101902856D01*
X136524819Y-101902856D02*
X136477200Y-101998094D01*
X136477200Y-101998094D02*
X136429580Y-102045713D01*
X131067142Y-69244819D02*
X130733809Y-68768628D01*
X130495714Y-69244819D02*
X130495714Y-68244819D01*
X130495714Y-68244819D02*
X130876666Y-68244819D01*
X130876666Y-68244819D02*
X130971904Y-68292438D01*
X130971904Y-68292438D02*
X131019523Y-68340057D01*
X131019523Y-68340057D02*
X131067142Y-68435295D01*
X131067142Y-68435295D02*
X131067142Y-68578152D01*
X131067142Y-68578152D02*
X131019523Y-68673390D01*
X131019523Y-68673390D02*
X130971904Y-68721009D01*
X130971904Y-68721009D02*
X130876666Y-68768628D01*
X130876666Y-68768628D02*
X130495714Y-68768628D01*
X132019523Y-69244819D02*
X131448095Y-69244819D01*
X131733809Y-69244819D02*
X131733809Y-68244819D01*
X131733809Y-68244819D02*
X131638571Y-68387676D01*
X131638571Y-68387676D02*
X131543333Y-68482914D01*
X131543333Y-68482914D02*
X131448095Y-68530533D01*
X132924285Y-68244819D02*
X132448095Y-68244819D01*
X132448095Y-68244819D02*
X132400476Y-68721009D01*
X132400476Y-68721009D02*
X132448095Y-68673390D01*
X132448095Y-68673390D02*
X132543333Y-68625771D01*
X132543333Y-68625771D02*
X132781428Y-68625771D01*
X132781428Y-68625771D02*
X132876666Y-68673390D01*
X132876666Y-68673390D02*
X132924285Y-68721009D01*
X132924285Y-68721009D02*
X132971904Y-68816247D01*
X132971904Y-68816247D02*
X132971904Y-69054342D01*
X132971904Y-69054342D02*
X132924285Y-69149580D01*
X132924285Y-69149580D02*
X132876666Y-69197200D01*
X132876666Y-69197200D02*
X132781428Y-69244819D01*
X132781428Y-69244819D02*
X132543333Y-69244819D01*
X132543333Y-69244819D02*
X132448095Y-69197200D01*
X132448095Y-69197200D02*
X132400476Y-69149580D01*
X156676667Y-85087200D02*
X156819524Y-85134819D01*
X156819524Y-85134819D02*
X157057619Y-85134819D01*
X157057619Y-85134819D02*
X157152857Y-85087200D01*
X157152857Y-85087200D02*
X157200476Y-85039580D01*
X157200476Y-85039580D02*
X157248095Y-84944342D01*
X157248095Y-84944342D02*
X157248095Y-84849104D01*
X157248095Y-84849104D02*
X157200476Y-84753866D01*
X157200476Y-84753866D02*
X157152857Y-84706247D01*
X157152857Y-84706247D02*
X157057619Y-84658628D01*
X157057619Y-84658628D02*
X156867143Y-84611009D01*
X156867143Y-84611009D02*
X156771905Y-84563390D01*
X156771905Y-84563390D02*
X156724286Y-84515771D01*
X156724286Y-84515771D02*
X156676667Y-84420533D01*
X156676667Y-84420533D02*
X156676667Y-84325295D01*
X156676667Y-84325295D02*
X156724286Y-84230057D01*
X156724286Y-84230057D02*
X156771905Y-84182438D01*
X156771905Y-84182438D02*
X156867143Y-84134819D01*
X156867143Y-84134819D02*
X157105238Y-84134819D01*
X157105238Y-84134819D02*
X157248095Y-84182438D01*
X157581429Y-84134819D02*
X157819524Y-85134819D01*
X157819524Y-85134819D02*
X158010000Y-84420533D01*
X158010000Y-84420533D02*
X158200476Y-85134819D01*
X158200476Y-85134819D02*
X158438572Y-84134819D01*
X159343333Y-85134819D02*
X158771905Y-85134819D01*
X159057619Y-85134819D02*
X159057619Y-84134819D01*
X159057619Y-84134819D02*
X158962381Y-84277676D01*
X158962381Y-84277676D02*
X158867143Y-84372914D01*
X158867143Y-84372914D02*
X158771905Y-84420533D01*
X145205833Y-92769580D02*
X145158214Y-92817200D01*
X145158214Y-92817200D02*
X145015357Y-92864819D01*
X145015357Y-92864819D02*
X144920119Y-92864819D01*
X144920119Y-92864819D02*
X144777262Y-92817200D01*
X144777262Y-92817200D02*
X144682024Y-92721961D01*
X144682024Y-92721961D02*
X144634405Y-92626723D01*
X144634405Y-92626723D02*
X144586786Y-92436247D01*
X144586786Y-92436247D02*
X144586786Y-92293390D01*
X144586786Y-92293390D02*
X144634405Y-92102914D01*
X144634405Y-92102914D02*
X144682024Y-92007676D01*
X144682024Y-92007676D02*
X144777262Y-91912438D01*
X144777262Y-91912438D02*
X144920119Y-91864819D01*
X144920119Y-91864819D02*
X145015357Y-91864819D01*
X145015357Y-91864819D02*
X145158214Y-91912438D01*
X145158214Y-91912438D02*
X145205833Y-91960057D01*
X146062976Y-91864819D02*
X145872500Y-91864819D01*
X145872500Y-91864819D02*
X145777262Y-91912438D01*
X145777262Y-91912438D02*
X145729643Y-91960057D01*
X145729643Y-91960057D02*
X145634405Y-92102914D01*
X145634405Y-92102914D02*
X145586786Y-92293390D01*
X145586786Y-92293390D02*
X145586786Y-92674342D01*
X145586786Y-92674342D02*
X145634405Y-92769580D01*
X145634405Y-92769580D02*
X145682024Y-92817200D01*
X145682024Y-92817200D02*
X145777262Y-92864819D01*
X145777262Y-92864819D02*
X145967738Y-92864819D01*
X145967738Y-92864819D02*
X146062976Y-92817200D01*
X146062976Y-92817200D02*
X146110595Y-92769580D01*
X146110595Y-92769580D02*
X146158214Y-92674342D01*
X146158214Y-92674342D02*
X146158214Y-92436247D01*
X146158214Y-92436247D02*
X146110595Y-92341009D01*
X146110595Y-92341009D02*
X146062976Y-92293390D01*
X146062976Y-92293390D02*
X145967738Y-92245771D01*
X145967738Y-92245771D02*
X145777262Y-92245771D01*
X145777262Y-92245771D02*
X145682024Y-92293390D01*
X145682024Y-92293390D02*
X145634405Y-92341009D01*
X145634405Y-92341009D02*
X145586786Y-92436247D01*
X154949642Y-97839580D02*
X154902023Y-97887200D01*
X154902023Y-97887200D02*
X154759166Y-97934819D01*
X154759166Y-97934819D02*
X154663928Y-97934819D01*
X154663928Y-97934819D02*
X154521071Y-97887200D01*
X154521071Y-97887200D02*
X154425833Y-97791961D01*
X154425833Y-97791961D02*
X154378214Y-97696723D01*
X154378214Y-97696723D02*
X154330595Y-97506247D01*
X154330595Y-97506247D02*
X154330595Y-97363390D01*
X154330595Y-97363390D02*
X154378214Y-97172914D01*
X154378214Y-97172914D02*
X154425833Y-97077676D01*
X154425833Y-97077676D02*
X154521071Y-96982438D01*
X154521071Y-96982438D02*
X154663928Y-96934819D01*
X154663928Y-96934819D02*
X154759166Y-96934819D01*
X154759166Y-96934819D02*
X154902023Y-96982438D01*
X154902023Y-96982438D02*
X154949642Y-97030057D01*
X155902023Y-97934819D02*
X155330595Y-97934819D01*
X155616309Y-97934819D02*
X155616309Y-96934819D01*
X155616309Y-96934819D02*
X155521071Y-97077676D01*
X155521071Y-97077676D02*
X155425833Y-97172914D01*
X155425833Y-97172914D02*
X155330595Y-97220533D01*
X156378214Y-97934819D02*
X156568690Y-97934819D01*
X156568690Y-97934819D02*
X156663928Y-97887200D01*
X156663928Y-97887200D02*
X156711547Y-97839580D01*
X156711547Y-97839580D02*
X156806785Y-97696723D01*
X156806785Y-97696723D02*
X156854404Y-97506247D01*
X156854404Y-97506247D02*
X156854404Y-97125295D01*
X156854404Y-97125295D02*
X156806785Y-97030057D01*
X156806785Y-97030057D02*
X156759166Y-96982438D01*
X156759166Y-96982438D02*
X156663928Y-96934819D01*
X156663928Y-96934819D02*
X156473452Y-96934819D01*
X156473452Y-96934819D02*
X156378214Y-96982438D01*
X156378214Y-96982438D02*
X156330595Y-97030057D01*
X156330595Y-97030057D02*
X156282976Y-97125295D01*
X156282976Y-97125295D02*
X156282976Y-97363390D01*
X156282976Y-97363390D02*
X156330595Y-97458628D01*
X156330595Y-97458628D02*
X156378214Y-97506247D01*
X156378214Y-97506247D02*
X156473452Y-97553866D01*
X156473452Y-97553866D02*
X156663928Y-97553866D01*
X156663928Y-97553866D02*
X156759166Y-97506247D01*
X156759166Y-97506247D02*
X156806785Y-97458628D01*
X156806785Y-97458628D02*
X156854404Y-97363390D01*
X112545833Y-101479580D02*
X112498214Y-101527200D01*
X112498214Y-101527200D02*
X112355357Y-101574819D01*
X112355357Y-101574819D02*
X112260119Y-101574819D01*
X112260119Y-101574819D02*
X112117262Y-101527200D01*
X112117262Y-101527200D02*
X112022024Y-101431961D01*
X112022024Y-101431961D02*
X111974405Y-101336723D01*
X111974405Y-101336723D02*
X111926786Y-101146247D01*
X111926786Y-101146247D02*
X111926786Y-101003390D01*
X111926786Y-101003390D02*
X111974405Y-100812914D01*
X111974405Y-100812914D02*
X112022024Y-100717676D01*
X112022024Y-100717676D02*
X112117262Y-100622438D01*
X112117262Y-100622438D02*
X112260119Y-100574819D01*
X112260119Y-100574819D02*
X112355357Y-100574819D01*
X112355357Y-100574819D02*
X112498214Y-100622438D01*
X112498214Y-100622438D02*
X112545833Y-100670057D01*
X112926786Y-100670057D02*
X112974405Y-100622438D01*
X112974405Y-100622438D02*
X113069643Y-100574819D01*
X113069643Y-100574819D02*
X113307738Y-100574819D01*
X113307738Y-100574819D02*
X113402976Y-100622438D01*
X113402976Y-100622438D02*
X113450595Y-100670057D01*
X113450595Y-100670057D02*
X113498214Y-100765295D01*
X113498214Y-100765295D02*
X113498214Y-100860533D01*
X113498214Y-100860533D02*
X113450595Y-101003390D01*
X113450595Y-101003390D02*
X112879167Y-101574819D01*
X112879167Y-101574819D02*
X113498214Y-101574819D01*
X119109580Y-90449166D02*
X119157200Y-90496785D01*
X119157200Y-90496785D02*
X119204819Y-90639642D01*
X119204819Y-90639642D02*
X119204819Y-90734880D01*
X119204819Y-90734880D02*
X119157200Y-90877737D01*
X119157200Y-90877737D02*
X119061961Y-90972975D01*
X119061961Y-90972975D02*
X118966723Y-91020594D01*
X118966723Y-91020594D02*
X118776247Y-91068213D01*
X118776247Y-91068213D02*
X118633390Y-91068213D01*
X118633390Y-91068213D02*
X118442914Y-91020594D01*
X118442914Y-91020594D02*
X118347676Y-90972975D01*
X118347676Y-90972975D02*
X118252438Y-90877737D01*
X118252438Y-90877737D02*
X118204819Y-90734880D01*
X118204819Y-90734880D02*
X118204819Y-90639642D01*
X118204819Y-90639642D02*
X118252438Y-90496785D01*
X118252438Y-90496785D02*
X118300057Y-90449166D01*
X119204819Y-89972975D02*
X119204819Y-89782499D01*
X119204819Y-89782499D02*
X119157200Y-89687261D01*
X119157200Y-89687261D02*
X119109580Y-89639642D01*
X119109580Y-89639642D02*
X118966723Y-89544404D01*
X118966723Y-89544404D02*
X118776247Y-89496785D01*
X118776247Y-89496785D02*
X118395295Y-89496785D01*
X118395295Y-89496785D02*
X118300057Y-89544404D01*
X118300057Y-89544404D02*
X118252438Y-89592023D01*
X118252438Y-89592023D02*
X118204819Y-89687261D01*
X118204819Y-89687261D02*
X118204819Y-89877737D01*
X118204819Y-89877737D02*
X118252438Y-89972975D01*
X118252438Y-89972975D02*
X118300057Y-90020594D01*
X118300057Y-90020594D02*
X118395295Y-90068213D01*
X118395295Y-90068213D02*
X118633390Y-90068213D01*
X118633390Y-90068213D02*
X118728628Y-90020594D01*
X118728628Y-90020594D02*
X118776247Y-89972975D01*
X118776247Y-89972975D02*
X118823866Y-89877737D01*
X118823866Y-89877737D02*
X118823866Y-89687261D01*
X118823866Y-89687261D02*
X118776247Y-89592023D01*
X118776247Y-89592023D02*
X118728628Y-89544404D01*
X118728628Y-89544404D02*
X118633390Y-89496785D01*
X108954819Y-107883333D02*
X109669104Y-107883333D01*
X109669104Y-107883333D02*
X109811961Y-107930952D01*
X109811961Y-107930952D02*
X109907200Y-108026190D01*
X109907200Y-108026190D02*
X109954819Y-108169047D01*
X109954819Y-108169047D02*
X109954819Y-108264285D01*
X109050057Y-107454761D02*
X109002438Y-107407142D01*
X109002438Y-107407142D02*
X108954819Y-107311904D01*
X108954819Y-107311904D02*
X108954819Y-107073809D01*
X108954819Y-107073809D02*
X109002438Y-106978571D01*
X109002438Y-106978571D02*
X109050057Y-106930952D01*
X109050057Y-106930952D02*
X109145295Y-106883333D01*
X109145295Y-106883333D02*
X109240533Y-106883333D01*
X109240533Y-106883333D02*
X109383390Y-106930952D01*
X109383390Y-106930952D02*
X109954819Y-107502380D01*
X109954819Y-107502380D02*
X109954819Y-106883333D01*
X128473333Y-77874819D02*
X128140000Y-77398628D01*
X127901905Y-77874819D02*
X127901905Y-76874819D01*
X127901905Y-76874819D02*
X128282857Y-76874819D01*
X128282857Y-76874819D02*
X128378095Y-76922438D01*
X128378095Y-76922438D02*
X128425714Y-76970057D01*
X128425714Y-76970057D02*
X128473333Y-77065295D01*
X128473333Y-77065295D02*
X128473333Y-77208152D01*
X128473333Y-77208152D02*
X128425714Y-77303390D01*
X128425714Y-77303390D02*
X128378095Y-77351009D01*
X128378095Y-77351009D02*
X128282857Y-77398628D01*
X128282857Y-77398628D02*
X127901905Y-77398628D01*
X129425714Y-77874819D02*
X128854286Y-77874819D01*
X129140000Y-77874819D02*
X129140000Y-76874819D01*
X129140000Y-76874819D02*
X129044762Y-77017676D01*
X129044762Y-77017676D02*
X128949524Y-77112914D01*
X128949524Y-77112914D02*
X128854286Y-77160533D01*
X181364819Y-108953333D02*
X182079104Y-108953333D01*
X182079104Y-108953333D02*
X182221961Y-109000952D01*
X182221961Y-109000952D02*
X182317200Y-109096190D01*
X182317200Y-109096190D02*
X182364819Y-109239047D01*
X182364819Y-109239047D02*
X182364819Y-109334285D01*
X181364819Y-108572380D02*
X181364819Y-107953333D01*
X181364819Y-107953333D02*
X181745771Y-108286666D01*
X181745771Y-108286666D02*
X181745771Y-108143809D01*
X181745771Y-108143809D02*
X181793390Y-108048571D01*
X181793390Y-108048571D02*
X181841009Y-108000952D01*
X181841009Y-108000952D02*
X181936247Y-107953333D01*
X181936247Y-107953333D02*
X182174342Y-107953333D01*
X182174342Y-107953333D02*
X182269580Y-108000952D01*
X182269580Y-108000952D02*
X182317200Y-108048571D01*
X182317200Y-108048571D02*
X182364819Y-108143809D01*
X182364819Y-108143809D02*
X182364819Y-108429523D01*
X182364819Y-108429523D02*
X182317200Y-108524761D01*
X182317200Y-108524761D02*
X182269580Y-108572380D01*
X138496666Y-90254819D02*
X138496666Y-90969104D01*
X138496666Y-90969104D02*
X138449047Y-91111961D01*
X138449047Y-91111961D02*
X138353809Y-91207200D01*
X138353809Y-91207200D02*
X138210952Y-91254819D01*
X138210952Y-91254819D02*
X138115714Y-91254819D01*
X138877619Y-90254819D02*
X139544285Y-90254819D01*
X139544285Y-90254819D02*
X139115714Y-91254819D01*
X124807142Y-100309580D02*
X124759523Y-100357200D01*
X124759523Y-100357200D02*
X124616666Y-100404819D01*
X124616666Y-100404819D02*
X124521428Y-100404819D01*
X124521428Y-100404819D02*
X124378571Y-100357200D01*
X124378571Y-100357200D02*
X124283333Y-100261961D01*
X124283333Y-100261961D02*
X124235714Y-100166723D01*
X124235714Y-100166723D02*
X124188095Y-99976247D01*
X124188095Y-99976247D02*
X124188095Y-99833390D01*
X124188095Y-99833390D02*
X124235714Y-99642914D01*
X124235714Y-99642914D02*
X124283333Y-99547676D01*
X124283333Y-99547676D02*
X124378571Y-99452438D01*
X124378571Y-99452438D02*
X124521428Y-99404819D01*
X124521428Y-99404819D02*
X124616666Y-99404819D01*
X124616666Y-99404819D02*
X124759523Y-99452438D01*
X124759523Y-99452438D02*
X124807142Y-99500057D01*
X125759523Y-100404819D02*
X125188095Y-100404819D01*
X125473809Y-100404819D02*
X125473809Y-99404819D01*
X125473809Y-99404819D02*
X125378571Y-99547676D01*
X125378571Y-99547676D02*
X125283333Y-99642914D01*
X125283333Y-99642914D02*
X125188095Y-99690533D01*
X126140476Y-99500057D02*
X126188095Y-99452438D01*
X126188095Y-99452438D02*
X126283333Y-99404819D01*
X126283333Y-99404819D02*
X126521428Y-99404819D01*
X126521428Y-99404819D02*
X126616666Y-99452438D01*
X126616666Y-99452438D02*
X126664285Y-99500057D01*
X126664285Y-99500057D02*
X126711904Y-99595295D01*
X126711904Y-99595295D02*
X126711904Y-99690533D01*
X126711904Y-99690533D02*
X126664285Y-99833390D01*
X126664285Y-99833390D02*
X126092857Y-100404819D01*
X126092857Y-100404819D02*
X126711904Y-100404819D01*
X131294819Y-113953333D02*
X132009104Y-113953333D01*
X132009104Y-113953333D02*
X132151961Y-114000952D01*
X132151961Y-114000952D02*
X132247200Y-114096190D01*
X132247200Y-114096190D02*
X132294819Y-114239047D01*
X132294819Y-114239047D02*
X132294819Y-114334285D01*
X131628152Y-113048571D02*
X132294819Y-113048571D01*
X131247200Y-113286666D02*
X131961485Y-113524761D01*
X131961485Y-113524761D02*
X131961485Y-112905714D01*
D11*
X132344318Y-80899762D02*
X131074318Y-80899762D01*
X132223365Y-79569285D02*
X132283842Y-79629761D01*
X132283842Y-79629761D02*
X132344318Y-79811190D01*
X132344318Y-79811190D02*
X132344318Y-79932142D01*
X132344318Y-79932142D02*
X132283842Y-80113571D01*
X132283842Y-80113571D02*
X132162889Y-80234523D01*
X132162889Y-80234523D02*
X132041937Y-80295000D01*
X132041937Y-80295000D02*
X131800032Y-80355476D01*
X131800032Y-80355476D02*
X131618603Y-80355476D01*
X131618603Y-80355476D02*
X131376699Y-80295000D01*
X131376699Y-80295000D02*
X131255746Y-80234523D01*
X131255746Y-80234523D02*
X131134794Y-80113571D01*
X131134794Y-80113571D02*
X131074318Y-79932142D01*
X131074318Y-79932142D02*
X131074318Y-79811190D01*
X131074318Y-79811190D02*
X131134794Y-79629761D01*
X131134794Y-79629761D02*
X131195270Y-79569285D01*
X131074318Y-79145952D02*
X131074318Y-78359761D01*
X131074318Y-78359761D02*
X131558127Y-78783095D01*
X131558127Y-78783095D02*
X131558127Y-78601666D01*
X131558127Y-78601666D02*
X131618603Y-78480714D01*
X131618603Y-78480714D02*
X131679080Y-78420238D01*
X131679080Y-78420238D02*
X131800032Y-78359761D01*
X131800032Y-78359761D02*
X132102413Y-78359761D01*
X132102413Y-78359761D02*
X132223365Y-78420238D01*
X132223365Y-78420238D02*
X132283842Y-78480714D01*
X132283842Y-78480714D02*
X132344318Y-78601666D01*
X132344318Y-78601666D02*
X132344318Y-78964523D01*
X132344318Y-78964523D02*
X132283842Y-79085476D01*
X132283842Y-79085476D02*
X132223365Y-79145952D01*
X142937857Y-85731461D02*
X143542619Y-85731461D01*
X142816905Y-86094318D02*
X143240238Y-84824318D01*
X143240238Y-84824318D02*
X143663572Y-86094318D01*
X144812619Y-85973365D02*
X144752143Y-86033842D01*
X144752143Y-86033842D02*
X144570714Y-86094318D01*
X144570714Y-86094318D02*
X144449762Y-86094318D01*
X144449762Y-86094318D02*
X144268333Y-86033842D01*
X144268333Y-86033842D02*
X144147381Y-85912889D01*
X144147381Y-85912889D02*
X144086904Y-85791937D01*
X144086904Y-85791937D02*
X144026428Y-85550032D01*
X144026428Y-85550032D02*
X144026428Y-85368603D01*
X144026428Y-85368603D02*
X144086904Y-85126699D01*
X144086904Y-85126699D02*
X144147381Y-85005746D01*
X144147381Y-85005746D02*
X144268333Y-84884794D01*
X144268333Y-84884794D02*
X144449762Y-84824318D01*
X144449762Y-84824318D02*
X144570714Y-84824318D01*
X144570714Y-84824318D02*
X144752143Y-84884794D01*
X144752143Y-84884794D02*
X144812619Y-84945270D01*
X146022143Y-86094318D02*
X145296428Y-86094318D01*
X145659285Y-86094318D02*
X145659285Y-84824318D01*
X145659285Y-84824318D02*
X145538333Y-85005746D01*
X145538333Y-85005746D02*
X145417381Y-85126699D01*
X145417381Y-85126699D02*
X145296428Y-85187175D01*
D10*
X147769819Y-95609523D02*
X148484104Y-95609523D01*
X148484104Y-95609523D02*
X148626961Y-95657142D01*
X148626961Y-95657142D02*
X148722200Y-95752380D01*
X148722200Y-95752380D02*
X148769819Y-95895237D01*
X148769819Y-95895237D02*
X148769819Y-95990475D01*
X148769819Y-94609523D02*
X148769819Y-95180951D01*
X148769819Y-94895237D02*
X147769819Y-94895237D01*
X147769819Y-94895237D02*
X147912676Y-94990475D01*
X147912676Y-94990475D02*
X148007914Y-95085713D01*
X148007914Y-95085713D02*
X148055533Y-95180951D01*
X147769819Y-94276189D02*
X147769819Y-93657142D01*
X147769819Y-93657142D02*
X148150771Y-93990475D01*
X148150771Y-93990475D02*
X148150771Y-93847618D01*
X148150771Y-93847618D02*
X148198390Y-93752380D01*
X148198390Y-93752380D02*
X148246009Y-93704761D01*
X148246009Y-93704761D02*
X148341247Y-93657142D01*
X148341247Y-93657142D02*
X148579342Y-93657142D01*
X148579342Y-93657142D02*
X148674580Y-93704761D01*
X148674580Y-93704761D02*
X148722200Y-93752380D01*
X148722200Y-93752380D02*
X148769819Y-93847618D01*
X148769819Y-93847618D02*
X148769819Y-94133332D01*
X148769819Y-94133332D02*
X148722200Y-94228570D01*
X148722200Y-94228570D02*
X148674580Y-94276189D01*
X136954819Y-107036666D02*
X136478628Y-107369999D01*
X136954819Y-107608094D02*
X135954819Y-107608094D01*
X135954819Y-107608094D02*
X135954819Y-107227142D01*
X135954819Y-107227142D02*
X136002438Y-107131904D01*
X136002438Y-107131904D02*
X136050057Y-107084285D01*
X136050057Y-107084285D02*
X136145295Y-107036666D01*
X136145295Y-107036666D02*
X136288152Y-107036666D01*
X136288152Y-107036666D02*
X136383390Y-107084285D01*
X136383390Y-107084285D02*
X136431009Y-107131904D01*
X136431009Y-107131904D02*
X136478628Y-107227142D01*
X136478628Y-107227142D02*
X136478628Y-107608094D01*
X136288152Y-106179523D02*
X136954819Y-106179523D01*
X135907200Y-106417618D02*
X136621485Y-106655713D01*
X136621485Y-106655713D02*
X136621485Y-106036666D01*
X168189580Y-74472857D02*
X168237200Y-74520476D01*
X168237200Y-74520476D02*
X168284819Y-74663333D01*
X168284819Y-74663333D02*
X168284819Y-74758571D01*
X168284819Y-74758571D02*
X168237200Y-74901428D01*
X168237200Y-74901428D02*
X168141961Y-74996666D01*
X168141961Y-74996666D02*
X168046723Y-75044285D01*
X168046723Y-75044285D02*
X167856247Y-75091904D01*
X167856247Y-75091904D02*
X167713390Y-75091904D01*
X167713390Y-75091904D02*
X167522914Y-75044285D01*
X167522914Y-75044285D02*
X167427676Y-74996666D01*
X167427676Y-74996666D02*
X167332438Y-74901428D01*
X167332438Y-74901428D02*
X167284819Y-74758571D01*
X167284819Y-74758571D02*
X167284819Y-74663333D01*
X167284819Y-74663333D02*
X167332438Y-74520476D01*
X167332438Y-74520476D02*
X167380057Y-74472857D01*
X168284819Y-73520476D02*
X168284819Y-74091904D01*
X168284819Y-73806190D02*
X167284819Y-73806190D01*
X167284819Y-73806190D02*
X167427676Y-73901428D01*
X167427676Y-73901428D02*
X167522914Y-73996666D01*
X167522914Y-73996666D02*
X167570533Y-74091904D01*
X167713390Y-72949047D02*
X167665771Y-73044285D01*
X167665771Y-73044285D02*
X167618152Y-73091904D01*
X167618152Y-73091904D02*
X167522914Y-73139523D01*
X167522914Y-73139523D02*
X167475295Y-73139523D01*
X167475295Y-73139523D02*
X167380057Y-73091904D01*
X167380057Y-73091904D02*
X167332438Y-73044285D01*
X167332438Y-73044285D02*
X167284819Y-72949047D01*
X167284819Y-72949047D02*
X167284819Y-72758571D01*
X167284819Y-72758571D02*
X167332438Y-72663333D01*
X167332438Y-72663333D02*
X167380057Y-72615714D01*
X167380057Y-72615714D02*
X167475295Y-72568095D01*
X167475295Y-72568095D02*
X167522914Y-72568095D01*
X167522914Y-72568095D02*
X167618152Y-72615714D01*
X167618152Y-72615714D02*
X167665771Y-72663333D01*
X167665771Y-72663333D02*
X167713390Y-72758571D01*
X167713390Y-72758571D02*
X167713390Y-72949047D01*
X167713390Y-72949047D02*
X167761009Y-73044285D01*
X167761009Y-73044285D02*
X167808628Y-73091904D01*
X167808628Y-73091904D02*
X167903866Y-73139523D01*
X167903866Y-73139523D02*
X168094342Y-73139523D01*
X168094342Y-73139523D02*
X168189580Y-73091904D01*
X168189580Y-73091904D02*
X168237200Y-73044285D01*
X168237200Y-73044285D02*
X168284819Y-72949047D01*
X168284819Y-72949047D02*
X168284819Y-72758571D01*
X168284819Y-72758571D02*
X168237200Y-72663333D01*
X168237200Y-72663333D02*
X168189580Y-72615714D01*
X168189580Y-72615714D02*
X168094342Y-72568095D01*
X168094342Y-72568095D02*
X167903866Y-72568095D01*
X167903866Y-72568095D02*
X167808628Y-72615714D01*
X167808628Y-72615714D02*
X167761009Y-72663333D01*
X167761009Y-72663333D02*
X167713390Y-72758571D01*
X131863333Y-90524819D02*
X131530000Y-90048628D01*
X131291905Y-90524819D02*
X131291905Y-89524819D01*
X131291905Y-89524819D02*
X131672857Y-89524819D01*
X131672857Y-89524819D02*
X131768095Y-89572438D01*
X131768095Y-89572438D02*
X131815714Y-89620057D01*
X131815714Y-89620057D02*
X131863333Y-89715295D01*
X131863333Y-89715295D02*
X131863333Y-89858152D01*
X131863333Y-89858152D02*
X131815714Y-89953390D01*
X131815714Y-89953390D02*
X131768095Y-90001009D01*
X131768095Y-90001009D02*
X131672857Y-90048628D01*
X131672857Y-90048628D02*
X131291905Y-90048628D01*
X132720476Y-89524819D02*
X132530000Y-89524819D01*
X132530000Y-89524819D02*
X132434762Y-89572438D01*
X132434762Y-89572438D02*
X132387143Y-89620057D01*
X132387143Y-89620057D02*
X132291905Y-89762914D01*
X132291905Y-89762914D02*
X132244286Y-89953390D01*
X132244286Y-89953390D02*
X132244286Y-90334342D01*
X132244286Y-90334342D02*
X132291905Y-90429580D01*
X132291905Y-90429580D02*
X132339524Y-90477200D01*
X132339524Y-90477200D02*
X132434762Y-90524819D01*
X132434762Y-90524819D02*
X132625238Y-90524819D01*
X132625238Y-90524819D02*
X132720476Y-90477200D01*
X132720476Y-90477200D02*
X132768095Y-90429580D01*
X132768095Y-90429580D02*
X132815714Y-90334342D01*
X132815714Y-90334342D02*
X132815714Y-90096247D01*
X132815714Y-90096247D02*
X132768095Y-90001009D01*
X132768095Y-90001009D02*
X132720476Y-89953390D01*
X132720476Y-89953390D02*
X132625238Y-89905771D01*
X132625238Y-89905771D02*
X132434762Y-89905771D01*
X132434762Y-89905771D02*
X132339524Y-89953390D01*
X132339524Y-89953390D02*
X132291905Y-90001009D01*
X132291905Y-90001009D02*
X132244286Y-90096247D01*
X110581009Y-86213333D02*
X110581009Y-86546666D01*
X111104819Y-86546666D02*
X110104819Y-86546666D01*
X110104819Y-86546666D02*
X110104819Y-86070476D01*
X111104819Y-85165714D02*
X111104819Y-85737142D01*
X111104819Y-85451428D02*
X110104819Y-85451428D01*
X110104819Y-85451428D02*
X110247676Y-85546666D01*
X110247676Y-85546666D02*
X110342914Y-85641904D01*
X110342914Y-85641904D02*
X110390533Y-85737142D01*
X181151523Y-72398180D02*
X181151523Y-71683895D01*
X181151523Y-71683895D02*
X181199142Y-71541038D01*
X181199142Y-71541038D02*
X181294380Y-71445800D01*
X181294380Y-71445800D02*
X181437237Y-71398180D01*
X181437237Y-71398180D02*
X181532475Y-71398180D01*
X180151523Y-71398180D02*
X180722951Y-71398180D01*
X180437237Y-71398180D02*
X180437237Y-72398180D01*
X180437237Y-72398180D02*
X180532475Y-72255323D01*
X180532475Y-72255323D02*
X180627713Y-72160085D01*
X180627713Y-72160085D02*
X180722951Y-72112466D01*
X179532475Y-72398180D02*
X179437237Y-72398180D01*
X179437237Y-72398180D02*
X179341999Y-72350561D01*
X179341999Y-72350561D02*
X179294380Y-72302942D01*
X179294380Y-72302942D02*
X179246761Y-72207704D01*
X179246761Y-72207704D02*
X179199142Y-72017228D01*
X179199142Y-72017228D02*
X179199142Y-71779133D01*
X179199142Y-71779133D02*
X179246761Y-71588657D01*
X179246761Y-71588657D02*
X179294380Y-71493419D01*
X179294380Y-71493419D02*
X179341999Y-71445800D01*
X179341999Y-71445800D02*
X179437237Y-71398180D01*
X179437237Y-71398180D02*
X179532475Y-71398180D01*
X179532475Y-71398180D02*
X179627713Y-71445800D01*
X179627713Y-71445800D02*
X179675332Y-71493419D01*
X179675332Y-71493419D02*
X179722951Y-71588657D01*
X179722951Y-71588657D02*
X179770570Y-71779133D01*
X179770570Y-71779133D02*
X179770570Y-72017228D01*
X179770570Y-72017228D02*
X179722951Y-72207704D01*
X179722951Y-72207704D02*
X179675332Y-72302942D01*
X179675332Y-72302942D02*
X179627713Y-72350561D01*
X179627713Y-72350561D02*
X179532475Y-72398180D01*
X118574819Y-107776666D02*
X118098628Y-108109999D01*
X118574819Y-108348094D02*
X117574819Y-108348094D01*
X117574819Y-108348094D02*
X117574819Y-107967142D01*
X117574819Y-107967142D02*
X117622438Y-107871904D01*
X117622438Y-107871904D02*
X117670057Y-107824285D01*
X117670057Y-107824285D02*
X117765295Y-107776666D01*
X117765295Y-107776666D02*
X117908152Y-107776666D01*
X117908152Y-107776666D02*
X118003390Y-107824285D01*
X118003390Y-107824285D02*
X118051009Y-107871904D01*
X118051009Y-107871904D02*
X118098628Y-107967142D01*
X118098628Y-107967142D02*
X118098628Y-108348094D01*
X117574819Y-107443332D02*
X117574819Y-106776666D01*
X117574819Y-106776666D02*
X118574819Y-107205237D01*
X164007142Y-70094819D02*
X163673809Y-69618628D01*
X163435714Y-70094819D02*
X163435714Y-69094819D01*
X163435714Y-69094819D02*
X163816666Y-69094819D01*
X163816666Y-69094819D02*
X163911904Y-69142438D01*
X163911904Y-69142438D02*
X163959523Y-69190057D01*
X163959523Y-69190057D02*
X164007142Y-69285295D01*
X164007142Y-69285295D02*
X164007142Y-69428152D01*
X164007142Y-69428152D02*
X163959523Y-69523390D01*
X163959523Y-69523390D02*
X163911904Y-69571009D01*
X163911904Y-69571009D02*
X163816666Y-69618628D01*
X163816666Y-69618628D02*
X163435714Y-69618628D01*
X164388095Y-69190057D02*
X164435714Y-69142438D01*
X164435714Y-69142438D02*
X164530952Y-69094819D01*
X164530952Y-69094819D02*
X164769047Y-69094819D01*
X164769047Y-69094819D02*
X164864285Y-69142438D01*
X164864285Y-69142438D02*
X164911904Y-69190057D01*
X164911904Y-69190057D02*
X164959523Y-69285295D01*
X164959523Y-69285295D02*
X164959523Y-69380533D01*
X164959523Y-69380533D02*
X164911904Y-69523390D01*
X164911904Y-69523390D02*
X164340476Y-70094819D01*
X164340476Y-70094819D02*
X164959523Y-70094819D01*
X165816666Y-69428152D02*
X165816666Y-70094819D01*
X165578571Y-69047200D02*
X165340476Y-69761485D01*
X165340476Y-69761485D02*
X165959523Y-69761485D01*
X148729642Y-87219580D02*
X148682023Y-87267200D01*
X148682023Y-87267200D02*
X148539166Y-87314819D01*
X148539166Y-87314819D02*
X148443928Y-87314819D01*
X148443928Y-87314819D02*
X148301071Y-87267200D01*
X148301071Y-87267200D02*
X148205833Y-87171961D01*
X148205833Y-87171961D02*
X148158214Y-87076723D01*
X148158214Y-87076723D02*
X148110595Y-86886247D01*
X148110595Y-86886247D02*
X148110595Y-86743390D01*
X148110595Y-86743390D02*
X148158214Y-86552914D01*
X148158214Y-86552914D02*
X148205833Y-86457676D01*
X148205833Y-86457676D02*
X148301071Y-86362438D01*
X148301071Y-86362438D02*
X148443928Y-86314819D01*
X148443928Y-86314819D02*
X148539166Y-86314819D01*
X148539166Y-86314819D02*
X148682023Y-86362438D01*
X148682023Y-86362438D02*
X148729642Y-86410057D01*
X149682023Y-87314819D02*
X149110595Y-87314819D01*
X149396309Y-87314819D02*
X149396309Y-86314819D01*
X149396309Y-86314819D02*
X149301071Y-86457676D01*
X149301071Y-86457676D02*
X149205833Y-86552914D01*
X149205833Y-86552914D02*
X149110595Y-86600533D01*
X150301071Y-86314819D02*
X150396309Y-86314819D01*
X150396309Y-86314819D02*
X150491547Y-86362438D01*
X150491547Y-86362438D02*
X150539166Y-86410057D01*
X150539166Y-86410057D02*
X150586785Y-86505295D01*
X150586785Y-86505295D02*
X150634404Y-86695771D01*
X150634404Y-86695771D02*
X150634404Y-86933866D01*
X150634404Y-86933866D02*
X150586785Y-87124342D01*
X150586785Y-87124342D02*
X150539166Y-87219580D01*
X150539166Y-87219580D02*
X150491547Y-87267200D01*
X150491547Y-87267200D02*
X150396309Y-87314819D01*
X150396309Y-87314819D02*
X150301071Y-87314819D01*
X150301071Y-87314819D02*
X150205833Y-87267200D01*
X150205833Y-87267200D02*
X150158214Y-87219580D01*
X150158214Y-87219580D02*
X150110595Y-87124342D01*
X150110595Y-87124342D02*
X150062976Y-86933866D01*
X150062976Y-86933866D02*
X150062976Y-86695771D01*
X150062976Y-86695771D02*
X150110595Y-86505295D01*
X150110595Y-86505295D02*
X150158214Y-86410057D01*
X150158214Y-86410057D02*
X150205833Y-86362438D01*
X150205833Y-86362438D02*
X150301071Y-86314819D01*
X116816666Y-62854819D02*
X116816666Y-63569104D01*
X116816666Y-63569104D02*
X116769047Y-63711961D01*
X116769047Y-63711961D02*
X116673809Y-63807200D01*
X116673809Y-63807200D02*
X116530952Y-63854819D01*
X116530952Y-63854819D02*
X116435714Y-63854819D01*
X117435714Y-63283390D02*
X117340476Y-63235771D01*
X117340476Y-63235771D02*
X117292857Y-63188152D01*
X117292857Y-63188152D02*
X117245238Y-63092914D01*
X117245238Y-63092914D02*
X117245238Y-63045295D01*
X117245238Y-63045295D02*
X117292857Y-62950057D01*
X117292857Y-62950057D02*
X117340476Y-62902438D01*
X117340476Y-62902438D02*
X117435714Y-62854819D01*
X117435714Y-62854819D02*
X117626190Y-62854819D01*
X117626190Y-62854819D02*
X117721428Y-62902438D01*
X117721428Y-62902438D02*
X117769047Y-62950057D01*
X117769047Y-62950057D02*
X117816666Y-63045295D01*
X117816666Y-63045295D02*
X117816666Y-63092914D01*
X117816666Y-63092914D02*
X117769047Y-63188152D01*
X117769047Y-63188152D02*
X117721428Y-63235771D01*
X117721428Y-63235771D02*
X117626190Y-63283390D01*
X117626190Y-63283390D02*
X117435714Y-63283390D01*
X117435714Y-63283390D02*
X117340476Y-63331009D01*
X117340476Y-63331009D02*
X117292857Y-63378628D01*
X117292857Y-63378628D02*
X117245238Y-63473866D01*
X117245238Y-63473866D02*
X117245238Y-63664342D01*
X117245238Y-63664342D02*
X117292857Y-63759580D01*
X117292857Y-63759580D02*
X117340476Y-63807200D01*
X117340476Y-63807200D02*
X117435714Y-63854819D01*
X117435714Y-63854819D02*
X117626190Y-63854819D01*
X117626190Y-63854819D02*
X117721428Y-63807200D01*
X117721428Y-63807200D02*
X117769047Y-63759580D01*
X117769047Y-63759580D02*
X117816666Y-63664342D01*
X117816666Y-63664342D02*
X117816666Y-63473866D01*
X117816666Y-63473866D02*
X117769047Y-63378628D01*
X117769047Y-63378628D02*
X117721428Y-63331009D01*
X117721428Y-63331009D02*
X117626190Y-63283390D01*
X121369580Y-76915357D02*
X121417200Y-76962976D01*
X121417200Y-76962976D02*
X121464819Y-77105833D01*
X121464819Y-77105833D02*
X121464819Y-77201071D01*
X121464819Y-77201071D02*
X121417200Y-77343928D01*
X121417200Y-77343928D02*
X121321961Y-77439166D01*
X121321961Y-77439166D02*
X121226723Y-77486785D01*
X121226723Y-77486785D02*
X121036247Y-77534404D01*
X121036247Y-77534404D02*
X120893390Y-77534404D01*
X120893390Y-77534404D02*
X120702914Y-77486785D01*
X120702914Y-77486785D02*
X120607676Y-77439166D01*
X120607676Y-77439166D02*
X120512438Y-77343928D01*
X120512438Y-77343928D02*
X120464819Y-77201071D01*
X120464819Y-77201071D02*
X120464819Y-77105833D01*
X120464819Y-77105833D02*
X120512438Y-76962976D01*
X120512438Y-76962976D02*
X120560057Y-76915357D01*
X121464819Y-75962976D02*
X121464819Y-76534404D01*
X121464819Y-76248690D02*
X120464819Y-76248690D01*
X120464819Y-76248690D02*
X120607676Y-76343928D01*
X120607676Y-76343928D02*
X120702914Y-76439166D01*
X120702914Y-76439166D02*
X120750533Y-76534404D01*
X120798152Y-75105833D02*
X121464819Y-75105833D01*
X120417200Y-75343928D02*
X121131485Y-75582023D01*
X121131485Y-75582023D02*
X121131485Y-74962976D01*
X186569580Y-76902857D02*
X186617200Y-76950476D01*
X186617200Y-76950476D02*
X186664819Y-77093333D01*
X186664819Y-77093333D02*
X186664819Y-77188571D01*
X186664819Y-77188571D02*
X186617200Y-77331428D01*
X186617200Y-77331428D02*
X186521961Y-77426666D01*
X186521961Y-77426666D02*
X186426723Y-77474285D01*
X186426723Y-77474285D02*
X186236247Y-77521904D01*
X186236247Y-77521904D02*
X186093390Y-77521904D01*
X186093390Y-77521904D02*
X185902914Y-77474285D01*
X185902914Y-77474285D02*
X185807676Y-77426666D01*
X185807676Y-77426666D02*
X185712438Y-77331428D01*
X185712438Y-77331428D02*
X185664819Y-77188571D01*
X185664819Y-77188571D02*
X185664819Y-77093333D01*
X185664819Y-77093333D02*
X185712438Y-76950476D01*
X185712438Y-76950476D02*
X185760057Y-76902857D01*
X185760057Y-76521904D02*
X185712438Y-76474285D01*
X185712438Y-76474285D02*
X185664819Y-76379047D01*
X185664819Y-76379047D02*
X185664819Y-76140952D01*
X185664819Y-76140952D02*
X185712438Y-76045714D01*
X185712438Y-76045714D02*
X185760057Y-75998095D01*
X185760057Y-75998095D02*
X185855295Y-75950476D01*
X185855295Y-75950476D02*
X185950533Y-75950476D01*
X185950533Y-75950476D02*
X186093390Y-75998095D01*
X186093390Y-75998095D02*
X186664819Y-76569523D01*
X186664819Y-76569523D02*
X186664819Y-75950476D01*
X186664819Y-74998095D02*
X186664819Y-75569523D01*
X186664819Y-75283809D02*
X185664819Y-75283809D01*
X185664819Y-75283809D02*
X185807676Y-75379047D01*
X185807676Y-75379047D02*
X185902914Y-75474285D01*
X185902914Y-75474285D02*
X185950533Y-75569523D01*
X138526666Y-116111009D02*
X138193333Y-116111009D01*
X138193333Y-116634819D02*
X138193333Y-115634819D01*
X138193333Y-115634819D02*
X138669523Y-115634819D01*
X139002857Y-115730057D02*
X139050476Y-115682438D01*
X139050476Y-115682438D02*
X139145714Y-115634819D01*
X139145714Y-115634819D02*
X139383809Y-115634819D01*
X139383809Y-115634819D02*
X139479047Y-115682438D01*
X139479047Y-115682438D02*
X139526666Y-115730057D01*
X139526666Y-115730057D02*
X139574285Y-115825295D01*
X139574285Y-115825295D02*
X139574285Y-115920533D01*
X139574285Y-115920533D02*
X139526666Y-116063390D01*
X139526666Y-116063390D02*
X138955238Y-116634819D01*
X138955238Y-116634819D02*
X139574285Y-116634819D01*
X135637142Y-69244819D02*
X135303809Y-68768628D01*
X135065714Y-69244819D02*
X135065714Y-68244819D01*
X135065714Y-68244819D02*
X135446666Y-68244819D01*
X135446666Y-68244819D02*
X135541904Y-68292438D01*
X135541904Y-68292438D02*
X135589523Y-68340057D01*
X135589523Y-68340057D02*
X135637142Y-68435295D01*
X135637142Y-68435295D02*
X135637142Y-68578152D01*
X135637142Y-68578152D02*
X135589523Y-68673390D01*
X135589523Y-68673390D02*
X135541904Y-68721009D01*
X135541904Y-68721009D02*
X135446666Y-68768628D01*
X135446666Y-68768628D02*
X135065714Y-68768628D01*
X136589523Y-69244819D02*
X136018095Y-69244819D01*
X136303809Y-69244819D02*
X136303809Y-68244819D01*
X136303809Y-68244819D02*
X136208571Y-68387676D01*
X136208571Y-68387676D02*
X136113333Y-68482914D01*
X136113333Y-68482914D02*
X136018095Y-68530533D01*
X136922857Y-68244819D02*
X137589523Y-68244819D01*
X137589523Y-68244819D02*
X137160952Y-69244819D01*
X120429642Y-93739580D02*
X120382023Y-93787200D01*
X120382023Y-93787200D02*
X120239166Y-93834819D01*
X120239166Y-93834819D02*
X120143928Y-93834819D01*
X120143928Y-93834819D02*
X120001071Y-93787200D01*
X120001071Y-93787200D02*
X119905833Y-93691961D01*
X119905833Y-93691961D02*
X119858214Y-93596723D01*
X119858214Y-93596723D02*
X119810595Y-93406247D01*
X119810595Y-93406247D02*
X119810595Y-93263390D01*
X119810595Y-93263390D02*
X119858214Y-93072914D01*
X119858214Y-93072914D02*
X119905833Y-92977676D01*
X119905833Y-92977676D02*
X120001071Y-92882438D01*
X120001071Y-92882438D02*
X120143928Y-92834819D01*
X120143928Y-92834819D02*
X120239166Y-92834819D01*
X120239166Y-92834819D02*
X120382023Y-92882438D01*
X120382023Y-92882438D02*
X120429642Y-92930057D01*
X121382023Y-93834819D02*
X120810595Y-93834819D01*
X121096309Y-93834819D02*
X121096309Y-92834819D01*
X121096309Y-92834819D02*
X121001071Y-92977676D01*
X121001071Y-92977676D02*
X120905833Y-93072914D01*
X120905833Y-93072914D02*
X120810595Y-93120533D01*
X122334404Y-93834819D02*
X121762976Y-93834819D01*
X122048690Y-93834819D02*
X122048690Y-92834819D01*
X122048690Y-92834819D02*
X121953452Y-92977676D01*
X121953452Y-92977676D02*
X121858214Y-93072914D01*
X121858214Y-93072914D02*
X121762976Y-93120533D01*
X134403333Y-83964819D02*
X134070000Y-83488628D01*
X133831905Y-83964819D02*
X133831905Y-82964819D01*
X133831905Y-82964819D02*
X134212857Y-82964819D01*
X134212857Y-82964819D02*
X134308095Y-83012438D01*
X134308095Y-83012438D02*
X134355714Y-83060057D01*
X134355714Y-83060057D02*
X134403333Y-83155295D01*
X134403333Y-83155295D02*
X134403333Y-83298152D01*
X134403333Y-83298152D02*
X134355714Y-83393390D01*
X134355714Y-83393390D02*
X134308095Y-83441009D01*
X134308095Y-83441009D02*
X134212857Y-83488628D01*
X134212857Y-83488628D02*
X133831905Y-83488628D01*
X134784286Y-83060057D02*
X134831905Y-83012438D01*
X134831905Y-83012438D02*
X134927143Y-82964819D01*
X134927143Y-82964819D02*
X135165238Y-82964819D01*
X135165238Y-82964819D02*
X135260476Y-83012438D01*
X135260476Y-83012438D02*
X135308095Y-83060057D01*
X135308095Y-83060057D02*
X135355714Y-83155295D01*
X135355714Y-83155295D02*
X135355714Y-83250533D01*
X135355714Y-83250533D02*
X135308095Y-83393390D01*
X135308095Y-83393390D02*
X134736667Y-83964819D01*
X134736667Y-83964819D02*
X135355714Y-83964819D01*
X115619580Y-84879166D02*
X115667200Y-84926785D01*
X115667200Y-84926785D02*
X115714819Y-85069642D01*
X115714819Y-85069642D02*
X115714819Y-85164880D01*
X115714819Y-85164880D02*
X115667200Y-85307737D01*
X115667200Y-85307737D02*
X115571961Y-85402975D01*
X115571961Y-85402975D02*
X115476723Y-85450594D01*
X115476723Y-85450594D02*
X115286247Y-85498213D01*
X115286247Y-85498213D02*
X115143390Y-85498213D01*
X115143390Y-85498213D02*
X114952914Y-85450594D01*
X114952914Y-85450594D02*
X114857676Y-85402975D01*
X114857676Y-85402975D02*
X114762438Y-85307737D01*
X114762438Y-85307737D02*
X114714819Y-85164880D01*
X114714819Y-85164880D02*
X114714819Y-85069642D01*
X114714819Y-85069642D02*
X114762438Y-84926785D01*
X114762438Y-84926785D02*
X114810057Y-84879166D01*
X115714819Y-83926785D02*
X115714819Y-84498213D01*
X115714819Y-84212499D02*
X114714819Y-84212499D01*
X114714819Y-84212499D02*
X114857676Y-84307737D01*
X114857676Y-84307737D02*
X114952914Y-84402975D01*
X114952914Y-84402975D02*
X115000533Y-84498213D01*
X172864819Y-76352857D02*
X172388628Y-76686190D01*
X172864819Y-76924285D02*
X171864819Y-76924285D01*
X171864819Y-76924285D02*
X171864819Y-76543333D01*
X171864819Y-76543333D02*
X171912438Y-76448095D01*
X171912438Y-76448095D02*
X171960057Y-76400476D01*
X171960057Y-76400476D02*
X172055295Y-76352857D01*
X172055295Y-76352857D02*
X172198152Y-76352857D01*
X172198152Y-76352857D02*
X172293390Y-76400476D01*
X172293390Y-76400476D02*
X172341009Y-76448095D01*
X172341009Y-76448095D02*
X172388628Y-76543333D01*
X172388628Y-76543333D02*
X172388628Y-76924285D01*
X171960057Y-75971904D02*
X171912438Y-75924285D01*
X171912438Y-75924285D02*
X171864819Y-75829047D01*
X171864819Y-75829047D02*
X171864819Y-75590952D01*
X171864819Y-75590952D02*
X171912438Y-75495714D01*
X171912438Y-75495714D02*
X171960057Y-75448095D01*
X171960057Y-75448095D02*
X172055295Y-75400476D01*
X172055295Y-75400476D02*
X172150533Y-75400476D01*
X172150533Y-75400476D02*
X172293390Y-75448095D01*
X172293390Y-75448095D02*
X172864819Y-76019523D01*
X172864819Y-76019523D02*
X172864819Y-75400476D01*
X171960057Y-75019523D02*
X171912438Y-74971904D01*
X171912438Y-74971904D02*
X171864819Y-74876666D01*
X171864819Y-74876666D02*
X171864819Y-74638571D01*
X171864819Y-74638571D02*
X171912438Y-74543333D01*
X171912438Y-74543333D02*
X171960057Y-74495714D01*
X171960057Y-74495714D02*
X172055295Y-74448095D01*
X172055295Y-74448095D02*
X172150533Y-74448095D01*
X172150533Y-74448095D02*
X172293390Y-74495714D01*
X172293390Y-74495714D02*
X172864819Y-75067142D01*
X172864819Y-75067142D02*
X172864819Y-74448095D01*
X152174819Y-75219523D02*
X152889104Y-75219523D01*
X152889104Y-75219523D02*
X153031961Y-75267142D01*
X153031961Y-75267142D02*
X153127200Y-75362380D01*
X153127200Y-75362380D02*
X153174819Y-75505237D01*
X153174819Y-75505237D02*
X153174819Y-75600475D01*
X153174819Y-74219523D02*
X153174819Y-74790951D01*
X153174819Y-74505237D02*
X152174819Y-74505237D01*
X152174819Y-74505237D02*
X152317676Y-74600475D01*
X152317676Y-74600475D02*
X152412914Y-74695713D01*
X152412914Y-74695713D02*
X152460533Y-74790951D01*
X153174819Y-73267142D02*
X153174819Y-73838570D01*
X153174819Y-73552856D02*
X152174819Y-73552856D01*
X152174819Y-73552856D02*
X152317676Y-73648094D01*
X152317676Y-73648094D02*
X152412914Y-73743332D01*
X152412914Y-73743332D02*
X152460533Y-73838570D01*
X167338095Y-77974819D02*
X167338095Y-78784342D01*
X167338095Y-78784342D02*
X167385714Y-78879580D01*
X167385714Y-78879580D02*
X167433333Y-78927200D01*
X167433333Y-78927200D02*
X167528571Y-78974819D01*
X167528571Y-78974819D02*
X167719047Y-78974819D01*
X167719047Y-78974819D02*
X167814285Y-78927200D01*
X167814285Y-78927200D02*
X167861904Y-78879580D01*
X167861904Y-78879580D02*
X167909523Y-78784342D01*
X167909523Y-78784342D02*
X167909523Y-77974819D01*
X168909523Y-78974819D02*
X168338095Y-78974819D01*
X168623809Y-78974819D02*
X168623809Y-77974819D01*
X168623809Y-77974819D02*
X168528571Y-78117676D01*
X168528571Y-78117676D02*
X168433333Y-78212914D01*
X168433333Y-78212914D02*
X168338095Y-78260533D01*
X105774819Y-75953333D02*
X106489104Y-75953333D01*
X106489104Y-75953333D02*
X106631961Y-76000952D01*
X106631961Y-76000952D02*
X106727200Y-76096190D01*
X106727200Y-76096190D02*
X106774819Y-76239047D01*
X106774819Y-76239047D02*
X106774819Y-76334285D01*
X105774819Y-75000952D02*
X105774819Y-75477142D01*
X105774819Y-75477142D02*
X106251009Y-75524761D01*
X106251009Y-75524761D02*
X106203390Y-75477142D01*
X106203390Y-75477142D02*
X106155771Y-75381904D01*
X106155771Y-75381904D02*
X106155771Y-75143809D01*
X106155771Y-75143809D02*
X106203390Y-75048571D01*
X106203390Y-75048571D02*
X106251009Y-75000952D01*
X106251009Y-75000952D02*
X106346247Y-74953333D01*
X106346247Y-74953333D02*
X106584342Y-74953333D01*
X106584342Y-74953333D02*
X106679580Y-75000952D01*
X106679580Y-75000952D02*
X106727200Y-75048571D01*
X106727200Y-75048571D02*
X106774819Y-75143809D01*
X106774819Y-75143809D02*
X106774819Y-75381904D01*
X106774819Y-75381904D02*
X106727200Y-75477142D01*
X106727200Y-75477142D02*
X106679580Y-75524761D01*
X122569642Y-69229580D02*
X122522023Y-69277200D01*
X122522023Y-69277200D02*
X122379166Y-69324819D01*
X122379166Y-69324819D02*
X122283928Y-69324819D01*
X122283928Y-69324819D02*
X122141071Y-69277200D01*
X122141071Y-69277200D02*
X122045833Y-69181961D01*
X122045833Y-69181961D02*
X121998214Y-69086723D01*
X121998214Y-69086723D02*
X121950595Y-68896247D01*
X121950595Y-68896247D02*
X121950595Y-68753390D01*
X121950595Y-68753390D02*
X121998214Y-68562914D01*
X121998214Y-68562914D02*
X122045833Y-68467676D01*
X122045833Y-68467676D02*
X122141071Y-68372438D01*
X122141071Y-68372438D02*
X122283928Y-68324819D01*
X122283928Y-68324819D02*
X122379166Y-68324819D01*
X122379166Y-68324819D02*
X122522023Y-68372438D01*
X122522023Y-68372438D02*
X122569642Y-68420057D01*
X123522023Y-69324819D02*
X122950595Y-69324819D01*
X123236309Y-69324819D02*
X123236309Y-68324819D01*
X123236309Y-68324819D02*
X123141071Y-68467676D01*
X123141071Y-68467676D02*
X123045833Y-68562914D01*
X123045833Y-68562914D02*
X122950595Y-68610533D01*
X124426785Y-68324819D02*
X123950595Y-68324819D01*
X123950595Y-68324819D02*
X123902976Y-68801009D01*
X123902976Y-68801009D02*
X123950595Y-68753390D01*
X123950595Y-68753390D02*
X124045833Y-68705771D01*
X124045833Y-68705771D02*
X124283928Y-68705771D01*
X124283928Y-68705771D02*
X124379166Y-68753390D01*
X124379166Y-68753390D02*
X124426785Y-68801009D01*
X124426785Y-68801009D02*
X124474404Y-68896247D01*
X124474404Y-68896247D02*
X124474404Y-69134342D01*
X124474404Y-69134342D02*
X124426785Y-69229580D01*
X124426785Y-69229580D02*
X124379166Y-69277200D01*
X124379166Y-69277200D02*
X124283928Y-69324819D01*
X124283928Y-69324819D02*
X124045833Y-69324819D01*
X124045833Y-69324819D02*
X123950595Y-69277200D01*
X123950595Y-69277200D02*
X123902976Y-69229580D01*
X150397142Y-101579580D02*
X150349523Y-101627200D01*
X150349523Y-101627200D02*
X150206666Y-101674819D01*
X150206666Y-101674819D02*
X150111428Y-101674819D01*
X150111428Y-101674819D02*
X149968571Y-101627200D01*
X149968571Y-101627200D02*
X149873333Y-101531961D01*
X149873333Y-101531961D02*
X149825714Y-101436723D01*
X149825714Y-101436723D02*
X149778095Y-101246247D01*
X149778095Y-101246247D02*
X149778095Y-101103390D01*
X149778095Y-101103390D02*
X149825714Y-100912914D01*
X149825714Y-100912914D02*
X149873333Y-100817676D01*
X149873333Y-100817676D02*
X149968571Y-100722438D01*
X149968571Y-100722438D02*
X150111428Y-100674819D01*
X150111428Y-100674819D02*
X150206666Y-100674819D01*
X150206666Y-100674819D02*
X150349523Y-100722438D01*
X150349523Y-100722438D02*
X150397142Y-100770057D01*
X151349523Y-101674819D02*
X150778095Y-101674819D01*
X151063809Y-101674819D02*
X151063809Y-100674819D01*
X151063809Y-100674819D02*
X150968571Y-100817676D01*
X150968571Y-100817676D02*
X150873333Y-100912914D01*
X150873333Y-100912914D02*
X150778095Y-100960533D01*
X151682857Y-100674819D02*
X152301904Y-100674819D01*
X152301904Y-100674819D02*
X151968571Y-101055771D01*
X151968571Y-101055771D02*
X152111428Y-101055771D01*
X152111428Y-101055771D02*
X152206666Y-101103390D01*
X152206666Y-101103390D02*
X152254285Y-101151009D01*
X152254285Y-101151009D02*
X152301904Y-101246247D01*
X152301904Y-101246247D02*
X152301904Y-101484342D01*
X152301904Y-101484342D02*
X152254285Y-101579580D01*
X152254285Y-101579580D02*
X152206666Y-101627200D01*
X152206666Y-101627200D02*
X152111428Y-101674819D01*
X152111428Y-101674819D02*
X151825714Y-101674819D01*
X151825714Y-101674819D02*
X151730476Y-101627200D01*
X151730476Y-101627200D02*
X151682857Y-101579580D01*
X165970476Y-62884819D02*
X165970476Y-63599104D01*
X165970476Y-63599104D02*
X165922857Y-63741961D01*
X165922857Y-63741961D02*
X165827619Y-63837200D01*
X165827619Y-63837200D02*
X165684762Y-63884819D01*
X165684762Y-63884819D02*
X165589524Y-63884819D01*
X166970476Y-63884819D02*
X166399048Y-63884819D01*
X166684762Y-63884819D02*
X166684762Y-62884819D01*
X166684762Y-62884819D02*
X166589524Y-63027676D01*
X166589524Y-63027676D02*
X166494286Y-63122914D01*
X166494286Y-63122914D02*
X166399048Y-63170533D01*
X167303810Y-62884819D02*
X167970476Y-62884819D01*
X167970476Y-62884819D02*
X167541905Y-63884819D01*
X126315833Y-90609580D02*
X126268214Y-90657200D01*
X126268214Y-90657200D02*
X126125357Y-90704819D01*
X126125357Y-90704819D02*
X126030119Y-90704819D01*
X126030119Y-90704819D02*
X125887262Y-90657200D01*
X125887262Y-90657200D02*
X125792024Y-90561961D01*
X125792024Y-90561961D02*
X125744405Y-90466723D01*
X125744405Y-90466723D02*
X125696786Y-90276247D01*
X125696786Y-90276247D02*
X125696786Y-90133390D01*
X125696786Y-90133390D02*
X125744405Y-89942914D01*
X125744405Y-89942914D02*
X125792024Y-89847676D01*
X125792024Y-89847676D02*
X125887262Y-89752438D01*
X125887262Y-89752438D02*
X126030119Y-89704819D01*
X126030119Y-89704819D02*
X126125357Y-89704819D01*
X126125357Y-89704819D02*
X126268214Y-89752438D01*
X126268214Y-89752438D02*
X126315833Y-89800057D01*
X127220595Y-89704819D02*
X126744405Y-89704819D01*
X126744405Y-89704819D02*
X126696786Y-90181009D01*
X126696786Y-90181009D02*
X126744405Y-90133390D01*
X126744405Y-90133390D02*
X126839643Y-90085771D01*
X126839643Y-90085771D02*
X127077738Y-90085771D01*
X127077738Y-90085771D02*
X127172976Y-90133390D01*
X127172976Y-90133390D02*
X127220595Y-90181009D01*
X127220595Y-90181009D02*
X127268214Y-90276247D01*
X127268214Y-90276247D02*
X127268214Y-90514342D01*
X127268214Y-90514342D02*
X127220595Y-90609580D01*
X127220595Y-90609580D02*
X127172976Y-90657200D01*
X127172976Y-90657200D02*
X127077738Y-90704819D01*
X127077738Y-90704819D02*
X126839643Y-90704819D01*
X126839643Y-90704819D02*
X126744405Y-90657200D01*
X126744405Y-90657200D02*
X126696786Y-90609580D01*
X165104819Y-82832857D02*
X164628628Y-83166190D01*
X165104819Y-83404285D02*
X164104819Y-83404285D01*
X164104819Y-83404285D02*
X164104819Y-83023333D01*
X164104819Y-83023333D02*
X164152438Y-82928095D01*
X164152438Y-82928095D02*
X164200057Y-82880476D01*
X164200057Y-82880476D02*
X164295295Y-82832857D01*
X164295295Y-82832857D02*
X164438152Y-82832857D01*
X164438152Y-82832857D02*
X164533390Y-82880476D01*
X164533390Y-82880476D02*
X164581009Y-82928095D01*
X164581009Y-82928095D02*
X164628628Y-83023333D01*
X164628628Y-83023333D02*
X164628628Y-83404285D01*
X164200057Y-82451904D02*
X164152438Y-82404285D01*
X164152438Y-82404285D02*
X164104819Y-82309047D01*
X164104819Y-82309047D02*
X164104819Y-82070952D01*
X164104819Y-82070952D02*
X164152438Y-81975714D01*
X164152438Y-81975714D02*
X164200057Y-81928095D01*
X164200057Y-81928095D02*
X164295295Y-81880476D01*
X164295295Y-81880476D02*
X164390533Y-81880476D01*
X164390533Y-81880476D02*
X164533390Y-81928095D01*
X164533390Y-81928095D02*
X165104819Y-82499523D01*
X165104819Y-82499523D02*
X165104819Y-81880476D01*
X165104819Y-80928095D02*
X165104819Y-81499523D01*
X165104819Y-81213809D02*
X164104819Y-81213809D01*
X164104819Y-81213809D02*
X164247676Y-81309047D01*
X164247676Y-81309047D02*
X164342914Y-81404285D01*
X164342914Y-81404285D02*
X164390533Y-81499523D01*
X139279580Y-70812857D02*
X139327200Y-70860476D01*
X139327200Y-70860476D02*
X139374819Y-71003333D01*
X139374819Y-71003333D02*
X139374819Y-71098571D01*
X139374819Y-71098571D02*
X139327200Y-71241428D01*
X139327200Y-71241428D02*
X139231961Y-71336666D01*
X139231961Y-71336666D02*
X139136723Y-71384285D01*
X139136723Y-71384285D02*
X138946247Y-71431904D01*
X138946247Y-71431904D02*
X138803390Y-71431904D01*
X138803390Y-71431904D02*
X138612914Y-71384285D01*
X138612914Y-71384285D02*
X138517676Y-71336666D01*
X138517676Y-71336666D02*
X138422438Y-71241428D01*
X138422438Y-71241428D02*
X138374819Y-71098571D01*
X138374819Y-71098571D02*
X138374819Y-71003333D01*
X138374819Y-71003333D02*
X138422438Y-70860476D01*
X138422438Y-70860476D02*
X138470057Y-70812857D01*
X139374819Y-69860476D02*
X139374819Y-70431904D01*
X139374819Y-70146190D02*
X138374819Y-70146190D01*
X138374819Y-70146190D02*
X138517676Y-70241428D01*
X138517676Y-70241428D02*
X138612914Y-70336666D01*
X138612914Y-70336666D02*
X138660533Y-70431904D01*
X138374819Y-69003333D02*
X138374819Y-69193809D01*
X138374819Y-69193809D02*
X138422438Y-69289047D01*
X138422438Y-69289047D02*
X138470057Y-69336666D01*
X138470057Y-69336666D02*
X138612914Y-69431904D01*
X138612914Y-69431904D02*
X138803390Y-69479523D01*
X138803390Y-69479523D02*
X139184342Y-69479523D01*
X139184342Y-69479523D02*
X139279580Y-69431904D01*
X139279580Y-69431904D02*
X139327200Y-69384285D01*
X139327200Y-69384285D02*
X139374819Y-69289047D01*
X139374819Y-69289047D02*
X139374819Y-69098571D01*
X139374819Y-69098571D02*
X139327200Y-69003333D01*
X139327200Y-69003333D02*
X139279580Y-68955714D01*
X139279580Y-68955714D02*
X139184342Y-68908095D01*
X139184342Y-68908095D02*
X138946247Y-68908095D01*
X138946247Y-68908095D02*
X138851009Y-68955714D01*
X138851009Y-68955714D02*
X138803390Y-69003333D01*
X138803390Y-69003333D02*
X138755771Y-69098571D01*
X138755771Y-69098571D02*
X138755771Y-69289047D01*
X138755771Y-69289047D02*
X138803390Y-69384285D01*
X138803390Y-69384285D02*
X138851009Y-69431904D01*
X138851009Y-69431904D02*
X138946247Y-69479523D01*
X117334819Y-85186666D02*
X117334819Y-85662856D01*
X117334819Y-85662856D02*
X116334819Y-85662856D01*
X117334819Y-84329523D02*
X117334819Y-84900951D01*
X117334819Y-84615237D02*
X116334819Y-84615237D01*
X116334819Y-84615237D02*
X116477676Y-84710475D01*
X116477676Y-84710475D02*
X116572914Y-84805713D01*
X116572914Y-84805713D02*
X116620533Y-84900951D01*
X117667142Y-69344819D02*
X117333809Y-68868628D01*
X117095714Y-69344819D02*
X117095714Y-68344819D01*
X117095714Y-68344819D02*
X117476666Y-68344819D01*
X117476666Y-68344819D02*
X117571904Y-68392438D01*
X117571904Y-68392438D02*
X117619523Y-68440057D01*
X117619523Y-68440057D02*
X117667142Y-68535295D01*
X117667142Y-68535295D02*
X117667142Y-68678152D01*
X117667142Y-68678152D02*
X117619523Y-68773390D01*
X117619523Y-68773390D02*
X117571904Y-68821009D01*
X117571904Y-68821009D02*
X117476666Y-68868628D01*
X117476666Y-68868628D02*
X117095714Y-68868628D01*
X118619523Y-69344819D02*
X118048095Y-69344819D01*
X118333809Y-69344819D02*
X118333809Y-68344819D01*
X118333809Y-68344819D02*
X118238571Y-68487676D01*
X118238571Y-68487676D02*
X118143333Y-68582914D01*
X118143333Y-68582914D02*
X118048095Y-68630533D01*
X119476666Y-68678152D02*
X119476666Y-69344819D01*
X119238571Y-68297200D02*
X119000476Y-69011485D01*
X119000476Y-69011485D02*
X119619523Y-69011485D01*
X140264819Y-102516666D02*
X139788628Y-102849999D01*
X140264819Y-103088094D02*
X139264819Y-103088094D01*
X139264819Y-103088094D02*
X139264819Y-102707142D01*
X139264819Y-102707142D02*
X139312438Y-102611904D01*
X139312438Y-102611904D02*
X139360057Y-102564285D01*
X139360057Y-102564285D02*
X139455295Y-102516666D01*
X139455295Y-102516666D02*
X139598152Y-102516666D01*
X139598152Y-102516666D02*
X139693390Y-102564285D01*
X139693390Y-102564285D02*
X139741009Y-102611904D01*
X139741009Y-102611904D02*
X139788628Y-102707142D01*
X139788628Y-102707142D02*
X139788628Y-103088094D01*
X139264819Y-102183332D02*
X139264819Y-101564285D01*
X139264819Y-101564285D02*
X139645771Y-101897618D01*
X139645771Y-101897618D02*
X139645771Y-101754761D01*
X139645771Y-101754761D02*
X139693390Y-101659523D01*
X139693390Y-101659523D02*
X139741009Y-101611904D01*
X139741009Y-101611904D02*
X139836247Y-101564285D01*
X139836247Y-101564285D02*
X140074342Y-101564285D01*
X140074342Y-101564285D02*
X140169580Y-101611904D01*
X140169580Y-101611904D02*
X140217200Y-101659523D01*
X140217200Y-101659523D02*
X140264819Y-101754761D01*
X140264819Y-101754761D02*
X140264819Y-102040475D01*
X140264819Y-102040475D02*
X140217200Y-102135713D01*
X140217200Y-102135713D02*
X140169580Y-102183332D01*
D11*
X171770237Y-106034318D02*
X171770237Y-104764318D01*
X173100714Y-105913365D02*
X173040238Y-105973842D01*
X173040238Y-105973842D02*
X172858809Y-106034318D01*
X172858809Y-106034318D02*
X172737857Y-106034318D01*
X172737857Y-106034318D02*
X172556428Y-105973842D01*
X172556428Y-105973842D02*
X172435476Y-105852889D01*
X172435476Y-105852889D02*
X172374999Y-105731937D01*
X172374999Y-105731937D02*
X172314523Y-105490032D01*
X172314523Y-105490032D02*
X172314523Y-105308603D01*
X172314523Y-105308603D02*
X172374999Y-105066699D01*
X172374999Y-105066699D02*
X172435476Y-104945746D01*
X172435476Y-104945746D02*
X172556428Y-104824794D01*
X172556428Y-104824794D02*
X172737857Y-104764318D01*
X172737857Y-104764318D02*
X172858809Y-104764318D01*
X172858809Y-104764318D02*
X173040238Y-104824794D01*
X173040238Y-104824794D02*
X173100714Y-104885270D01*
X173584523Y-104885270D02*
X173644999Y-104824794D01*
X173644999Y-104824794D02*
X173765952Y-104764318D01*
X173765952Y-104764318D02*
X174068333Y-104764318D01*
X174068333Y-104764318D02*
X174189285Y-104824794D01*
X174189285Y-104824794D02*
X174249761Y-104885270D01*
X174249761Y-104885270D02*
X174310238Y-105006222D01*
X174310238Y-105006222D02*
X174310238Y-105127175D01*
X174310238Y-105127175D02*
X174249761Y-105308603D01*
X174249761Y-105308603D02*
X173524047Y-106034318D01*
X173524047Y-106034318D02*
X174310238Y-106034318D01*
D10*
X133164819Y-86866666D02*
X132688628Y-87199999D01*
X133164819Y-87438094D02*
X132164819Y-87438094D01*
X132164819Y-87438094D02*
X132164819Y-87057142D01*
X132164819Y-87057142D02*
X132212438Y-86961904D01*
X132212438Y-86961904D02*
X132260057Y-86914285D01*
X132260057Y-86914285D02*
X132355295Y-86866666D01*
X132355295Y-86866666D02*
X132498152Y-86866666D01*
X132498152Y-86866666D02*
X132593390Y-86914285D01*
X132593390Y-86914285D02*
X132641009Y-86961904D01*
X132641009Y-86961904D02*
X132688628Y-87057142D01*
X132688628Y-87057142D02*
X132688628Y-87438094D01*
X133164819Y-86390475D02*
X133164819Y-86199999D01*
X133164819Y-86199999D02*
X133117200Y-86104761D01*
X133117200Y-86104761D02*
X133069580Y-86057142D01*
X133069580Y-86057142D02*
X132926723Y-85961904D01*
X132926723Y-85961904D02*
X132736247Y-85914285D01*
X132736247Y-85914285D02*
X132355295Y-85914285D01*
X132355295Y-85914285D02*
X132260057Y-85961904D01*
X132260057Y-85961904D02*
X132212438Y-86009523D01*
X132212438Y-86009523D02*
X132164819Y-86104761D01*
X132164819Y-86104761D02*
X132164819Y-86295237D01*
X132164819Y-86295237D02*
X132212438Y-86390475D01*
X132212438Y-86390475D02*
X132260057Y-86438094D01*
X132260057Y-86438094D02*
X132355295Y-86485713D01*
X132355295Y-86485713D02*
X132593390Y-86485713D01*
X132593390Y-86485713D02*
X132688628Y-86438094D01*
X132688628Y-86438094D02*
X132736247Y-86390475D01*
X132736247Y-86390475D02*
X132783866Y-86295237D01*
X132783866Y-86295237D02*
X132783866Y-86104761D01*
X132783866Y-86104761D02*
X132736247Y-86009523D01*
X132736247Y-86009523D02*
X132688628Y-85961904D01*
X132688628Y-85961904D02*
X132593390Y-85914285D01*
X150207142Y-68894819D02*
X149873809Y-68418628D01*
X149635714Y-68894819D02*
X149635714Y-67894819D01*
X149635714Y-67894819D02*
X150016666Y-67894819D01*
X150016666Y-67894819D02*
X150111904Y-67942438D01*
X150111904Y-67942438D02*
X150159523Y-67990057D01*
X150159523Y-67990057D02*
X150207142Y-68085295D01*
X150207142Y-68085295D02*
X150207142Y-68228152D01*
X150207142Y-68228152D02*
X150159523Y-68323390D01*
X150159523Y-68323390D02*
X150111904Y-68371009D01*
X150111904Y-68371009D02*
X150016666Y-68418628D01*
X150016666Y-68418628D02*
X149635714Y-68418628D01*
X150588095Y-67990057D02*
X150635714Y-67942438D01*
X150635714Y-67942438D02*
X150730952Y-67894819D01*
X150730952Y-67894819D02*
X150969047Y-67894819D01*
X150969047Y-67894819D02*
X151064285Y-67942438D01*
X151064285Y-67942438D02*
X151111904Y-67990057D01*
X151111904Y-67990057D02*
X151159523Y-68085295D01*
X151159523Y-68085295D02*
X151159523Y-68180533D01*
X151159523Y-68180533D02*
X151111904Y-68323390D01*
X151111904Y-68323390D02*
X150540476Y-68894819D01*
X150540476Y-68894819D02*
X151159523Y-68894819D01*
X151778571Y-67894819D02*
X151873809Y-67894819D01*
X151873809Y-67894819D02*
X151969047Y-67942438D01*
X151969047Y-67942438D02*
X152016666Y-67990057D01*
X152016666Y-67990057D02*
X152064285Y-68085295D01*
X152064285Y-68085295D02*
X152111904Y-68275771D01*
X152111904Y-68275771D02*
X152111904Y-68513866D01*
X152111904Y-68513866D02*
X152064285Y-68704342D01*
X152064285Y-68704342D02*
X152016666Y-68799580D01*
X152016666Y-68799580D02*
X151969047Y-68847200D01*
X151969047Y-68847200D02*
X151873809Y-68894819D01*
X151873809Y-68894819D02*
X151778571Y-68894819D01*
X151778571Y-68894819D02*
X151683333Y-68847200D01*
X151683333Y-68847200D02*
X151635714Y-68799580D01*
X151635714Y-68799580D02*
X151588095Y-68704342D01*
X151588095Y-68704342D02*
X151540476Y-68513866D01*
X151540476Y-68513866D02*
X151540476Y-68275771D01*
X151540476Y-68275771D02*
X151588095Y-68085295D01*
X151588095Y-68085295D02*
X151635714Y-67990057D01*
X151635714Y-67990057D02*
X151683333Y-67942438D01*
X151683333Y-67942438D02*
X151778571Y-67894819D01*
X155084642Y-68769580D02*
X155037023Y-68817200D01*
X155037023Y-68817200D02*
X154894166Y-68864819D01*
X154894166Y-68864819D02*
X154798928Y-68864819D01*
X154798928Y-68864819D02*
X154656071Y-68817200D01*
X154656071Y-68817200D02*
X154560833Y-68721961D01*
X154560833Y-68721961D02*
X154513214Y-68626723D01*
X154513214Y-68626723D02*
X154465595Y-68436247D01*
X154465595Y-68436247D02*
X154465595Y-68293390D01*
X154465595Y-68293390D02*
X154513214Y-68102914D01*
X154513214Y-68102914D02*
X154560833Y-68007676D01*
X154560833Y-68007676D02*
X154656071Y-67912438D01*
X154656071Y-67912438D02*
X154798928Y-67864819D01*
X154798928Y-67864819D02*
X154894166Y-67864819D01*
X154894166Y-67864819D02*
X155037023Y-67912438D01*
X155037023Y-67912438D02*
X155084642Y-67960057D01*
X156037023Y-68864819D02*
X155465595Y-68864819D01*
X155751309Y-68864819D02*
X155751309Y-67864819D01*
X155751309Y-67864819D02*
X155656071Y-68007676D01*
X155656071Y-68007676D02*
X155560833Y-68102914D01*
X155560833Y-68102914D02*
X155465595Y-68150533D01*
X156370357Y-67864819D02*
X157037023Y-67864819D01*
X157037023Y-67864819D02*
X156608452Y-68864819D01*
X145717142Y-68894819D02*
X145383809Y-68418628D01*
X145145714Y-68894819D02*
X145145714Y-67894819D01*
X145145714Y-67894819D02*
X145526666Y-67894819D01*
X145526666Y-67894819D02*
X145621904Y-67942438D01*
X145621904Y-67942438D02*
X145669523Y-67990057D01*
X145669523Y-67990057D02*
X145717142Y-68085295D01*
X145717142Y-68085295D02*
X145717142Y-68228152D01*
X145717142Y-68228152D02*
X145669523Y-68323390D01*
X145669523Y-68323390D02*
X145621904Y-68371009D01*
X145621904Y-68371009D02*
X145526666Y-68418628D01*
X145526666Y-68418628D02*
X145145714Y-68418628D01*
X146669523Y-68894819D02*
X146098095Y-68894819D01*
X146383809Y-68894819D02*
X146383809Y-67894819D01*
X146383809Y-67894819D02*
X146288571Y-68037676D01*
X146288571Y-68037676D02*
X146193333Y-68132914D01*
X146193333Y-68132914D02*
X146098095Y-68180533D01*
X147145714Y-68894819D02*
X147336190Y-68894819D01*
X147336190Y-68894819D02*
X147431428Y-68847200D01*
X147431428Y-68847200D02*
X147479047Y-68799580D01*
X147479047Y-68799580D02*
X147574285Y-68656723D01*
X147574285Y-68656723D02*
X147621904Y-68466247D01*
X147621904Y-68466247D02*
X147621904Y-68085295D01*
X147621904Y-68085295D02*
X147574285Y-67990057D01*
X147574285Y-67990057D02*
X147526666Y-67942438D01*
X147526666Y-67942438D02*
X147431428Y-67894819D01*
X147431428Y-67894819D02*
X147240952Y-67894819D01*
X147240952Y-67894819D02*
X147145714Y-67942438D01*
X147145714Y-67942438D02*
X147098095Y-67990057D01*
X147098095Y-67990057D02*
X147050476Y-68085295D01*
X147050476Y-68085295D02*
X147050476Y-68323390D01*
X147050476Y-68323390D02*
X147098095Y-68418628D01*
X147098095Y-68418628D02*
X147145714Y-68466247D01*
X147145714Y-68466247D02*
X147240952Y-68513866D01*
X147240952Y-68513866D02*
X147431428Y-68513866D01*
X147431428Y-68513866D02*
X147526666Y-68466247D01*
X147526666Y-68466247D02*
X147574285Y-68418628D01*
X147574285Y-68418628D02*
X147621904Y-68323390D01*
X134230476Y-62724819D02*
X134230476Y-63439104D01*
X134230476Y-63439104D02*
X134182857Y-63581961D01*
X134182857Y-63581961D02*
X134087619Y-63677200D01*
X134087619Y-63677200D02*
X133944762Y-63724819D01*
X133944762Y-63724819D02*
X133849524Y-63724819D01*
X135230476Y-63724819D02*
X134659048Y-63724819D01*
X134944762Y-63724819D02*
X134944762Y-62724819D01*
X134944762Y-62724819D02*
X134849524Y-62867676D01*
X134849524Y-62867676D02*
X134754286Y-62962914D01*
X134754286Y-62962914D02*
X134659048Y-63010533D01*
X135611429Y-62820057D02*
X135659048Y-62772438D01*
X135659048Y-62772438D02*
X135754286Y-62724819D01*
X135754286Y-62724819D02*
X135992381Y-62724819D01*
X135992381Y-62724819D02*
X136087619Y-62772438D01*
X136087619Y-62772438D02*
X136135238Y-62820057D01*
X136135238Y-62820057D02*
X136182857Y-62915295D01*
X136182857Y-62915295D02*
X136182857Y-63010533D01*
X136182857Y-63010533D02*
X136135238Y-63153390D01*
X136135238Y-63153390D02*
X135563810Y-63724819D01*
X135563810Y-63724819D02*
X136182857Y-63724819D01*
X110034819Y-95813333D02*
X110749104Y-95813333D01*
X110749104Y-95813333D02*
X110891961Y-95860952D01*
X110891961Y-95860952D02*
X110987200Y-95956190D01*
X110987200Y-95956190D02*
X111034819Y-96099047D01*
X111034819Y-96099047D02*
X111034819Y-96194285D01*
X111034819Y-94813333D02*
X111034819Y-95384761D01*
X111034819Y-95099047D02*
X110034819Y-95099047D01*
X110034819Y-95099047D02*
X110177676Y-95194285D01*
X110177676Y-95194285D02*
X110272914Y-95289523D01*
X110272914Y-95289523D02*
X110320533Y-95384761D01*
X158076666Y-82509819D02*
X158076666Y-83224104D01*
X158076666Y-83224104D02*
X158029047Y-83366961D01*
X158029047Y-83366961D02*
X157933809Y-83462200D01*
X157933809Y-83462200D02*
X157790952Y-83509819D01*
X157790952Y-83509819D02*
X157695714Y-83509819D01*
X158600476Y-83509819D02*
X158790952Y-83509819D01*
X158790952Y-83509819D02*
X158886190Y-83462200D01*
X158886190Y-83462200D02*
X158933809Y-83414580D01*
X158933809Y-83414580D02*
X159029047Y-83271723D01*
X159029047Y-83271723D02*
X159076666Y-83081247D01*
X159076666Y-83081247D02*
X159076666Y-82700295D01*
X159076666Y-82700295D02*
X159029047Y-82605057D01*
X159029047Y-82605057D02*
X158981428Y-82557438D01*
X158981428Y-82557438D02*
X158886190Y-82509819D01*
X158886190Y-82509819D02*
X158695714Y-82509819D01*
X158695714Y-82509819D02*
X158600476Y-82557438D01*
X158600476Y-82557438D02*
X158552857Y-82605057D01*
X158552857Y-82605057D02*
X158505238Y-82700295D01*
X158505238Y-82700295D02*
X158505238Y-82938390D01*
X158505238Y-82938390D02*
X158552857Y-83033628D01*
X158552857Y-83033628D02*
X158600476Y-83081247D01*
X158600476Y-83081247D02*
X158695714Y-83128866D01*
X158695714Y-83128866D02*
X158886190Y-83128866D01*
X158886190Y-83128866D02*
X158981428Y-83081247D01*
X158981428Y-83081247D02*
X159029047Y-83033628D01*
X159029047Y-83033628D02*
X159076666Y-82938390D01*
X185537142Y-73714819D02*
X185203809Y-73238628D01*
X184965714Y-73714819D02*
X184965714Y-72714819D01*
X184965714Y-72714819D02*
X185346666Y-72714819D01*
X185346666Y-72714819D02*
X185441904Y-72762438D01*
X185441904Y-72762438D02*
X185489523Y-72810057D01*
X185489523Y-72810057D02*
X185537142Y-72905295D01*
X185537142Y-72905295D02*
X185537142Y-73048152D01*
X185537142Y-73048152D02*
X185489523Y-73143390D01*
X185489523Y-73143390D02*
X185441904Y-73191009D01*
X185441904Y-73191009D02*
X185346666Y-73238628D01*
X185346666Y-73238628D02*
X184965714Y-73238628D01*
X186489523Y-73714819D02*
X185918095Y-73714819D01*
X186203809Y-73714819D02*
X186203809Y-72714819D01*
X186203809Y-72714819D02*
X186108571Y-72857676D01*
X186108571Y-72857676D02*
X186013333Y-72952914D01*
X186013333Y-72952914D02*
X185918095Y-73000533D01*
X187060952Y-73143390D02*
X186965714Y-73095771D01*
X186965714Y-73095771D02*
X186918095Y-73048152D01*
X186918095Y-73048152D02*
X186870476Y-72952914D01*
X186870476Y-72952914D02*
X186870476Y-72905295D01*
X186870476Y-72905295D02*
X186918095Y-72810057D01*
X186918095Y-72810057D02*
X186965714Y-72762438D01*
X186965714Y-72762438D02*
X187060952Y-72714819D01*
X187060952Y-72714819D02*
X187251428Y-72714819D01*
X187251428Y-72714819D02*
X187346666Y-72762438D01*
X187346666Y-72762438D02*
X187394285Y-72810057D01*
X187394285Y-72810057D02*
X187441904Y-72905295D01*
X187441904Y-72905295D02*
X187441904Y-72952914D01*
X187441904Y-72952914D02*
X187394285Y-73048152D01*
X187394285Y-73048152D02*
X187346666Y-73095771D01*
X187346666Y-73095771D02*
X187251428Y-73143390D01*
X187251428Y-73143390D02*
X187060952Y-73143390D01*
X187060952Y-73143390D02*
X186965714Y-73191009D01*
X186965714Y-73191009D02*
X186918095Y-73238628D01*
X186918095Y-73238628D02*
X186870476Y-73333866D01*
X186870476Y-73333866D02*
X186870476Y-73524342D01*
X186870476Y-73524342D02*
X186918095Y-73619580D01*
X186918095Y-73619580D02*
X186965714Y-73667200D01*
X186965714Y-73667200D02*
X187060952Y-73714819D01*
X187060952Y-73714819D02*
X187251428Y-73714819D01*
X187251428Y-73714819D02*
X187346666Y-73667200D01*
X187346666Y-73667200D02*
X187394285Y-73619580D01*
X187394285Y-73619580D02*
X187441904Y-73524342D01*
X187441904Y-73524342D02*
X187441904Y-73333866D01*
X187441904Y-73333866D02*
X187394285Y-73238628D01*
X187394285Y-73238628D02*
X187346666Y-73191009D01*
X187346666Y-73191009D02*
X187251428Y-73143390D01*
D11*
X112700237Y-110494318D02*
X112700237Y-109224318D01*
X114030714Y-110373365D02*
X113970238Y-110433842D01*
X113970238Y-110433842D02*
X113788809Y-110494318D01*
X113788809Y-110494318D02*
X113667857Y-110494318D01*
X113667857Y-110494318D02*
X113486428Y-110433842D01*
X113486428Y-110433842D02*
X113365476Y-110312889D01*
X113365476Y-110312889D02*
X113304999Y-110191937D01*
X113304999Y-110191937D02*
X113244523Y-109950032D01*
X113244523Y-109950032D02*
X113244523Y-109768603D01*
X113244523Y-109768603D02*
X113304999Y-109526699D01*
X113304999Y-109526699D02*
X113365476Y-109405746D01*
X113365476Y-109405746D02*
X113486428Y-109284794D01*
X113486428Y-109284794D02*
X113667857Y-109224318D01*
X113667857Y-109224318D02*
X113788809Y-109224318D01*
X113788809Y-109224318D02*
X113970238Y-109284794D01*
X113970238Y-109284794D02*
X114030714Y-109345270D01*
X115240238Y-110494318D02*
X114514523Y-110494318D01*
X114877380Y-110494318D02*
X114877380Y-109224318D01*
X114877380Y-109224318D02*
X114756428Y-109405746D01*
X114756428Y-109405746D02*
X114635476Y-109526699D01*
X114635476Y-109526699D02*
X114514523Y-109587175D01*
D10*
X157537142Y-99184819D02*
X157203809Y-98708628D01*
X156965714Y-99184819D02*
X156965714Y-98184819D01*
X156965714Y-98184819D02*
X157346666Y-98184819D01*
X157346666Y-98184819D02*
X157441904Y-98232438D01*
X157441904Y-98232438D02*
X157489523Y-98280057D01*
X157489523Y-98280057D02*
X157537142Y-98375295D01*
X157537142Y-98375295D02*
X157537142Y-98518152D01*
X157537142Y-98518152D02*
X157489523Y-98613390D01*
X157489523Y-98613390D02*
X157441904Y-98661009D01*
X157441904Y-98661009D02*
X157346666Y-98708628D01*
X157346666Y-98708628D02*
X156965714Y-98708628D01*
X157918095Y-98280057D02*
X157965714Y-98232438D01*
X157965714Y-98232438D02*
X158060952Y-98184819D01*
X158060952Y-98184819D02*
X158299047Y-98184819D01*
X158299047Y-98184819D02*
X158394285Y-98232438D01*
X158394285Y-98232438D02*
X158441904Y-98280057D01*
X158441904Y-98280057D02*
X158489523Y-98375295D01*
X158489523Y-98375295D02*
X158489523Y-98470533D01*
X158489523Y-98470533D02*
X158441904Y-98613390D01*
X158441904Y-98613390D02*
X157870476Y-99184819D01*
X157870476Y-99184819D02*
X158489523Y-99184819D01*
X159346666Y-98184819D02*
X159156190Y-98184819D01*
X159156190Y-98184819D02*
X159060952Y-98232438D01*
X159060952Y-98232438D02*
X159013333Y-98280057D01*
X159013333Y-98280057D02*
X158918095Y-98422914D01*
X158918095Y-98422914D02*
X158870476Y-98613390D01*
X158870476Y-98613390D02*
X158870476Y-98994342D01*
X158870476Y-98994342D02*
X158918095Y-99089580D01*
X158918095Y-99089580D02*
X158965714Y-99137200D01*
X158965714Y-99137200D02*
X159060952Y-99184819D01*
X159060952Y-99184819D02*
X159251428Y-99184819D01*
X159251428Y-99184819D02*
X159346666Y-99137200D01*
X159346666Y-99137200D02*
X159394285Y-99089580D01*
X159394285Y-99089580D02*
X159441904Y-98994342D01*
X159441904Y-98994342D02*
X159441904Y-98756247D01*
X159441904Y-98756247D02*
X159394285Y-98661009D01*
X159394285Y-98661009D02*
X159346666Y-98613390D01*
X159346666Y-98613390D02*
X159251428Y-98565771D01*
X159251428Y-98565771D02*
X159060952Y-98565771D01*
X159060952Y-98565771D02*
X158965714Y-98613390D01*
X158965714Y-98613390D02*
X158918095Y-98661009D01*
X158918095Y-98661009D02*
X158870476Y-98756247D01*
X114357142Y-74034819D02*
X114023809Y-73558628D01*
X113785714Y-74034819D02*
X113785714Y-73034819D01*
X113785714Y-73034819D02*
X114166666Y-73034819D01*
X114166666Y-73034819D02*
X114261904Y-73082438D01*
X114261904Y-73082438D02*
X114309523Y-73130057D01*
X114309523Y-73130057D02*
X114357142Y-73225295D01*
X114357142Y-73225295D02*
X114357142Y-73368152D01*
X114357142Y-73368152D02*
X114309523Y-73463390D01*
X114309523Y-73463390D02*
X114261904Y-73511009D01*
X114261904Y-73511009D02*
X114166666Y-73558628D01*
X114166666Y-73558628D02*
X113785714Y-73558628D01*
X115309523Y-74034819D02*
X114738095Y-74034819D01*
X115023809Y-74034819D02*
X115023809Y-73034819D01*
X115023809Y-73034819D02*
X114928571Y-73177676D01*
X114928571Y-73177676D02*
X114833333Y-73272914D01*
X114833333Y-73272914D02*
X114738095Y-73320533D01*
X115690476Y-73130057D02*
X115738095Y-73082438D01*
X115738095Y-73082438D02*
X115833333Y-73034819D01*
X115833333Y-73034819D02*
X116071428Y-73034819D01*
X116071428Y-73034819D02*
X116166666Y-73082438D01*
X116166666Y-73082438D02*
X116214285Y-73130057D01*
X116214285Y-73130057D02*
X116261904Y-73225295D01*
X116261904Y-73225295D02*
X116261904Y-73320533D01*
X116261904Y-73320533D02*
X116214285Y-73463390D01*
X116214285Y-73463390D02*
X115642857Y-74034819D01*
X115642857Y-74034819D02*
X116261904Y-74034819D01*
X112814819Y-79552857D02*
X112338628Y-79886190D01*
X112814819Y-80124285D02*
X111814819Y-80124285D01*
X111814819Y-80124285D02*
X111814819Y-79743333D01*
X111814819Y-79743333D02*
X111862438Y-79648095D01*
X111862438Y-79648095D02*
X111910057Y-79600476D01*
X111910057Y-79600476D02*
X112005295Y-79552857D01*
X112005295Y-79552857D02*
X112148152Y-79552857D01*
X112148152Y-79552857D02*
X112243390Y-79600476D01*
X112243390Y-79600476D02*
X112291009Y-79648095D01*
X112291009Y-79648095D02*
X112338628Y-79743333D01*
X112338628Y-79743333D02*
X112338628Y-80124285D01*
X112814819Y-78600476D02*
X112814819Y-79171904D01*
X112814819Y-78886190D02*
X111814819Y-78886190D01*
X111814819Y-78886190D02*
X111957676Y-78981428D01*
X111957676Y-78981428D02*
X112052914Y-79076666D01*
X112052914Y-79076666D02*
X112100533Y-79171904D01*
X112814819Y-77648095D02*
X112814819Y-78219523D01*
X112814819Y-77933809D02*
X111814819Y-77933809D01*
X111814819Y-77933809D02*
X111957676Y-78029047D01*
X111957676Y-78029047D02*
X112052914Y-78124285D01*
X112052914Y-78124285D02*
X112100533Y-78219523D01*
X153059819Y-113963333D02*
X153774104Y-113963333D01*
X153774104Y-113963333D02*
X153916961Y-114010952D01*
X153916961Y-114010952D02*
X154012200Y-114106190D01*
X154012200Y-114106190D02*
X154059819Y-114249047D01*
X154059819Y-114249047D02*
X154059819Y-114344285D01*
X153059819Y-113058571D02*
X153059819Y-113249047D01*
X153059819Y-113249047D02*
X153107438Y-113344285D01*
X153107438Y-113344285D02*
X153155057Y-113391904D01*
X153155057Y-113391904D02*
X153297914Y-113487142D01*
X153297914Y-113487142D02*
X153488390Y-113534761D01*
X153488390Y-113534761D02*
X153869342Y-113534761D01*
X153869342Y-113534761D02*
X153964580Y-113487142D01*
X153964580Y-113487142D02*
X154012200Y-113439523D01*
X154012200Y-113439523D02*
X154059819Y-113344285D01*
X154059819Y-113344285D02*
X154059819Y-113153809D01*
X154059819Y-113153809D02*
X154012200Y-113058571D01*
X154012200Y-113058571D02*
X153964580Y-113010952D01*
X153964580Y-113010952D02*
X153869342Y-112963333D01*
X153869342Y-112963333D02*
X153631247Y-112963333D01*
X153631247Y-112963333D02*
X153536009Y-113010952D01*
X153536009Y-113010952D02*
X153488390Y-113058571D01*
X153488390Y-113058571D02*
X153440771Y-113153809D01*
X153440771Y-113153809D02*
X153440771Y-113344285D01*
X153440771Y-113344285D02*
X153488390Y-113439523D01*
X153488390Y-113439523D02*
X153536009Y-113487142D01*
X153536009Y-113487142D02*
X153631247Y-113534761D01*
X177845833Y-110769580D02*
X177798214Y-110817200D01*
X177798214Y-110817200D02*
X177655357Y-110864819D01*
X177655357Y-110864819D02*
X177560119Y-110864819D01*
X177560119Y-110864819D02*
X177417262Y-110817200D01*
X177417262Y-110817200D02*
X177322024Y-110721961D01*
X177322024Y-110721961D02*
X177274405Y-110626723D01*
X177274405Y-110626723D02*
X177226786Y-110436247D01*
X177226786Y-110436247D02*
X177226786Y-110293390D01*
X177226786Y-110293390D02*
X177274405Y-110102914D01*
X177274405Y-110102914D02*
X177322024Y-110007676D01*
X177322024Y-110007676D02*
X177417262Y-109912438D01*
X177417262Y-109912438D02*
X177560119Y-109864819D01*
X177560119Y-109864819D02*
X177655357Y-109864819D01*
X177655357Y-109864819D02*
X177798214Y-109912438D01*
X177798214Y-109912438D02*
X177845833Y-109960057D01*
X178179167Y-109864819D02*
X178798214Y-109864819D01*
X178798214Y-109864819D02*
X178464881Y-110245771D01*
X178464881Y-110245771D02*
X178607738Y-110245771D01*
X178607738Y-110245771D02*
X178702976Y-110293390D01*
X178702976Y-110293390D02*
X178750595Y-110341009D01*
X178750595Y-110341009D02*
X178798214Y-110436247D01*
X178798214Y-110436247D02*
X178798214Y-110674342D01*
X178798214Y-110674342D02*
X178750595Y-110769580D01*
X178750595Y-110769580D02*
X178702976Y-110817200D01*
X178702976Y-110817200D02*
X178607738Y-110864819D01*
X178607738Y-110864819D02*
X178322024Y-110864819D01*
X178322024Y-110864819D02*
X178226786Y-110817200D01*
X178226786Y-110817200D02*
X178179167Y-110769580D01*
X173364819Y-102359523D02*
X174079104Y-102359523D01*
X174079104Y-102359523D02*
X174221961Y-102407142D01*
X174221961Y-102407142D02*
X174317200Y-102502380D01*
X174317200Y-102502380D02*
X174364819Y-102645237D01*
X174364819Y-102645237D02*
X174364819Y-102740475D01*
X174364819Y-101359523D02*
X174364819Y-101930951D01*
X174364819Y-101645237D02*
X173364819Y-101645237D01*
X173364819Y-101645237D02*
X173507676Y-101740475D01*
X173507676Y-101740475D02*
X173602914Y-101835713D01*
X173602914Y-101835713D02*
X173650533Y-101930951D01*
X173793390Y-100788094D02*
X173745771Y-100883332D01*
X173745771Y-100883332D02*
X173698152Y-100930951D01*
X173698152Y-100930951D02*
X173602914Y-100978570D01*
X173602914Y-100978570D02*
X173555295Y-100978570D01*
X173555295Y-100978570D02*
X173460057Y-100930951D01*
X173460057Y-100930951D02*
X173412438Y-100883332D01*
X173412438Y-100883332D02*
X173364819Y-100788094D01*
X173364819Y-100788094D02*
X173364819Y-100597618D01*
X173364819Y-100597618D02*
X173412438Y-100502380D01*
X173412438Y-100502380D02*
X173460057Y-100454761D01*
X173460057Y-100454761D02*
X173555295Y-100407142D01*
X173555295Y-100407142D02*
X173602914Y-100407142D01*
X173602914Y-100407142D02*
X173698152Y-100454761D01*
X173698152Y-100454761D02*
X173745771Y-100502380D01*
X173745771Y-100502380D02*
X173793390Y-100597618D01*
X173793390Y-100597618D02*
X173793390Y-100788094D01*
X173793390Y-100788094D02*
X173841009Y-100883332D01*
X173841009Y-100883332D02*
X173888628Y-100930951D01*
X173888628Y-100930951D02*
X173983866Y-100978570D01*
X173983866Y-100978570D02*
X174174342Y-100978570D01*
X174174342Y-100978570D02*
X174269580Y-100930951D01*
X174269580Y-100930951D02*
X174317200Y-100883332D01*
X174317200Y-100883332D02*
X174364819Y-100788094D01*
X174364819Y-100788094D02*
X174364819Y-100597618D01*
X174364819Y-100597618D02*
X174317200Y-100502380D01*
X174317200Y-100502380D02*
X174269580Y-100454761D01*
X174269580Y-100454761D02*
X174174342Y-100407142D01*
X174174342Y-100407142D02*
X173983866Y-100407142D01*
X173983866Y-100407142D02*
X173888628Y-100454761D01*
X173888628Y-100454761D02*
X173841009Y-100502380D01*
X173841009Y-100502380D02*
X173793390Y-100597618D01*
X151050476Y-62944819D02*
X151050476Y-63659104D01*
X151050476Y-63659104D02*
X151002857Y-63801961D01*
X151002857Y-63801961D02*
X150907619Y-63897200D01*
X150907619Y-63897200D02*
X150764762Y-63944819D01*
X150764762Y-63944819D02*
X150669524Y-63944819D01*
X152050476Y-63944819D02*
X151479048Y-63944819D01*
X151764762Y-63944819D02*
X151764762Y-62944819D01*
X151764762Y-62944819D02*
X151669524Y-63087676D01*
X151669524Y-63087676D02*
X151574286Y-63182914D01*
X151574286Y-63182914D02*
X151479048Y-63230533D01*
X152955238Y-62944819D02*
X152479048Y-62944819D01*
X152479048Y-62944819D02*
X152431429Y-63421009D01*
X152431429Y-63421009D02*
X152479048Y-63373390D01*
X152479048Y-63373390D02*
X152574286Y-63325771D01*
X152574286Y-63325771D02*
X152812381Y-63325771D01*
X152812381Y-63325771D02*
X152907619Y-63373390D01*
X152907619Y-63373390D02*
X152955238Y-63421009D01*
X152955238Y-63421009D02*
X153002857Y-63516247D01*
X153002857Y-63516247D02*
X153002857Y-63754342D01*
X153002857Y-63754342D02*
X152955238Y-63849580D01*
X152955238Y-63849580D02*
X152907619Y-63897200D01*
X152907619Y-63897200D02*
X152812381Y-63944819D01*
X152812381Y-63944819D02*
X152574286Y-63944819D01*
X152574286Y-63944819D02*
X152479048Y-63897200D01*
X152479048Y-63897200D02*
X152431429Y-63849580D01*
X181159580Y-76952857D02*
X181207200Y-77000476D01*
X181207200Y-77000476D02*
X181254819Y-77143333D01*
X181254819Y-77143333D02*
X181254819Y-77238571D01*
X181254819Y-77238571D02*
X181207200Y-77381428D01*
X181207200Y-77381428D02*
X181111961Y-77476666D01*
X181111961Y-77476666D02*
X181016723Y-77524285D01*
X181016723Y-77524285D02*
X180826247Y-77571904D01*
X180826247Y-77571904D02*
X180683390Y-77571904D01*
X180683390Y-77571904D02*
X180492914Y-77524285D01*
X180492914Y-77524285D02*
X180397676Y-77476666D01*
X180397676Y-77476666D02*
X180302438Y-77381428D01*
X180302438Y-77381428D02*
X180254819Y-77238571D01*
X180254819Y-77238571D02*
X180254819Y-77143333D01*
X180254819Y-77143333D02*
X180302438Y-77000476D01*
X180302438Y-77000476D02*
X180350057Y-76952857D01*
X180350057Y-76571904D02*
X180302438Y-76524285D01*
X180302438Y-76524285D02*
X180254819Y-76429047D01*
X180254819Y-76429047D02*
X180254819Y-76190952D01*
X180254819Y-76190952D02*
X180302438Y-76095714D01*
X180302438Y-76095714D02*
X180350057Y-76048095D01*
X180350057Y-76048095D02*
X180445295Y-76000476D01*
X180445295Y-76000476D02*
X180540533Y-76000476D01*
X180540533Y-76000476D02*
X180683390Y-76048095D01*
X180683390Y-76048095D02*
X181254819Y-76619523D01*
X181254819Y-76619523D02*
X181254819Y-76000476D01*
X180254819Y-75381428D02*
X180254819Y-75286190D01*
X180254819Y-75286190D02*
X180302438Y-75190952D01*
X180302438Y-75190952D02*
X180350057Y-75143333D01*
X180350057Y-75143333D02*
X180445295Y-75095714D01*
X180445295Y-75095714D02*
X180635771Y-75048095D01*
X180635771Y-75048095D02*
X180873866Y-75048095D01*
X180873866Y-75048095D02*
X181064342Y-75095714D01*
X181064342Y-75095714D02*
X181159580Y-75143333D01*
X181159580Y-75143333D02*
X181207200Y-75190952D01*
X181207200Y-75190952D02*
X181254819Y-75286190D01*
X181254819Y-75286190D02*
X181254819Y-75381428D01*
X181254819Y-75381428D02*
X181207200Y-75476666D01*
X181207200Y-75476666D02*
X181159580Y-75524285D01*
X181159580Y-75524285D02*
X181064342Y-75571904D01*
X181064342Y-75571904D02*
X180873866Y-75619523D01*
X180873866Y-75619523D02*
X180635771Y-75619523D01*
X180635771Y-75619523D02*
X180445295Y-75571904D01*
X180445295Y-75571904D02*
X180350057Y-75524285D01*
X180350057Y-75524285D02*
X180302438Y-75476666D01*
X180302438Y-75476666D02*
X180254819Y-75381428D01*
D11*
X142948237Y-104559318D02*
X142948237Y-103289318D01*
X144278714Y-104438365D02*
X144218238Y-104498842D01*
X144218238Y-104498842D02*
X144036809Y-104559318D01*
X144036809Y-104559318D02*
X143915857Y-104559318D01*
X143915857Y-104559318D02*
X143734428Y-104498842D01*
X143734428Y-104498842D02*
X143613476Y-104377889D01*
X143613476Y-104377889D02*
X143552999Y-104256937D01*
X143552999Y-104256937D02*
X143492523Y-104015032D01*
X143492523Y-104015032D02*
X143492523Y-103833603D01*
X143492523Y-103833603D02*
X143552999Y-103591699D01*
X143552999Y-103591699D02*
X143613476Y-103470746D01*
X143613476Y-103470746D02*
X143734428Y-103349794D01*
X143734428Y-103349794D02*
X143915857Y-103289318D01*
X143915857Y-103289318D02*
X144036809Y-103289318D01*
X144036809Y-103289318D02*
X144218238Y-103349794D01*
X144218238Y-103349794D02*
X144278714Y-103410270D01*
X145367285Y-103712651D02*
X145367285Y-104559318D01*
X145064904Y-103228842D02*
X144762523Y-104135984D01*
X144762523Y-104135984D02*
X145548714Y-104135984D01*
D10*
X159687142Y-70044819D02*
X159353809Y-69568628D01*
X159115714Y-70044819D02*
X159115714Y-69044819D01*
X159115714Y-69044819D02*
X159496666Y-69044819D01*
X159496666Y-69044819D02*
X159591904Y-69092438D01*
X159591904Y-69092438D02*
X159639523Y-69140057D01*
X159639523Y-69140057D02*
X159687142Y-69235295D01*
X159687142Y-69235295D02*
X159687142Y-69378152D01*
X159687142Y-69378152D02*
X159639523Y-69473390D01*
X159639523Y-69473390D02*
X159591904Y-69521009D01*
X159591904Y-69521009D02*
X159496666Y-69568628D01*
X159496666Y-69568628D02*
X159115714Y-69568628D01*
X160068095Y-69140057D02*
X160115714Y-69092438D01*
X160115714Y-69092438D02*
X160210952Y-69044819D01*
X160210952Y-69044819D02*
X160449047Y-69044819D01*
X160449047Y-69044819D02*
X160544285Y-69092438D01*
X160544285Y-69092438D02*
X160591904Y-69140057D01*
X160591904Y-69140057D02*
X160639523Y-69235295D01*
X160639523Y-69235295D02*
X160639523Y-69330533D01*
X160639523Y-69330533D02*
X160591904Y-69473390D01*
X160591904Y-69473390D02*
X160020476Y-70044819D01*
X160020476Y-70044819D02*
X160639523Y-70044819D01*
X160972857Y-69044819D02*
X161591904Y-69044819D01*
X161591904Y-69044819D02*
X161258571Y-69425771D01*
X161258571Y-69425771D02*
X161401428Y-69425771D01*
X161401428Y-69425771D02*
X161496666Y-69473390D01*
X161496666Y-69473390D02*
X161544285Y-69521009D01*
X161544285Y-69521009D02*
X161591904Y-69616247D01*
X161591904Y-69616247D02*
X161591904Y-69854342D01*
X161591904Y-69854342D02*
X161544285Y-69949580D01*
X161544285Y-69949580D02*
X161496666Y-69997200D01*
X161496666Y-69997200D02*
X161401428Y-70044819D01*
X161401428Y-70044819D02*
X161115714Y-70044819D01*
X161115714Y-70044819D02*
X161020476Y-69997200D01*
X161020476Y-69997200D02*
X160972857Y-69949580D01*
X123435833Y-81199580D02*
X123388214Y-81247200D01*
X123388214Y-81247200D02*
X123245357Y-81294819D01*
X123245357Y-81294819D02*
X123150119Y-81294819D01*
X123150119Y-81294819D02*
X123007262Y-81247200D01*
X123007262Y-81247200D02*
X122912024Y-81151961D01*
X122912024Y-81151961D02*
X122864405Y-81056723D01*
X122864405Y-81056723D02*
X122816786Y-80866247D01*
X122816786Y-80866247D02*
X122816786Y-80723390D01*
X122816786Y-80723390D02*
X122864405Y-80532914D01*
X122864405Y-80532914D02*
X122912024Y-80437676D01*
X122912024Y-80437676D02*
X123007262Y-80342438D01*
X123007262Y-80342438D02*
X123150119Y-80294819D01*
X123150119Y-80294819D02*
X123245357Y-80294819D01*
X123245357Y-80294819D02*
X123388214Y-80342438D01*
X123388214Y-80342438D02*
X123435833Y-80390057D01*
X124292976Y-80628152D02*
X124292976Y-81294819D01*
X124054881Y-80247200D02*
X123816786Y-80961485D01*
X123816786Y-80961485D02*
X124435833Y-80961485D01*
X173430833Y-110759580D02*
X173383214Y-110807200D01*
X173383214Y-110807200D02*
X173240357Y-110854819D01*
X173240357Y-110854819D02*
X173145119Y-110854819D01*
X173145119Y-110854819D02*
X173002262Y-110807200D01*
X173002262Y-110807200D02*
X172907024Y-110711961D01*
X172907024Y-110711961D02*
X172859405Y-110616723D01*
X172859405Y-110616723D02*
X172811786Y-110426247D01*
X172811786Y-110426247D02*
X172811786Y-110283390D01*
X172811786Y-110283390D02*
X172859405Y-110092914D01*
X172859405Y-110092914D02*
X172907024Y-109997676D01*
X172907024Y-109997676D02*
X173002262Y-109902438D01*
X173002262Y-109902438D02*
X173145119Y-109854819D01*
X173145119Y-109854819D02*
X173240357Y-109854819D01*
X173240357Y-109854819D02*
X173383214Y-109902438D01*
X173383214Y-109902438D02*
X173430833Y-109950057D01*
X173764167Y-109854819D02*
X174430833Y-109854819D01*
X174430833Y-109854819D02*
X174002262Y-110854819D01*
X113367142Y-69354819D02*
X113033809Y-68878628D01*
X112795714Y-69354819D02*
X112795714Y-68354819D01*
X112795714Y-68354819D02*
X113176666Y-68354819D01*
X113176666Y-68354819D02*
X113271904Y-68402438D01*
X113271904Y-68402438D02*
X113319523Y-68450057D01*
X113319523Y-68450057D02*
X113367142Y-68545295D01*
X113367142Y-68545295D02*
X113367142Y-68688152D01*
X113367142Y-68688152D02*
X113319523Y-68783390D01*
X113319523Y-68783390D02*
X113271904Y-68831009D01*
X113271904Y-68831009D02*
X113176666Y-68878628D01*
X113176666Y-68878628D02*
X112795714Y-68878628D01*
X114319523Y-69354819D02*
X113748095Y-69354819D01*
X114033809Y-69354819D02*
X114033809Y-68354819D01*
X114033809Y-68354819D02*
X113938571Y-68497676D01*
X113938571Y-68497676D02*
X113843333Y-68592914D01*
X113843333Y-68592914D02*
X113748095Y-68640533D01*
X114652857Y-68354819D02*
X115271904Y-68354819D01*
X115271904Y-68354819D02*
X114938571Y-68735771D01*
X114938571Y-68735771D02*
X115081428Y-68735771D01*
X115081428Y-68735771D02*
X115176666Y-68783390D01*
X115176666Y-68783390D02*
X115224285Y-68831009D01*
X115224285Y-68831009D02*
X115271904Y-68926247D01*
X115271904Y-68926247D02*
X115271904Y-69164342D01*
X115271904Y-69164342D02*
X115224285Y-69259580D01*
X115224285Y-69259580D02*
X115176666Y-69307200D01*
X115176666Y-69307200D02*
X115081428Y-69354819D01*
X115081428Y-69354819D02*
X114795714Y-69354819D01*
X114795714Y-69354819D02*
X114700476Y-69307200D01*
X114700476Y-69307200D02*
X114652857Y-69259580D01*
X171577142Y-69464819D02*
X171243809Y-68988628D01*
X171005714Y-69464819D02*
X171005714Y-68464819D01*
X171005714Y-68464819D02*
X171386666Y-68464819D01*
X171386666Y-68464819D02*
X171481904Y-68512438D01*
X171481904Y-68512438D02*
X171529523Y-68560057D01*
X171529523Y-68560057D02*
X171577142Y-68655295D01*
X171577142Y-68655295D02*
X171577142Y-68798152D01*
X171577142Y-68798152D02*
X171529523Y-68893390D01*
X171529523Y-68893390D02*
X171481904Y-68941009D01*
X171481904Y-68941009D02*
X171386666Y-68988628D01*
X171386666Y-68988628D02*
X171005714Y-68988628D01*
X172529523Y-69464819D02*
X171958095Y-69464819D01*
X172243809Y-69464819D02*
X172243809Y-68464819D01*
X172243809Y-68464819D02*
X172148571Y-68607676D01*
X172148571Y-68607676D02*
X172053333Y-68702914D01*
X172053333Y-68702914D02*
X171958095Y-68750533D01*
X173386666Y-68464819D02*
X173196190Y-68464819D01*
X173196190Y-68464819D02*
X173100952Y-68512438D01*
X173100952Y-68512438D02*
X173053333Y-68560057D01*
X173053333Y-68560057D02*
X172958095Y-68702914D01*
X172958095Y-68702914D02*
X172910476Y-68893390D01*
X172910476Y-68893390D02*
X172910476Y-69274342D01*
X172910476Y-69274342D02*
X172958095Y-69369580D01*
X172958095Y-69369580D02*
X173005714Y-69417200D01*
X173005714Y-69417200D02*
X173100952Y-69464819D01*
X173100952Y-69464819D02*
X173291428Y-69464819D01*
X173291428Y-69464819D02*
X173386666Y-69417200D01*
X173386666Y-69417200D02*
X173434285Y-69369580D01*
X173434285Y-69369580D02*
X173481904Y-69274342D01*
X173481904Y-69274342D02*
X173481904Y-69036247D01*
X173481904Y-69036247D02*
X173434285Y-68941009D01*
X173434285Y-68941009D02*
X173386666Y-68893390D01*
X173386666Y-68893390D02*
X173291428Y-68845771D01*
X173291428Y-68845771D02*
X173100952Y-68845771D01*
X173100952Y-68845771D02*
X173005714Y-68893390D01*
X173005714Y-68893390D02*
X172958095Y-68941009D01*
X172958095Y-68941009D02*
X172910476Y-69036247D01*
D12*
%TO.C,R10*%
X136875000Y-86452936D02*
X136875000Y-86907064D01*
X138345000Y-86452936D02*
X138345000Y-86907064D01*
%TO.C,J14*%
X164375000Y-102900000D02*
X164375000Y-101570000D01*
X165705000Y-102900000D02*
X164375000Y-102900000D01*
X166975000Y-100240000D02*
X169575000Y-100240000D01*
X166975000Y-102900000D02*
X166975000Y-100240000D01*
X166975000Y-102900000D02*
X169575000Y-102900000D01*
X169575000Y-102900000D02*
X169575000Y-100240000D01*
%TO.C,R8*%
X137415000Y-98177064D02*
X137415000Y-97722936D01*
X138885000Y-98177064D02*
X138885000Y-97722936D01*
%TO.C,C8*%
X116881248Y-102445000D02*
X117403752Y-102445000D01*
X116881248Y-103915000D02*
X117403752Y-103915000D01*
%TO.C,R5*%
X133685000Y-102032936D02*
X133685000Y-102487064D01*
X135155000Y-102032936D02*
X135155000Y-102487064D01*
%TO.C,R15*%
X131482936Y-69705000D02*
X131937064Y-69705000D01*
X131482936Y-71175000D02*
X131937064Y-71175000D01*
%TO.C,SW1*%
X154780000Y-85500000D02*
X161240000Y-85500000D01*
X154780000Y-85530000D02*
X154780000Y-85500000D01*
X154780000Y-87430000D02*
X154780000Y-90030000D01*
X154780000Y-91960000D02*
X154780000Y-91930000D01*
X154780000Y-91960000D02*
X161240000Y-91960000D01*
X161240000Y-85500000D02*
X161240000Y-85530000D01*
X161240000Y-87430000D02*
X161240000Y-90030000D01*
X161240000Y-91960000D02*
X161240000Y-91930000D01*
%TO.C,C6*%
X145633752Y-89995000D02*
X145111248Y-89995000D01*
X145633752Y-91465000D02*
X145111248Y-91465000D01*
%TO.C,C19*%
X155853752Y-95065000D02*
X155331248Y-95065000D01*
X155853752Y-96535000D02*
X155331248Y-96535000D01*
%TO.C,C2*%
X112451248Y-102065000D02*
X112973752Y-102065000D01*
X112451248Y-103535000D02*
X112973752Y-103535000D01*
%TO.C,C9*%
X116335000Y-90021248D02*
X116335000Y-90543752D01*
X117805000Y-90021248D02*
X117805000Y-90543752D01*
%TO.C,R1*%
X128412936Y-78335000D02*
X128867064Y-78335000D01*
X128412936Y-79805000D02*
X128867064Y-79805000D01*
%TO.C,J7*%
X137500000Y-91800000D02*
X138830000Y-91800000D01*
X137500000Y-93130000D02*
X137500000Y-91800000D01*
X137500000Y-94400000D02*
X137500000Y-94460000D01*
X137500000Y-94400000D02*
X140160000Y-94400000D01*
X137500000Y-94460000D02*
X140160000Y-94460000D01*
X140160000Y-94400000D02*
X140160000Y-94460000D01*
%TO.C,C12*%
X120190000Y-95754437D02*
X120190000Y-98640000D01*
X120190000Y-95754437D02*
X121254437Y-94690000D01*
X120190000Y-104145563D02*
X120190000Y-101260000D01*
X120190000Y-104145563D02*
X121254437Y-105210000D01*
X121254437Y-94690000D02*
X130710000Y-94690000D01*
X121254437Y-105210000D02*
X130710000Y-105210000D01*
X130710000Y-94690000D02*
X130710000Y-98640000D01*
X130710000Y-105210000D02*
X130710000Y-101260000D01*
%TO.C,J4*%
X123100000Y-112290000D02*
X123100000Y-114950000D01*
X128240000Y-112290000D02*
X123100000Y-112290000D01*
X128240000Y-112290000D02*
X128240000Y-114950000D01*
X128240000Y-114950000D02*
X123100000Y-114950000D01*
X129510000Y-112290000D02*
X130840000Y-112290000D01*
X130840000Y-112290000D02*
X130840000Y-113620000D01*
D13*
%TO.C,IC3*%
X121505000Y-89025000D02*
X121505000Y-87575000D01*
D11*
%TO.C,AC1*%
X142697000Y-87024000D02*
G75*
G02*
X142673000Y-87024000I-12000J0D01*
G01*
X142673000Y-87024000D02*
G75*
G02*
X142697000Y-87024000I12000J0D01*
G01*
D12*
%TO.C,J13*%
X142115000Y-93470000D02*
X142115000Y-96130000D01*
X144715000Y-93470000D02*
X142115000Y-93470000D01*
X144715000Y-93470000D02*
X144715000Y-96130000D01*
X144715000Y-96130000D02*
X142115000Y-96130000D01*
X145985000Y-93470000D02*
X147315000Y-93470000D01*
X147315000Y-93470000D02*
X147315000Y-94800000D01*
%TO.C,R4*%
X137415000Y-107097064D02*
X137415000Y-106642936D01*
X138885000Y-107097064D02*
X138885000Y-106642936D01*
%TO.C,C18*%
X167065000Y-70643752D02*
X167065000Y-70121248D01*
X168535000Y-70643752D02*
X168535000Y-70121248D01*
%TO.C,R6*%
X131802936Y-90985000D02*
X132257064Y-90985000D01*
X131802936Y-92455000D02*
X132257064Y-92455000D01*
%TO.C,F1*%
X106290000Y-84493748D02*
X106290000Y-87266252D01*
X109710000Y-84493748D02*
X109710000Y-87266252D01*
%TO.C,J10*%
X175672000Y-66453000D02*
X175672000Y-68153000D01*
X185012000Y-66453000D02*
X185012000Y-68153000D01*
%TO.C,R7*%
X119035000Y-107837064D02*
X119035000Y-107382936D01*
X120505000Y-107837064D02*
X120505000Y-107382936D01*
%TO.C,R24*%
X164422936Y-70555000D02*
X164877064Y-70555000D01*
X164422936Y-72025000D02*
X164877064Y-72025000D01*
%TO.C,C10*%
X149111248Y-87805000D02*
X149633752Y-87805000D01*
X149111248Y-89275000D02*
X149633752Y-89275000D01*
%TO.C,C14*%
X118595000Y-76011248D02*
X118595000Y-76533752D01*
X120065000Y-76011248D02*
X120065000Y-76533752D01*
%TO.C,C21*%
X184015000Y-76641252D02*
X184015000Y-76118748D01*
X185485000Y-76641252D02*
X185485000Y-76118748D01*
%TO.C,F2*%
X140246252Y-111820000D02*
X137473748Y-111820000D01*
X140246252Y-115240000D02*
X137473748Y-115240000D01*
%TO.C,R17*%
X136052936Y-69705000D02*
X136507064Y-69705000D01*
X136052936Y-71175000D02*
X136507064Y-71175000D01*
%TO.C,C11*%
X121333752Y-90965000D02*
X120811248Y-90965000D01*
X121333752Y-92435000D02*
X120811248Y-92435000D01*
%TO.C,R2*%
X134797064Y-81125000D02*
X134342936Y-81125000D01*
X134797064Y-82595000D02*
X134342936Y-82595000D01*
%TO.C,C1*%
X112845000Y-84451248D02*
X112845000Y-84973752D01*
X114315000Y-84451248D02*
X114315000Y-84973752D01*
%TO.C,R22*%
X170025000Y-75482936D02*
X170025000Y-75937064D01*
X171495000Y-75482936D02*
X171495000Y-75937064D01*
%TO.C,J11*%
X138900000Y-73080000D02*
X138900000Y-75740000D01*
X149120000Y-73080000D02*
X138900000Y-73080000D01*
X149120000Y-73080000D02*
X149120000Y-75740000D01*
X149120000Y-75740000D02*
X138900000Y-75740000D01*
X150390000Y-73080000D02*
X151720000Y-73080000D01*
X151720000Y-73080000D02*
X151720000Y-74410000D01*
%TO.C,U1*%
X166550000Y-79820000D02*
X166550000Y-81320000D01*
X166550000Y-98220000D02*
X166550000Y-96720000D01*
X166550000Y-98220000D02*
X167550000Y-98220000D01*
X167550000Y-79820000D02*
X166550000Y-79820000D01*
X192400000Y-79820000D02*
X186200000Y-79820000D01*
X192400000Y-79820000D02*
X192400000Y-98220000D01*
X192400000Y-98220000D02*
X186200000Y-98220000D01*
X186025000Y-79820000D02*
X185525000Y-79820000D01*
X185525000Y-79320000D01*
X186025000Y-79820000D01*
G36*
X186025000Y-79820000D02*
G01*
X185525000Y-79820000D01*
X185525000Y-79320000D01*
X186025000Y-79820000D01*
G37*
%TO.C,C15*%
X122951248Y-69815000D02*
X123473752Y-69815000D01*
X122951248Y-71285000D02*
X123473752Y-71285000D01*
%TO.C,C13*%
X151301252Y-98805000D02*
X150778748Y-98805000D01*
X151301252Y-100275000D02*
X150778748Y-100275000D01*
%TO.C,C5*%
X126221248Y-91195000D02*
X126743752Y-91195000D01*
X126221248Y-92665000D02*
X126743752Y-92665000D01*
%TO.C,R21*%
X162265000Y-81962936D02*
X162265000Y-82417064D01*
X163735000Y-81962936D02*
X163735000Y-82417064D01*
%TO.C,C16*%
X139725000Y-70431252D02*
X139725000Y-69908748D01*
X141195000Y-70431252D02*
X141195000Y-69908748D01*
%TO.C,L1*%
X117820000Y-85281252D02*
X117820000Y-84758748D01*
X119240000Y-85281252D02*
X119240000Y-84758748D01*
%TO.C,R14*%
X118082936Y-69805000D02*
X118537064Y-69805000D01*
X118082936Y-71275000D02*
X118537064Y-71275000D01*
%TO.C,R3*%
X137425000Y-102122936D02*
X137425000Y-102577064D01*
X138895000Y-102122936D02*
X138895000Y-102577064D01*
D13*
%TO.C,IC2*%
X173610000Y-106470000D02*
X175910000Y-106470000D01*
X173610000Y-109470000D02*
X173610000Y-106470000D01*
X175910000Y-106470000D02*
X175910000Y-109470000D01*
X175910000Y-109470000D02*
X173610000Y-109470000D01*
X177660000Y-109470000D02*
X176260000Y-109470000D01*
D12*
%TO.C,R9*%
X133625000Y-86927064D02*
X133625000Y-86472936D01*
X135095000Y-86927064D02*
X135095000Y-86472936D01*
%TO.C,R20*%
X150622936Y-69355000D02*
X151077064Y-69355000D01*
X150622936Y-70825000D02*
X151077064Y-70825000D01*
%TO.C,C17*%
X155466248Y-69355000D02*
X155988752Y-69355000D01*
X155466248Y-70825000D02*
X155988752Y-70825000D01*
%TO.C,R19*%
X146132936Y-69355000D02*
X146587064Y-69355000D01*
X146132936Y-70825000D02*
X146587064Y-70825000D01*
%TO.C,J1*%
X101670000Y-92420000D02*
X101670000Y-98540000D01*
X101670000Y-94980000D02*
X106030000Y-94980000D01*
X101670000Y-98540000D02*
X109490000Y-98540000D01*
X103930000Y-93180000D02*
X103930000Y-94180000D01*
X103930000Y-93680000D02*
X101670000Y-93680000D01*
X103930000Y-94180000D02*
X101670000Y-94180000D01*
X103930000Y-94180000D02*
X105530000Y-94180000D01*
X103930000Y-96780000D02*
X105530000Y-96780000D01*
X103930000Y-97780000D02*
X103930000Y-96780000D01*
X105530000Y-93180000D02*
X103930000Y-93180000D01*
X105530000Y-94180000D02*
X105530000Y-93180000D01*
X105530000Y-96780000D02*
X105530000Y-97780000D01*
X105530000Y-97780000D02*
X103930000Y-97780000D01*
X106030000Y-94980000D02*
X106030000Y-95980000D01*
X106030000Y-95980000D02*
X101670000Y-95980000D01*
X107890000Y-92420000D02*
X107890000Y-93340000D01*
X107890000Y-93340000D02*
X109490000Y-93340000D01*
X107890000Y-93620000D02*
X107890000Y-93340000D01*
X107890000Y-93620000D02*
X109105000Y-93620000D01*
X107890000Y-97620000D02*
X107890000Y-97340000D01*
X107890000Y-98540000D02*
X107890000Y-97620000D01*
X109490000Y-92420000D02*
X101670000Y-92420000D01*
X109490000Y-93340000D02*
X109490000Y-92420000D01*
X109490000Y-97620000D02*
X107890000Y-97620000D01*
X109490000Y-98540000D02*
X109490000Y-97620000D01*
%TO.C,J9*%
X157080000Y-79455000D02*
X157080000Y-76855000D01*
X159740000Y-76855000D02*
X157080000Y-76855000D01*
X159740000Y-79455000D02*
X157080000Y-79455000D01*
X159740000Y-79455000D02*
X159740000Y-76855000D01*
X159740000Y-80725000D02*
X159740000Y-82055000D01*
X159740000Y-82055000D02*
X158410000Y-82055000D01*
%TO.C,R18*%
X182917064Y-72465000D02*
X182462936Y-72465000D01*
X182917064Y-73935000D02*
X182462936Y-73935000D01*
D13*
%TO.C,IC1*%
X110990000Y-105690000D02*
X112390000Y-105690000D01*
X112740000Y-105690000D02*
X115040000Y-105690000D01*
X112740000Y-108690000D02*
X112740000Y-105690000D01*
X115040000Y-105690000D02*
X115040000Y-108690000D01*
X115040000Y-108690000D02*
X112740000Y-108690000D01*
D12*
%TO.C,R26*%
X158052936Y-99505000D02*
X158507064Y-99505000D01*
X158052936Y-100975000D02*
X158507064Y-100975000D01*
%TO.C,R12*%
X114772936Y-74495000D02*
X115227064Y-74495000D01*
X114772936Y-75965000D02*
X115227064Y-75965000D01*
%TO.C,R11*%
X113275000Y-79137064D02*
X113275000Y-78682936D01*
X114745000Y-79137064D02*
X114745000Y-78682936D01*
%TO.C,J6*%
X147405000Y-112300000D02*
X147405000Y-114960000D01*
X150005000Y-112300000D02*
X147405000Y-112300000D01*
X150005000Y-112300000D02*
X150005000Y-114960000D01*
X150005000Y-114960000D02*
X147405000Y-114960000D01*
X151275000Y-112300000D02*
X152605000Y-112300000D01*
X152605000Y-112300000D02*
X152605000Y-113630000D01*
%TO.C,C3*%
X177751248Y-111355000D02*
X178273752Y-111355000D01*
X177751248Y-112825000D02*
X178273752Y-112825000D01*
%TO.C,J18*%
X174910000Y-102880000D02*
X174910000Y-101550000D01*
X176240000Y-102880000D02*
X174910000Y-102880000D01*
X177510000Y-100220000D02*
X185190000Y-100220000D01*
X177510000Y-102880000D02*
X177510000Y-100220000D01*
X177510000Y-102880000D02*
X185190000Y-102880000D01*
X185190000Y-102880000D02*
X185190000Y-100220000D01*
%TO.C,C20*%
X181745000Y-76571252D02*
X181745000Y-76048748D01*
X183215000Y-76571252D02*
X183215000Y-76048748D01*
D13*
%TO.C,IC4*%
X140713000Y-98865000D02*
X142238000Y-98865000D01*
X142588000Y-99035000D02*
X145788000Y-99035000D01*
X142588000Y-108935000D02*
X142588000Y-99035000D01*
X145788000Y-99035000D02*
X145788000Y-108935000D01*
X145788000Y-108935000D02*
X142588000Y-108935000D01*
D12*
%TO.C,R23*%
X160102936Y-70505000D02*
X160557064Y-70505000D01*
X160102936Y-71975000D02*
X160557064Y-71975000D01*
%TO.C,C4*%
X123863752Y-78425000D02*
X123341248Y-78425000D01*
X123863752Y-79895000D02*
X123341248Y-79895000D01*
%TO.C,C7*%
X173336248Y-111345000D02*
X173858752Y-111345000D01*
X173336248Y-112815000D02*
X173858752Y-112815000D01*
%TO.C,R13*%
X113782936Y-69815000D02*
X114237064Y-69815000D01*
X113782936Y-71285000D02*
X114237064Y-71285000D01*
%TO.C,R16*%
X171992936Y-69925000D02*
X172447064Y-69925000D01*
X171992936Y-71395000D02*
X172447064Y-71395000D01*
%TD*%
M02*
