M48
; DRILL file {KiCad 8.0.8} date 2026-04-07T23:28:19-0500
; FORMAT={-:-/ absolute / inch / decimal}
; #@! TF.CreationDate,2026-04-07T23:28:19-05:00
; #@! TF.GenerationSoftware,Kicad,Pcbnew,8.0.8
; #@! TF.FileFunction,Plated,1,2,PTH
FMAT,2
INCH
; #@! TA.AperFunction,Plated,PTH,ComponentDrill
T1C0.0079
; #@! TA.AperFunction,Plated,PTH,ViaDrill
T2C0.0118
; #@! TA.AperFunction,Plated,PTH,ComponentDrill
T3C0.0236
; #@! TA.AperFunction,Plated,PTH,ComponentDrill
T4C0.0295
; #@! TA.AperFunction,Plated,PTH,ComponentDrill
T5C0.0394
; #@! TA.AperFunction,Plated,PTH,ComponentDrill
T6C0.0433
%
G90
G05
T1
X6.915Y-3.4181
X6.915Y-3.4732
X6.9425Y-3.3906
X6.9425Y-3.4457
X6.9425Y-3.5008
X6.9701Y-3.4181
X6.9701Y-3.4732
X6.9976Y-3.3906
X6.9976Y-3.4457
X6.9976Y-3.5008
X7.0252Y-3.4181
X7.0252Y-3.4732
T2
X4.2677Y-4.2327
X4.3299Y-3.1953
X4.3961Y-3.961
X4.4067Y-3.4421
X4.472Y-3.652
X4.5146Y-3.2343
X4.522Y-3.524
X4.5768Y-3.8161
X4.5898Y-3.9004
X4.6335Y-4.1378
X4.6634Y-4.2589
X4.7157Y-4.1315
X4.7516Y-3.1913
X4.7965Y-3.3606
X4.8248Y-4.2012
X4.852Y-3.6846
X4.8693Y-3.5374
X4.9075Y-3.1713
X4.9354Y-4.0531
X4.9693Y-3.5461
X5.0102Y-3.1858
X5.0858Y-3.6047
X5.0909Y-3.6843
X5.1488Y-3.3571
X5.1917Y-3.478
X5.224Y-3.385
X5.3366Y-3.9055
X5.3543Y-3.374
X5.4602Y-3.039
X5.5039Y-4.1189
X5.5047Y-4.0689
X5.5134Y-3.176
X5.6075Y-3.4437
X5.6289Y-3.6133
X5.6425Y-3.15
X5.6437Y-3.5197
X5.7094Y-3.0665
X5.7287Y-3.8453
X5.7339Y-3.3882
X5.7719Y-3.4703
X5.7772Y-3.5173
X5.816Y-3.4262
X5.8492Y-4.0169
X5.8512Y-2.7594
X5.8618Y-4.2705
X5.8807Y-3.7929
X5.9004Y-4.2458
X5.9346Y-3.25
X6.1319Y-4.426
X6.2213Y-2.7713
X6.3476Y-4.089
X6.3917Y-3.7587
X6.4094Y-2.7311
X6.4098Y-3.7173
X6.4283Y-3.8256
X6.4358Y-3.1173
X6.4642Y-2.8969
X6.4886Y-3.4094
X6.5224Y-4.3803
X6.5236Y-3.2335
X6.5433Y-2.9976
X6.5445Y-2.7146
X6.6382Y-3.2343
X6.6531Y-2.8795
X6.6787Y-4.2441
X6.6807Y-3.2339
X6.7669Y-3.0957
X6.7764Y-3.5579
X6.8083Y-3.4193
X6.8098Y-3.6705
X6.8441Y-3.0961
X6.9374Y-4.4953
X6.9953Y-3.652
X7.0Y-2.85
X7.0598Y-2.8929
X7.0693Y-3.0465
X7.0717Y-4.252
X7.0736Y-3.0858
X7.1031Y-2.9343
X7.11Y-2.69
X7.1193Y-4.3516
X7.1209Y-3.0866
X7.13Y-2.58
X7.139Y-3.4264
X7.1713Y-3.2713
X7.2264Y-2.965
X7.2409Y-3.2205
X7.2713Y-3.1055
X7.2795Y-3.3445
T4
X4.2531Y-3.7197
X4.2531Y-3.7984
T5
X4.8988Y-4.4732
X4.9988Y-4.4732
X5.0988Y-4.4732
X5.4657Y-3.6665
X5.5209Y-2.9295
X5.6209Y-2.9295
X5.6474Y-3.7323
X5.7209Y-2.9295
X5.7474Y-3.7323
X5.8209Y-2.9295
X5.8557Y-4.4736
X5.9209Y-2.9295
X5.9557Y-4.4736
X6.2366Y-3.0781
X6.2366Y-3.1781
X6.5238Y-3.9988
X6.6238Y-3.9988
X6.9386Y-3.998
X7.0386Y-3.998
X7.1386Y-3.998
X7.2386Y-3.998
T6
X4.2224Y-4.1437
X4.2224Y-4.3248
X4.2744Y-2.8866
X4.2744Y-3.0677
X4.5217Y-2.5846
X4.7028Y-2.5846
X5.226Y-2.5795
X5.4071Y-2.5795
X5.8882Y-2.5882
X6.0693Y-2.5882
X6.4756Y-2.5858
X6.6567Y-2.5858
X7.2504Y-4.1858
X7.2504Y-4.3669
T3
G00X6.93Y-2.5857
M15
G01X6.93Y-2.5543
M16
G05
G00X6.93Y-2.7562
M15
G01X6.93Y-2.7129
M16
G05
G00X7.2702Y-2.5857
M15
G01X7.2702Y-2.5543
M16
G05
G00X7.2702Y-2.7562
M15
G01X7.2702Y-2.7129
M16
G05
M30
