M48
; DRILL file {KiCad 8.0.8} date 2026-04-07T23:23:41-0500
; FORMAT={-:-/ absolute / inch / decimal}
; #@! TF.CreationDate,2026-04-07T23:23:41-05:00
; #@! TF.GenerationSoftware,Kicad,Pcbnew,8.0.8
; #@! TF.FileFunction,Plated,1,2,PTH
FMAT,2
INCH
; #@! TA.AperFunction,Plated,PTH,ViaDrill
T1C0.0118
; #@! TA.AperFunction,Plated,PTH,ComponentDrill
T2C0.0295
; #@! TA.AperFunction,Plated,PTH,ComponentDrill
T3C0.0394
; #@! TA.AperFunction,Plated,PTH,ComponentDrill
T4C0.0433
%
G90
G05
T1
X3.9161Y-2.9728
X3.9429Y-4.8642
X4.028Y-4.2268
X4.0551Y-4.5217
X4.2272Y-3.3402
X4.3219Y-4.311
X4.3219Y-4.805
X4.3711Y-4.4341
X4.3868Y-4.4715
X4.3917Y-4.5649
X4.4636Y-3.7569
X4.4713Y-3.4945
X4.5008Y-4.2319
X4.5146Y-3.3453
X4.6254Y-3.5679
X4.6264Y-3.939
X4.6807Y-3.938
X4.7037Y-3.5719
X4.7343Y-4.6161
X4.7421Y-4.1181
X4.7659Y-4.2539
X4.8031Y-3.9685
X4.8685Y-3.7638
X4.8807Y-4.6201
X4.8815Y-4.4894
X4.8986Y-3.9082
X5.0555Y-4.2346
X5.1433Y-3.7488
X5.276Y-4.2661
X5.3022Y-4.5394
X5.3081Y-4.5906
X5.339Y-4.1087
X5.4006Y-4.0531
X5.4151Y-3.8868
X5.5Y-3.9685
X5.7862Y-4.1205
X5.813Y-3.7382
X5.9754Y-3.9039
X6.0217Y-3.936
X6.0248Y-4.4524
X6.1476Y-4.568
X6.1747Y-4.5885
X6.2015Y-4.5719
X6.2056Y-3.8799
X6.2303Y-4.2352
X6.2598Y-4.2776
X6.2844Y-4.3189
X6.4096Y-3.1101
X6.4096Y-3.256
X6.4524Y-3.739
X6.4583Y-4.1831
X6.4598Y-4.1504
X6.478Y-3.7724
X6.5102Y-4.1862
X6.5118Y-3.739
X6.5213Y-4.0516
X6.526Y-4.1218
X6.5374Y-4.5756
X6.5578Y-4.2282
X6.5578Y-4.4567
X6.562Y-4.6919
X6.5955Y-3.688
X6.6257Y-3.8504
X6.641Y-3.9102
X6.6427Y-3.9931
X6.652Y-3.8807
X6.6543Y-4.023
X6.655Y-3.9385
X6.6803Y-3.2921
X6.6858Y-3.8469
X6.6961Y-3.926
X6.7484Y-3.9232
X6.7807Y-3.2909
X6.8055Y-3.578
X6.822Y-4.8854
X6.8462Y-4.1417
X6.8738Y-4.314
X6.8752Y-2.9358
X6.9335Y-3.928
X6.9346Y-3.978
X6.9346Y-4.0252
X6.9382Y-3.8161
X6.9413Y-3.7217
T2
X4.095Y-3.9013
X4.095Y-3.98
T3
X4.7343Y-4.705
X4.7343Y-4.805
X4.7343Y-4.905
X5.1409Y-3.5659
X5.2409Y-3.5659
X5.3409Y-3.5659
X5.4409Y-3.5659
X5.5409Y-3.5659
X5.6077Y-4.8159
X5.6319Y-3.8455
X5.7077Y-4.8159
X5.8754Y-3.5502
X5.9482Y-4.3396
X5.9754Y-3.5502
X6.0482Y-4.3396
X6.3319Y-3.3512
X6.3319Y-3.4512
X6.4807Y-3.35
X6.4807Y-3.45
X6.5807Y-3.35
X6.5807Y-3.45
X6.6807Y-3.35
X6.6807Y-3.45
X6.7807Y-3.35
X6.7807Y-3.45
X6.8807Y-3.35
X6.8807Y-3.45
T4
X3.9Y-4.435
X3.9Y-4.6161
X4.2378Y-2.98
X4.4189Y-2.98
X4.8328Y-2.99
X5.0139Y-2.99
X5.4366Y-2.9894
X5.6177Y-2.9894
X5.9791Y-2.9886
X6.1602Y-2.9886
X6.5665Y-2.9898
X6.7476Y-2.9898
X6.8002Y-4.3701
X6.8002Y-4.5512
M30
