%TF.GenerationSoftware,KiCad,Pcbnew,8.0.8*%
%TF.CreationDate,2026-04-07T23:23:40-05:00*%
%TF.ProjectId,glove_pcb,676c6f76-655f-4706-9362-2e6b69636164,rev?*%
%TF.SameCoordinates,Original*%
%TF.FileFunction,Legend,Top*%
%TF.FilePolarity,Positive*%
%FSLAX46Y46*%
G04 Gerber Fmt 4.6, Leading zero omitted, Abs format (unit mm)*
G04 Created by KiCad (PCBNEW 8.0.8) date 2026-04-07 23:23:40*
%MOMM*%
%LPD*%
G01*
G04 APERTURE LIST*
%ADD10C,0.150000*%
%ADD11C,0.300000*%
%ADD12C,0.254000*%
%ADD13C,0.120000*%
%ADD14C,0.200000*%
%ADD15C,0.100000*%
%ADD16C,0.127000*%
G04 APERTURE END LIST*
D10*
X106254779Y-99056866D02*
X107016684Y-99056866D01*
X106635731Y-99437819D02*
X106635731Y-98675914D01*
D11*
X156670225Y-84145828D02*
X157527368Y-84145828D01*
X157098796Y-85645828D02*
X157098796Y-84145828D01*
X157884510Y-84145828D02*
X158884510Y-85645828D01*
X158884510Y-84145828D02*
X157884510Y-85645828D01*
X153873082Y-90779400D02*
X154087368Y-90850828D01*
X154087368Y-90850828D02*
X154444510Y-90850828D01*
X154444510Y-90850828D02*
X154587368Y-90779400D01*
X154587368Y-90779400D02*
X154658796Y-90707971D01*
X154658796Y-90707971D02*
X154730225Y-90565114D01*
X154730225Y-90565114D02*
X154730225Y-90422257D01*
X154730225Y-90422257D02*
X154658796Y-90279400D01*
X154658796Y-90279400D02*
X154587368Y-90207971D01*
X154587368Y-90207971D02*
X154444510Y-90136542D01*
X154444510Y-90136542D02*
X154158796Y-90065114D01*
X154158796Y-90065114D02*
X154015939Y-89993685D01*
X154015939Y-89993685D02*
X153944510Y-89922257D01*
X153944510Y-89922257D02*
X153873082Y-89779400D01*
X153873082Y-89779400D02*
X153873082Y-89636542D01*
X153873082Y-89636542D02*
X153944510Y-89493685D01*
X153944510Y-89493685D02*
X154015939Y-89422257D01*
X154015939Y-89422257D02*
X154158796Y-89350828D01*
X154158796Y-89350828D02*
X154515939Y-89350828D01*
X154515939Y-89350828D02*
X154730225Y-89422257D01*
X155373081Y-90850828D02*
X155373081Y-89350828D01*
X155373081Y-89350828D02*
X155730224Y-89350828D01*
X155730224Y-89350828D02*
X155944510Y-89422257D01*
X155944510Y-89422257D02*
X156087367Y-89565114D01*
X156087367Y-89565114D02*
X156158796Y-89707971D01*
X156158796Y-89707971D02*
X156230224Y-89993685D01*
X156230224Y-89993685D02*
X156230224Y-90207971D01*
X156230224Y-90207971D02*
X156158796Y-90493685D01*
X156158796Y-90493685D02*
X156087367Y-90636542D01*
X156087367Y-90636542D02*
X155944510Y-90779400D01*
X155944510Y-90779400D02*
X155730224Y-90850828D01*
X155730224Y-90850828D02*
X155373081Y-90850828D01*
X156801653Y-90422257D02*
X157515939Y-90422257D01*
X156658796Y-90850828D02*
X157158796Y-89350828D01*
X157158796Y-89350828D02*
X157658796Y-90850828D01*
D10*
X142036779Y-124688866D02*
X142798684Y-124688866D01*
X142417731Y-125069819D02*
X142417731Y-124307914D01*
X106254779Y-101088866D02*
X107016684Y-101088866D01*
X144666779Y-124698866D02*
X145428684Y-124698866D01*
D11*
X114594510Y-124495114D02*
X115094510Y-124495114D01*
X115308796Y-125280828D02*
X114594510Y-125280828D01*
X114594510Y-125280828D02*
X114594510Y-123780828D01*
X114594510Y-123780828D02*
X115308796Y-123780828D01*
X115808796Y-123780828D02*
X116808796Y-125280828D01*
X116808796Y-123780828D02*
X115808796Y-125280828D01*
X117165939Y-123780828D02*
X118023082Y-123780828D01*
X117594510Y-125280828D02*
X117594510Y-123780828D01*
X114503082Y-122649400D02*
X114717368Y-122720828D01*
X114717368Y-122720828D02*
X115074510Y-122720828D01*
X115074510Y-122720828D02*
X115217368Y-122649400D01*
X115217368Y-122649400D02*
X115288796Y-122577971D01*
X115288796Y-122577971D02*
X115360225Y-122435114D01*
X115360225Y-122435114D02*
X115360225Y-122292257D01*
X115360225Y-122292257D02*
X115288796Y-122149400D01*
X115288796Y-122149400D02*
X115217368Y-122077971D01*
X115217368Y-122077971D02*
X115074510Y-122006542D01*
X115074510Y-122006542D02*
X114788796Y-121935114D01*
X114788796Y-121935114D02*
X114645939Y-121863685D01*
X114645939Y-121863685D02*
X114574510Y-121792257D01*
X114574510Y-121792257D02*
X114503082Y-121649400D01*
X114503082Y-121649400D02*
X114503082Y-121506542D01*
X114503082Y-121506542D02*
X114574510Y-121363685D01*
X114574510Y-121363685D02*
X114645939Y-121292257D01*
X114645939Y-121292257D02*
X114788796Y-121220828D01*
X114788796Y-121220828D02*
X115145939Y-121220828D01*
X115145939Y-121220828D02*
X115360225Y-121292257D01*
X116288796Y-122006542D02*
X116288796Y-122720828D01*
X115788796Y-121220828D02*
X116288796Y-122006542D01*
X116288796Y-122006542D02*
X116788796Y-121220828D01*
X117217367Y-122649400D02*
X117431653Y-122720828D01*
X117431653Y-122720828D02*
X117788795Y-122720828D01*
X117788795Y-122720828D02*
X117931653Y-122649400D01*
X117931653Y-122649400D02*
X118003081Y-122577971D01*
X118003081Y-122577971D02*
X118074510Y-122435114D01*
X118074510Y-122435114D02*
X118074510Y-122292257D01*
X118074510Y-122292257D02*
X118003081Y-122149400D01*
X118003081Y-122149400D02*
X117931653Y-122077971D01*
X117931653Y-122077971D02*
X117788795Y-122006542D01*
X117788795Y-122006542D02*
X117503081Y-121935114D01*
X117503081Y-121935114D02*
X117360224Y-121863685D01*
X117360224Y-121863685D02*
X117288795Y-121792257D01*
X117288795Y-121792257D02*
X117217367Y-121649400D01*
X117217367Y-121649400D02*
X117217367Y-121506542D01*
X117217367Y-121506542D02*
X117288795Y-121363685D01*
X117288795Y-121363685D02*
X117360224Y-121292257D01*
X117360224Y-121292257D02*
X117503081Y-121220828D01*
X117503081Y-121220828D02*
X117860224Y-121220828D01*
X117860224Y-121220828D02*
X118074510Y-121292257D01*
X142124510Y-126365114D02*
X142624510Y-126365114D01*
X142838796Y-127150828D02*
X142124510Y-127150828D01*
X142124510Y-127150828D02*
X142124510Y-125650828D01*
X142124510Y-125650828D02*
X142838796Y-125650828D01*
X143338796Y-125650828D02*
X144338796Y-127150828D01*
X144338796Y-125650828D02*
X143338796Y-127150828D01*
X144695939Y-125650828D02*
X145553082Y-125650828D01*
X145124510Y-127150828D02*
X145124510Y-125650828D01*
X115064510Y-119495114D02*
X115278796Y-119566542D01*
X115278796Y-119566542D02*
X115350225Y-119637971D01*
X115350225Y-119637971D02*
X115421653Y-119780828D01*
X115421653Y-119780828D02*
X115421653Y-119995114D01*
X115421653Y-119995114D02*
X115350225Y-120137971D01*
X115350225Y-120137971D02*
X115278796Y-120209400D01*
X115278796Y-120209400D02*
X115135939Y-120280828D01*
X115135939Y-120280828D02*
X114564510Y-120280828D01*
X114564510Y-120280828D02*
X114564510Y-118780828D01*
X114564510Y-118780828D02*
X115064510Y-118780828D01*
X115064510Y-118780828D02*
X115207368Y-118852257D01*
X115207368Y-118852257D02*
X115278796Y-118923685D01*
X115278796Y-118923685D02*
X115350225Y-119066542D01*
X115350225Y-119066542D02*
X115350225Y-119209400D01*
X115350225Y-119209400D02*
X115278796Y-119352257D01*
X115278796Y-119352257D02*
X115207368Y-119423685D01*
X115207368Y-119423685D02*
X115064510Y-119495114D01*
X115064510Y-119495114D02*
X114564510Y-119495114D01*
X115993082Y-119852257D02*
X116707368Y-119852257D01*
X115850225Y-120280828D02*
X116350225Y-118780828D01*
X116350225Y-118780828D02*
X116850225Y-120280828D01*
X117135939Y-118780828D02*
X117993082Y-118780828D01*
X117564510Y-120280828D02*
X117564510Y-118780828D01*
X157291653Y-88470828D02*
X156791653Y-87756542D01*
X156434510Y-88470828D02*
X156434510Y-86970828D01*
X156434510Y-86970828D02*
X157005939Y-86970828D01*
X157005939Y-86970828D02*
X157148796Y-87042257D01*
X157148796Y-87042257D02*
X157220225Y-87113685D01*
X157220225Y-87113685D02*
X157291653Y-87256542D01*
X157291653Y-87256542D02*
X157291653Y-87470828D01*
X157291653Y-87470828D02*
X157220225Y-87613685D01*
X157220225Y-87613685D02*
X157148796Y-87685114D01*
X157148796Y-87685114D02*
X157005939Y-87756542D01*
X157005939Y-87756542D02*
X156434510Y-87756542D01*
X157791653Y-86970828D02*
X158791653Y-88470828D01*
X158791653Y-86970828D02*
X157791653Y-88470828D01*
X143553082Y-90809400D02*
X143767368Y-90880828D01*
X143767368Y-90880828D02*
X144124510Y-90880828D01*
X144124510Y-90880828D02*
X144267368Y-90809400D01*
X144267368Y-90809400D02*
X144338796Y-90737971D01*
X144338796Y-90737971D02*
X144410225Y-90595114D01*
X144410225Y-90595114D02*
X144410225Y-90452257D01*
X144410225Y-90452257D02*
X144338796Y-90309400D01*
X144338796Y-90309400D02*
X144267368Y-90237971D01*
X144267368Y-90237971D02*
X144124510Y-90166542D01*
X144124510Y-90166542D02*
X143838796Y-90095114D01*
X143838796Y-90095114D02*
X143695939Y-90023685D01*
X143695939Y-90023685D02*
X143624510Y-89952257D01*
X143624510Y-89952257D02*
X143553082Y-89809400D01*
X143553082Y-89809400D02*
X143553082Y-89666542D01*
X143553082Y-89666542D02*
X143624510Y-89523685D01*
X143624510Y-89523685D02*
X143695939Y-89452257D01*
X143695939Y-89452257D02*
X143838796Y-89380828D01*
X143838796Y-89380828D02*
X144195939Y-89380828D01*
X144195939Y-89380828D02*
X144410225Y-89452257D01*
X145910224Y-90737971D02*
X145838796Y-90809400D01*
X145838796Y-90809400D02*
X145624510Y-90880828D01*
X145624510Y-90880828D02*
X145481653Y-90880828D01*
X145481653Y-90880828D02*
X145267367Y-90809400D01*
X145267367Y-90809400D02*
X145124510Y-90666542D01*
X145124510Y-90666542D02*
X145053081Y-90523685D01*
X145053081Y-90523685D02*
X144981653Y-90237971D01*
X144981653Y-90237971D02*
X144981653Y-90023685D01*
X144981653Y-90023685D02*
X145053081Y-89737971D01*
X145053081Y-89737971D02*
X145124510Y-89595114D01*
X145124510Y-89595114D02*
X145267367Y-89452257D01*
X145267367Y-89452257D02*
X145481653Y-89380828D01*
X145481653Y-89380828D02*
X145624510Y-89380828D01*
X145624510Y-89380828D02*
X145838796Y-89452257D01*
X145838796Y-89452257D02*
X145910224Y-89523685D01*
X147267367Y-90880828D02*
X146553081Y-90880828D01*
X146553081Y-90880828D02*
X146553081Y-89380828D01*
D10*
X130349666Y-124882009D02*
X130016333Y-124882009D01*
X130016333Y-125405819D02*
X130016333Y-124405819D01*
X130016333Y-124405819D02*
X130492523Y-124405819D01*
X130825857Y-124501057D02*
X130873476Y-124453438D01*
X130873476Y-124453438D02*
X130968714Y-124405819D01*
X130968714Y-124405819D02*
X131206809Y-124405819D01*
X131206809Y-124405819D02*
X131302047Y-124453438D01*
X131302047Y-124453438D02*
X131349666Y-124501057D01*
X131349666Y-124501057D02*
X131397285Y-124596295D01*
X131397285Y-124596295D02*
X131397285Y-124691533D01*
X131397285Y-124691533D02*
X131349666Y-124834390D01*
X131349666Y-124834390D02*
X130778238Y-125405819D01*
X130778238Y-125405819D02*
X131397285Y-125405819D01*
X101393666Y-94148009D02*
X101060333Y-94148009D01*
X101060333Y-94671819D02*
X101060333Y-93671819D01*
X101060333Y-93671819D02*
X101536523Y-93671819D01*
X102441285Y-94671819D02*
X101869857Y-94671819D01*
X102155571Y-94671819D02*
X102155571Y-93671819D01*
X102155571Y-93671819D02*
X102060333Y-93814676D01*
X102060333Y-93814676D02*
X101965095Y-93909914D01*
X101965095Y-93909914D02*
X101869857Y-93957533D01*
X160020476Y-82244819D02*
X160020476Y-82959104D01*
X160020476Y-82959104D02*
X159972857Y-83101961D01*
X159972857Y-83101961D02*
X159877619Y-83197200D01*
X159877619Y-83197200D02*
X159734762Y-83244819D01*
X159734762Y-83244819D02*
X159639524Y-83244819D01*
X161020476Y-83244819D02*
X160449048Y-83244819D01*
X160734762Y-83244819D02*
X160734762Y-82244819D01*
X160734762Y-82244819D02*
X160639524Y-82387676D01*
X160639524Y-82387676D02*
X160544286Y-82482914D01*
X160544286Y-82482914D02*
X160449048Y-82530533D01*
X161877619Y-82244819D02*
X161687143Y-82244819D01*
X161687143Y-82244819D02*
X161591905Y-82292438D01*
X161591905Y-82292438D02*
X161544286Y-82340057D01*
X161544286Y-82340057D02*
X161449048Y-82482914D01*
X161449048Y-82482914D02*
X161401429Y-82673390D01*
X161401429Y-82673390D02*
X161401429Y-83054342D01*
X161401429Y-83054342D02*
X161449048Y-83149580D01*
X161449048Y-83149580D02*
X161496667Y-83197200D01*
X161496667Y-83197200D02*
X161591905Y-83244819D01*
X161591905Y-83244819D02*
X161782381Y-83244819D01*
X161782381Y-83244819D02*
X161877619Y-83197200D01*
X161877619Y-83197200D02*
X161925238Y-83149580D01*
X161925238Y-83149580D02*
X161972857Y-83054342D01*
X161972857Y-83054342D02*
X161972857Y-82816247D01*
X161972857Y-82816247D02*
X161925238Y-82721009D01*
X161925238Y-82721009D02*
X161877619Y-82673390D01*
X161877619Y-82673390D02*
X161782381Y-82625771D01*
X161782381Y-82625771D02*
X161591905Y-82625771D01*
X161591905Y-82625771D02*
X161496667Y-82673390D01*
X161496667Y-82673390D02*
X161449048Y-82721009D01*
X161449048Y-82721009D02*
X161401429Y-82816247D01*
X144976642Y-79578580D02*
X144929023Y-79626200D01*
X144929023Y-79626200D02*
X144786166Y-79673819D01*
X144786166Y-79673819D02*
X144690928Y-79673819D01*
X144690928Y-79673819D02*
X144548071Y-79626200D01*
X144548071Y-79626200D02*
X144452833Y-79530961D01*
X144452833Y-79530961D02*
X144405214Y-79435723D01*
X144405214Y-79435723D02*
X144357595Y-79245247D01*
X144357595Y-79245247D02*
X144357595Y-79102390D01*
X144357595Y-79102390D02*
X144405214Y-78911914D01*
X144405214Y-78911914D02*
X144452833Y-78816676D01*
X144452833Y-78816676D02*
X144548071Y-78721438D01*
X144548071Y-78721438D02*
X144690928Y-78673819D01*
X144690928Y-78673819D02*
X144786166Y-78673819D01*
X144786166Y-78673819D02*
X144929023Y-78721438D01*
X144929023Y-78721438D02*
X144976642Y-78769057D01*
X145357595Y-78769057D02*
X145405214Y-78721438D01*
X145405214Y-78721438D02*
X145500452Y-78673819D01*
X145500452Y-78673819D02*
X145738547Y-78673819D01*
X145738547Y-78673819D02*
X145833785Y-78721438D01*
X145833785Y-78721438D02*
X145881404Y-78769057D01*
X145881404Y-78769057D02*
X145929023Y-78864295D01*
X145929023Y-78864295D02*
X145929023Y-78959533D01*
X145929023Y-78959533D02*
X145881404Y-79102390D01*
X145881404Y-79102390D02*
X145309976Y-79673819D01*
X145309976Y-79673819D02*
X145929023Y-79673819D01*
X146881404Y-79673819D02*
X146309976Y-79673819D01*
X146595690Y-79673819D02*
X146595690Y-78673819D01*
X146595690Y-78673819D02*
X146500452Y-78816676D01*
X146500452Y-78816676D02*
X146405214Y-78911914D01*
X146405214Y-78911914D02*
X146309976Y-78959533D01*
X168756666Y-73144819D02*
X168756666Y-73859104D01*
X168756666Y-73859104D02*
X168709047Y-74001961D01*
X168709047Y-74001961D02*
X168613809Y-74097200D01*
X168613809Y-74097200D02*
X168470952Y-74144819D01*
X168470952Y-74144819D02*
X168375714Y-74144819D01*
X169137619Y-73144819D02*
X169804285Y-73144819D01*
X169804285Y-73144819D02*
X169375714Y-74144819D01*
X142751476Y-118858819D02*
X142751476Y-119573104D01*
X142751476Y-119573104D02*
X142703857Y-119715961D01*
X142703857Y-119715961D02*
X142608619Y-119811200D01*
X142608619Y-119811200D02*
X142465762Y-119858819D01*
X142465762Y-119858819D02*
X142370524Y-119858819D01*
X143751476Y-119858819D02*
X143180048Y-119858819D01*
X143465762Y-119858819D02*
X143465762Y-118858819D01*
X143465762Y-118858819D02*
X143370524Y-119001676D01*
X143370524Y-119001676D02*
X143275286Y-119096914D01*
X143275286Y-119096914D02*
X143180048Y-119144533D01*
X144703857Y-119858819D02*
X144132429Y-119858819D01*
X144418143Y-119858819D02*
X144418143Y-118858819D01*
X144418143Y-118858819D02*
X144322905Y-119001676D01*
X144322905Y-119001676D02*
X144227667Y-119096914D01*
X144227667Y-119096914D02*
X144132429Y-119144533D01*
X109305580Y-93914166D02*
X109353200Y-93961785D01*
X109353200Y-93961785D02*
X109400819Y-94104642D01*
X109400819Y-94104642D02*
X109400819Y-94199880D01*
X109400819Y-94199880D02*
X109353200Y-94342737D01*
X109353200Y-94342737D02*
X109257961Y-94437975D01*
X109257961Y-94437975D02*
X109162723Y-94485594D01*
X109162723Y-94485594D02*
X108972247Y-94533213D01*
X108972247Y-94533213D02*
X108829390Y-94533213D01*
X108829390Y-94533213D02*
X108638914Y-94485594D01*
X108638914Y-94485594D02*
X108543676Y-94437975D01*
X108543676Y-94437975D02*
X108448438Y-94342737D01*
X108448438Y-94342737D02*
X108400819Y-94199880D01*
X108400819Y-94199880D02*
X108400819Y-94104642D01*
X108400819Y-94104642D02*
X108448438Y-93961785D01*
X108448438Y-93961785D02*
X108496057Y-93914166D01*
X109400819Y-92961785D02*
X109400819Y-93533213D01*
X109400819Y-93247499D02*
X108400819Y-93247499D01*
X108400819Y-93247499D02*
X108543676Y-93342737D01*
X108543676Y-93342737D02*
X108638914Y-93437975D01*
X108638914Y-93437975D02*
X108686533Y-93533213D01*
X127397142Y-116164819D02*
X127063809Y-115688628D01*
X126825714Y-116164819D02*
X126825714Y-115164819D01*
X126825714Y-115164819D02*
X127206666Y-115164819D01*
X127206666Y-115164819D02*
X127301904Y-115212438D01*
X127301904Y-115212438D02*
X127349523Y-115260057D01*
X127349523Y-115260057D02*
X127397142Y-115355295D01*
X127397142Y-115355295D02*
X127397142Y-115498152D01*
X127397142Y-115498152D02*
X127349523Y-115593390D01*
X127349523Y-115593390D02*
X127301904Y-115641009D01*
X127301904Y-115641009D02*
X127206666Y-115688628D01*
X127206666Y-115688628D02*
X126825714Y-115688628D01*
X127778095Y-115260057D02*
X127825714Y-115212438D01*
X127825714Y-115212438D02*
X127920952Y-115164819D01*
X127920952Y-115164819D02*
X128159047Y-115164819D01*
X128159047Y-115164819D02*
X128254285Y-115212438D01*
X128254285Y-115212438D02*
X128301904Y-115260057D01*
X128301904Y-115260057D02*
X128349523Y-115355295D01*
X128349523Y-115355295D02*
X128349523Y-115450533D01*
X128349523Y-115450533D02*
X128301904Y-115593390D01*
X128301904Y-115593390D02*
X127730476Y-116164819D01*
X127730476Y-116164819D02*
X128349523Y-116164819D01*
X128682857Y-115164819D02*
X129301904Y-115164819D01*
X129301904Y-115164819D02*
X128968571Y-115545771D01*
X128968571Y-115545771D02*
X129111428Y-115545771D01*
X129111428Y-115545771D02*
X129206666Y-115593390D01*
X129206666Y-115593390D02*
X129254285Y-115641009D01*
X129254285Y-115641009D02*
X129301904Y-115736247D01*
X129301904Y-115736247D02*
X129301904Y-115974342D01*
X129301904Y-115974342D02*
X129254285Y-116069580D01*
X129254285Y-116069580D02*
X129206666Y-116117200D01*
X129206666Y-116117200D02*
X129111428Y-116164819D01*
X129111428Y-116164819D02*
X128825714Y-116164819D01*
X128825714Y-116164819D02*
X128730476Y-116117200D01*
X128730476Y-116117200D02*
X128682857Y-116069580D01*
X174429819Y-113633333D02*
X175144104Y-113633333D01*
X175144104Y-113633333D02*
X175286961Y-113680952D01*
X175286961Y-113680952D02*
X175382200Y-113776190D01*
X175382200Y-113776190D02*
X175429819Y-113919047D01*
X175429819Y-113919047D02*
X175429819Y-114014285D01*
X174525057Y-113204761D02*
X174477438Y-113157142D01*
X174477438Y-113157142D02*
X174429819Y-113061904D01*
X174429819Y-113061904D02*
X174429819Y-112823809D01*
X174429819Y-112823809D02*
X174477438Y-112728571D01*
X174477438Y-112728571D02*
X174525057Y-112680952D01*
X174525057Y-112680952D02*
X174620295Y-112633333D01*
X174620295Y-112633333D02*
X174715533Y-112633333D01*
X174715533Y-112633333D02*
X174858390Y-112680952D01*
X174858390Y-112680952D02*
X175429819Y-113252380D01*
X175429819Y-113252380D02*
X175429819Y-112633333D01*
X109606666Y-72896819D02*
X109606666Y-73611104D01*
X109606666Y-73611104D02*
X109559047Y-73753961D01*
X109559047Y-73753961D02*
X109463809Y-73849200D01*
X109463809Y-73849200D02*
X109320952Y-73896819D01*
X109320952Y-73896819D02*
X109225714Y-73896819D01*
X110511428Y-73230152D02*
X110511428Y-73896819D01*
X110273333Y-72849200D02*
X110035238Y-73563485D01*
X110035238Y-73563485D02*
X110654285Y-73563485D01*
X162518142Y-108661580D02*
X162470523Y-108709200D01*
X162470523Y-108709200D02*
X162327666Y-108756819D01*
X162327666Y-108756819D02*
X162232428Y-108756819D01*
X162232428Y-108756819D02*
X162089571Y-108709200D01*
X162089571Y-108709200D02*
X161994333Y-108613961D01*
X161994333Y-108613961D02*
X161946714Y-108518723D01*
X161946714Y-108518723D02*
X161899095Y-108328247D01*
X161899095Y-108328247D02*
X161899095Y-108185390D01*
X161899095Y-108185390D02*
X161946714Y-107994914D01*
X161946714Y-107994914D02*
X161994333Y-107899676D01*
X161994333Y-107899676D02*
X162089571Y-107804438D01*
X162089571Y-107804438D02*
X162232428Y-107756819D01*
X162232428Y-107756819D02*
X162327666Y-107756819D01*
X162327666Y-107756819D02*
X162470523Y-107804438D01*
X162470523Y-107804438D02*
X162518142Y-107852057D01*
X163470523Y-108756819D02*
X162899095Y-108756819D01*
X163184809Y-108756819D02*
X163184809Y-107756819D01*
X163184809Y-107756819D02*
X163089571Y-107899676D01*
X163089571Y-107899676D02*
X162994333Y-107994914D01*
X162994333Y-107994914D02*
X162899095Y-108042533D01*
X163851476Y-107852057D02*
X163899095Y-107804438D01*
X163899095Y-107804438D02*
X163994333Y-107756819D01*
X163994333Y-107756819D02*
X164232428Y-107756819D01*
X164232428Y-107756819D02*
X164327666Y-107804438D01*
X164327666Y-107804438D02*
X164375285Y-107852057D01*
X164375285Y-107852057D02*
X164422904Y-107947295D01*
X164422904Y-107947295D02*
X164422904Y-108042533D01*
X164422904Y-108042533D02*
X164375285Y-108185390D01*
X164375285Y-108185390D02*
X163803857Y-108756819D01*
X163803857Y-108756819D02*
X164422904Y-108756819D01*
X108297142Y-79449819D02*
X107963809Y-78973628D01*
X107725714Y-79449819D02*
X107725714Y-78449819D01*
X107725714Y-78449819D02*
X108106666Y-78449819D01*
X108106666Y-78449819D02*
X108201904Y-78497438D01*
X108201904Y-78497438D02*
X108249523Y-78545057D01*
X108249523Y-78545057D02*
X108297142Y-78640295D01*
X108297142Y-78640295D02*
X108297142Y-78783152D01*
X108297142Y-78783152D02*
X108249523Y-78878390D01*
X108249523Y-78878390D02*
X108201904Y-78926009D01*
X108201904Y-78926009D02*
X108106666Y-78973628D01*
X108106666Y-78973628D02*
X107725714Y-78973628D01*
X109249523Y-79449819D02*
X108678095Y-79449819D01*
X108963809Y-79449819D02*
X108963809Y-78449819D01*
X108963809Y-78449819D02*
X108868571Y-78592676D01*
X108868571Y-78592676D02*
X108773333Y-78687914D01*
X108773333Y-78687914D02*
X108678095Y-78735533D01*
X110201904Y-79449819D02*
X109630476Y-79449819D01*
X109916190Y-79449819D02*
X109916190Y-78449819D01*
X109916190Y-78449819D02*
X109820952Y-78592676D01*
X109820952Y-78592676D02*
X109725714Y-78687914D01*
X109725714Y-78687914D02*
X109630476Y-78735533D01*
X169285142Y-79830819D02*
X168951809Y-79354628D01*
X168713714Y-79830819D02*
X168713714Y-78830819D01*
X168713714Y-78830819D02*
X169094666Y-78830819D01*
X169094666Y-78830819D02*
X169189904Y-78878438D01*
X169189904Y-78878438D02*
X169237523Y-78926057D01*
X169237523Y-78926057D02*
X169285142Y-79021295D01*
X169285142Y-79021295D02*
X169285142Y-79164152D01*
X169285142Y-79164152D02*
X169237523Y-79259390D01*
X169237523Y-79259390D02*
X169189904Y-79307009D01*
X169189904Y-79307009D02*
X169094666Y-79354628D01*
X169094666Y-79354628D02*
X168713714Y-79354628D01*
X170237523Y-79830819D02*
X169666095Y-79830819D01*
X169951809Y-79830819D02*
X169951809Y-78830819D01*
X169951809Y-78830819D02*
X169856571Y-78973676D01*
X169856571Y-78973676D02*
X169761333Y-79068914D01*
X169761333Y-79068914D02*
X169666095Y-79116533D01*
X170570857Y-78830819D02*
X171237523Y-78830819D01*
X171237523Y-78830819D02*
X170808952Y-79830819D01*
X113339642Y-79324580D02*
X113292023Y-79372200D01*
X113292023Y-79372200D02*
X113149166Y-79419819D01*
X113149166Y-79419819D02*
X113053928Y-79419819D01*
X113053928Y-79419819D02*
X112911071Y-79372200D01*
X112911071Y-79372200D02*
X112815833Y-79276961D01*
X112815833Y-79276961D02*
X112768214Y-79181723D01*
X112768214Y-79181723D02*
X112720595Y-78991247D01*
X112720595Y-78991247D02*
X112720595Y-78848390D01*
X112720595Y-78848390D02*
X112768214Y-78657914D01*
X112768214Y-78657914D02*
X112815833Y-78562676D01*
X112815833Y-78562676D02*
X112911071Y-78467438D01*
X112911071Y-78467438D02*
X113053928Y-78419819D01*
X113053928Y-78419819D02*
X113149166Y-78419819D01*
X113149166Y-78419819D02*
X113292023Y-78467438D01*
X113292023Y-78467438D02*
X113339642Y-78515057D01*
X114292023Y-79419819D02*
X113720595Y-79419819D01*
X114006309Y-79419819D02*
X114006309Y-78419819D01*
X114006309Y-78419819D02*
X113911071Y-78562676D01*
X113911071Y-78562676D02*
X113815833Y-78657914D01*
X113815833Y-78657914D02*
X113720595Y-78705533D01*
X114625357Y-78419819D02*
X115292023Y-78419819D01*
X115292023Y-78419819D02*
X114863452Y-79419819D01*
X121011142Y-80211819D02*
X120677809Y-79735628D01*
X120439714Y-80211819D02*
X120439714Y-79211819D01*
X120439714Y-79211819D02*
X120820666Y-79211819D01*
X120820666Y-79211819D02*
X120915904Y-79259438D01*
X120915904Y-79259438D02*
X120963523Y-79307057D01*
X120963523Y-79307057D02*
X121011142Y-79402295D01*
X121011142Y-79402295D02*
X121011142Y-79545152D01*
X121011142Y-79545152D02*
X120963523Y-79640390D01*
X120963523Y-79640390D02*
X120915904Y-79688009D01*
X120915904Y-79688009D02*
X120820666Y-79735628D01*
X120820666Y-79735628D02*
X120439714Y-79735628D01*
X121963523Y-80211819D02*
X121392095Y-80211819D01*
X121677809Y-80211819D02*
X121677809Y-79211819D01*
X121677809Y-79211819D02*
X121582571Y-79354676D01*
X121582571Y-79354676D02*
X121487333Y-79449914D01*
X121487333Y-79449914D02*
X121392095Y-79497533D01*
X122344476Y-79307057D02*
X122392095Y-79259438D01*
X122392095Y-79259438D02*
X122487333Y-79211819D01*
X122487333Y-79211819D02*
X122725428Y-79211819D01*
X122725428Y-79211819D02*
X122820666Y-79259438D01*
X122820666Y-79259438D02*
X122868285Y-79307057D01*
X122868285Y-79307057D02*
X122915904Y-79402295D01*
X122915904Y-79402295D02*
X122915904Y-79497533D01*
X122915904Y-79497533D02*
X122868285Y-79640390D01*
X122868285Y-79640390D02*
X122296857Y-80211819D01*
X122296857Y-80211819D02*
X122915904Y-80211819D01*
X135315476Y-92654819D02*
X135315476Y-93369104D01*
X135315476Y-93369104D02*
X135267857Y-93511961D01*
X135267857Y-93511961D02*
X135172619Y-93607200D01*
X135172619Y-93607200D02*
X135029762Y-93654819D01*
X135029762Y-93654819D02*
X134934524Y-93654819D01*
X136315476Y-93654819D02*
X135744048Y-93654819D01*
X136029762Y-93654819D02*
X136029762Y-92654819D01*
X136029762Y-92654819D02*
X135934524Y-92797676D01*
X135934524Y-92797676D02*
X135839286Y-92892914D01*
X135839286Y-92892914D02*
X135744048Y-92940533D01*
X136648810Y-92654819D02*
X137267857Y-92654819D01*
X137267857Y-92654819D02*
X136934524Y-93035771D01*
X136934524Y-93035771D02*
X137077381Y-93035771D01*
X137077381Y-93035771D02*
X137172619Y-93083390D01*
X137172619Y-93083390D02*
X137220238Y-93131009D01*
X137220238Y-93131009D02*
X137267857Y-93226247D01*
X137267857Y-93226247D02*
X137267857Y-93464342D01*
X137267857Y-93464342D02*
X137220238Y-93559580D01*
X137220238Y-93559580D02*
X137172619Y-93607200D01*
X137172619Y-93607200D02*
X137077381Y-93654819D01*
X137077381Y-93654819D02*
X136791667Y-93654819D01*
X136791667Y-93654819D02*
X136696429Y-93607200D01*
X136696429Y-93607200D02*
X136648810Y-93559580D01*
X151675476Y-107179819D02*
X151675476Y-107894104D01*
X151675476Y-107894104D02*
X151627857Y-108036961D01*
X151627857Y-108036961D02*
X151532619Y-108132200D01*
X151532619Y-108132200D02*
X151389762Y-108179819D01*
X151389762Y-108179819D02*
X151294524Y-108179819D01*
X152675476Y-108179819D02*
X152104048Y-108179819D01*
X152389762Y-108179819D02*
X152389762Y-107179819D01*
X152389762Y-107179819D02*
X152294524Y-107322676D01*
X152294524Y-107322676D02*
X152199286Y-107417914D01*
X152199286Y-107417914D02*
X152104048Y-107465533D01*
X153532619Y-107513152D02*
X153532619Y-108179819D01*
X153294524Y-107132200D02*
X153056429Y-107846485D01*
X153056429Y-107846485D02*
X153675476Y-107846485D01*
X176766666Y-85814819D02*
X176766666Y-86529104D01*
X176766666Y-86529104D02*
X176719047Y-86671961D01*
X176719047Y-86671961D02*
X176623809Y-86767200D01*
X176623809Y-86767200D02*
X176480952Y-86814819D01*
X176480952Y-86814819D02*
X176385714Y-86814819D01*
X177766666Y-86814819D02*
X177195238Y-86814819D01*
X177480952Y-86814819D02*
X177480952Y-85814819D01*
X177480952Y-85814819D02*
X177385714Y-85957676D01*
X177385714Y-85957676D02*
X177290476Y-86052914D01*
X177290476Y-86052914D02*
X177195238Y-86100533D01*
D12*
X136121857Y-103201461D02*
X136726619Y-103201461D01*
X136000905Y-103564318D02*
X136424238Y-102294318D01*
X136424238Y-102294318D02*
X136847572Y-103564318D01*
X137996619Y-103443365D02*
X137936143Y-103503842D01*
X137936143Y-103503842D02*
X137754714Y-103564318D01*
X137754714Y-103564318D02*
X137633762Y-103564318D01*
X137633762Y-103564318D02*
X137452333Y-103503842D01*
X137452333Y-103503842D02*
X137331381Y-103382889D01*
X137331381Y-103382889D02*
X137270904Y-103261937D01*
X137270904Y-103261937D02*
X137210428Y-103020032D01*
X137210428Y-103020032D02*
X137210428Y-102838603D01*
X137210428Y-102838603D02*
X137270904Y-102596699D01*
X137270904Y-102596699D02*
X137331381Y-102475746D01*
X137331381Y-102475746D02*
X137452333Y-102354794D01*
X137452333Y-102354794D02*
X137633762Y-102294318D01*
X137633762Y-102294318D02*
X137754714Y-102294318D01*
X137754714Y-102294318D02*
X137936143Y-102354794D01*
X137936143Y-102354794D02*
X137996619Y-102415270D01*
X139206143Y-103564318D02*
X138480428Y-103564318D01*
X138843285Y-103564318D02*
X138843285Y-102294318D01*
X138843285Y-102294318D02*
X138722333Y-102475746D01*
X138722333Y-102475746D02*
X138601381Y-102596699D01*
X138601381Y-102596699D02*
X138480428Y-102657175D01*
D10*
X96264819Y-115282333D02*
X96979104Y-115282333D01*
X96979104Y-115282333D02*
X97121961Y-115329952D01*
X97121961Y-115329952D02*
X97217200Y-115425190D01*
X97217200Y-115425190D02*
X97264819Y-115568047D01*
X97264819Y-115568047D02*
X97264819Y-115663285D01*
X96264819Y-114901380D02*
X96264819Y-114282333D01*
X96264819Y-114282333D02*
X96645771Y-114615666D01*
X96645771Y-114615666D02*
X96645771Y-114472809D01*
X96645771Y-114472809D02*
X96693390Y-114377571D01*
X96693390Y-114377571D02*
X96741009Y-114329952D01*
X96741009Y-114329952D02*
X96836247Y-114282333D01*
X96836247Y-114282333D02*
X97074342Y-114282333D01*
X97074342Y-114282333D02*
X97169580Y-114329952D01*
X97169580Y-114329952D02*
X97217200Y-114377571D01*
X97217200Y-114377571D02*
X97264819Y-114472809D01*
X97264819Y-114472809D02*
X97264819Y-114758523D01*
X97264819Y-114758523D02*
X97217200Y-114853761D01*
X97217200Y-114853761D02*
X97169580Y-114901380D01*
D12*
X160980237Y-114112318D02*
X160980237Y-112842318D01*
X162310714Y-113991365D02*
X162250238Y-114051842D01*
X162250238Y-114051842D02*
X162068809Y-114112318D01*
X162068809Y-114112318D02*
X161947857Y-114112318D01*
X161947857Y-114112318D02*
X161766428Y-114051842D01*
X161766428Y-114051842D02*
X161645476Y-113930889D01*
X161645476Y-113930889D02*
X161584999Y-113809937D01*
X161584999Y-113809937D02*
X161524523Y-113568032D01*
X161524523Y-113568032D02*
X161524523Y-113386603D01*
X161524523Y-113386603D02*
X161584999Y-113144699D01*
X161584999Y-113144699D02*
X161645476Y-113023746D01*
X161645476Y-113023746D02*
X161766428Y-112902794D01*
X161766428Y-112902794D02*
X161947857Y-112842318D01*
X161947857Y-112842318D02*
X162068809Y-112842318D01*
X162068809Y-112842318D02*
X162250238Y-112902794D01*
X162250238Y-112902794D02*
X162310714Y-112963270D01*
X162734047Y-112842318D02*
X163520238Y-112842318D01*
X163520238Y-112842318D02*
X163096904Y-113326127D01*
X163096904Y-113326127D02*
X163278333Y-113326127D01*
X163278333Y-113326127D02*
X163399285Y-113386603D01*
X163399285Y-113386603D02*
X163459761Y-113447080D01*
X163459761Y-113447080D02*
X163520238Y-113568032D01*
X163520238Y-113568032D02*
X163520238Y-113870413D01*
X163520238Y-113870413D02*
X163459761Y-113991365D01*
X163459761Y-113991365D02*
X163399285Y-114051842D01*
X163399285Y-114051842D02*
X163278333Y-114112318D01*
X163278333Y-114112318D02*
X162915476Y-114112318D01*
X162915476Y-114112318D02*
X162794523Y-114051842D01*
X162794523Y-114051842D02*
X162734047Y-113991365D01*
X106329237Y-112715318D02*
X106329237Y-111445318D01*
X107659714Y-112594365D02*
X107599238Y-112654842D01*
X107599238Y-112654842D02*
X107417809Y-112715318D01*
X107417809Y-112715318D02*
X107296857Y-112715318D01*
X107296857Y-112715318D02*
X107115428Y-112654842D01*
X107115428Y-112654842D02*
X106994476Y-112533889D01*
X106994476Y-112533889D02*
X106933999Y-112412937D01*
X106933999Y-112412937D02*
X106873523Y-112171032D01*
X106873523Y-112171032D02*
X106873523Y-111989603D01*
X106873523Y-111989603D02*
X106933999Y-111747699D01*
X106933999Y-111747699D02*
X106994476Y-111626746D01*
X106994476Y-111626746D02*
X107115428Y-111505794D01*
X107115428Y-111505794D02*
X107296857Y-111445318D01*
X107296857Y-111445318D02*
X107417809Y-111445318D01*
X107417809Y-111445318D02*
X107599238Y-111505794D01*
X107599238Y-111505794D02*
X107659714Y-111566270D01*
X108748285Y-111868651D02*
X108748285Y-112715318D01*
X108445904Y-111384842D02*
X108143523Y-112291984D01*
X108143523Y-112291984D02*
X108929714Y-112291984D01*
D10*
X117070333Y-85799819D02*
X116737000Y-85323628D01*
X116498905Y-85799819D02*
X116498905Y-84799819D01*
X116498905Y-84799819D02*
X116879857Y-84799819D01*
X116879857Y-84799819D02*
X116975095Y-84847438D01*
X116975095Y-84847438D02*
X117022714Y-84895057D01*
X117022714Y-84895057D02*
X117070333Y-84990295D01*
X117070333Y-84990295D02*
X117070333Y-85133152D01*
X117070333Y-85133152D02*
X117022714Y-85228390D01*
X117022714Y-85228390D02*
X116975095Y-85276009D01*
X116975095Y-85276009D02*
X116879857Y-85323628D01*
X116879857Y-85323628D02*
X116498905Y-85323628D01*
X118022714Y-85799819D02*
X117451286Y-85799819D01*
X117737000Y-85799819D02*
X117737000Y-84799819D01*
X117737000Y-84799819D02*
X117641762Y-84942676D01*
X117641762Y-84942676D02*
X117546524Y-85037914D01*
X117546524Y-85037914D02*
X117451286Y-85085533D01*
X173460142Y-79705580D02*
X173412523Y-79753200D01*
X173412523Y-79753200D02*
X173269666Y-79800819D01*
X173269666Y-79800819D02*
X173174428Y-79800819D01*
X173174428Y-79800819D02*
X173031571Y-79753200D01*
X173031571Y-79753200D02*
X172936333Y-79657961D01*
X172936333Y-79657961D02*
X172888714Y-79562723D01*
X172888714Y-79562723D02*
X172841095Y-79372247D01*
X172841095Y-79372247D02*
X172841095Y-79229390D01*
X172841095Y-79229390D02*
X172888714Y-79038914D01*
X172888714Y-79038914D02*
X172936333Y-78943676D01*
X172936333Y-78943676D02*
X173031571Y-78848438D01*
X173031571Y-78848438D02*
X173174428Y-78800819D01*
X173174428Y-78800819D02*
X173269666Y-78800819D01*
X173269666Y-78800819D02*
X173412523Y-78848438D01*
X173412523Y-78848438D02*
X173460142Y-78896057D01*
X173841095Y-78896057D02*
X173888714Y-78848438D01*
X173888714Y-78848438D02*
X173983952Y-78800819D01*
X173983952Y-78800819D02*
X174222047Y-78800819D01*
X174222047Y-78800819D02*
X174317285Y-78848438D01*
X174317285Y-78848438D02*
X174364904Y-78896057D01*
X174364904Y-78896057D02*
X174412523Y-78991295D01*
X174412523Y-78991295D02*
X174412523Y-79086533D01*
X174412523Y-79086533D02*
X174364904Y-79229390D01*
X174364904Y-79229390D02*
X173793476Y-79800819D01*
X173793476Y-79800819D02*
X174412523Y-79800819D01*
X175031571Y-78800819D02*
X175126809Y-78800819D01*
X175126809Y-78800819D02*
X175222047Y-78848438D01*
X175222047Y-78848438D02*
X175269666Y-78896057D01*
X175269666Y-78896057D02*
X175317285Y-78991295D01*
X175317285Y-78991295D02*
X175364904Y-79181771D01*
X175364904Y-79181771D02*
X175364904Y-79419866D01*
X175364904Y-79419866D02*
X175317285Y-79610342D01*
X175317285Y-79610342D02*
X175269666Y-79705580D01*
X175269666Y-79705580D02*
X175222047Y-79753200D01*
X175222047Y-79753200D02*
X175126809Y-79800819D01*
X175126809Y-79800819D02*
X175031571Y-79800819D01*
X175031571Y-79800819D02*
X174936333Y-79753200D01*
X174936333Y-79753200D02*
X174888714Y-79705580D01*
X174888714Y-79705580D02*
X174841095Y-79610342D01*
X174841095Y-79610342D02*
X174793476Y-79419866D01*
X174793476Y-79419866D02*
X174793476Y-79181771D01*
X174793476Y-79181771D02*
X174841095Y-78991295D01*
X174841095Y-78991295D02*
X174888714Y-78896057D01*
X174888714Y-78896057D02*
X174936333Y-78848438D01*
X174936333Y-78848438D02*
X175031571Y-78800819D01*
X124719666Y-73150819D02*
X124719666Y-73865104D01*
X124719666Y-73865104D02*
X124672047Y-74007961D01*
X124672047Y-74007961D02*
X124576809Y-74103200D01*
X124576809Y-74103200D02*
X124433952Y-74150819D01*
X124433952Y-74150819D02*
X124338714Y-74150819D01*
X125672047Y-73150819D02*
X125195857Y-73150819D01*
X125195857Y-73150819D02*
X125148238Y-73627009D01*
X125148238Y-73627009D02*
X125195857Y-73579390D01*
X125195857Y-73579390D02*
X125291095Y-73531771D01*
X125291095Y-73531771D02*
X125529190Y-73531771D01*
X125529190Y-73531771D02*
X125624428Y-73579390D01*
X125624428Y-73579390D02*
X125672047Y-73627009D01*
X125672047Y-73627009D02*
X125719666Y-73722247D01*
X125719666Y-73722247D02*
X125719666Y-73960342D01*
X125719666Y-73960342D02*
X125672047Y-74055580D01*
X125672047Y-74055580D02*
X125624428Y-74103200D01*
X125624428Y-74103200D02*
X125529190Y-74150819D01*
X125529190Y-74150819D02*
X125291095Y-74150819D01*
X125291095Y-74150819D02*
X125195857Y-74103200D01*
X125195857Y-74103200D02*
X125148238Y-74055580D01*
X158720642Y-79324580D02*
X158673023Y-79372200D01*
X158673023Y-79372200D02*
X158530166Y-79419819D01*
X158530166Y-79419819D02*
X158434928Y-79419819D01*
X158434928Y-79419819D02*
X158292071Y-79372200D01*
X158292071Y-79372200D02*
X158196833Y-79276961D01*
X158196833Y-79276961D02*
X158149214Y-79181723D01*
X158149214Y-79181723D02*
X158101595Y-78991247D01*
X158101595Y-78991247D02*
X158101595Y-78848390D01*
X158101595Y-78848390D02*
X158149214Y-78657914D01*
X158149214Y-78657914D02*
X158196833Y-78562676D01*
X158196833Y-78562676D02*
X158292071Y-78467438D01*
X158292071Y-78467438D02*
X158434928Y-78419819D01*
X158434928Y-78419819D02*
X158530166Y-78419819D01*
X158530166Y-78419819D02*
X158673023Y-78467438D01*
X158673023Y-78467438D02*
X158720642Y-78515057D01*
X159673023Y-79419819D02*
X159101595Y-79419819D01*
X159387309Y-79419819D02*
X159387309Y-78419819D01*
X159387309Y-78419819D02*
X159292071Y-78562676D01*
X159292071Y-78562676D02*
X159196833Y-78657914D01*
X159196833Y-78657914D02*
X159101595Y-78705533D01*
X160149214Y-79419819D02*
X160339690Y-79419819D01*
X160339690Y-79419819D02*
X160434928Y-79372200D01*
X160434928Y-79372200D02*
X160482547Y-79324580D01*
X160482547Y-79324580D02*
X160577785Y-79181723D01*
X160577785Y-79181723D02*
X160625404Y-78991247D01*
X160625404Y-78991247D02*
X160625404Y-78610295D01*
X160625404Y-78610295D02*
X160577785Y-78515057D01*
X160577785Y-78515057D02*
X160530166Y-78467438D01*
X160530166Y-78467438D02*
X160434928Y-78419819D01*
X160434928Y-78419819D02*
X160244452Y-78419819D01*
X160244452Y-78419819D02*
X160149214Y-78467438D01*
X160149214Y-78467438D02*
X160101595Y-78515057D01*
X160101595Y-78515057D02*
X160053976Y-78610295D01*
X160053976Y-78610295D02*
X160053976Y-78848390D01*
X160053976Y-78848390D02*
X160101595Y-78943628D01*
X160101595Y-78943628D02*
X160149214Y-78991247D01*
X160149214Y-78991247D02*
X160244452Y-79038866D01*
X160244452Y-79038866D02*
X160434928Y-79038866D01*
X160434928Y-79038866D02*
X160530166Y-78991247D01*
X160530166Y-78991247D02*
X160577785Y-78943628D01*
X160577785Y-78943628D02*
X160625404Y-78848390D01*
X137595833Y-95479580D02*
X137548214Y-95527200D01*
X137548214Y-95527200D02*
X137405357Y-95574819D01*
X137405357Y-95574819D02*
X137310119Y-95574819D01*
X137310119Y-95574819D02*
X137167262Y-95527200D01*
X137167262Y-95527200D02*
X137072024Y-95431961D01*
X137072024Y-95431961D02*
X137024405Y-95336723D01*
X137024405Y-95336723D02*
X136976786Y-95146247D01*
X136976786Y-95146247D02*
X136976786Y-95003390D01*
X136976786Y-95003390D02*
X137024405Y-94812914D01*
X137024405Y-94812914D02*
X137072024Y-94717676D01*
X137072024Y-94717676D02*
X137167262Y-94622438D01*
X137167262Y-94622438D02*
X137310119Y-94574819D01*
X137310119Y-94574819D02*
X137405357Y-94574819D01*
X137405357Y-94574819D02*
X137548214Y-94622438D01*
X137548214Y-94622438D02*
X137595833Y-94670057D01*
X138167262Y-95003390D02*
X138072024Y-94955771D01*
X138072024Y-94955771D02*
X138024405Y-94908152D01*
X138024405Y-94908152D02*
X137976786Y-94812914D01*
X137976786Y-94812914D02*
X137976786Y-94765295D01*
X137976786Y-94765295D02*
X138024405Y-94670057D01*
X138024405Y-94670057D02*
X138072024Y-94622438D01*
X138072024Y-94622438D02*
X138167262Y-94574819D01*
X138167262Y-94574819D02*
X138357738Y-94574819D01*
X138357738Y-94574819D02*
X138452976Y-94622438D01*
X138452976Y-94622438D02*
X138500595Y-94670057D01*
X138500595Y-94670057D02*
X138548214Y-94765295D01*
X138548214Y-94765295D02*
X138548214Y-94812914D01*
X138548214Y-94812914D02*
X138500595Y-94908152D01*
X138500595Y-94908152D02*
X138452976Y-94955771D01*
X138452976Y-94955771D02*
X138357738Y-95003390D01*
X138357738Y-95003390D02*
X138167262Y-95003390D01*
X138167262Y-95003390D02*
X138072024Y-95051009D01*
X138072024Y-95051009D02*
X138024405Y-95098628D01*
X138024405Y-95098628D02*
X137976786Y-95193866D01*
X137976786Y-95193866D02*
X137976786Y-95384342D01*
X137976786Y-95384342D02*
X138024405Y-95479580D01*
X138024405Y-95479580D02*
X138072024Y-95527200D01*
X138072024Y-95527200D02*
X138167262Y-95574819D01*
X138167262Y-95574819D02*
X138357738Y-95574819D01*
X138357738Y-95574819D02*
X138452976Y-95527200D01*
X138452976Y-95527200D02*
X138500595Y-95479580D01*
X138500595Y-95479580D02*
X138548214Y-95384342D01*
X138548214Y-95384342D02*
X138548214Y-95193866D01*
X138548214Y-95193866D02*
X138500595Y-95098628D01*
X138500595Y-95098628D02*
X138452976Y-95051009D01*
X138452976Y-95051009D02*
X138357738Y-95003390D01*
X153836666Y-73114819D02*
X153836666Y-73829104D01*
X153836666Y-73829104D02*
X153789047Y-73971961D01*
X153789047Y-73971961D02*
X153693809Y-74067200D01*
X153693809Y-74067200D02*
X153550952Y-74114819D01*
X153550952Y-74114819D02*
X153455714Y-74114819D01*
X154741428Y-73114819D02*
X154550952Y-73114819D01*
X154550952Y-73114819D02*
X154455714Y-73162438D01*
X154455714Y-73162438D02*
X154408095Y-73210057D01*
X154408095Y-73210057D02*
X154312857Y-73352914D01*
X154312857Y-73352914D02*
X154265238Y-73543390D01*
X154265238Y-73543390D02*
X154265238Y-73924342D01*
X154265238Y-73924342D02*
X154312857Y-74019580D01*
X154312857Y-74019580D02*
X154360476Y-74067200D01*
X154360476Y-74067200D02*
X154455714Y-74114819D01*
X154455714Y-74114819D02*
X154646190Y-74114819D01*
X154646190Y-74114819D02*
X154741428Y-74067200D01*
X154741428Y-74067200D02*
X154789047Y-74019580D01*
X154789047Y-74019580D02*
X154836666Y-73924342D01*
X154836666Y-73924342D02*
X154836666Y-73686247D01*
X154836666Y-73686247D02*
X154789047Y-73591009D01*
X154789047Y-73591009D02*
X154741428Y-73543390D01*
X154741428Y-73543390D02*
X154646190Y-73495771D01*
X154646190Y-73495771D02*
X154455714Y-73495771D01*
X154455714Y-73495771D02*
X154360476Y-73543390D01*
X154360476Y-73543390D02*
X154312857Y-73591009D01*
X154312857Y-73591009D02*
X154265238Y-73686247D01*
X137154819Y-105766666D02*
X136678628Y-106099999D01*
X137154819Y-106338094D02*
X136154819Y-106338094D01*
X136154819Y-106338094D02*
X136154819Y-105957142D01*
X136154819Y-105957142D02*
X136202438Y-105861904D01*
X136202438Y-105861904D02*
X136250057Y-105814285D01*
X136250057Y-105814285D02*
X136345295Y-105766666D01*
X136345295Y-105766666D02*
X136488152Y-105766666D01*
X136488152Y-105766666D02*
X136583390Y-105814285D01*
X136583390Y-105814285D02*
X136631009Y-105861904D01*
X136631009Y-105861904D02*
X136678628Y-105957142D01*
X136678628Y-105957142D02*
X136678628Y-106338094D01*
X136154819Y-104909523D02*
X136154819Y-105099999D01*
X136154819Y-105099999D02*
X136202438Y-105195237D01*
X136202438Y-105195237D02*
X136250057Y-105242856D01*
X136250057Y-105242856D02*
X136392914Y-105338094D01*
X136392914Y-105338094D02*
X136583390Y-105385713D01*
X136583390Y-105385713D02*
X136964342Y-105385713D01*
X136964342Y-105385713D02*
X137059580Y-105338094D01*
X137059580Y-105338094D02*
X137107200Y-105290475D01*
X137107200Y-105290475D02*
X137154819Y-105195237D01*
X137154819Y-105195237D02*
X137154819Y-105004761D01*
X137154819Y-105004761D02*
X137107200Y-104909523D01*
X137107200Y-104909523D02*
X137059580Y-104861904D01*
X137059580Y-104861904D02*
X136964342Y-104814285D01*
X136964342Y-104814285D02*
X136726247Y-104814285D01*
X136726247Y-104814285D02*
X136631009Y-104861904D01*
X136631009Y-104861904D02*
X136583390Y-104909523D01*
X136583390Y-104909523D02*
X136535771Y-105004761D01*
X136535771Y-105004761D02*
X136535771Y-105195237D01*
X136535771Y-105195237D02*
X136583390Y-105290475D01*
X136583390Y-105290475D02*
X136631009Y-105338094D01*
X136631009Y-105338094D02*
X136726247Y-105385713D01*
X154440142Y-79449819D02*
X154106809Y-78973628D01*
X153868714Y-79449819D02*
X153868714Y-78449819D01*
X153868714Y-78449819D02*
X154249666Y-78449819D01*
X154249666Y-78449819D02*
X154344904Y-78497438D01*
X154344904Y-78497438D02*
X154392523Y-78545057D01*
X154392523Y-78545057D02*
X154440142Y-78640295D01*
X154440142Y-78640295D02*
X154440142Y-78783152D01*
X154440142Y-78783152D02*
X154392523Y-78878390D01*
X154392523Y-78878390D02*
X154344904Y-78926009D01*
X154344904Y-78926009D02*
X154249666Y-78973628D01*
X154249666Y-78973628D02*
X153868714Y-78973628D01*
X155392523Y-79449819D02*
X154821095Y-79449819D01*
X155106809Y-79449819D02*
X155106809Y-78449819D01*
X155106809Y-78449819D02*
X155011571Y-78592676D01*
X155011571Y-78592676D02*
X154916333Y-78687914D01*
X154916333Y-78687914D02*
X154821095Y-78735533D01*
X156297285Y-78449819D02*
X155821095Y-78449819D01*
X155821095Y-78449819D02*
X155773476Y-78926009D01*
X155773476Y-78926009D02*
X155821095Y-78878390D01*
X155821095Y-78878390D02*
X155916333Y-78830771D01*
X155916333Y-78830771D02*
X156154428Y-78830771D01*
X156154428Y-78830771D02*
X156249666Y-78878390D01*
X156249666Y-78878390D02*
X156297285Y-78926009D01*
X156297285Y-78926009D02*
X156344904Y-79021247D01*
X156344904Y-79021247D02*
X156344904Y-79259342D01*
X156344904Y-79259342D02*
X156297285Y-79354580D01*
X156297285Y-79354580D02*
X156249666Y-79402200D01*
X156249666Y-79402200D02*
X156154428Y-79449819D01*
X156154428Y-79449819D02*
X155916333Y-79449819D01*
X155916333Y-79449819D02*
X155821095Y-79402200D01*
X155821095Y-79402200D02*
X155773476Y-79354580D01*
D12*
X118013237Y-91252318D02*
X118013237Y-89982318D01*
X119343714Y-91131365D02*
X119283238Y-91191842D01*
X119283238Y-91191842D02*
X119101809Y-91252318D01*
X119101809Y-91252318D02*
X118980857Y-91252318D01*
X118980857Y-91252318D02*
X118799428Y-91191842D01*
X118799428Y-91191842D02*
X118678476Y-91070889D01*
X118678476Y-91070889D02*
X118617999Y-90949937D01*
X118617999Y-90949937D02*
X118557523Y-90708032D01*
X118557523Y-90708032D02*
X118557523Y-90526603D01*
X118557523Y-90526603D02*
X118617999Y-90284699D01*
X118617999Y-90284699D02*
X118678476Y-90163746D01*
X118678476Y-90163746D02*
X118799428Y-90042794D01*
X118799428Y-90042794D02*
X118980857Y-89982318D01*
X118980857Y-89982318D02*
X119101809Y-89982318D01*
X119101809Y-89982318D02*
X119283238Y-90042794D01*
X119283238Y-90042794D02*
X119343714Y-90103270D01*
X119827523Y-90103270D02*
X119887999Y-90042794D01*
X119887999Y-90042794D02*
X120008952Y-89982318D01*
X120008952Y-89982318D02*
X120311333Y-89982318D01*
X120311333Y-89982318D02*
X120432285Y-90042794D01*
X120432285Y-90042794D02*
X120492761Y-90103270D01*
X120492761Y-90103270D02*
X120553238Y-90224222D01*
X120553238Y-90224222D02*
X120553238Y-90345175D01*
X120553238Y-90345175D02*
X120492761Y-90526603D01*
X120492761Y-90526603D02*
X119767047Y-91252318D01*
X119767047Y-91252318D02*
X120553238Y-91252318D01*
D10*
X142240476Y-94799819D02*
X142240476Y-95514104D01*
X142240476Y-95514104D02*
X142192857Y-95656961D01*
X142192857Y-95656961D02*
X142097619Y-95752200D01*
X142097619Y-95752200D02*
X141954762Y-95799819D01*
X141954762Y-95799819D02*
X141859524Y-95799819D01*
X143240476Y-95799819D02*
X142669048Y-95799819D01*
X142954762Y-95799819D02*
X142954762Y-94799819D01*
X142954762Y-94799819D02*
X142859524Y-94942676D01*
X142859524Y-94942676D02*
X142764286Y-95037914D01*
X142764286Y-95037914D02*
X142669048Y-95085533D01*
X144145238Y-94799819D02*
X143669048Y-94799819D01*
X143669048Y-94799819D02*
X143621429Y-95276009D01*
X143621429Y-95276009D02*
X143669048Y-95228390D01*
X143669048Y-95228390D02*
X143764286Y-95180771D01*
X143764286Y-95180771D02*
X144002381Y-95180771D01*
X144002381Y-95180771D02*
X144097619Y-95228390D01*
X144097619Y-95228390D02*
X144145238Y-95276009D01*
X144145238Y-95276009D02*
X144192857Y-95371247D01*
X144192857Y-95371247D02*
X144192857Y-95609342D01*
X144192857Y-95609342D02*
X144145238Y-95704580D01*
X144145238Y-95704580D02*
X144097619Y-95752200D01*
X144097619Y-95752200D02*
X144002381Y-95799819D01*
X144002381Y-95799819D02*
X143764286Y-95799819D01*
X143764286Y-95799819D02*
X143669048Y-95752200D01*
X143669048Y-95752200D02*
X143621429Y-95704580D01*
X141683333Y-103254819D02*
X141350000Y-102778628D01*
X141111905Y-103254819D02*
X141111905Y-102254819D01*
X141111905Y-102254819D02*
X141492857Y-102254819D01*
X141492857Y-102254819D02*
X141588095Y-102302438D01*
X141588095Y-102302438D02*
X141635714Y-102350057D01*
X141635714Y-102350057D02*
X141683333Y-102445295D01*
X141683333Y-102445295D02*
X141683333Y-102588152D01*
X141683333Y-102588152D02*
X141635714Y-102683390D01*
X141635714Y-102683390D02*
X141588095Y-102731009D01*
X141588095Y-102731009D02*
X141492857Y-102778628D01*
X141492857Y-102778628D02*
X141111905Y-102778628D01*
X142016667Y-102254819D02*
X142683333Y-102254819D01*
X142683333Y-102254819D02*
X142254762Y-103254819D01*
X140056666Y-73134819D02*
X140056666Y-73849104D01*
X140056666Y-73849104D02*
X140009047Y-73991961D01*
X140009047Y-73991961D02*
X139913809Y-74087200D01*
X139913809Y-74087200D02*
X139770952Y-74134819D01*
X139770952Y-74134819D02*
X139675714Y-74134819D01*
X140675714Y-73563390D02*
X140580476Y-73515771D01*
X140580476Y-73515771D02*
X140532857Y-73468152D01*
X140532857Y-73468152D02*
X140485238Y-73372914D01*
X140485238Y-73372914D02*
X140485238Y-73325295D01*
X140485238Y-73325295D02*
X140532857Y-73230057D01*
X140532857Y-73230057D02*
X140580476Y-73182438D01*
X140580476Y-73182438D02*
X140675714Y-73134819D01*
X140675714Y-73134819D02*
X140866190Y-73134819D01*
X140866190Y-73134819D02*
X140961428Y-73182438D01*
X140961428Y-73182438D02*
X141009047Y-73230057D01*
X141009047Y-73230057D02*
X141056666Y-73325295D01*
X141056666Y-73325295D02*
X141056666Y-73372914D01*
X141056666Y-73372914D02*
X141009047Y-73468152D01*
X141009047Y-73468152D02*
X140961428Y-73515771D01*
X140961428Y-73515771D02*
X140866190Y-73563390D01*
X140866190Y-73563390D02*
X140675714Y-73563390D01*
X140675714Y-73563390D02*
X140580476Y-73611009D01*
X140580476Y-73611009D02*
X140532857Y-73658628D01*
X140532857Y-73658628D02*
X140485238Y-73753866D01*
X140485238Y-73753866D02*
X140485238Y-73944342D01*
X140485238Y-73944342D02*
X140532857Y-74039580D01*
X140532857Y-74039580D02*
X140580476Y-74087200D01*
X140580476Y-74087200D02*
X140675714Y-74134819D01*
X140675714Y-74134819D02*
X140866190Y-74134819D01*
X140866190Y-74134819D02*
X140961428Y-74087200D01*
X140961428Y-74087200D02*
X141009047Y-74039580D01*
X141009047Y-74039580D02*
X141056666Y-73944342D01*
X141056666Y-73944342D02*
X141056666Y-73753866D01*
X141056666Y-73753866D02*
X141009047Y-73658628D01*
X141009047Y-73658628D02*
X140961428Y-73611009D01*
X140961428Y-73611009D02*
X140866190Y-73563390D01*
X113607142Y-118184580D02*
X113559523Y-118232200D01*
X113559523Y-118232200D02*
X113416666Y-118279819D01*
X113416666Y-118279819D02*
X113321428Y-118279819D01*
X113321428Y-118279819D02*
X113178571Y-118232200D01*
X113178571Y-118232200D02*
X113083333Y-118136961D01*
X113083333Y-118136961D02*
X113035714Y-118041723D01*
X113035714Y-118041723D02*
X112988095Y-117851247D01*
X112988095Y-117851247D02*
X112988095Y-117708390D01*
X112988095Y-117708390D02*
X113035714Y-117517914D01*
X113035714Y-117517914D02*
X113083333Y-117422676D01*
X113083333Y-117422676D02*
X113178571Y-117327438D01*
X113178571Y-117327438D02*
X113321428Y-117279819D01*
X113321428Y-117279819D02*
X113416666Y-117279819D01*
X113416666Y-117279819D02*
X113559523Y-117327438D01*
X113559523Y-117327438D02*
X113607142Y-117375057D01*
X114559523Y-118279819D02*
X113988095Y-118279819D01*
X114273809Y-118279819D02*
X114273809Y-117279819D01*
X114273809Y-117279819D02*
X114178571Y-117422676D01*
X114178571Y-117422676D02*
X114083333Y-117517914D01*
X114083333Y-117517914D02*
X113988095Y-117565533D01*
X114892857Y-117279819D02*
X115511904Y-117279819D01*
X115511904Y-117279819D02*
X115178571Y-117660771D01*
X115178571Y-117660771D02*
X115321428Y-117660771D01*
X115321428Y-117660771D02*
X115416666Y-117708390D01*
X115416666Y-117708390D02*
X115464285Y-117756009D01*
X115464285Y-117756009D02*
X115511904Y-117851247D01*
X115511904Y-117851247D02*
X115511904Y-118089342D01*
X115511904Y-118089342D02*
X115464285Y-118184580D01*
X115464285Y-118184580D02*
X115416666Y-118232200D01*
X115416666Y-118232200D02*
X115321428Y-118279819D01*
X115321428Y-118279819D02*
X115035714Y-118279819D01*
X115035714Y-118279819D02*
X114940476Y-118232200D01*
X114940476Y-118232200D02*
X114892857Y-118184580D01*
X144877642Y-111005580D02*
X144830023Y-111053200D01*
X144830023Y-111053200D02*
X144687166Y-111100819D01*
X144687166Y-111100819D02*
X144591928Y-111100819D01*
X144591928Y-111100819D02*
X144449071Y-111053200D01*
X144449071Y-111053200D02*
X144353833Y-110957961D01*
X144353833Y-110957961D02*
X144306214Y-110862723D01*
X144306214Y-110862723D02*
X144258595Y-110672247D01*
X144258595Y-110672247D02*
X144258595Y-110529390D01*
X144258595Y-110529390D02*
X144306214Y-110338914D01*
X144306214Y-110338914D02*
X144353833Y-110243676D01*
X144353833Y-110243676D02*
X144449071Y-110148438D01*
X144449071Y-110148438D02*
X144591928Y-110100819D01*
X144591928Y-110100819D02*
X144687166Y-110100819D01*
X144687166Y-110100819D02*
X144830023Y-110148438D01*
X144830023Y-110148438D02*
X144877642Y-110196057D01*
X145830023Y-111100819D02*
X145258595Y-111100819D01*
X145544309Y-111100819D02*
X145544309Y-110100819D01*
X145544309Y-110100819D02*
X145449071Y-110243676D01*
X145449071Y-110243676D02*
X145353833Y-110338914D01*
X145353833Y-110338914D02*
X145258595Y-110386533D01*
X146687166Y-110100819D02*
X146496690Y-110100819D01*
X146496690Y-110100819D02*
X146401452Y-110148438D01*
X146401452Y-110148438D02*
X146353833Y-110196057D01*
X146353833Y-110196057D02*
X146258595Y-110338914D01*
X146258595Y-110338914D02*
X146210976Y-110529390D01*
X146210976Y-110529390D02*
X146210976Y-110910342D01*
X146210976Y-110910342D02*
X146258595Y-111005580D01*
X146258595Y-111005580D02*
X146306214Y-111053200D01*
X146306214Y-111053200D02*
X146401452Y-111100819D01*
X146401452Y-111100819D02*
X146591928Y-111100819D01*
X146591928Y-111100819D02*
X146687166Y-111053200D01*
X146687166Y-111053200D02*
X146734785Y-111005580D01*
X146734785Y-111005580D02*
X146782404Y-110910342D01*
X146782404Y-110910342D02*
X146782404Y-110672247D01*
X146782404Y-110672247D02*
X146734785Y-110577009D01*
X146734785Y-110577009D02*
X146687166Y-110529390D01*
X146687166Y-110529390D02*
X146591928Y-110481771D01*
X146591928Y-110481771D02*
X146401452Y-110481771D01*
X146401452Y-110481771D02*
X146306214Y-110529390D01*
X146306214Y-110529390D02*
X146258595Y-110577009D01*
X146258595Y-110577009D02*
X146210976Y-110672247D01*
X101266666Y-103848819D02*
X101266666Y-104563104D01*
X101266666Y-104563104D02*
X101219047Y-104705961D01*
X101219047Y-104705961D02*
X101123809Y-104801200D01*
X101123809Y-104801200D02*
X100980952Y-104848819D01*
X100980952Y-104848819D02*
X100885714Y-104848819D01*
X101790476Y-104848819D02*
X101980952Y-104848819D01*
X101980952Y-104848819D02*
X102076190Y-104801200D01*
X102076190Y-104801200D02*
X102123809Y-104753580D01*
X102123809Y-104753580D02*
X102219047Y-104610723D01*
X102219047Y-104610723D02*
X102266666Y-104420247D01*
X102266666Y-104420247D02*
X102266666Y-104039295D01*
X102266666Y-104039295D02*
X102219047Y-103944057D01*
X102219047Y-103944057D02*
X102171428Y-103896438D01*
X102171428Y-103896438D02*
X102076190Y-103848819D01*
X102076190Y-103848819D02*
X101885714Y-103848819D01*
X101885714Y-103848819D02*
X101790476Y-103896438D01*
X101790476Y-103896438D02*
X101742857Y-103944057D01*
X101742857Y-103944057D02*
X101695238Y-104039295D01*
X101695238Y-104039295D02*
X101695238Y-104277390D01*
X101695238Y-104277390D02*
X101742857Y-104372628D01*
X101742857Y-104372628D02*
X101790476Y-104420247D01*
X101790476Y-104420247D02*
X101885714Y-104467866D01*
X101885714Y-104467866D02*
X102076190Y-104467866D01*
X102076190Y-104467866D02*
X102171428Y-104420247D01*
X102171428Y-104420247D02*
X102219047Y-104372628D01*
X102219047Y-104372628D02*
X102266666Y-104277390D01*
X122509580Y-101691666D02*
X122557200Y-101739285D01*
X122557200Y-101739285D02*
X122604819Y-101882142D01*
X122604819Y-101882142D02*
X122604819Y-101977380D01*
X122604819Y-101977380D02*
X122557200Y-102120237D01*
X122557200Y-102120237D02*
X122461961Y-102215475D01*
X122461961Y-102215475D02*
X122366723Y-102263094D01*
X122366723Y-102263094D02*
X122176247Y-102310713D01*
X122176247Y-102310713D02*
X122033390Y-102310713D01*
X122033390Y-102310713D02*
X121842914Y-102263094D01*
X121842914Y-102263094D02*
X121747676Y-102215475D01*
X121747676Y-102215475D02*
X121652438Y-102120237D01*
X121652438Y-102120237D02*
X121604819Y-101977380D01*
X121604819Y-101977380D02*
X121604819Y-101882142D01*
X121604819Y-101882142D02*
X121652438Y-101739285D01*
X121652438Y-101739285D02*
X121700057Y-101691666D01*
X121938152Y-100834523D02*
X122604819Y-100834523D01*
X121557200Y-101072618D02*
X122271485Y-101310713D01*
X122271485Y-101310713D02*
X122271485Y-100691666D01*
X113730833Y-100787580D02*
X113683214Y-100835200D01*
X113683214Y-100835200D02*
X113540357Y-100882819D01*
X113540357Y-100882819D02*
X113445119Y-100882819D01*
X113445119Y-100882819D02*
X113302262Y-100835200D01*
X113302262Y-100835200D02*
X113207024Y-100739961D01*
X113207024Y-100739961D02*
X113159405Y-100644723D01*
X113159405Y-100644723D02*
X113111786Y-100454247D01*
X113111786Y-100454247D02*
X113111786Y-100311390D01*
X113111786Y-100311390D02*
X113159405Y-100120914D01*
X113159405Y-100120914D02*
X113207024Y-100025676D01*
X113207024Y-100025676D02*
X113302262Y-99930438D01*
X113302262Y-99930438D02*
X113445119Y-99882819D01*
X113445119Y-99882819D02*
X113540357Y-99882819D01*
X113540357Y-99882819D02*
X113683214Y-99930438D01*
X113683214Y-99930438D02*
X113730833Y-99978057D01*
X114111786Y-99978057D02*
X114159405Y-99930438D01*
X114159405Y-99930438D02*
X114254643Y-99882819D01*
X114254643Y-99882819D02*
X114492738Y-99882819D01*
X114492738Y-99882819D02*
X114587976Y-99930438D01*
X114587976Y-99930438D02*
X114635595Y-99978057D01*
X114635595Y-99978057D02*
X114683214Y-100073295D01*
X114683214Y-100073295D02*
X114683214Y-100168533D01*
X114683214Y-100168533D02*
X114635595Y-100311390D01*
X114635595Y-100311390D02*
X114064167Y-100882819D01*
X114064167Y-100882819D02*
X114683214Y-100882819D01*
X140696142Y-79703819D02*
X140362809Y-79227628D01*
X140124714Y-79703819D02*
X140124714Y-78703819D01*
X140124714Y-78703819D02*
X140505666Y-78703819D01*
X140505666Y-78703819D02*
X140600904Y-78751438D01*
X140600904Y-78751438D02*
X140648523Y-78799057D01*
X140648523Y-78799057D02*
X140696142Y-78894295D01*
X140696142Y-78894295D02*
X140696142Y-79037152D01*
X140696142Y-79037152D02*
X140648523Y-79132390D01*
X140648523Y-79132390D02*
X140600904Y-79180009D01*
X140600904Y-79180009D02*
X140505666Y-79227628D01*
X140505666Y-79227628D02*
X140124714Y-79227628D01*
X141648523Y-79703819D02*
X141077095Y-79703819D01*
X141362809Y-79703819D02*
X141362809Y-78703819D01*
X141362809Y-78703819D02*
X141267571Y-78846676D01*
X141267571Y-78846676D02*
X141172333Y-78941914D01*
X141172333Y-78941914D02*
X141077095Y-78989533D01*
X142124714Y-79703819D02*
X142315190Y-79703819D01*
X142315190Y-79703819D02*
X142410428Y-79656200D01*
X142410428Y-79656200D02*
X142458047Y-79608580D01*
X142458047Y-79608580D02*
X142553285Y-79465723D01*
X142553285Y-79465723D02*
X142600904Y-79275247D01*
X142600904Y-79275247D02*
X142600904Y-78894295D01*
X142600904Y-78894295D02*
X142553285Y-78799057D01*
X142553285Y-78799057D02*
X142505666Y-78751438D01*
X142505666Y-78751438D02*
X142410428Y-78703819D01*
X142410428Y-78703819D02*
X142219952Y-78703819D01*
X142219952Y-78703819D02*
X142124714Y-78751438D01*
X142124714Y-78751438D02*
X142077095Y-78799057D01*
X142077095Y-78799057D02*
X142029476Y-78894295D01*
X142029476Y-78894295D02*
X142029476Y-79132390D01*
X142029476Y-79132390D02*
X142077095Y-79227628D01*
X142077095Y-79227628D02*
X142124714Y-79275247D01*
X142124714Y-79275247D02*
X142219952Y-79322866D01*
X142219952Y-79322866D02*
X142410428Y-79322866D01*
X142410428Y-79322866D02*
X142505666Y-79275247D01*
X142505666Y-79275247D02*
X142553285Y-79227628D01*
X142553285Y-79227628D02*
X142600904Y-79132390D01*
X127738333Y-102055819D02*
X127405000Y-101579628D01*
X127166905Y-102055819D02*
X127166905Y-101055819D01*
X127166905Y-101055819D02*
X127547857Y-101055819D01*
X127547857Y-101055819D02*
X127643095Y-101103438D01*
X127643095Y-101103438D02*
X127690714Y-101151057D01*
X127690714Y-101151057D02*
X127738333Y-101246295D01*
X127738333Y-101246295D02*
X127738333Y-101389152D01*
X127738333Y-101389152D02*
X127690714Y-101484390D01*
X127690714Y-101484390D02*
X127643095Y-101532009D01*
X127643095Y-101532009D02*
X127547857Y-101579628D01*
X127547857Y-101579628D02*
X127166905Y-101579628D01*
X128595476Y-101389152D02*
X128595476Y-102055819D01*
X128357381Y-101008200D02*
X128119286Y-101722485D01*
X128119286Y-101722485D02*
X128738333Y-101722485D01*
X149525476Y-92279819D02*
X149525476Y-92994104D01*
X149525476Y-92994104D02*
X149477857Y-93136961D01*
X149477857Y-93136961D02*
X149382619Y-93232200D01*
X149382619Y-93232200D02*
X149239762Y-93279819D01*
X149239762Y-93279819D02*
X149144524Y-93279819D01*
X150525476Y-93279819D02*
X149954048Y-93279819D01*
X150239762Y-93279819D02*
X150239762Y-92279819D01*
X150239762Y-92279819D02*
X150144524Y-92422676D01*
X150144524Y-92422676D02*
X150049286Y-92517914D01*
X150049286Y-92517914D02*
X149954048Y-92565533D01*
X150906429Y-92375057D02*
X150954048Y-92327438D01*
X150954048Y-92327438D02*
X151049286Y-92279819D01*
X151049286Y-92279819D02*
X151287381Y-92279819D01*
X151287381Y-92279819D02*
X151382619Y-92327438D01*
X151382619Y-92327438D02*
X151430238Y-92375057D01*
X151430238Y-92375057D02*
X151477857Y-92470295D01*
X151477857Y-92470295D02*
X151477857Y-92565533D01*
X151477857Y-92565533D02*
X151430238Y-92708390D01*
X151430238Y-92708390D02*
X150858810Y-93279819D01*
X150858810Y-93279819D02*
X151477857Y-93279819D01*
D12*
X173693318Y-101174762D02*
X172423318Y-101174762D01*
X173572365Y-99844285D02*
X173632842Y-99904761D01*
X173632842Y-99904761D02*
X173693318Y-100086190D01*
X173693318Y-100086190D02*
X173693318Y-100207142D01*
X173693318Y-100207142D02*
X173632842Y-100388571D01*
X173632842Y-100388571D02*
X173511889Y-100509523D01*
X173511889Y-100509523D02*
X173390937Y-100570000D01*
X173390937Y-100570000D02*
X173149032Y-100630476D01*
X173149032Y-100630476D02*
X172967603Y-100630476D01*
X172967603Y-100630476D02*
X172725699Y-100570000D01*
X172725699Y-100570000D02*
X172604746Y-100509523D01*
X172604746Y-100509523D02*
X172483794Y-100388571D01*
X172483794Y-100388571D02*
X172423318Y-100207142D01*
X172423318Y-100207142D02*
X172423318Y-100086190D01*
X172423318Y-100086190D02*
X172483794Y-99904761D01*
X172483794Y-99904761D02*
X172544270Y-99844285D01*
X173693318Y-98634761D02*
X173693318Y-99360476D01*
X173693318Y-98997619D02*
X172423318Y-98997619D01*
X172423318Y-98997619D02*
X172604746Y-99118571D01*
X172604746Y-99118571D02*
X172725699Y-99239523D01*
X172725699Y-99239523D02*
X172786175Y-99360476D01*
D10*
X119442476Y-126371819D02*
X119442476Y-127086104D01*
X119442476Y-127086104D02*
X119394857Y-127228961D01*
X119394857Y-127228961D02*
X119299619Y-127324200D01*
X119299619Y-127324200D02*
X119156762Y-127371819D01*
X119156762Y-127371819D02*
X119061524Y-127371819D01*
X120442476Y-127371819D02*
X119871048Y-127371819D01*
X120156762Y-127371819D02*
X120156762Y-126371819D01*
X120156762Y-126371819D02*
X120061524Y-126514676D01*
X120061524Y-126514676D02*
X119966286Y-126609914D01*
X119966286Y-126609914D02*
X119871048Y-126657533D01*
X121061524Y-126371819D02*
X121156762Y-126371819D01*
X121156762Y-126371819D02*
X121252000Y-126419438D01*
X121252000Y-126419438D02*
X121299619Y-126467057D01*
X121299619Y-126467057D02*
X121347238Y-126562295D01*
X121347238Y-126562295D02*
X121394857Y-126752771D01*
X121394857Y-126752771D02*
X121394857Y-126990866D01*
X121394857Y-126990866D02*
X121347238Y-127181342D01*
X121347238Y-127181342D02*
X121299619Y-127276580D01*
X121299619Y-127276580D02*
X121252000Y-127324200D01*
X121252000Y-127324200D02*
X121156762Y-127371819D01*
X121156762Y-127371819D02*
X121061524Y-127371819D01*
X121061524Y-127371819D02*
X120966286Y-127324200D01*
X120966286Y-127324200D02*
X120918667Y-127276580D01*
X120918667Y-127276580D02*
X120871048Y-127181342D01*
X120871048Y-127181342D02*
X120823429Y-126990866D01*
X120823429Y-126990866D02*
X120823429Y-126752771D01*
X120823429Y-126752771D02*
X120871048Y-126562295D01*
X120871048Y-126562295D02*
X120918667Y-126467057D01*
X120918667Y-126467057D02*
X120966286Y-126419438D01*
X120966286Y-126419438D02*
X121061524Y-126371819D01*
X133581833Y-103638580D02*
X133534214Y-103686200D01*
X133534214Y-103686200D02*
X133391357Y-103733819D01*
X133391357Y-103733819D02*
X133296119Y-103733819D01*
X133296119Y-103733819D02*
X133153262Y-103686200D01*
X133153262Y-103686200D02*
X133058024Y-103590961D01*
X133058024Y-103590961D02*
X133010405Y-103495723D01*
X133010405Y-103495723D02*
X132962786Y-103305247D01*
X132962786Y-103305247D02*
X132962786Y-103162390D01*
X132962786Y-103162390D02*
X133010405Y-102971914D01*
X133010405Y-102971914D02*
X133058024Y-102876676D01*
X133058024Y-102876676D02*
X133153262Y-102781438D01*
X133153262Y-102781438D02*
X133296119Y-102733819D01*
X133296119Y-102733819D02*
X133391357Y-102733819D01*
X133391357Y-102733819D02*
X133534214Y-102781438D01*
X133534214Y-102781438D02*
X133581833Y-102829057D01*
X133915167Y-102733819D02*
X134581833Y-102733819D01*
X134581833Y-102733819D02*
X134153262Y-103733819D01*
X103344142Y-79449819D02*
X103010809Y-78973628D01*
X102772714Y-79449819D02*
X102772714Y-78449819D01*
X102772714Y-78449819D02*
X103153666Y-78449819D01*
X103153666Y-78449819D02*
X103248904Y-78497438D01*
X103248904Y-78497438D02*
X103296523Y-78545057D01*
X103296523Y-78545057D02*
X103344142Y-78640295D01*
X103344142Y-78640295D02*
X103344142Y-78783152D01*
X103344142Y-78783152D02*
X103296523Y-78878390D01*
X103296523Y-78878390D02*
X103248904Y-78926009D01*
X103248904Y-78926009D02*
X103153666Y-78973628D01*
X103153666Y-78973628D02*
X102772714Y-78973628D01*
X104296523Y-79449819D02*
X103725095Y-79449819D01*
X104010809Y-79449819D02*
X104010809Y-78449819D01*
X104010809Y-78449819D02*
X103915571Y-78592676D01*
X103915571Y-78592676D02*
X103820333Y-78687914D01*
X103820333Y-78687914D02*
X103725095Y-78735533D01*
X104915571Y-78449819D02*
X105010809Y-78449819D01*
X105010809Y-78449819D02*
X105106047Y-78497438D01*
X105106047Y-78497438D02*
X105153666Y-78545057D01*
X105153666Y-78545057D02*
X105201285Y-78640295D01*
X105201285Y-78640295D02*
X105248904Y-78830771D01*
X105248904Y-78830771D02*
X105248904Y-79068866D01*
X105248904Y-79068866D02*
X105201285Y-79259342D01*
X105201285Y-79259342D02*
X105153666Y-79354580D01*
X105153666Y-79354580D02*
X105106047Y-79402200D01*
X105106047Y-79402200D02*
X105010809Y-79449819D01*
X105010809Y-79449819D02*
X104915571Y-79449819D01*
X104915571Y-79449819D02*
X104820333Y-79402200D01*
X104820333Y-79402200D02*
X104772714Y-79354580D01*
X104772714Y-79354580D02*
X104725095Y-79259342D01*
X104725095Y-79259342D02*
X104677476Y-79068866D01*
X104677476Y-79068866D02*
X104677476Y-78830771D01*
X104677476Y-78830771D02*
X104725095Y-78640295D01*
X104725095Y-78640295D02*
X104772714Y-78545057D01*
X104772714Y-78545057D02*
X104820333Y-78497438D01*
X104820333Y-78497438D02*
X104915571Y-78449819D01*
X124379819Y-100641666D02*
X123903628Y-100974999D01*
X124379819Y-101213094D02*
X123379819Y-101213094D01*
X123379819Y-101213094D02*
X123379819Y-100832142D01*
X123379819Y-100832142D02*
X123427438Y-100736904D01*
X123427438Y-100736904D02*
X123475057Y-100689285D01*
X123475057Y-100689285D02*
X123570295Y-100641666D01*
X123570295Y-100641666D02*
X123713152Y-100641666D01*
X123713152Y-100641666D02*
X123808390Y-100689285D01*
X123808390Y-100689285D02*
X123856009Y-100736904D01*
X123856009Y-100736904D02*
X123903628Y-100832142D01*
X123903628Y-100832142D02*
X123903628Y-101213094D01*
X123379819Y-99736904D02*
X123379819Y-100213094D01*
X123379819Y-100213094D02*
X123856009Y-100260713D01*
X123856009Y-100260713D02*
X123808390Y-100213094D01*
X123808390Y-100213094D02*
X123760771Y-100117856D01*
X123760771Y-100117856D02*
X123760771Y-99879761D01*
X123760771Y-99879761D02*
X123808390Y-99784523D01*
X123808390Y-99784523D02*
X123856009Y-99736904D01*
X123856009Y-99736904D02*
X123951247Y-99689285D01*
X123951247Y-99689285D02*
X124189342Y-99689285D01*
X124189342Y-99689285D02*
X124284580Y-99736904D01*
X124284580Y-99736904D02*
X124332200Y-99784523D01*
X124332200Y-99784523D02*
X124379819Y-99879761D01*
X124379819Y-99879761D02*
X124379819Y-100117856D01*
X124379819Y-100117856D02*
X124332200Y-100213094D01*
X124332200Y-100213094D02*
X124284580Y-100260713D01*
X117099333Y-103887580D02*
X117051714Y-103935200D01*
X117051714Y-103935200D02*
X116908857Y-103982819D01*
X116908857Y-103982819D02*
X116813619Y-103982819D01*
X116813619Y-103982819D02*
X116670762Y-103935200D01*
X116670762Y-103935200D02*
X116575524Y-103839961D01*
X116575524Y-103839961D02*
X116527905Y-103744723D01*
X116527905Y-103744723D02*
X116480286Y-103554247D01*
X116480286Y-103554247D02*
X116480286Y-103411390D01*
X116480286Y-103411390D02*
X116527905Y-103220914D01*
X116527905Y-103220914D02*
X116575524Y-103125676D01*
X116575524Y-103125676D02*
X116670762Y-103030438D01*
X116670762Y-103030438D02*
X116813619Y-102982819D01*
X116813619Y-102982819D02*
X116908857Y-102982819D01*
X116908857Y-102982819D02*
X117051714Y-103030438D01*
X117051714Y-103030438D02*
X117099333Y-103078057D01*
X117956476Y-102982819D02*
X117766000Y-102982819D01*
X117766000Y-102982819D02*
X117670762Y-103030438D01*
X117670762Y-103030438D02*
X117623143Y-103078057D01*
X117623143Y-103078057D02*
X117527905Y-103220914D01*
X117527905Y-103220914D02*
X117480286Y-103411390D01*
X117480286Y-103411390D02*
X117480286Y-103792342D01*
X117480286Y-103792342D02*
X117527905Y-103887580D01*
X117527905Y-103887580D02*
X117575524Y-103935200D01*
X117575524Y-103935200D02*
X117670762Y-103982819D01*
X117670762Y-103982819D02*
X117861238Y-103982819D01*
X117861238Y-103982819D02*
X117956476Y-103935200D01*
X117956476Y-103935200D02*
X118004095Y-103887580D01*
X118004095Y-103887580D02*
X118051714Y-103792342D01*
X118051714Y-103792342D02*
X118051714Y-103554247D01*
X118051714Y-103554247D02*
X118004095Y-103459009D01*
X118004095Y-103459009D02*
X117956476Y-103411390D01*
X117956476Y-103411390D02*
X117861238Y-103363771D01*
X117861238Y-103363771D02*
X117670762Y-103363771D01*
X117670762Y-103363771D02*
X117575524Y-103411390D01*
X117575524Y-103411390D02*
X117527905Y-103459009D01*
X117527905Y-103459009D02*
X117480286Y-103554247D01*
X105807142Y-117754580D02*
X105759523Y-117802200D01*
X105759523Y-117802200D02*
X105616666Y-117849819D01*
X105616666Y-117849819D02*
X105521428Y-117849819D01*
X105521428Y-117849819D02*
X105378571Y-117802200D01*
X105378571Y-117802200D02*
X105283333Y-117706961D01*
X105283333Y-117706961D02*
X105235714Y-117611723D01*
X105235714Y-117611723D02*
X105188095Y-117421247D01*
X105188095Y-117421247D02*
X105188095Y-117278390D01*
X105188095Y-117278390D02*
X105235714Y-117087914D01*
X105235714Y-117087914D02*
X105283333Y-116992676D01*
X105283333Y-116992676D02*
X105378571Y-116897438D01*
X105378571Y-116897438D02*
X105521428Y-116849819D01*
X105521428Y-116849819D02*
X105616666Y-116849819D01*
X105616666Y-116849819D02*
X105759523Y-116897438D01*
X105759523Y-116897438D02*
X105807142Y-116945057D01*
X106759523Y-117849819D02*
X106188095Y-117849819D01*
X106473809Y-117849819D02*
X106473809Y-116849819D01*
X106473809Y-116849819D02*
X106378571Y-116992676D01*
X106378571Y-116992676D02*
X106283333Y-117087914D01*
X106283333Y-117087914D02*
X106188095Y-117135533D01*
X107664285Y-116849819D02*
X107188095Y-116849819D01*
X107188095Y-116849819D02*
X107140476Y-117326009D01*
X107140476Y-117326009D02*
X107188095Y-117278390D01*
X107188095Y-117278390D02*
X107283333Y-117230771D01*
X107283333Y-117230771D02*
X107521428Y-117230771D01*
X107521428Y-117230771D02*
X107616666Y-117278390D01*
X107616666Y-117278390D02*
X107664285Y-117326009D01*
X107664285Y-117326009D02*
X107711904Y-117421247D01*
X107711904Y-117421247D02*
X107711904Y-117659342D01*
X107711904Y-117659342D02*
X107664285Y-117754580D01*
X107664285Y-117754580D02*
X107616666Y-117802200D01*
X107616666Y-117802200D02*
X107521428Y-117849819D01*
X107521428Y-117849819D02*
X107283333Y-117849819D01*
X107283333Y-117849819D02*
X107188095Y-117802200D01*
X107188095Y-117802200D02*
X107140476Y-117754580D01*
X136473142Y-79703819D02*
X136139809Y-79227628D01*
X135901714Y-79703819D02*
X135901714Y-78703819D01*
X135901714Y-78703819D02*
X136282666Y-78703819D01*
X136282666Y-78703819D02*
X136377904Y-78751438D01*
X136377904Y-78751438D02*
X136425523Y-78799057D01*
X136425523Y-78799057D02*
X136473142Y-78894295D01*
X136473142Y-78894295D02*
X136473142Y-79037152D01*
X136473142Y-79037152D02*
X136425523Y-79132390D01*
X136425523Y-79132390D02*
X136377904Y-79180009D01*
X136377904Y-79180009D02*
X136282666Y-79227628D01*
X136282666Y-79227628D02*
X135901714Y-79227628D01*
X137425523Y-79703819D02*
X136854095Y-79703819D01*
X137139809Y-79703819D02*
X137139809Y-78703819D01*
X137139809Y-78703819D02*
X137044571Y-78846676D01*
X137044571Y-78846676D02*
X136949333Y-78941914D01*
X136949333Y-78941914D02*
X136854095Y-78989533D01*
X137996952Y-79132390D02*
X137901714Y-79084771D01*
X137901714Y-79084771D02*
X137854095Y-79037152D01*
X137854095Y-79037152D02*
X137806476Y-78941914D01*
X137806476Y-78941914D02*
X137806476Y-78894295D01*
X137806476Y-78894295D02*
X137854095Y-78799057D01*
X137854095Y-78799057D02*
X137901714Y-78751438D01*
X137901714Y-78751438D02*
X137996952Y-78703819D01*
X137996952Y-78703819D02*
X138187428Y-78703819D01*
X138187428Y-78703819D02*
X138282666Y-78751438D01*
X138282666Y-78751438D02*
X138330285Y-78799057D01*
X138330285Y-78799057D02*
X138377904Y-78894295D01*
X138377904Y-78894295D02*
X138377904Y-78941914D01*
X138377904Y-78941914D02*
X138330285Y-79037152D01*
X138330285Y-79037152D02*
X138282666Y-79084771D01*
X138282666Y-79084771D02*
X138187428Y-79132390D01*
X138187428Y-79132390D02*
X137996952Y-79132390D01*
X137996952Y-79132390D02*
X137901714Y-79180009D01*
X137901714Y-79180009D02*
X137854095Y-79227628D01*
X137854095Y-79227628D02*
X137806476Y-79322866D01*
X137806476Y-79322866D02*
X137806476Y-79513342D01*
X137806476Y-79513342D02*
X137854095Y-79608580D01*
X137854095Y-79608580D02*
X137901714Y-79656200D01*
X137901714Y-79656200D02*
X137996952Y-79703819D01*
X137996952Y-79703819D02*
X138187428Y-79703819D01*
X138187428Y-79703819D02*
X138282666Y-79656200D01*
X138282666Y-79656200D02*
X138330285Y-79608580D01*
X138330285Y-79608580D02*
X138377904Y-79513342D01*
X138377904Y-79513342D02*
X138377904Y-79322866D01*
X138377904Y-79322866D02*
X138330285Y-79227628D01*
X138330285Y-79227628D02*
X138282666Y-79180009D01*
X138282666Y-79180009D02*
X138187428Y-79132390D01*
X125329142Y-80211819D02*
X124995809Y-79735628D01*
X124757714Y-80211819D02*
X124757714Y-79211819D01*
X124757714Y-79211819D02*
X125138666Y-79211819D01*
X125138666Y-79211819D02*
X125233904Y-79259438D01*
X125233904Y-79259438D02*
X125281523Y-79307057D01*
X125281523Y-79307057D02*
X125329142Y-79402295D01*
X125329142Y-79402295D02*
X125329142Y-79545152D01*
X125329142Y-79545152D02*
X125281523Y-79640390D01*
X125281523Y-79640390D02*
X125233904Y-79688009D01*
X125233904Y-79688009D02*
X125138666Y-79735628D01*
X125138666Y-79735628D02*
X124757714Y-79735628D01*
X126281523Y-80211819D02*
X125710095Y-80211819D01*
X125995809Y-80211819D02*
X125995809Y-79211819D01*
X125995809Y-79211819D02*
X125900571Y-79354676D01*
X125900571Y-79354676D02*
X125805333Y-79449914D01*
X125805333Y-79449914D02*
X125710095Y-79497533D01*
X126614857Y-79211819D02*
X127233904Y-79211819D01*
X127233904Y-79211819D02*
X126900571Y-79592771D01*
X126900571Y-79592771D02*
X127043428Y-79592771D01*
X127043428Y-79592771D02*
X127138666Y-79640390D01*
X127138666Y-79640390D02*
X127186285Y-79688009D01*
X127186285Y-79688009D02*
X127233904Y-79783247D01*
X127233904Y-79783247D02*
X127233904Y-80021342D01*
X127233904Y-80021342D02*
X127186285Y-80116580D01*
X127186285Y-80116580D02*
X127138666Y-80164200D01*
X127138666Y-80164200D02*
X127043428Y-80211819D01*
X127043428Y-80211819D02*
X126757714Y-80211819D01*
X126757714Y-80211819D02*
X126662476Y-80164200D01*
X126662476Y-80164200D02*
X126614857Y-80116580D01*
X129736642Y-80086580D02*
X129689023Y-80134200D01*
X129689023Y-80134200D02*
X129546166Y-80181819D01*
X129546166Y-80181819D02*
X129450928Y-80181819D01*
X129450928Y-80181819D02*
X129308071Y-80134200D01*
X129308071Y-80134200D02*
X129212833Y-80038961D01*
X129212833Y-80038961D02*
X129165214Y-79943723D01*
X129165214Y-79943723D02*
X129117595Y-79753247D01*
X129117595Y-79753247D02*
X129117595Y-79610390D01*
X129117595Y-79610390D02*
X129165214Y-79419914D01*
X129165214Y-79419914D02*
X129212833Y-79324676D01*
X129212833Y-79324676D02*
X129308071Y-79229438D01*
X129308071Y-79229438D02*
X129450928Y-79181819D01*
X129450928Y-79181819D02*
X129546166Y-79181819D01*
X129546166Y-79181819D02*
X129689023Y-79229438D01*
X129689023Y-79229438D02*
X129736642Y-79277057D01*
X130689023Y-80181819D02*
X130117595Y-80181819D01*
X130403309Y-80181819D02*
X130403309Y-79181819D01*
X130403309Y-79181819D02*
X130308071Y-79324676D01*
X130308071Y-79324676D02*
X130212833Y-79419914D01*
X130212833Y-79419914D02*
X130117595Y-79467533D01*
X131260452Y-79610390D02*
X131165214Y-79562771D01*
X131165214Y-79562771D02*
X131117595Y-79515152D01*
X131117595Y-79515152D02*
X131069976Y-79419914D01*
X131069976Y-79419914D02*
X131069976Y-79372295D01*
X131069976Y-79372295D02*
X131117595Y-79277057D01*
X131117595Y-79277057D02*
X131165214Y-79229438D01*
X131165214Y-79229438D02*
X131260452Y-79181819D01*
X131260452Y-79181819D02*
X131450928Y-79181819D01*
X131450928Y-79181819D02*
X131546166Y-79229438D01*
X131546166Y-79229438D02*
X131593785Y-79277057D01*
X131593785Y-79277057D02*
X131641404Y-79372295D01*
X131641404Y-79372295D02*
X131641404Y-79419914D01*
X131641404Y-79419914D02*
X131593785Y-79515152D01*
X131593785Y-79515152D02*
X131546166Y-79562771D01*
X131546166Y-79562771D02*
X131450928Y-79610390D01*
X131450928Y-79610390D02*
X131260452Y-79610390D01*
X131260452Y-79610390D02*
X131165214Y-79658009D01*
X131165214Y-79658009D02*
X131117595Y-79705628D01*
X131117595Y-79705628D02*
X131069976Y-79800866D01*
X131069976Y-79800866D02*
X131069976Y-79991342D01*
X131069976Y-79991342D02*
X131117595Y-80086580D01*
X131117595Y-80086580D02*
X131165214Y-80134200D01*
X131165214Y-80134200D02*
X131260452Y-80181819D01*
X131260452Y-80181819D02*
X131450928Y-80181819D01*
X131450928Y-80181819D02*
X131546166Y-80134200D01*
X131546166Y-80134200D02*
X131593785Y-80086580D01*
X131593785Y-80086580D02*
X131641404Y-79991342D01*
X131641404Y-79991342D02*
X131641404Y-79800866D01*
X131641404Y-79800866D02*
X131593785Y-79705628D01*
X131593785Y-79705628D02*
X131546166Y-79658009D01*
X131546166Y-79658009D02*
X131450928Y-79610390D01*
X132818333Y-113610819D02*
X132485000Y-113134628D01*
X132246905Y-113610819D02*
X132246905Y-112610819D01*
X132246905Y-112610819D02*
X132627857Y-112610819D01*
X132627857Y-112610819D02*
X132723095Y-112658438D01*
X132723095Y-112658438D02*
X132770714Y-112706057D01*
X132770714Y-112706057D02*
X132818333Y-112801295D01*
X132818333Y-112801295D02*
X132818333Y-112944152D01*
X132818333Y-112944152D02*
X132770714Y-113039390D01*
X132770714Y-113039390D02*
X132723095Y-113087009D01*
X132723095Y-113087009D02*
X132627857Y-113134628D01*
X132627857Y-113134628D02*
X132246905Y-113134628D01*
X133294524Y-113610819D02*
X133485000Y-113610819D01*
X133485000Y-113610819D02*
X133580238Y-113563200D01*
X133580238Y-113563200D02*
X133627857Y-113515580D01*
X133627857Y-113515580D02*
X133723095Y-113372723D01*
X133723095Y-113372723D02*
X133770714Y-113182247D01*
X133770714Y-113182247D02*
X133770714Y-112801295D01*
X133770714Y-112801295D02*
X133723095Y-112706057D01*
X133723095Y-112706057D02*
X133675476Y-112658438D01*
X133675476Y-112658438D02*
X133580238Y-112610819D01*
X133580238Y-112610819D02*
X133389762Y-112610819D01*
X133389762Y-112610819D02*
X133294524Y-112658438D01*
X133294524Y-112658438D02*
X133246905Y-112706057D01*
X133246905Y-112706057D02*
X133199286Y-112801295D01*
X133199286Y-112801295D02*
X133199286Y-113039390D01*
X133199286Y-113039390D02*
X133246905Y-113134628D01*
X133246905Y-113134628D02*
X133294524Y-113182247D01*
X133294524Y-113182247D02*
X133389762Y-113229866D01*
X133389762Y-113229866D02*
X133580238Y-113229866D01*
X133580238Y-113229866D02*
X133675476Y-113182247D01*
X133675476Y-113182247D02*
X133723095Y-113134628D01*
X133723095Y-113134628D02*
X133770714Y-113039390D01*
X109421819Y-98337666D02*
X109421819Y-98813856D01*
X109421819Y-98813856D02*
X108421819Y-98813856D01*
X109421819Y-97480523D02*
X109421819Y-98051951D01*
X109421819Y-97766237D02*
X108421819Y-97766237D01*
X108421819Y-97766237D02*
X108564676Y-97861475D01*
X108564676Y-97861475D02*
X108659914Y-97956713D01*
X108659914Y-97956713D02*
X108707533Y-98051951D01*
X125667142Y-112844819D02*
X125333809Y-112368628D01*
X125095714Y-112844819D02*
X125095714Y-111844819D01*
X125095714Y-111844819D02*
X125476666Y-111844819D01*
X125476666Y-111844819D02*
X125571904Y-111892438D01*
X125571904Y-111892438D02*
X125619523Y-111940057D01*
X125619523Y-111940057D02*
X125667142Y-112035295D01*
X125667142Y-112035295D02*
X125667142Y-112178152D01*
X125667142Y-112178152D02*
X125619523Y-112273390D01*
X125619523Y-112273390D02*
X125571904Y-112321009D01*
X125571904Y-112321009D02*
X125476666Y-112368628D01*
X125476666Y-112368628D02*
X125095714Y-112368628D01*
X126048095Y-111940057D02*
X126095714Y-111892438D01*
X126095714Y-111892438D02*
X126190952Y-111844819D01*
X126190952Y-111844819D02*
X126429047Y-111844819D01*
X126429047Y-111844819D02*
X126524285Y-111892438D01*
X126524285Y-111892438D02*
X126571904Y-111940057D01*
X126571904Y-111940057D02*
X126619523Y-112035295D01*
X126619523Y-112035295D02*
X126619523Y-112130533D01*
X126619523Y-112130533D02*
X126571904Y-112273390D01*
X126571904Y-112273390D02*
X126000476Y-112844819D01*
X126000476Y-112844819D02*
X126619523Y-112844819D01*
X127000476Y-111940057D02*
X127048095Y-111892438D01*
X127048095Y-111892438D02*
X127143333Y-111844819D01*
X127143333Y-111844819D02*
X127381428Y-111844819D01*
X127381428Y-111844819D02*
X127476666Y-111892438D01*
X127476666Y-111892438D02*
X127524285Y-111940057D01*
X127524285Y-111940057D02*
X127571904Y-112035295D01*
X127571904Y-112035295D02*
X127571904Y-112130533D01*
X127571904Y-112130533D02*
X127524285Y-112273390D01*
X127524285Y-112273390D02*
X126952857Y-112844819D01*
X126952857Y-112844819D02*
X127571904Y-112844819D01*
X112622580Y-89574666D02*
X112670200Y-89622285D01*
X112670200Y-89622285D02*
X112717819Y-89765142D01*
X112717819Y-89765142D02*
X112717819Y-89860380D01*
X112717819Y-89860380D02*
X112670200Y-90003237D01*
X112670200Y-90003237D02*
X112574961Y-90098475D01*
X112574961Y-90098475D02*
X112479723Y-90146094D01*
X112479723Y-90146094D02*
X112289247Y-90193713D01*
X112289247Y-90193713D02*
X112146390Y-90193713D01*
X112146390Y-90193713D02*
X111955914Y-90146094D01*
X111955914Y-90146094D02*
X111860676Y-90098475D01*
X111860676Y-90098475D02*
X111765438Y-90003237D01*
X111765438Y-90003237D02*
X111717819Y-89860380D01*
X111717819Y-89860380D02*
X111717819Y-89765142D01*
X111717819Y-89765142D02*
X111765438Y-89622285D01*
X111765438Y-89622285D02*
X111813057Y-89574666D01*
X111717819Y-89241332D02*
X111717819Y-88622285D01*
X111717819Y-88622285D02*
X112098771Y-88955618D01*
X112098771Y-88955618D02*
X112098771Y-88812761D01*
X112098771Y-88812761D02*
X112146390Y-88717523D01*
X112146390Y-88717523D02*
X112194009Y-88669904D01*
X112194009Y-88669904D02*
X112289247Y-88622285D01*
X112289247Y-88622285D02*
X112527342Y-88622285D01*
X112527342Y-88622285D02*
X112622580Y-88669904D01*
X112622580Y-88669904D02*
X112670200Y-88717523D01*
X112670200Y-88717523D02*
X112717819Y-88812761D01*
X112717819Y-88812761D02*
X112717819Y-89098475D01*
X112717819Y-89098475D02*
X112670200Y-89193713D01*
X112670200Y-89193713D02*
X112622580Y-89241332D01*
D12*
X143190237Y-113864318D02*
X143190237Y-112594318D01*
X144520714Y-113743365D02*
X144460238Y-113803842D01*
X144460238Y-113803842D02*
X144278809Y-113864318D01*
X144278809Y-113864318D02*
X144157857Y-113864318D01*
X144157857Y-113864318D02*
X143976428Y-113803842D01*
X143976428Y-113803842D02*
X143855476Y-113682889D01*
X143855476Y-113682889D02*
X143794999Y-113561937D01*
X143794999Y-113561937D02*
X143734523Y-113320032D01*
X143734523Y-113320032D02*
X143734523Y-113138603D01*
X143734523Y-113138603D02*
X143794999Y-112896699D01*
X143794999Y-112896699D02*
X143855476Y-112775746D01*
X143855476Y-112775746D02*
X143976428Y-112654794D01*
X143976428Y-112654794D02*
X144157857Y-112594318D01*
X144157857Y-112594318D02*
X144278809Y-112594318D01*
X144278809Y-112594318D02*
X144460238Y-112654794D01*
X144460238Y-112654794D02*
X144520714Y-112715270D01*
X145669761Y-112594318D02*
X145064999Y-112594318D01*
X145064999Y-112594318D02*
X145004523Y-113199080D01*
X145004523Y-113199080D02*
X145064999Y-113138603D01*
X145064999Y-113138603D02*
X145185952Y-113078127D01*
X145185952Y-113078127D02*
X145488333Y-113078127D01*
X145488333Y-113078127D02*
X145609285Y-113138603D01*
X145609285Y-113138603D02*
X145669761Y-113199080D01*
X145669761Y-113199080D02*
X145730238Y-113320032D01*
X145730238Y-113320032D02*
X145730238Y-113622413D01*
X145730238Y-113622413D02*
X145669761Y-113743365D01*
X145669761Y-113743365D02*
X145609285Y-113803842D01*
X145609285Y-113803842D02*
X145488333Y-113864318D01*
X145488333Y-113864318D02*
X145185952Y-113864318D01*
X145185952Y-113864318D02*
X145064999Y-113803842D01*
X145064999Y-113803842D02*
X145004523Y-113743365D01*
D10*
X150233142Y-79449819D02*
X149899809Y-78973628D01*
X149661714Y-79449819D02*
X149661714Y-78449819D01*
X149661714Y-78449819D02*
X150042666Y-78449819D01*
X150042666Y-78449819D02*
X150137904Y-78497438D01*
X150137904Y-78497438D02*
X150185523Y-78545057D01*
X150185523Y-78545057D02*
X150233142Y-78640295D01*
X150233142Y-78640295D02*
X150233142Y-78783152D01*
X150233142Y-78783152D02*
X150185523Y-78878390D01*
X150185523Y-78878390D02*
X150137904Y-78926009D01*
X150137904Y-78926009D02*
X150042666Y-78973628D01*
X150042666Y-78973628D02*
X149661714Y-78973628D01*
X151185523Y-79449819D02*
X150614095Y-79449819D01*
X150899809Y-79449819D02*
X150899809Y-78449819D01*
X150899809Y-78449819D02*
X150804571Y-78592676D01*
X150804571Y-78592676D02*
X150709333Y-78687914D01*
X150709333Y-78687914D02*
X150614095Y-78735533D01*
X152042666Y-78783152D02*
X152042666Y-79449819D01*
X151804571Y-78402200D02*
X151566476Y-79116485D01*
X151566476Y-79116485D02*
X152185523Y-79116485D01*
X165189142Y-79830819D02*
X164855809Y-79354628D01*
X164617714Y-79830819D02*
X164617714Y-78830819D01*
X164617714Y-78830819D02*
X164998666Y-78830819D01*
X164998666Y-78830819D02*
X165093904Y-78878438D01*
X165093904Y-78878438D02*
X165141523Y-78926057D01*
X165141523Y-78926057D02*
X165189142Y-79021295D01*
X165189142Y-79021295D02*
X165189142Y-79164152D01*
X165189142Y-79164152D02*
X165141523Y-79259390D01*
X165141523Y-79259390D02*
X165093904Y-79307009D01*
X165093904Y-79307009D02*
X164998666Y-79354628D01*
X164998666Y-79354628D02*
X164617714Y-79354628D01*
X166141523Y-79830819D02*
X165570095Y-79830819D01*
X165855809Y-79830819D02*
X165855809Y-78830819D01*
X165855809Y-78830819D02*
X165760571Y-78973676D01*
X165760571Y-78973676D02*
X165665333Y-79068914D01*
X165665333Y-79068914D02*
X165570095Y-79116533D01*
X166998666Y-78830819D02*
X166808190Y-78830819D01*
X166808190Y-78830819D02*
X166712952Y-78878438D01*
X166712952Y-78878438D02*
X166665333Y-78926057D01*
X166665333Y-78926057D02*
X166570095Y-79068914D01*
X166570095Y-79068914D02*
X166522476Y-79259390D01*
X166522476Y-79259390D02*
X166522476Y-79640342D01*
X166522476Y-79640342D02*
X166570095Y-79735580D01*
X166570095Y-79735580D02*
X166617714Y-79783200D01*
X166617714Y-79783200D02*
X166712952Y-79830819D01*
X166712952Y-79830819D02*
X166903428Y-79830819D01*
X166903428Y-79830819D02*
X166998666Y-79783200D01*
X166998666Y-79783200D02*
X167046285Y-79735580D01*
X167046285Y-79735580D02*
X167093904Y-79640342D01*
X167093904Y-79640342D02*
X167093904Y-79402247D01*
X167093904Y-79402247D02*
X167046285Y-79307009D01*
X167046285Y-79307009D02*
X166998666Y-79259390D01*
X166998666Y-79259390D02*
X166903428Y-79211771D01*
X166903428Y-79211771D02*
X166712952Y-79211771D01*
X166712952Y-79211771D02*
X166617714Y-79259390D01*
X166617714Y-79259390D02*
X166570095Y-79307009D01*
X166570095Y-79307009D02*
X166522476Y-79402247D01*
X121134333Y-85799819D02*
X120801000Y-85323628D01*
X120562905Y-85799819D02*
X120562905Y-84799819D01*
X120562905Y-84799819D02*
X120943857Y-84799819D01*
X120943857Y-84799819D02*
X121039095Y-84847438D01*
X121039095Y-84847438D02*
X121086714Y-84895057D01*
X121086714Y-84895057D02*
X121134333Y-84990295D01*
X121134333Y-84990295D02*
X121134333Y-85133152D01*
X121134333Y-85133152D02*
X121086714Y-85228390D01*
X121086714Y-85228390D02*
X121039095Y-85276009D01*
X121039095Y-85276009D02*
X120943857Y-85323628D01*
X120943857Y-85323628D02*
X120562905Y-85323628D01*
X121515286Y-84895057D02*
X121562905Y-84847438D01*
X121562905Y-84847438D02*
X121658143Y-84799819D01*
X121658143Y-84799819D02*
X121896238Y-84799819D01*
X121896238Y-84799819D02*
X121991476Y-84847438D01*
X121991476Y-84847438D02*
X122039095Y-84895057D01*
X122039095Y-84895057D02*
X122086714Y-84990295D01*
X122086714Y-84990295D02*
X122086714Y-85085533D01*
X122086714Y-85085533D02*
X122039095Y-85228390D01*
X122039095Y-85228390D02*
X121467667Y-85799819D01*
X121467667Y-85799819D02*
X122086714Y-85799819D01*
X166489580Y-120880357D02*
X166537200Y-120927976D01*
X166537200Y-120927976D02*
X166584819Y-121070833D01*
X166584819Y-121070833D02*
X166584819Y-121166071D01*
X166584819Y-121166071D02*
X166537200Y-121308928D01*
X166537200Y-121308928D02*
X166441961Y-121404166D01*
X166441961Y-121404166D02*
X166346723Y-121451785D01*
X166346723Y-121451785D02*
X166156247Y-121499404D01*
X166156247Y-121499404D02*
X166013390Y-121499404D01*
X166013390Y-121499404D02*
X165822914Y-121451785D01*
X165822914Y-121451785D02*
X165727676Y-121404166D01*
X165727676Y-121404166D02*
X165632438Y-121308928D01*
X165632438Y-121308928D02*
X165584819Y-121166071D01*
X165584819Y-121166071D02*
X165584819Y-121070833D01*
X165584819Y-121070833D02*
X165632438Y-120927976D01*
X165632438Y-120927976D02*
X165680057Y-120880357D01*
X166584819Y-119927976D02*
X166584819Y-120499404D01*
X166584819Y-120213690D02*
X165584819Y-120213690D01*
X165584819Y-120213690D02*
X165727676Y-120308928D01*
X165727676Y-120308928D02*
X165822914Y-120404166D01*
X165822914Y-120404166D02*
X165870533Y-120499404D01*
X165918152Y-119070833D02*
X166584819Y-119070833D01*
X165537200Y-119308928D02*
X166251485Y-119547023D01*
X166251485Y-119547023D02*
X166251485Y-118927976D01*
X161142442Y-101412660D02*
X161590103Y-101412660D01*
X160650016Y-101726022D02*
X161142442Y-101412660D01*
X161142442Y-101412660D02*
X160650016Y-101099298D01*
X161590103Y-100293509D02*
X161590103Y-100830701D01*
X161590103Y-100562105D02*
X160650016Y-100562105D01*
X160650016Y-100562105D02*
X160784314Y-100651637D01*
X160784314Y-100651637D02*
X160873846Y-100741169D01*
X160873846Y-100741169D02*
X160918612Y-100830701D01*
X129423333Y-99094819D02*
X129090000Y-98618628D01*
X128851905Y-99094819D02*
X128851905Y-98094819D01*
X128851905Y-98094819D02*
X129232857Y-98094819D01*
X129232857Y-98094819D02*
X129328095Y-98142438D01*
X129328095Y-98142438D02*
X129375714Y-98190057D01*
X129375714Y-98190057D02*
X129423333Y-98285295D01*
X129423333Y-98285295D02*
X129423333Y-98428152D01*
X129423333Y-98428152D02*
X129375714Y-98523390D01*
X129375714Y-98523390D02*
X129328095Y-98571009D01*
X129328095Y-98571009D02*
X129232857Y-98618628D01*
X129232857Y-98618628D02*
X128851905Y-98618628D01*
X129756667Y-98094819D02*
X130375714Y-98094819D01*
X130375714Y-98094819D02*
X130042381Y-98475771D01*
X130042381Y-98475771D02*
X130185238Y-98475771D01*
X130185238Y-98475771D02*
X130280476Y-98523390D01*
X130280476Y-98523390D02*
X130328095Y-98571009D01*
X130328095Y-98571009D02*
X130375714Y-98666247D01*
X130375714Y-98666247D02*
X130375714Y-98904342D01*
X130375714Y-98904342D02*
X130328095Y-98999580D01*
X130328095Y-98999580D02*
X130280476Y-99047200D01*
X130280476Y-99047200D02*
X130185238Y-99094819D01*
X130185238Y-99094819D02*
X129899524Y-99094819D01*
X129899524Y-99094819D02*
X129804286Y-99047200D01*
X129804286Y-99047200D02*
X129756667Y-98999580D01*
X126645833Y-94804580D02*
X126598214Y-94852200D01*
X126598214Y-94852200D02*
X126455357Y-94899819D01*
X126455357Y-94899819D02*
X126360119Y-94899819D01*
X126360119Y-94899819D02*
X126217262Y-94852200D01*
X126217262Y-94852200D02*
X126122024Y-94756961D01*
X126122024Y-94756961D02*
X126074405Y-94661723D01*
X126074405Y-94661723D02*
X126026786Y-94471247D01*
X126026786Y-94471247D02*
X126026786Y-94328390D01*
X126026786Y-94328390D02*
X126074405Y-94137914D01*
X126074405Y-94137914D02*
X126122024Y-94042676D01*
X126122024Y-94042676D02*
X126217262Y-93947438D01*
X126217262Y-93947438D02*
X126360119Y-93899819D01*
X126360119Y-93899819D02*
X126455357Y-93899819D01*
X126455357Y-93899819D02*
X126598214Y-93947438D01*
X126598214Y-93947438D02*
X126645833Y-93995057D01*
X127550595Y-93899819D02*
X127074405Y-93899819D01*
X127074405Y-93899819D02*
X127026786Y-94376009D01*
X127026786Y-94376009D02*
X127074405Y-94328390D01*
X127074405Y-94328390D02*
X127169643Y-94280771D01*
X127169643Y-94280771D02*
X127407738Y-94280771D01*
X127407738Y-94280771D02*
X127502976Y-94328390D01*
X127502976Y-94328390D02*
X127550595Y-94376009D01*
X127550595Y-94376009D02*
X127598214Y-94471247D01*
X127598214Y-94471247D02*
X127598214Y-94709342D01*
X127598214Y-94709342D02*
X127550595Y-94804580D01*
X127550595Y-94804580D02*
X127502976Y-94852200D01*
X127502976Y-94852200D02*
X127407738Y-94899819D01*
X127407738Y-94899819D02*
X127169643Y-94899819D01*
X127169643Y-94899819D02*
X127074405Y-94852200D01*
X127074405Y-94852200D02*
X127026786Y-94804580D01*
D13*
%TO.C,F2*%
X132069252Y-124011000D02*
X129296748Y-124011000D01*
X132069252Y-120591000D02*
X129296748Y-120591000D01*
%TO.C,F1*%
X103113252Y-93277000D02*
X100340748Y-93277000D01*
X103113252Y-89857000D02*
X100340748Y-89857000D01*
%TO.C,J16*%
X159500000Y-83790000D02*
X160830000Y-83790000D01*
X159500000Y-85120000D02*
X159500000Y-83790000D01*
X159500000Y-86390000D02*
X159500000Y-88990000D01*
X159500000Y-86390000D02*
X162160000Y-86390000D01*
X159500000Y-88990000D02*
X162160000Y-88990000D01*
X162160000Y-86390000D02*
X162160000Y-88990000D01*
%TO.C,C21*%
X145358248Y-80164000D02*
X145880752Y-80164000D01*
X145358248Y-81634000D02*
X145880752Y-81634000D01*
%TO.C,J11*%
X141105000Y-120995000D02*
X141105000Y-123655000D01*
X143705000Y-120995000D02*
X141105000Y-120995000D01*
X143705000Y-120995000D02*
X143705000Y-123655000D01*
X143705000Y-123655000D02*
X141105000Y-123655000D01*
X144975000Y-120995000D02*
X146305000Y-120995000D01*
X146305000Y-120995000D02*
X146305000Y-122325000D01*
%TO.C,C1*%
X109891000Y-94008752D02*
X109891000Y-93486248D01*
X111361000Y-94008752D02*
X111361000Y-93486248D01*
%TO.C,R23*%
X127812936Y-116625000D02*
X128267064Y-116625000D01*
X127812936Y-118095000D02*
X128267064Y-118095000D01*
%TO.C,C12*%
X162899748Y-109247000D02*
X163422252Y-109247000D01*
X162899748Y-110717000D02*
X163422252Y-110717000D01*
%TO.C,R11*%
X108712936Y-79910000D02*
X109167064Y-79910000D01*
X108712936Y-81380000D02*
X109167064Y-81380000D01*
%TO.C,R17*%
X169700936Y-80291000D02*
X170155064Y-80291000D01*
X169700936Y-81761000D02*
X170155064Y-81761000D01*
%TO.C,C17*%
X113721248Y-79910000D02*
X114243752Y-79910000D01*
X113721248Y-81380000D02*
X114243752Y-81380000D01*
%TO.C,R12*%
X121426936Y-80672000D02*
X121881064Y-80672000D01*
X121426936Y-82142000D02*
X121881064Y-82142000D01*
%TO.C,J13*%
X129250000Y-89245000D02*
X129250000Y-91905000D01*
X139470000Y-89245000D02*
X129250000Y-89245000D01*
X139470000Y-89245000D02*
X139470000Y-91905000D01*
X139470000Y-91905000D02*
X129250000Y-91905000D01*
X140740000Y-89245000D02*
X142070000Y-89245000D01*
X142070000Y-89245000D02*
X142070000Y-90575000D01*
%TO.C,J14*%
X149755000Y-111555000D02*
X149755000Y-110225000D01*
X151085000Y-111555000D02*
X149755000Y-111555000D01*
X152355000Y-108895000D02*
X154955000Y-108895000D01*
X152355000Y-111555000D02*
X152355000Y-108895000D01*
X152355000Y-111555000D02*
X154955000Y-111555000D01*
X154955000Y-111555000D02*
X154955000Y-108895000D01*
%TO.C,J1*%
X163280000Y-83760000D02*
X163280000Y-88960000D01*
X173500000Y-83760000D02*
X163280000Y-83760000D01*
X173500000Y-83760000D02*
X173500000Y-86360000D01*
X173500000Y-86360000D02*
X176100000Y-86360000D01*
X174770000Y-83760000D02*
X176100000Y-83760000D01*
X176100000Y-83760000D02*
X176100000Y-85090000D01*
X176100000Y-86360000D02*
X176100000Y-88960000D01*
X176100000Y-88960000D02*
X163280000Y-88960000D01*
D12*
%TO.C,AC1*%
X139498000Y-101470000D02*
G75*
G02*
X139474000Y-101470000I-12000J0D01*
G01*
X139474000Y-101470000D02*
G75*
G02*
X139498000Y-101470000I12000J0D01*
G01*
D14*
%TO.C,IC3*%
X159320000Y-114848000D02*
X160720000Y-114848000D01*
X161070000Y-114848000D02*
X163370000Y-114848000D01*
X161070000Y-117848000D02*
X161070000Y-114848000D01*
X163370000Y-114848000D02*
X163370000Y-117848000D01*
X163370000Y-117848000D02*
X161070000Y-117848000D01*
%TO.C,IC4*%
X106419000Y-113322000D02*
X108719000Y-113322000D01*
X106419000Y-116322000D02*
X106419000Y-113322000D01*
X108719000Y-113322000D02*
X108719000Y-116322000D01*
X108719000Y-116322000D02*
X106419000Y-116322000D01*
X110469000Y-116322000D02*
X109069000Y-116322000D01*
D13*
%TO.C,R1*%
X117009936Y-86260000D02*
X117464064Y-86260000D01*
X117009936Y-87730000D02*
X117464064Y-87730000D01*
%TO.C,C20*%
X173841748Y-80291000D02*
X174364252Y-80291000D01*
X173841748Y-81761000D02*
X174364252Y-81761000D01*
%TO.C,C19*%
X159102248Y-79910000D02*
X159624752Y-79910000D01*
X159102248Y-81380000D02*
X159624752Y-81380000D01*
%TO.C,C8*%
X137501248Y-96065000D02*
X138023752Y-96065000D01*
X137501248Y-97535000D02*
X138023752Y-97535000D01*
%TO.C,R6*%
X137615000Y-105827064D02*
X137615000Y-105372936D01*
X139085000Y-105827064D02*
X139085000Y-105372936D01*
%TO.C,R15*%
X154855936Y-79910000D02*
X155310064Y-79910000D01*
X154855936Y-81380000D02*
X155310064Y-81380000D01*
D14*
%TO.C,IC2*%
X114385000Y-99285000D02*
X114385000Y-97835000D01*
D13*
%TO.C,J15*%
X141720000Y-96345000D02*
X143050000Y-96345000D01*
X141720000Y-97675000D02*
X141720000Y-96345000D01*
X141720000Y-98945000D02*
X141720000Y-99005000D01*
X141720000Y-98945000D02*
X144380000Y-98945000D01*
X141720000Y-99005000D02*
X144380000Y-99005000D01*
X144380000Y-98945000D02*
X144380000Y-99005000D01*
%TO.C,R7*%
X142077064Y-100415000D02*
X141622936Y-100415000D01*
X142077064Y-101885000D02*
X141622936Y-101885000D01*
%TO.C,C13*%
X110526248Y-117115000D02*
X111048752Y-117115000D01*
X110526248Y-118585000D02*
X111048752Y-118585000D01*
%TO.C,C16*%
X145781752Y-108231000D02*
X145259248Y-108231000D01*
X145781752Y-109701000D02*
X145259248Y-109701000D01*
%TO.C,J9*%
X97653000Y-97032000D02*
X97653000Y-103152000D01*
X97653000Y-99592000D02*
X102013000Y-99592000D01*
X97653000Y-103152000D02*
X105473000Y-103152000D01*
X99913000Y-97792000D02*
X99913000Y-98792000D01*
X99913000Y-98292000D02*
X97653000Y-98292000D01*
X99913000Y-98792000D02*
X97653000Y-98792000D01*
X99913000Y-98792000D02*
X101513000Y-98792000D01*
X99913000Y-101392000D02*
X101513000Y-101392000D01*
X99913000Y-102392000D02*
X99913000Y-101392000D01*
X101513000Y-97792000D02*
X99913000Y-97792000D01*
X101513000Y-98792000D02*
X101513000Y-97792000D01*
X101513000Y-101392000D02*
X101513000Y-102392000D01*
X101513000Y-102392000D02*
X99913000Y-102392000D01*
X102013000Y-99592000D02*
X102013000Y-100592000D01*
X102013000Y-100592000D02*
X97653000Y-100592000D01*
X103873000Y-97032000D02*
X103873000Y-97952000D01*
X103873000Y-97952000D02*
X105473000Y-97952000D01*
X103873000Y-98232000D02*
X103873000Y-97952000D01*
X103873000Y-98232000D02*
X105088000Y-98232000D01*
X103873000Y-102232000D02*
X103873000Y-101952000D01*
X103873000Y-103152000D02*
X103873000Y-102232000D01*
X105473000Y-97032000D02*
X97653000Y-97032000D01*
X105473000Y-97952000D02*
X105473000Y-97032000D01*
X105473000Y-102232000D02*
X103873000Y-102232000D01*
X105473000Y-103152000D02*
X105473000Y-102232000D01*
%TO.C,C4*%
X119665000Y-101313748D02*
X119665000Y-101836252D01*
X121135000Y-101313748D02*
X121135000Y-101836252D01*
%TO.C,C2*%
X113636248Y-101373000D02*
X114158752Y-101373000D01*
X113636248Y-102843000D02*
X114158752Y-102843000D01*
%TO.C,R19*%
X141111936Y-80164000D02*
X141566064Y-80164000D01*
X141111936Y-81634000D02*
X141566064Y-81634000D01*
%TO.C,R4*%
X127677936Y-102516000D02*
X128132064Y-102516000D01*
X127677936Y-103986000D02*
X128132064Y-103986000D01*
%TO.C,J12*%
X147905000Y-91505000D02*
X147905000Y-90175000D01*
X149235000Y-91505000D02*
X147905000Y-91505000D01*
X150505000Y-88845000D02*
X153105000Y-88845000D01*
X150505000Y-91505000D02*
X150505000Y-88845000D01*
X150505000Y-91505000D02*
X153105000Y-91505000D01*
X153105000Y-91505000D02*
X153105000Y-88845000D01*
D14*
%TO.C,IC1*%
X165969000Y-95285000D02*
X180269000Y-95285000D01*
X165969000Y-104585000D02*
X165969000Y-95285000D01*
D15*
X176369000Y-94685000D02*
X176369000Y-94685000D01*
X176369000Y-94785000D02*
X176369000Y-94785000D01*
D14*
X180269000Y-95285000D02*
X180269000Y-104585000D01*
X180269000Y-104585000D02*
X165969000Y-104585000D01*
D15*
X176369000Y-94685000D02*
G75*
G02*
X176369000Y-94785000I0J-50000D01*
G01*
X176369000Y-94785000D02*
G75*
G02*
X176369000Y-94685000I0J50000D01*
G01*
D13*
%TO.C,J10*%
X118922000Y-123317000D02*
X118922000Y-118177000D01*
X121582000Y-118177000D02*
X118922000Y-118177000D01*
X121582000Y-123317000D02*
X118922000Y-123317000D01*
X121582000Y-123317000D02*
X121582000Y-118177000D01*
X121582000Y-124587000D02*
X121582000Y-125917000D01*
X121582000Y-125917000D02*
X120252000Y-125917000D01*
%TO.C,C7*%
X134009752Y-100864000D02*
X133487248Y-100864000D01*
X134009752Y-102334000D02*
X133487248Y-102334000D01*
%TO.C,R10*%
X103759936Y-79910000D02*
X104214064Y-79910000D01*
X103759936Y-81380000D02*
X104214064Y-81380000D01*
%TO.C,R5*%
X123090000Y-103478064D02*
X123090000Y-103023936D01*
X124560000Y-103478064D02*
X124560000Y-103023936D01*
%TO.C,C6*%
X112006000Y-105532437D02*
X112006000Y-108418000D01*
X112006000Y-105532437D02*
X113070437Y-104468000D01*
X112006000Y-113923563D02*
X112006000Y-111038000D01*
X112006000Y-113923563D02*
X113070437Y-114988000D01*
X113070437Y-104468000D02*
X122526000Y-104468000D01*
X113070437Y-114988000D02*
X122526000Y-114988000D01*
X122526000Y-104468000D02*
X122526000Y-108418000D01*
X122526000Y-114988000D02*
X122526000Y-111038000D01*
%TO.C,C15*%
X106188748Y-118340000D02*
X106711252Y-118340000D01*
X106188748Y-119810000D02*
X106711252Y-119810000D01*
%TO.C,R18*%
X136888936Y-80164000D02*
X137343064Y-80164000D01*
X136888936Y-81634000D02*
X137343064Y-81634000D01*
%TO.C,R13*%
X125744936Y-80672000D02*
X126199064Y-80672000D01*
X125744936Y-82142000D02*
X126199064Y-82142000D01*
%TO.C,C18*%
X130118248Y-80672000D02*
X130640752Y-80672000D01*
X130118248Y-82142000D02*
X130640752Y-82142000D01*
%TO.C,R9*%
X133212064Y-110771000D02*
X132757936Y-110771000D01*
X133212064Y-112241000D02*
X132757936Y-112241000D01*
%TO.C,L1*%
X109907000Y-98432252D02*
X109907000Y-97909748D01*
X111327000Y-98432252D02*
X111327000Y-97909748D01*
%TO.C,R22*%
X126082936Y-113305000D02*
X126537064Y-113305000D01*
X126082936Y-114775000D02*
X126537064Y-114775000D01*
%TO.C,C3*%
X109848000Y-89146748D02*
X109848000Y-89669252D01*
X111318000Y-89146748D02*
X111318000Y-89669252D01*
D14*
%TO.C,IC5*%
X135717000Y-108291000D02*
X137242000Y-108291000D01*
X137592000Y-108461000D02*
X140792000Y-108461000D01*
X137592000Y-118361000D02*
X137592000Y-108461000D01*
X140792000Y-108461000D02*
X140792000Y-118361000D01*
X140792000Y-118361000D02*
X137592000Y-118361000D01*
D13*
%TO.C,R14*%
X150648936Y-79910000D02*
X151103064Y-79910000D01*
X150648936Y-81380000D02*
X151103064Y-81380000D01*
%TO.C,R16*%
X165604936Y-80291000D02*
X166059064Y-80291000D01*
X165604936Y-81761000D02*
X166059064Y-81761000D01*
%TO.C,R2*%
X121073936Y-86260000D02*
X121528064Y-86260000D01*
X121073936Y-87730000D02*
X121528064Y-87730000D01*
%TO.C,C14*%
X163715000Y-119976248D02*
X163715000Y-120498752D01*
X165185000Y-119976248D02*
X165185000Y-120498752D01*
D16*
%TO.C,Y1*%
X162268000Y-100465000D02*
X162268000Y-101465000D01*
X163868000Y-100465000D02*
X163868000Y-101465000D01*
D13*
%TO.C,R3*%
X126500936Y-97944000D02*
X126955064Y-97944000D01*
X126500936Y-99414000D02*
X126955064Y-99414000D01*
%TO.C,C5*%
X126551248Y-95390000D02*
X127073752Y-95390000D01*
X126551248Y-96860000D02*
X127073752Y-96860000D01*
%TD*%
M02*
