%TF.GenerationSoftware,KiCad,Pcbnew,8.0.8*%
%TF.CreationDate,2026-04-07T23:23:40-05:00*%
%TF.ProjectId,glove_pcb,676c6f76-655f-4706-9362-2e6b69636164,rev?*%
%TF.SameCoordinates,Original*%
%TF.FileFunction,Copper,L2,Bot*%
%TF.FilePolarity,Positive*%
%FSLAX46Y46*%
G04 Gerber Fmt 4.6, Leading zero omitted, Abs format (unit mm)*
G04 Created by KiCad (PCBNEW 8.0.8) date 2026-04-07 23:23:40*
%MOMM*%
%LPD*%
G01*
G04 APERTURE LIST*
G04 Aperture macros list*
%AMRoundRect*
0 Rectangle with rounded corners*
0 $1 Rounding radius*
0 $2 $3 $4 $5 $6 $7 $8 $9 X,Y pos of 4 corners*
0 Add a 4 corners polygon primitive as box body*
4,1,4,$2,$3,$4,$5,$6,$7,$8,$9,$2,$3,0*
0 Add four circle primitives for the rounded corners*
1,1,$1+$1,$2,$3*
1,1,$1+$1,$4,$5*
1,1,$1+$1,$6,$7*
1,1,$1+$1,$8,$9*
0 Add four rect primitives between the rounded corners*
20,1,$1+$1,$2,$3,$4,$5,0*
20,1,$1+$1,$4,$5,$6,$7,0*
20,1,$1+$1,$6,$7,$8,$9,0*
20,1,$1+$1,$8,$9,$2,$3,0*%
G04 Aperture macros list end*
%TA.AperFunction,ComponentPad*%
%ADD10R,1.700000X1.700000*%
%TD*%
%TA.AperFunction,ComponentPad*%
%ADD11O,1.700000X1.700000*%
%TD*%
%TA.AperFunction,ComponentPad*%
%ADD12RoundRect,0.250001X-0.799999X-0.799999X0.799999X-0.799999X0.799999X0.799999X-0.799999X0.799999X0*%
%TD*%
%TA.AperFunction,ComponentPad*%
%ADD13C,2.100000*%
%TD*%
%TA.AperFunction,ComponentPad*%
%ADD14RoundRect,0.250001X-0.799999X0.799999X-0.799999X-0.799999X0.799999X-0.799999X0.799999X0.799999X0*%
%TD*%
%TA.AperFunction,ComponentPad*%
%ADD15RoundRect,0.250001X0.799999X-0.799999X0.799999X0.799999X-0.799999X0.799999X-0.799999X-0.799999X0*%
%TD*%
%TA.AperFunction,ComponentPad*%
%ADD16RoundRect,0.270833X-0.604167X0.379167X-0.604167X-0.379167X0.604167X-0.379167X0.604167X0.379167X0*%
%TD*%
%TA.AperFunction,ComponentPad*%
%ADD17O,1.750000X1.300000*%
%TD*%
%TA.AperFunction,SMDPad,CuDef*%
%ADD18RoundRect,0.250000X-0.337500X-0.475000X0.337500X-0.475000X0.337500X0.475000X-0.337500X0.475000X0*%
%TD*%
%TA.AperFunction,SMDPad,CuDef*%
%ADD19RoundRect,0.250000X-0.475000X0.337500X-0.475000X-0.337500X0.475000X-0.337500X0.475000X0.337500X0*%
%TD*%
%TA.AperFunction,SMDPad,CuDef*%
%ADD20RoundRect,0.250000X0.350000X0.450000X-0.350000X0.450000X-0.350000X-0.450000X0.350000X-0.450000X0*%
%TD*%
%TA.AperFunction,ViaPad*%
%ADD21C,0.600000*%
%TD*%
%TA.AperFunction,Conductor*%
%ADD22C,0.508000*%
%TD*%
%TA.AperFunction,Conductor*%
%ADD23C,0.254000*%
%TD*%
%TA.AperFunction,Conductor*%
%ADD24C,0.381000*%
%TD*%
G04 APERTURE END LIST*
D10*
%TO.P,J16,1,Pin_1*%
%TO.N,/UART_TX*%
X160830000Y-85120000D03*
D11*
%TO.P,J16,2,Pin_2*%
%TO.N,/UART_RX*%
X160830000Y-87660000D03*
%TD*%
D12*
%TO.P,J7,1,Pin_1*%
%TO.N,Net-(J7-Pin_1)*%
X166790000Y-75940000D03*
D13*
%TO.P,J7,2,Pin_2*%
%TO.N,GND*%
X171390000Y-75940000D03*
%TD*%
D10*
%TO.P,J11,1,Pin_1*%
%TO.N,GND*%
X144975000Y-122325000D03*
D11*
%TO.P,J11,2,Pin_2*%
%TO.N,/EXT_3V3*%
X142435000Y-122325000D03*
%TD*%
D14*
%TO.P,J2,1,Pin_1*%
%TO.N,Net-(IC3-OUT-)*%
X172725000Y-111000000D03*
D13*
%TO.P,J2,2,Pin_2*%
%TO.N,Net-(IC3-OUT+)*%
X172725000Y-115600000D03*
%TD*%
D12*
%TO.P,J4,1,Pin_1*%
%TO.N,Net-(J4-Pin_1)*%
X107640000Y-75692000D03*
D13*
%TO.P,J4,2,Pin_2*%
%TO.N,GND*%
X112240000Y-75692000D03*
%TD*%
D10*
%TO.P,J13,1,Pin_1*%
%TO.N,/FLEX5_ADC*%
X140740000Y-90575000D03*
D11*
%TO.P,J13,2,Pin_2*%
%TO.N,/FLEX4_ADC*%
X138200000Y-90575000D03*
%TO.P,J13,3,Pin_3*%
%TO.N,/FLEX3_ADC*%
X135660000Y-90575000D03*
%TO.P,J13,4,Pin_4*%
%TO.N,/FLEX2_ADC*%
X133120000Y-90575000D03*
%TO.P,J13,5,Pin_5*%
%TO.N,/FLEX1_ADC*%
X130580000Y-90575000D03*
%TD*%
D10*
%TO.P,J14,1,Pin_1*%
%TO.N,/HAPTIC_DRIVER2_EN*%
X151085000Y-110225000D03*
D11*
%TO.P,J14,2,Pin_2*%
%TO.N,/HAPTIC_DRIVER1_EN*%
X153625000Y-110225000D03*
%TD*%
D10*
%TO.P,J1,1,Pin_1*%
%TO.N,SYS_3V3*%
X174770000Y-85090000D03*
D11*
%TO.P,J1,2,Pin_2*%
%TO.N,/SWDIO*%
X174770000Y-87630000D03*
%TO.P,J1,3,Pin_3*%
%TO.N,GND*%
X172230000Y-85090000D03*
%TO.P,J1,4,Pin_4*%
%TO.N,/SWDCLK*%
X172230000Y-87630000D03*
%TO.P,J1,5,Pin_5*%
%TO.N,GND*%
X169690000Y-85090000D03*
%TO.P,J1,6,Pin_6*%
%TO.N,unconnected-(J1-Pin_6-Pad6)*%
X169690000Y-87630000D03*
%TO.P,J1,7,Pin_7*%
%TO.N,unconnected-(J1-Pin_7-Pad7)*%
X167150000Y-85090000D03*
%TO.P,J1,8,Pin_8*%
%TO.N,unconnected-(J1-Pin_8-Pad8)*%
X167150000Y-87630000D03*
%TO.P,J1,9,Pin_9*%
%TO.N,unconnected-(J1-Pin_9-Pad9)*%
X164610000Y-85090000D03*
%TO.P,J1,10,Pin_10*%
%TO.N,/RESET*%
X164610000Y-87630000D03*
%TD*%
D15*
%TO.P,J3,1,Pin_1*%
%TO.N,Net-(IC4-OUT-)*%
X99060000Y-117249000D03*
D13*
%TO.P,J3,2,Pin_2*%
%TO.N,Net-(IC4-OUT+)*%
X99060000Y-112649000D03*
%TD*%
D12*
%TO.P,J5,1,Pin_1*%
%TO.N,Net-(J5-Pin_1)*%
X122753000Y-75946000D03*
D13*
%TO.P,J5,2,Pin_2*%
%TO.N,GND*%
X127353000Y-75946000D03*
%TD*%
D12*
%TO.P,J6,1,Pin_1*%
%TO.N,Net-(J6-Pin_1)*%
X151870000Y-75910000D03*
D13*
%TO.P,J6,2,Pin_2*%
%TO.N,GND*%
X156470000Y-75910000D03*
%TD*%
D10*
%TO.P,J15,1,Pin_1*%
%TO.N,/IMU_INT1*%
X143050000Y-97675000D03*
%TD*%
D12*
%TO.P,J8,1,Pin_1*%
%TO.N,Net-(J8-Pin_1)*%
X138090000Y-75930000D03*
D13*
%TO.P,J8,2,Pin_2*%
%TO.N,GND*%
X142690000Y-75930000D03*
%TD*%
D16*
%TO.P,J9,1,Pin_1*%
%TO.N,+3.7V*%
X104013000Y-99092000D03*
D17*
%TO.P,J9,2,Pin_2*%
%TO.N,GND*%
X104013000Y-101092000D03*
%TD*%
D10*
%TO.P,J12,1,Pin_1*%
%TO.N,/I2C_SCL*%
X149235000Y-90175000D03*
D11*
%TO.P,J12,2,Pin_2*%
%TO.N,/I2C_SDA*%
X151775000Y-90175000D03*
%TD*%
D10*
%TO.P,J10,1,Pin_1*%
%TO.N,Net-(J10-Pin_1)*%
X120252000Y-124587000D03*
D11*
%TO.P,J10,2,Pin_2*%
%TO.N,SYS_3V3*%
X120252000Y-122047000D03*
%TO.P,J10,3,Pin_3*%
%TO.N,/BB_3V3*%
X120252000Y-119507000D03*
%TD*%
D18*
%TO.P,C10,1*%
%TO.N,SYS_3V3*%
X166568500Y-105918000D03*
%TO.P,C10,2*%
%TO.N,GND*%
X168643500Y-105918000D03*
%TD*%
D19*
%TO.P,C9,1*%
%TO.N,SYS_3V3*%
X164685000Y-101832500D03*
%TO.P,C9,2*%
%TO.N,GND*%
X164685000Y-103907500D03*
%TD*%
D20*
%TO.P,R20,1*%
%TO.N,SYS_3V3*%
X157540000Y-119260000D03*
%TO.P,R20,2*%
%TO.N,Net-(IC3-SCL)*%
X155540000Y-119260000D03*
%TD*%
%TO.P,R21,1*%
%TO.N,SYS_3V3*%
X159140000Y-113600000D03*
%TO.P,R21,2*%
%TO.N,Net-(IC3-SDA)*%
X157140000Y-113600000D03*
%TD*%
D21*
%TO.N,GND*%
X114670000Y-84970000D03*
X102310000Y-107360000D03*
X99470000Y-75510000D03*
X134010000Y-108360000D03*
X113375000Y-95425000D03*
X165760000Y-104693000D03*
X176110000Y-99770000D03*
X176140000Y-102240000D03*
X137544000Y-98725000D03*
X130640000Y-95220000D03*
X139700000Y-100800000D03*
X135610000Y-104360000D03*
X164080000Y-105420000D03*
X173280000Y-124090000D03*
X153030000Y-113090000D03*
X166050000Y-116221000D03*
X100150000Y-123550000D03*
X147650000Y-94950000D03*
X107370000Y-84840000D03*
X172860000Y-90880000D03*
X165360000Y-106330000D03*
X169680000Y-83620000D03*
X156837308Y-116548353D03*
X176310000Y-94530000D03*
X176230000Y-96930000D03*
X163890000Y-94970000D03*
X164540000Y-95820000D03*
X174630000Y-74570000D03*
X176140000Y-101040000D03*
X103000000Y-114850000D03*
X137175000Y-102950000D03*
X128410000Y-107560000D03*
X171410000Y-99650000D03*
X165400000Y-94970000D03*
X169820000Y-97710000D03*
X114320000Y-107490000D03*
X170080000Y-99720000D03*
X146970000Y-104660000D03*
X123660000Y-95600000D03*
X164040000Y-106250000D03*
X113570000Y-88760000D03*
X120450000Y-104600000D03*
X111425000Y-113575000D03*
X172230000Y-83590000D03*
%TO.N,SYS_3V3*%
X123990000Y-114030000D03*
X109775000Y-122047000D03*
X162803000Y-78997000D03*
X162803000Y-82702000D03*
X109775000Y-109500000D03*
X166675000Y-119175000D03*
X166568500Y-107396000D03*
X166568500Y-113199500D03*
X165640000Y-102910000D03*
X123970000Y-117350000D03*
%TO.N,/I2C_SCL*%
X152952000Y-99975000D03*
X169036006Y-100037689D03*
%TO.N,/I2C_SDA*%
X168682148Y-99320201D03*
X151775000Y-99160000D03*
%TO.N,/IMU_INT1*%
X168725000Y-101425000D03*
%TO.N,Net-(IC2-SW1_1)*%
X119475000Y-90725000D03*
X117485000Y-90625000D03*
%TO.N,Net-(IC2-SW2_1)*%
X117509500Y-100050000D03*
X118890500Y-100025000D03*
%TO.N,Net-(IC2-MPPC)*%
X124425000Y-99269500D03*
X122000000Y-100800000D03*
%TO.N,/FLEX1_ADC*%
X157623000Y-98550000D03*
X168960000Y-98570000D03*
%TO.N,/FLEX2_ADC*%
X158250000Y-107575000D03*
X173894000Y-105200000D03*
%TO.N,/FLEX3_ADC*%
X158998000Y-108650000D03*
X169020000Y-102185000D03*
%TO.N,/FLEX4_ADC*%
X174594000Y-109575000D03*
X159625000Y-109700000D03*
%TO.N,/UART_RX*%
X167525000Y-93675000D03*
X168294002Y-97800000D03*
%TO.N,/HAPTIC_DRIVER2_EN*%
X111025000Y-112625000D03*
X111550000Y-115949000D03*
%TO.N,Net-(IC3-SCL)*%
X134825000Y-116600000D03*
X156150000Y-116027000D03*
%TO.N,Net-(IC3-SDA)*%
X157517356Y-116127000D03*
X134675000Y-115300000D03*
%TO.N,/BB_3V3*%
X120250000Y-117250000D03*
X121053500Y-108049500D03*
%TD*%
D22*
%TO.N,GND*%
X165470500Y-104693000D02*
X164685000Y-103907500D01*
X165760000Y-104693000D02*
X165470500Y-104693000D01*
%TO.N,SYS_3V3*%
X163286000Y-103231500D02*
X163286000Y-106562318D01*
X164685000Y-101832500D02*
X164685000Y-101955000D01*
X123970000Y-117350000D02*
X123970000Y-114050000D01*
X163286000Y-106562318D02*
X164119682Y-107396000D01*
X121278000Y-121021000D02*
X123970000Y-121021000D01*
X167450000Y-114081000D02*
X167450000Y-115780000D01*
X164119682Y-107396000D02*
X166568500Y-107396000D01*
X167450000Y-115780000D02*
X167450000Y-118400000D01*
X167450000Y-118400000D02*
X166677000Y-119173000D01*
X166568500Y-113199500D02*
X167450000Y-114081000D01*
X164829000Y-121021000D02*
X166675000Y-119175000D01*
X164685000Y-101955000D02*
X165640000Y-102910000D01*
D23*
X159140000Y-113600000D02*
X159140000Y-117660000D01*
X166677000Y-119173000D02*
X166675000Y-119175000D01*
D22*
X109775000Y-122047000D02*
X109775000Y-109500000D01*
X123970000Y-121021000D02*
X123970000Y-117350000D01*
D23*
X166168000Y-113600000D02*
X166568500Y-113199500D01*
D22*
X164685000Y-101832500D02*
X163286000Y-103231500D01*
X166568500Y-107396000D02*
X166568500Y-105918000D01*
X123970000Y-114050000D02*
X123990000Y-114030000D01*
X123970000Y-121021000D02*
X164829000Y-121021000D01*
D23*
X159140000Y-113600000D02*
X166168000Y-113600000D01*
D22*
X120252000Y-122047000D02*
X121278000Y-121021000D01*
D23*
X159140000Y-117660000D02*
X157540000Y-119260000D01*
D22*
X162803000Y-78997000D02*
X162803000Y-82702000D01*
D23*
%TO.N,/I2C_SCL*%
X169036006Y-100037689D02*
X168983276Y-99984959D01*
X152961959Y-99984959D02*
X152952000Y-99975000D01*
X168983276Y-99984959D02*
X152961959Y-99984959D01*
%TO.N,/I2C_SDA*%
X151775000Y-99160000D02*
X151800000Y-99185000D01*
X168546947Y-99185000D02*
X168682148Y-99320201D01*
X151800000Y-99185000D02*
X168546947Y-99185000D01*
%TO.N,/IMU_INT1*%
X168218000Y-100918000D02*
X168725000Y-101425000D01*
X146293000Y-100918000D02*
X168218000Y-100918000D01*
X143050000Y-97675000D02*
X146293000Y-100918000D01*
D24*
%TO.N,Net-(IC2-SW1_1)*%
X117485000Y-90625000D02*
X119375000Y-90625000D01*
X119375000Y-90625000D02*
X119475000Y-90725000D01*
%TO.N,Net-(IC2-SW2_1)*%
X118890500Y-100025000D02*
X117534500Y-100025000D01*
X117534500Y-100025000D02*
X117509500Y-100050000D01*
%TO.N,Net-(IC2-MPPC)*%
X123530500Y-99269500D02*
X122000000Y-100800000D01*
X124425000Y-99269500D02*
X123530500Y-99269500D01*
D23*
%TO.N,/FLEX1_ADC*%
X168940000Y-98550000D02*
X157623000Y-98550000D01*
X168960000Y-98570000D02*
X168940000Y-98550000D01*
%TO.N,/FLEX2_ADC*%
X158738288Y-108023000D02*
X158718144Y-108043144D01*
X173252000Y-108023000D02*
X158738288Y-108023000D01*
X173894000Y-105200000D02*
X173894000Y-107381000D01*
X158718144Y-108043144D02*
X158250000Y-107575000D01*
X173894000Y-107381000D02*
X173252000Y-108023000D01*
%TO.N,/FLEX3_ADC*%
X175550000Y-107575000D02*
X174475000Y-108650000D01*
X174475000Y-108650000D02*
X158998000Y-108650000D01*
X169020000Y-102185000D02*
X173985000Y-102185000D01*
X173985000Y-102185000D02*
X175550000Y-103750000D01*
X175550000Y-103750000D02*
X175550000Y-107575000D01*
%TO.N,/FLEX4_ADC*%
X174546000Y-109623000D02*
X174594000Y-109575000D01*
X159625000Y-109700000D02*
X159702000Y-109623000D01*
X159702000Y-109623000D02*
X174546000Y-109623000D01*
%TO.N,/UART_RX*%
X168294002Y-97800000D02*
X167525000Y-97030998D01*
X167525000Y-97030998D02*
X167525000Y-93675000D01*
%TO.N,/HAPTIC_DRIVER2_EN*%
X112052000Y-115447000D02*
X112052000Y-113315288D01*
X112052000Y-113315288D02*
X111361712Y-112625000D01*
X111361712Y-112625000D02*
X111025000Y-112625000D01*
X111550000Y-115949000D02*
X112052000Y-115447000D01*
%TO.N,Net-(IC3-SCL)*%
X155540000Y-119260000D02*
X155540000Y-116637000D01*
X155540000Y-116637000D02*
X155577000Y-116600000D01*
X156150000Y-116027000D02*
X155577000Y-116600000D01*
X155577000Y-116600000D02*
X134825000Y-116600000D01*
%TO.N,Net-(IC3-SDA)*%
X134775000Y-115400000D02*
X134675000Y-115300000D01*
X157517356Y-115757644D02*
X157159712Y-115400000D01*
X157159712Y-115400000D02*
X134775000Y-115400000D01*
X157140000Y-115380288D02*
X157159712Y-115400000D01*
X157140000Y-113600000D02*
X157140000Y-115380288D01*
X157517356Y-116127000D02*
X157517356Y-115757644D01*
D22*
%TO.N,/BB_3V3*%
X122936000Y-109932000D02*
X121053500Y-108049500D01*
X120250000Y-117250000D02*
X122936000Y-114564000D01*
X122936000Y-114564000D02*
X122936000Y-109932000D01*
%TD*%
%TA.AperFunction,Conductor*%
%TO.N,GND*%
G36*
X166136565Y-113873505D02*
G01*
X166218978Y-113925289D01*
X166389082Y-113984811D01*
X166389245Y-113984868D01*
X166389250Y-113984869D01*
X166568496Y-114005065D01*
X166568500Y-114005065D01*
X166568503Y-114005065D01*
X166748263Y-113984811D01*
X166817085Y-113996865D01*
X166849828Y-114020350D01*
X167032181Y-114202703D01*
X167065666Y-114264026D01*
X167068500Y-114290384D01*
X167068500Y-118190613D01*
X167048815Y-118257652D01*
X167032181Y-118278295D01*
X166956325Y-118354150D01*
X166895001Y-118387634D01*
X166854761Y-118389688D01*
X166675004Y-118369435D01*
X166674996Y-118369435D01*
X166495750Y-118389630D01*
X166495745Y-118389631D01*
X166325476Y-118449211D01*
X166172737Y-118545184D01*
X166045184Y-118672737D01*
X165949211Y-118825476D01*
X165889631Y-118995745D01*
X165889630Y-118995750D01*
X165869435Y-119174996D01*
X165869435Y-119175003D01*
X165889688Y-119354762D01*
X165877633Y-119423584D01*
X165854149Y-119456326D01*
X164707296Y-120603181D01*
X164645973Y-120636666D01*
X164619615Y-120639500D01*
X158239344Y-120639500D01*
X158172305Y-120619815D01*
X158126550Y-120567011D01*
X158116606Y-120497853D01*
X158145631Y-120434297D01*
X158200337Y-120397795D01*
X158209334Y-120394814D01*
X158358656Y-120302712D01*
X158482712Y-120178656D01*
X158574814Y-120029334D01*
X158629999Y-119862797D01*
X158640500Y-119760009D01*
X158640499Y-118759992D01*
X158629999Y-118657203D01*
X158622375Y-118634198D01*
X158619974Y-118564372D01*
X158652399Y-118507517D01*
X159355755Y-117804163D01*
X159394501Y-117710623D01*
X159394501Y-117609377D01*
X159394501Y-117599388D01*
X159394500Y-117599374D01*
X159394500Y-114924499D01*
X159414185Y-114857460D01*
X159466989Y-114811705D01*
X159518500Y-114800499D01*
X159540002Y-114800499D01*
X159540008Y-114800499D01*
X159642797Y-114789999D01*
X159809334Y-114734814D01*
X159958656Y-114642712D01*
X160082712Y-114518656D01*
X160174814Y-114369334D01*
X160229999Y-114202797D01*
X160240500Y-114100009D01*
X160240500Y-113978500D01*
X160260185Y-113911461D01*
X160312989Y-113865706D01*
X160364500Y-113854500D01*
X166070594Y-113854500D01*
X166136565Y-113873505D01*
G37*
%TD.AperFunction*%
%TA.AperFunction,Conductor*%
G36*
X158183334Y-114520548D02*
G01*
X158227681Y-114549049D01*
X158321344Y-114642712D01*
X158470666Y-114734814D01*
X158637203Y-114789999D01*
X158739991Y-114800500D01*
X158761497Y-114800499D01*
X158828535Y-114820181D01*
X158874292Y-114872983D01*
X158885500Y-114924499D01*
X158885500Y-117503219D01*
X158865815Y-117570258D01*
X158849181Y-117590900D01*
X158342704Y-118097376D01*
X158281381Y-118130861D01*
X158216019Y-118127401D01*
X158125409Y-118097376D01*
X158042797Y-118070001D01*
X158042795Y-118070000D01*
X157940010Y-118059500D01*
X157139998Y-118059500D01*
X157139980Y-118059501D01*
X157037203Y-118070000D01*
X157037200Y-118070001D01*
X156870668Y-118125185D01*
X156870663Y-118125187D01*
X156721342Y-118217289D01*
X156627681Y-118310951D01*
X156566358Y-118344436D01*
X156496666Y-118339452D01*
X156452319Y-118310951D01*
X156358657Y-118217289D01*
X156358656Y-118217288D01*
X156209334Y-118125186D01*
X156042797Y-118070001D01*
X156042795Y-118070000D01*
X155940016Y-118059500D01*
X155940009Y-118059500D01*
X155918500Y-118059500D01*
X155851461Y-118039815D01*
X155805706Y-117987011D01*
X155794500Y-117935500D01*
X155794500Y-116925459D01*
X155814185Y-116858420D01*
X155866989Y-116812665D01*
X155936147Y-116802721D01*
X155959455Y-116808417D01*
X155970745Y-116812368D01*
X155970748Y-116812368D01*
X155970750Y-116812369D01*
X156149996Y-116832565D01*
X156150000Y-116832565D01*
X156150004Y-116832565D01*
X156329249Y-116812369D01*
X156329252Y-116812368D01*
X156329255Y-116812368D01*
X156499522Y-116752789D01*
X156652262Y-116656816D01*
X156697435Y-116611642D01*
X156758756Y-116578158D01*
X156828447Y-116583142D01*
X156882991Y-116623972D01*
X156883193Y-116623812D01*
X156883809Y-116624585D01*
X156884381Y-116625013D01*
X156885809Y-116627093D01*
X156887538Y-116629260D01*
X156887540Y-116629262D01*
X157015094Y-116756816D01*
X157088151Y-116802721D01*
X157159793Y-116847737D01*
X157167834Y-116852789D01*
X157338101Y-116912368D01*
X157338106Y-116912369D01*
X157517352Y-116932565D01*
X157517356Y-116932565D01*
X157517360Y-116932565D01*
X157696605Y-116912369D01*
X157696608Y-116912368D01*
X157696611Y-116912368D01*
X157866878Y-116852789D01*
X158019618Y-116756816D01*
X158147172Y-116629262D01*
X158243145Y-116476522D01*
X158302724Y-116306255D01*
X158302743Y-116306089D01*
X158322921Y-116127003D01*
X158322921Y-116126996D01*
X158302725Y-115947750D01*
X158302724Y-115947745D01*
X158296450Y-115929816D01*
X158243145Y-115777478D01*
X158147172Y-115624738D01*
X158019618Y-115497184D01*
X157939334Y-115446738D01*
X157866879Y-115401211D01*
X157696610Y-115341631D01*
X157696605Y-115341630D01*
X157510437Y-115320655D01*
X157510610Y-115319118D01*
X157451461Y-115301750D01*
X157405706Y-115248946D01*
X157394500Y-115197435D01*
X157394500Y-114924499D01*
X157414185Y-114857460D01*
X157466989Y-114811705D01*
X157518500Y-114800499D01*
X157540002Y-114800499D01*
X157540008Y-114800499D01*
X157642797Y-114789999D01*
X157809334Y-114734814D01*
X157958656Y-114642712D01*
X158052319Y-114549049D01*
X158113642Y-114515564D01*
X158183334Y-114520548D01*
G37*
%TD.AperFunction*%
%TA.AperFunction,Conductor*%
G36*
X167876167Y-101192185D02*
G01*
X167921922Y-101244989D01*
X167932348Y-101310383D01*
X167919435Y-101424995D01*
X167919435Y-101425003D01*
X167939630Y-101604249D01*
X167939631Y-101604254D01*
X167999211Y-101774523D01*
X168037510Y-101835475D01*
X168095184Y-101927262D01*
X168186234Y-102018312D01*
X168219718Y-102079636D01*
X168221772Y-102119876D01*
X168214435Y-102184996D01*
X168214435Y-102185003D01*
X168234630Y-102364249D01*
X168234631Y-102364254D01*
X168294211Y-102534523D01*
X168310520Y-102560478D01*
X168390184Y-102687262D01*
X168517738Y-102814816D01*
X168670478Y-102910789D01*
X168714589Y-102926224D01*
X168840745Y-102970368D01*
X168840750Y-102970369D01*
X169019996Y-102990565D01*
X169020000Y-102990565D01*
X169020004Y-102990565D01*
X169199249Y-102970369D01*
X169199252Y-102970368D01*
X169199255Y-102970368D01*
X169369522Y-102910789D01*
X169522262Y-102814816D01*
X169649816Y-102687262D01*
X169745789Y-102534522D01*
X169749980Y-102522545D01*
X169790701Y-102465769D01*
X169855654Y-102440022D01*
X169867021Y-102439500D01*
X173828220Y-102439500D01*
X173895259Y-102459185D01*
X173915901Y-102475819D01*
X175259181Y-103819098D01*
X175292666Y-103880421D01*
X175295500Y-103906779D01*
X175295500Y-107418220D01*
X175275815Y-107485259D01*
X175259181Y-107505901D01*
X174405901Y-108359181D01*
X174344578Y-108392666D01*
X174318220Y-108395500D01*
X173538780Y-108395500D01*
X173471741Y-108375815D01*
X173425986Y-108323011D01*
X173416042Y-108253853D01*
X173445067Y-108190297D01*
X173451099Y-108183819D01*
X173710395Y-107924522D01*
X174020721Y-107614194D01*
X174020724Y-107614193D01*
X174038162Y-107596755D01*
X174038163Y-107596755D01*
X174109755Y-107525163D01*
X174109755Y-107525161D01*
X174109757Y-107525160D01*
X174132777Y-107469582D01*
X174148500Y-107431623D01*
X174148500Y-106047021D01*
X174168185Y-105979982D01*
X174220989Y-105934227D01*
X174231540Y-105929981D01*
X174243522Y-105925789D01*
X174396262Y-105829816D01*
X174523816Y-105702262D01*
X174619789Y-105549522D01*
X174679368Y-105379255D01*
X174699565Y-105200000D01*
X174690988Y-105123880D01*
X174679369Y-105020750D01*
X174679368Y-105020745D01*
X174619788Y-104850476D01*
X174543843Y-104729611D01*
X174523816Y-104697738D01*
X174396262Y-104570184D01*
X174243523Y-104474211D01*
X174073254Y-104414631D01*
X174073249Y-104414630D01*
X173894004Y-104394435D01*
X173893996Y-104394435D01*
X173714750Y-104414630D01*
X173714745Y-104414631D01*
X173544476Y-104474211D01*
X173391737Y-104570184D01*
X173264184Y-104697737D01*
X173168211Y-104850476D01*
X173108631Y-105020745D01*
X173108630Y-105020750D01*
X173088435Y-105199996D01*
X173088435Y-105200003D01*
X173108630Y-105379249D01*
X173108631Y-105379254D01*
X173168211Y-105549523D01*
X173242656Y-105668000D01*
X173264184Y-105702262D01*
X173391738Y-105829816D01*
X173544478Y-105925789D01*
X173556452Y-105929978D01*
X173613229Y-105970698D01*
X173638978Y-106035650D01*
X173639500Y-106047021D01*
X173639500Y-107224220D01*
X173619815Y-107291259D01*
X173603181Y-107311901D01*
X173182901Y-107732181D01*
X173121578Y-107765666D01*
X173095220Y-107768500D01*
X167461011Y-107768500D01*
X167393972Y-107748815D01*
X167348217Y-107696011D01*
X167338273Y-107626853D01*
X167343969Y-107603546D01*
X167353867Y-107575257D01*
X167353868Y-107575255D01*
X167353869Y-107575249D01*
X167374065Y-107396003D01*
X167374065Y-107395996D01*
X167353869Y-107216750D01*
X167353866Y-107216737D01*
X167324007Y-107131406D01*
X167320444Y-107061627D01*
X167355173Y-107001000D01*
X167369041Y-106990263D01*
X167368987Y-106990195D01*
X167374654Y-106985713D01*
X167374653Y-106985713D01*
X167374656Y-106985712D01*
X167498712Y-106861656D01*
X167500752Y-106858347D01*
X167502745Y-106856555D01*
X167503193Y-106855989D01*
X167503289Y-106856065D01*
X167552694Y-106811623D01*
X167621656Y-106800395D01*
X167685740Y-106828234D01*
X167711829Y-106858339D01*
X167713681Y-106861341D01*
X167713683Y-106861344D01*
X167837654Y-106985315D01*
X167986875Y-107077356D01*
X167986880Y-107077358D01*
X168153302Y-107132505D01*
X168153309Y-107132506D01*
X168256019Y-107142999D01*
X168393499Y-107142999D01*
X168893500Y-107142999D01*
X169030972Y-107142999D01*
X169030986Y-107142998D01*
X169133697Y-107132505D01*
X169300119Y-107077358D01*
X169300124Y-107077356D01*
X169449345Y-106985315D01*
X169573315Y-106861345D01*
X169665356Y-106712124D01*
X169665358Y-106712119D01*
X169720505Y-106545697D01*
X169720506Y-106545690D01*
X169730999Y-106442986D01*
X169731000Y-106442973D01*
X169731000Y-106168000D01*
X168893500Y-106168000D01*
X168893500Y-107142999D01*
X168393499Y-107142999D01*
X168393500Y-107142998D01*
X168393500Y-105668000D01*
X168893500Y-105668000D01*
X169730999Y-105668000D01*
X169730999Y-105393028D01*
X169730998Y-105393013D01*
X169720505Y-105290302D01*
X169665358Y-105123880D01*
X169665356Y-105123875D01*
X169573315Y-104974654D01*
X169449345Y-104850684D01*
X169300124Y-104758643D01*
X169300119Y-104758641D01*
X169133697Y-104703494D01*
X169133690Y-104703493D01*
X169030986Y-104693000D01*
X168893500Y-104693000D01*
X168893500Y-105668000D01*
X168393500Y-105668000D01*
X168393500Y-104693000D01*
X168256027Y-104693000D01*
X168256012Y-104693001D01*
X168153302Y-104703494D01*
X167986880Y-104758641D01*
X167986875Y-104758643D01*
X167837654Y-104850684D01*
X167713683Y-104974655D01*
X167713679Y-104974660D01*
X167711826Y-104977665D01*
X167710018Y-104979290D01*
X167709202Y-104980323D01*
X167709025Y-104980183D01*
X167659874Y-105024385D01*
X167590911Y-105035601D01*
X167526831Y-105007752D01*
X167500753Y-104977653D01*
X167500737Y-104977628D01*
X167498712Y-104974344D01*
X167374656Y-104850288D01*
X167225334Y-104758186D01*
X167058797Y-104703001D01*
X167058795Y-104703000D01*
X166956010Y-104692500D01*
X166180998Y-104692500D01*
X166180980Y-104692501D01*
X166078203Y-104703000D01*
X166078200Y-104703001D01*
X165997898Y-104729611D01*
X165928069Y-104732013D01*
X165868028Y-104696281D01*
X165836835Y-104633760D01*
X165843614Y-104571483D01*
X165842086Y-104570977D01*
X165899505Y-104397697D01*
X165899506Y-104397690D01*
X165909999Y-104294986D01*
X165910000Y-104294973D01*
X165910000Y-104157500D01*
X164935000Y-104157500D01*
X164935000Y-104994999D01*
X165209972Y-104994999D01*
X165209986Y-104994998D01*
X165312695Y-104984506D01*
X165392734Y-104957983D01*
X165462562Y-104955581D01*
X165522604Y-104991312D01*
X165553798Y-105053832D01*
X165546996Y-105116326D01*
X165548458Y-105116811D01*
X165546187Y-105123664D01*
X165546186Y-105123666D01*
X165491001Y-105290203D01*
X165491001Y-105290204D01*
X165491000Y-105290204D01*
X165480500Y-105392983D01*
X165480500Y-106443001D01*
X165480501Y-106443019D01*
X165491000Y-106545796D01*
X165491001Y-106545799D01*
X165513117Y-106612540D01*
X165546186Y-106712334D01*
X165615928Y-106825405D01*
X165634368Y-106892796D01*
X165613445Y-106959459D01*
X165559803Y-107004229D01*
X165510389Y-107014500D01*
X164329066Y-107014500D01*
X164262027Y-106994815D01*
X164241385Y-106978181D01*
X163703819Y-106440614D01*
X163670334Y-106379291D01*
X163667500Y-106352933D01*
X163667500Y-105013751D01*
X163687185Y-104946712D01*
X163739989Y-104900957D01*
X163809147Y-104891013D01*
X163856598Y-104908213D01*
X163890874Y-104929355D01*
X163890880Y-104929358D01*
X164057302Y-104984505D01*
X164057309Y-104984506D01*
X164160019Y-104994999D01*
X164434999Y-104994999D01*
X164435000Y-104994998D01*
X164435000Y-104031500D01*
X164454685Y-103964461D01*
X164507489Y-103918706D01*
X164559000Y-103907500D01*
X164685000Y-103907500D01*
X164685000Y-103781500D01*
X164704685Y-103714461D01*
X164757489Y-103668706D01*
X164809000Y-103657500D01*
X165331455Y-103657500D01*
X165372410Y-103664459D01*
X165460737Y-103695366D01*
X165460743Y-103695367D01*
X165460745Y-103695368D01*
X165460746Y-103695368D01*
X165460750Y-103695369D01*
X165639996Y-103715565D01*
X165640000Y-103715565D01*
X165640004Y-103715565D01*
X165819249Y-103695369D01*
X165819252Y-103695368D01*
X165819255Y-103695368D01*
X165989522Y-103635789D01*
X166142262Y-103539816D01*
X166269816Y-103412262D01*
X166365789Y-103259522D01*
X166425368Y-103089255D01*
X166425369Y-103089249D01*
X166445565Y-102910003D01*
X166445565Y-102909996D01*
X166425369Y-102730750D01*
X166425368Y-102730745D01*
X166365788Y-102560476D01*
X166269815Y-102407737D01*
X166142262Y-102280184D01*
X165989524Y-102184212D01*
X165983254Y-102181193D01*
X165984310Y-102178999D01*
X165936759Y-102144884D01*
X165911020Y-102079928D01*
X165910499Y-102068577D01*
X165910499Y-101444998D01*
X165910498Y-101444981D01*
X165899999Y-101342204D01*
X165899997Y-101342197D01*
X165897779Y-101335506D01*
X165895376Y-101265679D01*
X165931106Y-101205636D01*
X165993625Y-101174442D01*
X166015485Y-101172500D01*
X167809128Y-101172500D01*
X167876167Y-101192185D01*
G37*
%TD.AperFunction*%
%TA.AperFunction,Conductor*%
G36*
X171764075Y-84897007D02*
G01*
X171730000Y-85024174D01*
X171730000Y-85155826D01*
X171764075Y-85282993D01*
X171796988Y-85340000D01*
X170123012Y-85340000D01*
X170155925Y-85282993D01*
X170190000Y-85155826D01*
X170190000Y-85024174D01*
X170155925Y-84897007D01*
X170123012Y-84840000D01*
X171796988Y-84840000D01*
X171764075Y-84897007D01*
G37*
%TD.AperFunction*%
%TA.AperFunction,Conductor*%
G36*
X176446047Y-72419953D02*
G01*
X176513079Y-72439663D01*
X176558814Y-72492484D01*
X176570000Y-72543953D01*
X176570000Y-126905953D01*
X176550315Y-126972992D01*
X176497511Y-127018747D01*
X176445954Y-127029953D01*
X96643954Y-127000046D01*
X96576921Y-126980336D01*
X96531186Y-126927515D01*
X96520000Y-126876046D01*
X96520000Y-116398984D01*
X97509500Y-116398984D01*
X97509500Y-118099015D01*
X97520000Y-118201795D01*
X97520001Y-118201797D01*
X97538510Y-118257652D01*
X97575186Y-118368335D01*
X97575187Y-118368337D01*
X97667286Y-118517651D01*
X97667289Y-118517655D01*
X97791344Y-118641710D01*
X97791348Y-118641713D01*
X97940662Y-118733812D01*
X97940664Y-118733813D01*
X97940666Y-118733814D01*
X98107203Y-118788999D01*
X98209992Y-118799500D01*
X98209997Y-118799500D01*
X99910003Y-118799500D01*
X99910008Y-118799500D01*
X100012797Y-118788999D01*
X100179334Y-118733814D01*
X100328655Y-118641711D01*
X100452711Y-118517655D01*
X100544814Y-118368334D01*
X100599999Y-118201797D01*
X100610500Y-118099008D01*
X100610500Y-116398992D01*
X100599999Y-116296203D01*
X100544814Y-116129666D01*
X100543943Y-116128254D01*
X100452713Y-115980348D01*
X100452710Y-115980344D01*
X100328655Y-115856289D01*
X100328651Y-115856286D01*
X100179337Y-115764187D01*
X100179335Y-115764186D01*
X100096065Y-115736593D01*
X100012797Y-115709001D01*
X100012795Y-115709000D01*
X99910015Y-115698500D01*
X99910008Y-115698500D01*
X98209992Y-115698500D01*
X98209984Y-115698500D01*
X98107204Y-115709000D01*
X98107203Y-115709001D01*
X97940664Y-115764186D01*
X97940662Y-115764187D01*
X97791348Y-115856286D01*
X97791344Y-115856289D01*
X97667289Y-115980344D01*
X97667286Y-115980348D01*
X97575187Y-116129662D01*
X97575186Y-116129664D01*
X97520001Y-116296203D01*
X97520000Y-116296204D01*
X97509500Y-116398984D01*
X96520000Y-116398984D01*
X96520000Y-112649000D01*
X97504706Y-112649000D01*
X97523853Y-112892297D01*
X97523853Y-112892300D01*
X97523854Y-112892302D01*
X97576561Y-113111840D01*
X97580830Y-113129619D01*
X97674222Y-113355089D01*
X97801737Y-113563173D01*
X97801738Y-113563176D01*
X97801741Y-113563179D01*
X97960241Y-113748759D01*
X98084048Y-113854500D01*
X98145823Y-113907261D01*
X98145826Y-113907262D01*
X98353910Y-114034777D01*
X98579381Y-114128169D01*
X98579378Y-114128169D01*
X98579384Y-114128170D01*
X98579388Y-114128172D01*
X98816698Y-114185146D01*
X99060000Y-114204294D01*
X99303302Y-114185146D01*
X99540612Y-114128172D01*
X99766089Y-114034777D01*
X99974179Y-113907259D01*
X100159759Y-113748759D01*
X100318259Y-113563179D01*
X100445777Y-113355089D01*
X100539172Y-113129612D01*
X100596146Y-112892302D01*
X100615294Y-112649000D01*
X100596146Y-112405698D01*
X100539172Y-112168388D01*
X100520265Y-112122742D01*
X100445777Y-111942910D01*
X100318262Y-111734826D01*
X100318261Y-111734823D01*
X100186592Y-111580659D01*
X100159759Y-111549241D01*
X100023128Y-111432547D01*
X99974176Y-111390738D01*
X99974173Y-111390737D01*
X99766089Y-111263222D01*
X99540618Y-111169830D01*
X99540621Y-111169830D01*
X99374652Y-111129984D01*
X99303302Y-111112854D01*
X99303300Y-111112853D01*
X99303297Y-111112853D01*
X99060000Y-111093706D01*
X98816702Y-111112853D01*
X98579380Y-111169830D01*
X98353910Y-111263222D01*
X98145826Y-111390737D01*
X98145823Y-111390738D01*
X97960241Y-111549241D01*
X97801738Y-111734823D01*
X97801737Y-111734826D01*
X97674222Y-111942910D01*
X97580830Y-112168380D01*
X97523853Y-112405702D01*
X97504706Y-112649000D01*
X96520000Y-112649000D01*
X96520000Y-109499996D01*
X108969435Y-109499996D01*
X108969435Y-109500003D01*
X108989630Y-109679249D01*
X108989631Y-109679254D01*
X109049211Y-109849523D01*
X109118972Y-109960546D01*
X109145184Y-110002262D01*
X109272738Y-110129816D01*
X109335473Y-110169235D01*
X109381762Y-110221566D01*
X109393500Y-110274227D01*
X109393500Y-121272771D01*
X109373815Y-121339810D01*
X109335473Y-121377764D01*
X109272740Y-121417182D01*
X109272737Y-121417184D01*
X109145184Y-121544737D01*
X109049211Y-121697476D01*
X108989631Y-121867745D01*
X108989630Y-121867750D01*
X108969435Y-122046996D01*
X108969435Y-122047003D01*
X108989630Y-122226249D01*
X108989631Y-122226254D01*
X109049211Y-122396523D01*
X109120931Y-122510664D01*
X109145184Y-122549262D01*
X109272738Y-122676816D01*
X109425478Y-122772789D01*
X109595745Y-122832368D01*
X109595750Y-122832369D01*
X109774996Y-122852565D01*
X109775000Y-122852565D01*
X109775004Y-122852565D01*
X109954249Y-122832369D01*
X109954252Y-122832368D01*
X109954255Y-122832368D01*
X110124522Y-122772789D01*
X110277262Y-122676816D01*
X110404816Y-122549262D01*
X110500789Y-122396522D01*
X110560368Y-122226255D01*
X110570987Y-122132007D01*
X110580565Y-122047003D01*
X110580565Y-122046996D01*
X110560369Y-121867750D01*
X110560368Y-121867745D01*
X110500788Y-121697476D01*
X110404815Y-121544737D01*
X110277262Y-121417184D01*
X110277259Y-121417182D01*
X110214527Y-121377764D01*
X110168236Y-121325429D01*
X110156500Y-121272771D01*
X110156500Y-119506999D01*
X118896341Y-119506999D01*
X118896341Y-119507000D01*
X118916936Y-119742403D01*
X118916938Y-119742413D01*
X118978094Y-119970655D01*
X118978096Y-119970659D01*
X118978097Y-119970663D01*
X119005456Y-120029334D01*
X119077965Y-120184830D01*
X119077967Y-120184834D01*
X119213501Y-120378395D01*
X119213506Y-120378402D01*
X119380597Y-120545493D01*
X119380603Y-120545498D01*
X119566158Y-120675425D01*
X119609783Y-120730002D01*
X119616977Y-120799500D01*
X119585454Y-120861855D01*
X119566158Y-120878575D01*
X119380597Y-121008505D01*
X119213505Y-121175597D01*
X119077965Y-121369169D01*
X119077964Y-121369171D01*
X118978098Y-121583335D01*
X118978094Y-121583344D01*
X118916938Y-121811586D01*
X118916936Y-121811596D01*
X118896341Y-122046999D01*
X118896341Y-122047000D01*
X118916936Y-122282403D01*
X118916938Y-122282413D01*
X118978094Y-122510655D01*
X118978096Y-122510659D01*
X118978097Y-122510663D01*
X119001294Y-122560408D01*
X119077965Y-122724830D01*
X119077967Y-122724834D01*
X119167406Y-122852565D01*
X119213501Y-122918396D01*
X119213506Y-122918402D01*
X119335430Y-123040326D01*
X119368915Y-123101649D01*
X119363931Y-123171341D01*
X119322059Y-123227274D01*
X119291083Y-123244189D01*
X119159669Y-123293203D01*
X119159664Y-123293206D01*
X119044455Y-123379452D01*
X119044452Y-123379455D01*
X118958206Y-123494664D01*
X118958202Y-123494671D01*
X118907908Y-123629517D01*
X118902410Y-123680659D01*
X118901501Y-123689123D01*
X118901500Y-123689135D01*
X118901500Y-125484870D01*
X118901501Y-125484876D01*
X118907908Y-125544483D01*
X118958202Y-125679328D01*
X118958206Y-125679335D01*
X119044452Y-125794544D01*
X119044455Y-125794547D01*
X119159664Y-125880793D01*
X119159671Y-125880797D01*
X119294517Y-125931091D01*
X119294516Y-125931091D01*
X119301444Y-125931835D01*
X119354127Y-125937500D01*
X121149872Y-125937499D01*
X121209483Y-125931091D01*
X121344331Y-125880796D01*
X121459546Y-125794546D01*
X121545796Y-125679331D01*
X121596091Y-125544483D01*
X121602500Y-125484873D01*
X121602499Y-123689128D01*
X121596091Y-123629517D01*
X121591927Y-123618354D01*
X121545797Y-123494671D01*
X121545793Y-123494664D01*
X121459547Y-123379455D01*
X121459544Y-123379452D01*
X121344335Y-123293206D01*
X121344328Y-123293202D01*
X121212917Y-123244189D01*
X121156983Y-123202318D01*
X121132566Y-123136853D01*
X121147418Y-123068580D01*
X121168563Y-123040332D01*
X121290495Y-122918401D01*
X121426035Y-122724830D01*
X121525903Y-122510663D01*
X121587063Y-122282408D01*
X121607659Y-122047000D01*
X121587063Y-121811592D01*
X121525903Y-121583337D01*
X121523837Y-121578906D01*
X121513344Y-121509829D01*
X121541863Y-121446045D01*
X121600339Y-121407804D01*
X121636218Y-121402500D01*
X123919775Y-121402500D01*
X141194083Y-121402500D01*
X141261122Y-121422185D01*
X141306877Y-121474989D01*
X141316821Y-121544147D01*
X141295658Y-121597623D01*
X141260965Y-121647169D01*
X141260964Y-121647171D01*
X141161098Y-121861335D01*
X141161094Y-121861344D01*
X141099938Y-122089586D01*
X141099936Y-122089596D01*
X141079341Y-122324999D01*
X141079341Y-122325000D01*
X141099936Y-122560403D01*
X141099938Y-122560413D01*
X141161094Y-122788655D01*
X141161096Y-122788659D01*
X141161097Y-122788663D01*
X141260965Y-123002830D01*
X141260967Y-123002834D01*
X141330159Y-123101649D01*
X141396505Y-123196401D01*
X141563599Y-123363495D01*
X141640135Y-123417086D01*
X141757165Y-123499032D01*
X141757167Y-123499033D01*
X141757170Y-123499035D01*
X141971337Y-123598903D01*
X142199592Y-123660063D01*
X142370319Y-123675000D01*
X142434999Y-123680659D01*
X142435000Y-123680659D01*
X142435001Y-123680659D01*
X142499681Y-123675000D01*
X142670408Y-123660063D01*
X142898663Y-123598903D01*
X143112830Y-123499035D01*
X143306401Y-123363495D01*
X143428717Y-123241178D01*
X143490036Y-123207696D01*
X143559728Y-123212680D01*
X143615662Y-123254551D01*
X143632577Y-123285528D01*
X143681646Y-123417088D01*
X143681649Y-123417093D01*
X143767809Y-123532187D01*
X143767812Y-123532190D01*
X143882906Y-123618350D01*
X143882913Y-123618354D01*
X144017620Y-123668596D01*
X144017627Y-123668598D01*
X144077155Y-123674999D01*
X144077172Y-123675000D01*
X144725000Y-123675000D01*
X144725000Y-122758012D01*
X144782007Y-122790925D01*
X144909174Y-122825000D01*
X145040826Y-122825000D01*
X145167993Y-122790925D01*
X145225000Y-122758012D01*
X145225000Y-123675000D01*
X145872828Y-123675000D01*
X145872844Y-123674999D01*
X145932372Y-123668598D01*
X145932379Y-123668596D01*
X146067086Y-123618354D01*
X146067093Y-123618350D01*
X146182187Y-123532190D01*
X146182190Y-123532187D01*
X146268350Y-123417093D01*
X146268354Y-123417086D01*
X146318596Y-123282379D01*
X146318598Y-123282372D01*
X146324999Y-123222844D01*
X146325000Y-123222827D01*
X146325000Y-122575000D01*
X145408012Y-122575000D01*
X145440925Y-122517993D01*
X145475000Y-122390826D01*
X145475000Y-122259174D01*
X145440925Y-122132007D01*
X145408012Y-122075000D01*
X146325000Y-122075000D01*
X146325000Y-121526500D01*
X146344685Y-121459461D01*
X146397489Y-121413706D01*
X146449000Y-121402500D01*
X164879222Y-121402500D01*
X164879225Y-121402500D01*
X164976254Y-121376501D01*
X165063247Y-121326276D01*
X165134276Y-121255247D01*
X166393673Y-119995848D01*
X166454994Y-119962365D01*
X166495235Y-119960311D01*
X166674996Y-119980565D01*
X166675000Y-119980565D01*
X166675004Y-119980565D01*
X166854249Y-119960369D01*
X166854252Y-119960368D01*
X166854255Y-119960368D01*
X167024522Y-119900789D01*
X167177262Y-119804816D01*
X167304816Y-119677262D01*
X167400789Y-119524522D01*
X167460368Y-119354255D01*
X167460369Y-119354249D01*
X167480565Y-119175003D01*
X167480565Y-119174996D01*
X167460311Y-118995235D01*
X167472366Y-118926414D01*
X167495844Y-118893677D01*
X167755276Y-118634247D01*
X167763289Y-118620368D01*
X167805501Y-118547254D01*
X167831500Y-118450225D01*
X167831500Y-115729775D01*
X167831500Y-115600000D01*
X171169706Y-115600000D01*
X171188853Y-115843297D01*
X171188853Y-115843300D01*
X171188854Y-115843302D01*
X171232957Y-116027003D01*
X171245830Y-116080619D01*
X171339222Y-116306089D01*
X171466737Y-116514173D01*
X171466738Y-116514176D01*
X171466741Y-116514179D01*
X171625241Y-116699759D01*
X171757091Y-116812369D01*
X171810823Y-116858261D01*
X171810826Y-116858262D01*
X172018910Y-116985777D01*
X172244381Y-117079169D01*
X172244378Y-117079169D01*
X172244384Y-117079170D01*
X172244388Y-117079172D01*
X172481698Y-117136146D01*
X172725000Y-117155294D01*
X172968302Y-117136146D01*
X173205612Y-117079172D01*
X173431089Y-116985777D01*
X173639179Y-116858259D01*
X173824759Y-116699759D01*
X173983259Y-116514179D01*
X174110777Y-116306089D01*
X174204172Y-116080612D01*
X174261146Y-115843302D01*
X174280294Y-115600000D01*
X174261146Y-115356698D01*
X174204172Y-115119388D01*
X174204169Y-115119380D01*
X174110777Y-114893910D01*
X173983262Y-114685826D01*
X173983261Y-114685823D01*
X173947453Y-114643897D01*
X173824759Y-114500241D01*
X173671489Y-114369336D01*
X173639176Y-114341738D01*
X173639173Y-114341737D01*
X173431089Y-114214222D01*
X173205618Y-114120830D01*
X173205621Y-114120830D01*
X173099992Y-114095470D01*
X172968302Y-114063854D01*
X172968300Y-114063853D01*
X172968297Y-114063853D01*
X172725000Y-114044706D01*
X172481702Y-114063853D01*
X172244380Y-114120830D01*
X172018910Y-114214222D01*
X171810826Y-114341737D01*
X171810823Y-114341738D01*
X171625241Y-114500241D01*
X171466738Y-114685823D01*
X171466737Y-114685826D01*
X171339222Y-114893910D01*
X171245830Y-115119380D01*
X171188853Y-115356702D01*
X171169706Y-115600000D01*
X167831500Y-115600000D01*
X167831500Y-114030775D01*
X167805501Y-113933746D01*
X167770722Y-113873506D01*
X167755277Y-113846754D01*
X167679916Y-113771393D01*
X167679905Y-113771383D01*
X167389350Y-113480828D01*
X167355865Y-113419505D01*
X167353811Y-113379263D01*
X167374065Y-113199502D01*
X167374065Y-113199496D01*
X167353869Y-113020250D01*
X167353868Y-113020245D01*
X167294288Y-112849976D01*
X167198315Y-112697237D01*
X167070762Y-112569684D01*
X166918023Y-112473711D01*
X166747754Y-112414131D01*
X166747749Y-112414130D01*
X166568504Y-112393935D01*
X166568496Y-112393935D01*
X166389250Y-112414130D01*
X166389245Y-112414131D01*
X166218976Y-112473711D01*
X166066237Y-112569684D01*
X165938684Y-112697237D01*
X165842711Y-112849976D01*
X165783131Y-113020245D01*
X165783130Y-113020250D01*
X165762935Y-113199496D01*
X165762935Y-113199505D01*
X165763849Y-113207618D01*
X165751794Y-113276439D01*
X165704444Y-113327818D01*
X165640629Y-113345500D01*
X160364499Y-113345500D01*
X160297460Y-113325815D01*
X160251705Y-113273011D01*
X160240499Y-113221500D01*
X160240499Y-113099998D01*
X160240498Y-113099981D01*
X160229999Y-112997203D01*
X160229998Y-112997200D01*
X160195238Y-112892302D01*
X160174814Y-112830666D01*
X160082712Y-112681344D01*
X159958656Y-112557288D01*
X159841153Y-112484812D01*
X159809336Y-112465187D01*
X159809331Y-112465185D01*
X159807862Y-112464698D01*
X159642797Y-112410001D01*
X159642795Y-112410000D01*
X159540010Y-112399500D01*
X158739998Y-112399500D01*
X158739980Y-112399501D01*
X158637203Y-112410000D01*
X158637200Y-112410001D01*
X158470668Y-112465185D01*
X158470663Y-112465187D01*
X158321342Y-112557289D01*
X158227681Y-112650951D01*
X158166358Y-112684436D01*
X158096666Y-112679452D01*
X158052319Y-112650951D01*
X157958657Y-112557289D01*
X157958656Y-112557288D01*
X157841153Y-112484812D01*
X157809336Y-112465187D01*
X157809331Y-112465185D01*
X157807862Y-112464698D01*
X157642797Y-112410001D01*
X157642795Y-112410000D01*
X157540010Y-112399500D01*
X156739998Y-112399500D01*
X156739980Y-112399501D01*
X156637203Y-112410000D01*
X156637200Y-112410001D01*
X156470668Y-112465185D01*
X156470663Y-112465187D01*
X156321342Y-112557289D01*
X156197289Y-112681342D01*
X156105187Y-112830663D01*
X156105185Y-112830668D01*
X156084763Y-112892297D01*
X156050001Y-112997203D01*
X156050001Y-112997204D01*
X156050000Y-112997204D01*
X156039500Y-113099983D01*
X156039500Y-114100001D01*
X156039501Y-114100019D01*
X156050000Y-114202796D01*
X156050001Y-114202799D01*
X156105185Y-114369331D01*
X156105187Y-114369336D01*
X156127787Y-114405977D01*
X156197288Y-114518656D01*
X156321344Y-114642712D01*
X156470666Y-114734814D01*
X156637203Y-114789999D01*
X156739991Y-114800500D01*
X156761497Y-114800499D01*
X156828535Y-114820181D01*
X156874292Y-114872983D01*
X156885500Y-114924499D01*
X156885500Y-115021500D01*
X156865815Y-115088539D01*
X156813011Y-115134294D01*
X156761500Y-115145500D01*
X135557013Y-115145500D01*
X135489974Y-115125815D01*
X135444219Y-115073011D01*
X135439971Y-115062454D01*
X135400789Y-114950478D01*
X135384465Y-114924499D01*
X135304816Y-114797738D01*
X135177262Y-114670184D01*
X135160763Y-114659817D01*
X135024523Y-114574211D01*
X134854254Y-114514631D01*
X134854249Y-114514630D01*
X134675004Y-114494435D01*
X134674996Y-114494435D01*
X134495750Y-114514630D01*
X134495745Y-114514631D01*
X134325476Y-114574211D01*
X134172737Y-114670184D01*
X134045184Y-114797737D01*
X133949211Y-114950476D01*
X133889631Y-115120745D01*
X133889630Y-115120750D01*
X133869435Y-115299996D01*
X133869435Y-115300003D01*
X133889630Y-115479249D01*
X133889631Y-115479254D01*
X133949211Y-115649523D01*
X134045184Y-115802262D01*
X134177662Y-115934740D01*
X134176444Y-115935957D01*
X134211507Y-115985908D01*
X134214358Y-116055720D01*
X134197136Y-116090740D01*
X134198889Y-116091842D01*
X134099211Y-116250476D01*
X134039631Y-116420745D01*
X134039630Y-116420750D01*
X134019435Y-116599996D01*
X134019435Y-116600003D01*
X134039630Y-116779249D01*
X134039631Y-116779254D01*
X134099211Y-116949523D01*
X134195184Y-117102262D01*
X134322738Y-117229816D01*
X134475478Y-117325789D01*
X134544678Y-117350003D01*
X134645745Y-117385368D01*
X134645750Y-117385369D01*
X134824996Y-117405565D01*
X134825000Y-117405565D01*
X134825004Y-117405565D01*
X135004249Y-117385369D01*
X135004252Y-117385368D01*
X135004255Y-117385368D01*
X135174522Y-117325789D01*
X135327262Y-117229816D01*
X135454816Y-117102262D01*
X135550789Y-116949522D01*
X135554980Y-116937545D01*
X135595701Y-116880769D01*
X135660654Y-116855022D01*
X135672021Y-116854500D01*
X155161500Y-116854500D01*
X155228539Y-116874185D01*
X155274294Y-116926989D01*
X155285500Y-116978500D01*
X155285500Y-117935500D01*
X155265815Y-118002539D01*
X155213011Y-118048294D01*
X155161505Y-118059500D01*
X155140001Y-118059500D01*
X155139980Y-118059501D01*
X155037203Y-118070000D01*
X155037200Y-118070001D01*
X154870668Y-118125185D01*
X154870663Y-118125187D01*
X154721342Y-118217289D01*
X154597289Y-118341342D01*
X154505187Y-118490663D01*
X154505185Y-118490668D01*
X154486434Y-118547255D01*
X154450001Y-118657203D01*
X154450001Y-118657204D01*
X154450000Y-118657204D01*
X154439500Y-118759983D01*
X154439500Y-119760001D01*
X154439501Y-119760019D01*
X154450000Y-119862796D01*
X154450001Y-119862799D01*
X154494090Y-119995850D01*
X154505186Y-120029334D01*
X154597288Y-120178656D01*
X154721344Y-120302712D01*
X154870666Y-120394814D01*
X154879662Y-120397795D01*
X154937106Y-120437567D01*
X154963928Y-120502083D01*
X154951613Y-120570859D01*
X154904069Y-120622059D01*
X154840656Y-120639500D01*
X124475500Y-120639500D01*
X124408461Y-120619815D01*
X124362706Y-120567011D01*
X124351500Y-120515500D01*
X124351500Y-118124227D01*
X124371185Y-118057188D01*
X124409525Y-118019235D01*
X124472262Y-117979816D01*
X124599816Y-117852262D01*
X124695789Y-117699522D01*
X124755368Y-117529255D01*
X124758302Y-117503219D01*
X124775565Y-117350003D01*
X124775565Y-117349996D01*
X124755369Y-117170750D01*
X124755368Y-117170745D01*
X124703115Y-117021415D01*
X124695789Y-117000478D01*
X124599816Y-116847738D01*
X124472262Y-116720184D01*
X124472259Y-116720182D01*
X124409527Y-116680764D01*
X124363236Y-116628429D01*
X124351500Y-116575771D01*
X124351500Y-114816794D01*
X124371185Y-114749755D01*
X124409529Y-114711800D01*
X124410400Y-114711253D01*
X124492262Y-114659816D01*
X124619816Y-114532262D01*
X124715789Y-114379522D01*
X124775368Y-114209255D01*
X124775927Y-114204293D01*
X124795565Y-114030003D01*
X124795565Y-114029996D01*
X124775369Y-113850750D01*
X124775368Y-113850745D01*
X124749116Y-113775722D01*
X124715789Y-113680478D01*
X124619816Y-113527738D01*
X124492262Y-113400184D01*
X124472528Y-113387784D01*
X124339523Y-113304211D01*
X124169254Y-113244631D01*
X124169249Y-113244630D01*
X123990004Y-113224435D01*
X123989996Y-113224435D01*
X123810750Y-113244630D01*
X123810745Y-113244631D01*
X123640476Y-113304211D01*
X123507472Y-113387784D01*
X123440235Y-113406784D01*
X123373400Y-113386416D01*
X123328186Y-113333148D01*
X123317500Y-113282790D01*
X123317500Y-109881777D01*
X123317500Y-109881775D01*
X123291501Y-109784746D01*
X123241276Y-109697753D01*
X123170247Y-109626724D01*
X122870658Y-109327135D01*
X149734500Y-109327135D01*
X149734500Y-111122870D01*
X149734501Y-111122876D01*
X149740908Y-111182483D01*
X149791202Y-111317328D01*
X149791206Y-111317335D01*
X149877452Y-111432544D01*
X149877455Y-111432547D01*
X149992664Y-111518793D01*
X149992671Y-111518797D01*
X150127517Y-111569091D01*
X150127516Y-111569091D01*
X150134444Y-111569835D01*
X150187127Y-111575500D01*
X151982872Y-111575499D01*
X152042483Y-111569091D01*
X152177331Y-111518796D01*
X152292546Y-111432546D01*
X152378796Y-111317331D01*
X152427810Y-111185916D01*
X152469681Y-111129984D01*
X152535145Y-111105566D01*
X152603418Y-111120417D01*
X152631673Y-111141569D01*
X152753599Y-111263495D01*
X152850384Y-111331265D01*
X152947165Y-111399032D01*
X152947167Y-111399033D01*
X152947170Y-111399035D01*
X153161337Y-111498903D01*
X153389592Y-111560063D01*
X153566034Y-111575500D01*
X153624999Y-111580659D01*
X153625000Y-111580659D01*
X153625001Y-111580659D01*
X153683966Y-111575500D01*
X153860408Y-111560063D01*
X154088663Y-111498903D01*
X154302830Y-111399035D01*
X154496401Y-111263495D01*
X154663495Y-111096401D01*
X154799035Y-110902830D01*
X154898903Y-110688663D01*
X154960063Y-110460408D01*
X154980659Y-110225000D01*
X154960063Y-109989592D01*
X154898903Y-109761337D01*
X154799035Y-109547171D01*
X154780532Y-109520745D01*
X154663494Y-109353597D01*
X154496402Y-109186506D01*
X154496395Y-109186501D01*
X154302834Y-109050967D01*
X154302830Y-109050965D01*
X154292498Y-109046147D01*
X154088663Y-108951097D01*
X154088659Y-108951096D01*
X154088655Y-108951094D01*
X153860413Y-108889938D01*
X153860403Y-108889936D01*
X153625001Y-108869341D01*
X153624999Y-108869341D01*
X153389596Y-108889936D01*
X153389586Y-108889938D01*
X153161344Y-108951094D01*
X153161335Y-108951098D01*
X152947171Y-109050964D01*
X152947169Y-109050965D01*
X152753600Y-109186503D01*
X152631673Y-109308430D01*
X152570350Y-109341914D01*
X152500658Y-109336930D01*
X152444725Y-109295058D01*
X152427810Y-109264081D01*
X152378797Y-109132671D01*
X152378793Y-109132664D01*
X152292547Y-109017455D01*
X152292544Y-109017452D01*
X152177335Y-108931206D01*
X152177328Y-108931202D01*
X152042482Y-108880908D01*
X152042483Y-108880908D01*
X151982883Y-108874501D01*
X151982881Y-108874500D01*
X151982873Y-108874500D01*
X151982864Y-108874500D01*
X150187129Y-108874500D01*
X150187123Y-108874501D01*
X150127516Y-108880908D01*
X149992671Y-108931202D01*
X149992664Y-108931206D01*
X149877455Y-109017452D01*
X149877452Y-109017455D01*
X149791206Y-109132664D01*
X149791202Y-109132671D01*
X149740908Y-109267517D01*
X149734501Y-109327116D01*
X149734500Y-109327135D01*
X122870658Y-109327135D01*
X121874350Y-108330827D01*
X121840865Y-108269504D01*
X121838811Y-108229262D01*
X121859065Y-108049502D01*
X121859065Y-108049496D01*
X121838869Y-107870250D01*
X121838868Y-107870245D01*
X121798279Y-107754249D01*
X121779289Y-107699978D01*
X121776796Y-107696011D01*
X121718697Y-107603546D01*
X121683316Y-107547238D01*
X121555762Y-107419684D01*
X121518063Y-107395996D01*
X121403023Y-107323711D01*
X121232754Y-107264131D01*
X121232749Y-107264130D01*
X121053504Y-107243935D01*
X121053496Y-107243935D01*
X120874250Y-107264130D01*
X120874245Y-107264131D01*
X120703976Y-107323711D01*
X120551237Y-107419684D01*
X120423684Y-107547237D01*
X120327711Y-107699976D01*
X120268131Y-107870245D01*
X120268130Y-107870250D01*
X120247935Y-108049496D01*
X120247935Y-108049503D01*
X120268130Y-108228749D01*
X120268131Y-108228754D01*
X120327711Y-108399023D01*
X120391635Y-108500757D01*
X120423684Y-108551762D01*
X120551238Y-108679316D01*
X120703978Y-108775289D01*
X120824916Y-108817607D01*
X120874245Y-108834868D01*
X120874250Y-108834869D01*
X121053496Y-108855065D01*
X121053500Y-108855065D01*
X121053503Y-108855065D01*
X121233262Y-108834811D01*
X121302084Y-108846865D01*
X121334827Y-108870350D01*
X122518181Y-110053704D01*
X122551666Y-110115027D01*
X122554500Y-110141385D01*
X122554500Y-114354614D01*
X122534815Y-114421653D01*
X122518181Y-114442295D01*
X120531326Y-116429149D01*
X120470003Y-116462634D01*
X120429762Y-116464688D01*
X120250004Y-116444435D01*
X120249996Y-116444435D01*
X120070750Y-116464630D01*
X120070745Y-116464631D01*
X119900476Y-116524211D01*
X119747737Y-116620184D01*
X119620184Y-116747737D01*
X119524211Y-116900476D01*
X119464631Y-117070745D01*
X119464630Y-117070750D01*
X119444435Y-117249996D01*
X119444435Y-117250003D01*
X119464630Y-117429249D01*
X119464631Y-117429254D01*
X119524211Y-117599523D01*
X119530401Y-117609374D01*
X119620184Y-117752262D01*
X119747738Y-117879816D01*
X119864393Y-117953115D01*
X119900481Y-117975791D01*
X119902586Y-117976805D01*
X119903711Y-117977820D01*
X119906374Y-117979494D01*
X119906080Y-117979960D01*
X119954446Y-118023627D01*
X119972759Y-118091054D01*
X119951711Y-118157678D01*
X119897985Y-118202346D01*
X119880879Y-118208300D01*
X119788342Y-118233095D01*
X119788335Y-118233098D01*
X119574171Y-118332964D01*
X119574169Y-118332965D01*
X119380597Y-118468505D01*
X119213505Y-118635597D01*
X119077965Y-118829169D01*
X119077964Y-118829171D01*
X118978098Y-119043335D01*
X118978094Y-119043344D01*
X118916938Y-119271586D01*
X118916936Y-119271596D01*
X118896341Y-119506999D01*
X110156500Y-119506999D01*
X110156500Y-113177812D01*
X110176185Y-113110773D01*
X110228989Y-113065018D01*
X110298147Y-113055074D01*
X110361703Y-113084099D01*
X110385492Y-113111838D01*
X110395184Y-113127262D01*
X110522738Y-113254816D01*
X110569937Y-113284473D01*
X110667060Y-113345500D01*
X110675478Y-113350789D01*
X110759967Y-113380353D01*
X110845745Y-113410368D01*
X110845750Y-113410369D01*
X111024996Y-113430565D01*
X111025000Y-113430565D01*
X111025004Y-113430565D01*
X111204249Y-113410369D01*
X111204252Y-113410368D01*
X111204255Y-113410368D01*
X111374522Y-113350789D01*
X111382940Y-113345500D01*
X111414268Y-113325815D01*
X111507616Y-113267159D01*
X111574849Y-113248160D01*
X111641685Y-113268527D01*
X111661267Y-113284473D01*
X111761181Y-113384387D01*
X111794666Y-113445710D01*
X111797500Y-113472068D01*
X111797500Y-115032565D01*
X111777815Y-115099604D01*
X111725011Y-115145359D01*
X111659617Y-115155785D01*
X111550004Y-115143435D01*
X111549996Y-115143435D01*
X111370750Y-115163630D01*
X111370745Y-115163631D01*
X111200476Y-115223211D01*
X111047737Y-115319184D01*
X110920184Y-115446737D01*
X110824211Y-115599476D01*
X110764631Y-115769745D01*
X110764630Y-115769750D01*
X110744435Y-115948996D01*
X110744435Y-115949003D01*
X110764630Y-116128249D01*
X110764631Y-116128254D01*
X110824211Y-116298523D01*
X110901009Y-116420745D01*
X110920184Y-116451262D01*
X111047738Y-116578816D01*
X111113575Y-116620184D01*
X111171872Y-116656815D01*
X111200478Y-116674789D01*
X111370745Y-116734368D01*
X111370750Y-116734369D01*
X111549996Y-116754565D01*
X111550000Y-116754565D01*
X111550004Y-116754565D01*
X111729249Y-116734369D01*
X111729252Y-116734368D01*
X111729255Y-116734368D01*
X111899522Y-116674789D01*
X112052262Y-116578816D01*
X112179816Y-116451262D01*
X112275789Y-116298522D01*
X112335368Y-116128255D01*
X112335509Y-116127003D01*
X112355565Y-115949003D01*
X112355565Y-115948996D01*
X112335369Y-115769750D01*
X112335366Y-115769737D01*
X112286166Y-115629133D01*
X112282604Y-115559354D01*
X112288642Y-115540736D01*
X112306500Y-115497623D01*
X112306500Y-113380353D01*
X112306501Y-113380344D01*
X112306501Y-113264666D01*
X112306501Y-113264665D01*
X112267755Y-113171125D01*
X111861758Y-112765128D01*
X111828273Y-112703805D01*
X111826219Y-112663565D01*
X111830565Y-112625000D01*
X111830565Y-112624997D01*
X111810369Y-112445750D01*
X111810368Y-112445745D01*
X111796355Y-112405698D01*
X111750789Y-112275478D01*
X111746499Y-112268651D01*
X111664507Y-112138161D01*
X111654816Y-112122738D01*
X111527262Y-111995184D01*
X111459802Y-111952796D01*
X111374523Y-111899211D01*
X111204254Y-111839631D01*
X111204249Y-111839630D01*
X111025004Y-111819435D01*
X111024996Y-111819435D01*
X110845750Y-111839630D01*
X110845745Y-111839631D01*
X110675476Y-111899211D01*
X110522737Y-111995184D01*
X110395184Y-112122737D01*
X110395180Y-112122742D01*
X110385492Y-112138161D01*
X110333157Y-112184451D01*
X110264103Y-112195098D01*
X110200255Y-112166722D01*
X110161885Y-112108331D01*
X110156500Y-112072187D01*
X110156500Y-110274227D01*
X110176185Y-110207188D01*
X110214525Y-110169235D01*
X110277262Y-110129816D01*
X110404816Y-110002262D01*
X110500789Y-109849522D01*
X110560368Y-109679255D01*
X110566287Y-109626724D01*
X110580565Y-109500003D01*
X110580565Y-109499996D01*
X110560369Y-109320750D01*
X110560368Y-109320745D01*
X110540540Y-109264081D01*
X110500789Y-109150478D01*
X110404816Y-108997738D01*
X110277262Y-108870184D01*
X110221057Y-108834868D01*
X110124523Y-108774211D01*
X109954254Y-108714631D01*
X109954249Y-108714630D01*
X109775004Y-108694435D01*
X109774996Y-108694435D01*
X109595750Y-108714630D01*
X109595745Y-108714631D01*
X109425476Y-108774211D01*
X109272737Y-108870184D01*
X109145184Y-108997737D01*
X109049211Y-109150476D01*
X108989631Y-109320745D01*
X108989630Y-109320750D01*
X108969435Y-109499996D01*
X96520000Y-109499996D01*
X96520000Y-98669505D01*
X102637500Y-98669505D01*
X102637500Y-99514494D01*
X102652078Y-99643885D01*
X102652081Y-99643898D01*
X102709486Y-99807950D01*
X102709487Y-99807954D01*
X102801964Y-99955129D01*
X102924873Y-100078038D01*
X102947201Y-100092067D01*
X102993493Y-100144401D01*
X103004142Y-100213455D01*
X102975767Y-100277303D01*
X102968912Y-100284742D01*
X102910822Y-100342832D01*
X102804434Y-100489265D01*
X102722252Y-100650552D01*
X102722250Y-100650558D01*
X102666318Y-100822704D01*
X102666315Y-100822714D01*
X102663261Y-100842000D01*
X103732670Y-100842000D01*
X103712925Y-100861745D01*
X103663556Y-100947255D01*
X103638000Y-101042630D01*
X103638000Y-101141370D01*
X103663556Y-101236745D01*
X103712925Y-101322255D01*
X103732670Y-101342000D01*
X102663261Y-101342000D01*
X102666315Y-101361285D01*
X102666318Y-101361295D01*
X102722250Y-101533441D01*
X102722252Y-101533447D01*
X102804434Y-101694734D01*
X102910823Y-101841169D01*
X103038830Y-101969176D01*
X103185265Y-102075565D01*
X103346552Y-102157747D01*
X103346555Y-102157748D01*
X103518706Y-102213682D01*
X103697494Y-102242000D01*
X103763000Y-102242000D01*
X103763000Y-101372330D01*
X103782745Y-101392075D01*
X103868255Y-101441444D01*
X103963630Y-101467000D01*
X104062370Y-101467000D01*
X104157745Y-101441444D01*
X104243255Y-101392075D01*
X104263000Y-101372330D01*
X104263000Y-102242000D01*
X104328506Y-102242000D01*
X104507293Y-102213682D01*
X104679444Y-102157748D01*
X104679447Y-102157747D01*
X104840734Y-102075565D01*
X104987169Y-101969176D01*
X105115176Y-101841169D01*
X105221565Y-101694734D01*
X105303747Y-101533447D01*
X105303749Y-101533441D01*
X105359681Y-101361295D01*
X105359684Y-101361285D01*
X105362739Y-101342000D01*
X104293330Y-101342000D01*
X104313075Y-101322255D01*
X104362444Y-101236745D01*
X104388000Y-101141370D01*
X104388000Y-101042630D01*
X104362444Y-100947255D01*
X104313075Y-100861745D01*
X104293330Y-100842000D01*
X105362739Y-100842000D01*
X105359684Y-100822714D01*
X105359681Y-100822704D01*
X105303749Y-100650558D01*
X105303747Y-100650552D01*
X105221565Y-100489265D01*
X105115176Y-100342830D01*
X105057088Y-100284742D01*
X105023603Y-100223419D01*
X105028587Y-100153727D01*
X105070459Y-100097794D01*
X105078784Y-100092075D01*
X105101129Y-100078036D01*
X105129169Y-100049996D01*
X116703935Y-100049996D01*
X116703935Y-100050003D01*
X116724130Y-100229249D01*
X116724131Y-100229254D01*
X116783711Y-100399523D01*
X116830211Y-100473527D01*
X116879684Y-100552262D01*
X117007238Y-100679816D01*
X117159978Y-100775789D01*
X117294082Y-100822714D01*
X117330245Y-100835368D01*
X117330250Y-100835369D01*
X117509496Y-100855565D01*
X117509500Y-100855565D01*
X117509504Y-100855565D01*
X117688749Y-100835369D01*
X117688752Y-100835368D01*
X117688755Y-100835368D01*
X117859022Y-100775789D01*
X118011762Y-100679816D01*
X118124819Y-100566759D01*
X118186142Y-100533274D01*
X118255834Y-100538258D01*
X118300181Y-100566759D01*
X118388238Y-100654816D01*
X118540978Y-100750789D01*
X118681604Y-100799996D01*
X118711245Y-100810368D01*
X118711250Y-100810369D01*
X118890496Y-100830565D01*
X118890500Y-100830565D01*
X118890504Y-100830565D01*
X119069749Y-100810369D01*
X119069752Y-100810368D01*
X119069755Y-100810368D01*
X119099396Y-100799996D01*
X121194435Y-100799996D01*
X121194435Y-100800003D01*
X121214630Y-100979249D01*
X121214631Y-100979254D01*
X121274211Y-101149523D01*
X121329017Y-101236745D01*
X121370184Y-101302262D01*
X121497738Y-101429816D01*
X121650478Y-101525789D01*
X121820745Y-101585368D01*
X121820750Y-101585369D01*
X121999996Y-101605565D01*
X122000000Y-101605565D01*
X122000004Y-101605565D01*
X122179249Y-101585369D01*
X122179252Y-101585368D01*
X122179255Y-101585368D01*
X122349522Y-101525789D01*
X122502262Y-101429816D01*
X122629816Y-101302262D01*
X122725789Y-101149522D01*
X122785368Y-100979255D01*
X122798788Y-100860151D01*
X122805565Y-100800003D01*
X122805565Y-100799996D01*
X122785369Y-100620748D01*
X122770562Y-100578433D01*
X122766999Y-100508655D01*
X122799922Y-100449797D01*
X123199723Y-100049996D01*
X123562825Y-99686893D01*
X123624147Y-99653410D01*
X123693839Y-99658394D01*
X123749772Y-99700266D01*
X123755498Y-99708603D01*
X123795182Y-99771760D01*
X123795184Y-99771762D01*
X123922738Y-99899316D01*
X123970917Y-99929589D01*
X124074118Y-99994435D01*
X124075478Y-99995289D01*
X124196639Y-100037685D01*
X124245745Y-100054868D01*
X124245750Y-100054869D01*
X124424996Y-100075065D01*
X124425000Y-100075065D01*
X124425004Y-100075065D01*
X124604249Y-100054869D01*
X124604252Y-100054868D01*
X124604255Y-100054868D01*
X124774522Y-99995289D01*
X124927262Y-99899316D01*
X125054816Y-99771762D01*
X125150789Y-99619022D01*
X125210368Y-99448755D01*
X125214974Y-99407876D01*
X125230565Y-99269503D01*
X125230565Y-99269496D01*
X125210369Y-99090250D01*
X125210368Y-99090245D01*
X125184052Y-99015039D01*
X125150789Y-98919978D01*
X125150502Y-98919522D01*
X125097598Y-98835325D01*
X125054816Y-98767238D01*
X124927262Y-98639684D01*
X124915802Y-98632483D01*
X124774523Y-98543711D01*
X124604254Y-98484131D01*
X124604249Y-98484130D01*
X124425004Y-98463935D01*
X124424996Y-98463935D01*
X124245750Y-98484130D01*
X124245745Y-98484131D01*
X124075476Y-98543711D01*
X123922737Y-98639684D01*
X123795184Y-98767237D01*
X123763326Y-98817939D01*
X123722731Y-98882547D01*
X123715866Y-98893472D01*
X123663531Y-98939763D01*
X123610872Y-98951500D01*
X123488635Y-98951500D01*
X123407752Y-98973172D01*
X123407750Y-98973173D01*
X123335249Y-99015033D01*
X123335240Y-99015039D01*
X122350201Y-100000077D01*
X122288878Y-100033562D01*
X122221565Y-100029437D01*
X122179257Y-100014632D01*
X122179246Y-100014630D01*
X122000004Y-99994435D01*
X121999996Y-99994435D01*
X121820750Y-100014630D01*
X121820745Y-100014631D01*
X121650476Y-100074211D01*
X121497737Y-100170184D01*
X121370184Y-100297737D01*
X121274211Y-100450476D01*
X121214631Y-100620745D01*
X121214630Y-100620750D01*
X121194435Y-100799996D01*
X119099396Y-100799996D01*
X119240022Y-100750789D01*
X119392762Y-100654816D01*
X119520316Y-100527262D01*
X119616289Y-100374522D01*
X119675868Y-100204255D01*
X119687863Y-100097794D01*
X119696065Y-100025003D01*
X119696065Y-100024996D01*
X119675869Y-99845750D01*
X119675868Y-99845745D01*
X119662643Y-99807950D01*
X119616289Y-99675478D01*
X119605554Y-99658394D01*
X119561009Y-99587500D01*
X119520316Y-99522738D01*
X119392762Y-99395184D01*
X119240023Y-99299211D01*
X119069754Y-99239631D01*
X119069749Y-99239630D01*
X118890504Y-99219435D01*
X118890496Y-99219435D01*
X118711250Y-99239630D01*
X118711245Y-99239631D01*
X118540976Y-99299211D01*
X118388237Y-99395184D01*
X118275181Y-99508241D01*
X118213858Y-99541726D01*
X118144166Y-99536742D01*
X118099819Y-99508241D01*
X118011762Y-99420184D01*
X117859023Y-99324211D01*
X117688754Y-99264631D01*
X117688749Y-99264630D01*
X117509504Y-99244435D01*
X117509496Y-99244435D01*
X117330250Y-99264630D01*
X117330245Y-99264631D01*
X117159976Y-99324211D01*
X117007237Y-99420184D01*
X116879684Y-99547737D01*
X116783711Y-99700476D01*
X116724131Y-99870745D01*
X116724130Y-99870750D01*
X116703935Y-100049996D01*
X105129169Y-100049996D01*
X105224036Y-99955129D01*
X105316512Y-99807954D01*
X105351276Y-99708603D01*
X105373918Y-99643898D01*
X105373921Y-99643885D01*
X105385431Y-99541726D01*
X105388500Y-99514488D01*
X105388500Y-98669512D01*
X105377612Y-98572873D01*
X105373921Y-98540114D01*
X105373918Y-98540101D01*
X105316513Y-98376049D01*
X105316512Y-98376045D01*
X105224035Y-98228870D01*
X105101129Y-98105964D01*
X104953954Y-98013487D01*
X104953950Y-98013486D01*
X104789898Y-97956081D01*
X104789885Y-97956078D01*
X104660494Y-97941500D01*
X104660488Y-97941500D01*
X103365512Y-97941500D01*
X103365505Y-97941500D01*
X103236114Y-97956078D01*
X103236101Y-97956081D01*
X103072049Y-98013486D01*
X103072045Y-98013487D01*
X102924870Y-98105964D01*
X102801964Y-98228870D01*
X102709487Y-98376045D01*
X102709486Y-98376049D01*
X102652081Y-98540101D01*
X102652078Y-98540114D01*
X102637500Y-98669505D01*
X96520000Y-98669505D01*
X96520000Y-96777135D01*
X141699500Y-96777135D01*
X141699500Y-98572870D01*
X141699501Y-98572876D01*
X141705908Y-98632483D01*
X141756202Y-98767328D01*
X141756206Y-98767335D01*
X141842452Y-98882544D01*
X141842455Y-98882547D01*
X141957664Y-98968793D01*
X141957671Y-98968797D01*
X142092517Y-99019091D01*
X142092516Y-99019091D01*
X142099444Y-99019835D01*
X142152127Y-99025500D01*
X143947872Y-99025499D01*
X143972593Y-99022841D01*
X144041351Y-99035244D01*
X144073531Y-99058449D01*
X146148837Y-101133755D01*
X146242377Y-101172501D01*
X146242378Y-101172501D01*
X146358057Y-101172501D01*
X146358065Y-101172500D01*
X163354515Y-101172500D01*
X163421554Y-101192185D01*
X163467309Y-101244989D01*
X163477253Y-101314147D01*
X163472221Y-101335502D01*
X163470002Y-101342197D01*
X163470000Y-101342204D01*
X163459500Y-101444983D01*
X163459500Y-102220001D01*
X163459501Y-102220019D01*
X163470000Y-102322796D01*
X163470001Y-102322799D01*
X163492032Y-102389283D01*
X163494434Y-102459111D01*
X163462007Y-102515968D01*
X163051753Y-102926224D01*
X162980725Y-102997251D01*
X162980723Y-102997254D01*
X162930499Y-103084245D01*
X162930499Y-103084246D01*
X162904500Y-103181275D01*
X162904500Y-106612543D01*
X162930499Y-106709572D01*
X162930500Y-106709574D01*
X162932085Y-106712318D01*
X162932089Y-106712336D01*
X162932094Y-106712334D01*
X162980723Y-106796563D01*
X162980725Y-106796566D01*
X163740979Y-107556819D01*
X163774464Y-107618142D01*
X163769480Y-107687833D01*
X163727608Y-107743767D01*
X163662144Y-107768184D01*
X163653298Y-107768500D01*
X159172519Y-107768500D01*
X159105480Y-107748815D01*
X159059725Y-107696011D01*
X159049299Y-107630617D01*
X159055565Y-107575003D01*
X159055565Y-107574996D01*
X159035369Y-107395750D01*
X159035368Y-107395745D01*
X158993321Y-107275582D01*
X158975789Y-107225478D01*
X158879816Y-107072738D01*
X158752262Y-106945184D01*
X158599523Y-106849211D01*
X158429254Y-106789631D01*
X158429249Y-106789630D01*
X158250004Y-106769435D01*
X158249996Y-106769435D01*
X158070750Y-106789630D01*
X158070745Y-106789631D01*
X157900476Y-106849211D01*
X157747737Y-106945184D01*
X157620184Y-107072737D01*
X157524211Y-107225476D01*
X157464631Y-107395745D01*
X157464630Y-107395750D01*
X157444435Y-107574996D01*
X157444435Y-107575003D01*
X157464630Y-107754249D01*
X157464631Y-107754254D01*
X157524211Y-107924523D01*
X157602737Y-108049496D01*
X157620184Y-108077262D01*
X157747738Y-108204816D01*
X157900478Y-108300789D01*
X158070745Y-108360368D01*
X158099911Y-108363654D01*
X158164324Y-108390718D01*
X158203881Y-108448312D01*
X158209249Y-108500757D01*
X158192435Y-108649995D01*
X158192435Y-108650003D01*
X158212630Y-108829249D01*
X158212631Y-108829254D01*
X158272211Y-108999523D01*
X158331872Y-109094472D01*
X158368184Y-109152262D01*
X158495738Y-109279816D01*
X158648478Y-109375789D01*
X158754756Y-109412977D01*
X158811532Y-109453699D01*
X158837280Y-109518651D01*
X158837022Y-109543902D01*
X158819435Y-109699996D01*
X158819435Y-109700003D01*
X158839630Y-109879249D01*
X158839631Y-109879254D01*
X158899211Y-110049523D01*
X158974430Y-110169232D01*
X158995184Y-110202262D01*
X159122738Y-110329816D01*
X159275478Y-110425789D01*
X159374428Y-110460413D01*
X159445745Y-110485368D01*
X159445750Y-110485369D01*
X159624996Y-110505565D01*
X159625000Y-110505565D01*
X159625004Y-110505565D01*
X159804249Y-110485369D01*
X159804252Y-110485368D01*
X159804255Y-110485368D01*
X159974522Y-110425789D01*
X160127262Y-110329816D01*
X160254816Y-110202262D01*
X160350789Y-110049522D01*
X160381923Y-109960545D01*
X160422645Y-109903770D01*
X160487597Y-109878022D01*
X160498965Y-109877500D01*
X171069515Y-109877500D01*
X171136554Y-109897185D01*
X171182309Y-109949989D01*
X171192253Y-110019147D01*
X171187221Y-110040502D01*
X171185002Y-110047197D01*
X171185000Y-110047204D01*
X171174500Y-110149984D01*
X171174500Y-111850015D01*
X171185000Y-111952795D01*
X171185001Y-111952796D01*
X171240186Y-112119335D01*
X171240187Y-112119337D01*
X171332286Y-112268651D01*
X171332289Y-112268655D01*
X171456344Y-112392710D01*
X171456348Y-112392713D01*
X171605662Y-112484812D01*
X171605664Y-112484813D01*
X171605666Y-112484814D01*
X171772203Y-112539999D01*
X171874992Y-112550500D01*
X171874997Y-112550500D01*
X173575003Y-112550500D01*
X173575008Y-112550500D01*
X173677797Y-112539999D01*
X173844334Y-112484814D01*
X173993655Y-112392711D01*
X174117711Y-112268655D01*
X174209814Y-112119334D01*
X174264999Y-111952797D01*
X174275500Y-111850008D01*
X174275500Y-110483435D01*
X174295185Y-110416396D01*
X174347989Y-110370641D01*
X174413383Y-110360215D01*
X174593996Y-110380565D01*
X174594000Y-110380565D01*
X174594004Y-110380565D01*
X174773249Y-110360369D01*
X174773252Y-110360368D01*
X174773255Y-110360368D01*
X174943522Y-110300789D01*
X175096262Y-110204816D01*
X175223816Y-110077262D01*
X175319789Y-109924522D01*
X175379368Y-109754255D01*
X175385481Y-109700000D01*
X175399565Y-109575003D01*
X175399565Y-109574996D01*
X175379369Y-109395750D01*
X175379368Y-109395745D01*
X175355358Y-109327128D01*
X175319789Y-109225478D01*
X175223816Y-109072738D01*
X175096262Y-108945184D01*
X175008337Y-108889937D01*
X174943521Y-108849210D01*
X174901767Y-108834600D01*
X174844990Y-108793878D01*
X174819243Y-108728925D01*
X174832699Y-108660364D01*
X174855040Y-108629877D01*
X175246163Y-108238755D01*
X175765755Y-107719163D01*
X175804501Y-107625623D01*
X175804501Y-107524377D01*
X175804501Y-107514388D01*
X175804500Y-107514374D01*
X175804500Y-103699378D01*
X175804498Y-103699373D01*
X175802838Y-103695366D01*
X175790037Y-103664459D01*
X175765757Y-103605839D01*
X175687098Y-103527180D01*
X175687091Y-103527174D01*
X174129162Y-101969244D01*
X174129160Y-101969242D01*
X174035626Y-101930501D01*
X174035624Y-101930500D01*
X174035623Y-101930500D01*
X174035621Y-101930500D01*
X169867021Y-101930500D01*
X169799982Y-101910815D01*
X169754227Y-101858011D01*
X169749980Y-101847455D01*
X169745789Y-101835478D01*
X169745787Y-101835475D01*
X169707488Y-101774523D01*
X169649816Y-101682738D01*
X169558765Y-101591687D01*
X169525281Y-101530363D01*
X169523227Y-101490121D01*
X169528314Y-101444981D01*
X169530565Y-101425000D01*
X169530565Y-101424997D01*
X169510369Y-101245750D01*
X169510368Y-101245745D01*
X169496333Y-101205636D01*
X169450789Y-101075478D01*
X169357736Y-100927386D01*
X169338737Y-100860151D01*
X169359105Y-100793315D01*
X169396759Y-100756421D01*
X169418825Y-100742556D01*
X169538268Y-100667505D01*
X169665822Y-100539951D01*
X169761795Y-100387211D01*
X169821374Y-100216944D01*
X169822804Y-100204254D01*
X169841571Y-100037692D01*
X169841571Y-100037685D01*
X169821375Y-99858439D01*
X169821374Y-99858434D01*
X169803709Y-99807950D01*
X169761795Y-99688167D01*
X169665822Y-99535427D01*
X169538268Y-99407873D01*
X169538264Y-99407870D01*
X169533735Y-99404259D01*
X169493592Y-99347072D01*
X169487824Y-99321191D01*
X169487712Y-99320203D01*
X169487713Y-99320201D01*
X169479631Y-99248470D01*
X169491686Y-99179649D01*
X169515166Y-99146910D01*
X169589816Y-99072262D01*
X169685789Y-98919522D01*
X169745368Y-98749255D01*
X169745369Y-98749249D01*
X169765565Y-98570003D01*
X169765565Y-98569996D01*
X169745369Y-98390750D01*
X169745368Y-98390745D01*
X169685788Y-98220476D01*
X169589815Y-98067737D01*
X169462262Y-97940184D01*
X169309521Y-97844210D01*
X169169677Y-97795277D01*
X169112900Y-97754555D01*
X169087411Y-97692119D01*
X169079370Y-97620745D01*
X169019791Y-97450478D01*
X168923818Y-97297738D01*
X168796264Y-97170184D01*
X168643525Y-97074211D01*
X168473256Y-97014631D01*
X168473251Y-97014630D01*
X168294006Y-96994435D01*
X168293998Y-96994435D01*
X168114752Y-97014630D01*
X168114739Y-97014633D01*
X168005911Y-97052715D01*
X167936132Y-97056277D01*
X167877275Y-97023355D01*
X167815819Y-96961899D01*
X167782334Y-96900576D01*
X167779500Y-96874218D01*
X167779500Y-94522021D01*
X167799185Y-94454982D01*
X167851989Y-94409227D01*
X167862540Y-94404981D01*
X167874522Y-94400789D01*
X168027262Y-94304816D01*
X168154816Y-94177262D01*
X168250789Y-94024522D01*
X168310368Y-93854255D01*
X168330565Y-93675000D01*
X168310368Y-93495745D01*
X168250789Y-93325478D01*
X168154816Y-93172738D01*
X168027262Y-93045184D01*
X167874523Y-92949211D01*
X167704254Y-92889631D01*
X167704249Y-92889630D01*
X167525004Y-92869435D01*
X167524996Y-92869435D01*
X167345750Y-92889630D01*
X167345745Y-92889631D01*
X167175476Y-92949211D01*
X167022737Y-93045184D01*
X166895184Y-93172737D01*
X166799211Y-93325476D01*
X166739631Y-93495745D01*
X166739630Y-93495750D01*
X166719435Y-93674996D01*
X166719435Y-93675003D01*
X166739630Y-93854249D01*
X166739631Y-93854254D01*
X166799211Y-94024523D01*
X166895184Y-94177262D01*
X167022738Y-94304816D01*
X167175478Y-94400789D01*
X167187452Y-94404978D01*
X167244229Y-94445698D01*
X167269978Y-94510650D01*
X167270500Y-94522021D01*
X167270500Y-97081619D01*
X167270501Y-97081624D01*
X167309242Y-97175158D01*
X167517357Y-97383273D01*
X167550842Y-97444596D01*
X167546717Y-97511909D01*
X167508635Y-97620737D01*
X167508632Y-97620750D01*
X167488437Y-97799996D01*
X167488437Y-97800003D01*
X167508632Y-97979249D01*
X167508635Y-97979262D01*
X167561572Y-98130545D01*
X167565134Y-98200324D01*
X167530406Y-98260951D01*
X167468412Y-98293179D01*
X167444531Y-98295500D01*
X158470021Y-98295500D01*
X158402982Y-98275815D01*
X158357227Y-98223011D01*
X158352980Y-98212455D01*
X158348789Y-98200478D01*
X158348787Y-98200475D01*
X158252815Y-98047737D01*
X158125262Y-97920184D01*
X157972523Y-97824211D01*
X157802254Y-97764631D01*
X157802249Y-97764630D01*
X157623004Y-97744435D01*
X157622996Y-97744435D01*
X157443750Y-97764630D01*
X157443745Y-97764631D01*
X157273476Y-97824211D01*
X157120737Y-97920184D01*
X156993184Y-98047737D01*
X156897211Y-98200476D01*
X156837631Y-98370745D01*
X156837630Y-98370750D01*
X156817435Y-98549996D01*
X156817435Y-98550003D01*
X156837630Y-98729249D01*
X156837632Y-98729257D01*
X156850330Y-98765546D01*
X156853891Y-98835325D01*
X156819162Y-98895952D01*
X156757168Y-98928179D01*
X156733288Y-98930500D01*
X152630769Y-98930500D01*
X152563730Y-98910815D01*
X152517975Y-98858011D01*
X152513728Y-98847455D01*
X152509483Y-98835325D01*
X152500789Y-98810478D01*
X152404816Y-98657738D01*
X152277262Y-98530184D01*
X152203971Y-98484132D01*
X152124523Y-98434211D01*
X151954254Y-98374631D01*
X151954249Y-98374630D01*
X151775004Y-98354435D01*
X151774996Y-98354435D01*
X151595750Y-98374630D01*
X151595745Y-98374631D01*
X151425476Y-98434211D01*
X151272737Y-98530184D01*
X151145184Y-98657737D01*
X151049211Y-98810476D01*
X150989631Y-98980745D01*
X150989630Y-98980750D01*
X150969435Y-99159996D01*
X150969435Y-99160003D01*
X150989630Y-99339249D01*
X150989631Y-99339254D01*
X151049211Y-99509523D01*
X151122071Y-99625478D01*
X151145184Y-99662262D01*
X151272738Y-99789816D01*
X151361748Y-99845745D01*
X151401543Y-99870750D01*
X151425478Y-99885789D01*
X151550651Y-99929589D01*
X151595745Y-99945368D01*
X151595750Y-99945369D01*
X151774996Y-99965565D01*
X151775000Y-99965565D01*
X151775004Y-99965565D01*
X151954249Y-99945369D01*
X151954250Y-99945368D01*
X151954255Y-99945368D01*
X151989166Y-99933151D01*
X152058944Y-99929589D01*
X152119572Y-99964317D01*
X152151800Y-100026310D01*
X152153342Y-100036309D01*
X152166630Y-100154250D01*
X152166631Y-100154254D01*
X152226211Y-100324523D01*
X152273337Y-100399523D01*
X152305354Y-100450478D01*
X152319838Y-100473528D01*
X152338838Y-100540764D01*
X152318470Y-100607600D01*
X152265203Y-100652814D01*
X152214844Y-100663500D01*
X146449780Y-100663500D01*
X146382741Y-100643815D01*
X146362099Y-100627181D01*
X144433450Y-98698532D01*
X144399965Y-98637209D01*
X144397842Y-98597596D01*
X144398115Y-98595051D01*
X144400500Y-98572873D01*
X144400499Y-96777128D01*
X144394091Y-96717517D01*
X144343796Y-96582669D01*
X144343795Y-96582668D01*
X144343793Y-96582664D01*
X144257547Y-96467455D01*
X144257544Y-96467452D01*
X144142335Y-96381206D01*
X144142328Y-96381202D01*
X144007482Y-96330908D01*
X144007483Y-96330908D01*
X143947883Y-96324501D01*
X143947881Y-96324500D01*
X143947873Y-96324500D01*
X143947864Y-96324500D01*
X142152129Y-96324500D01*
X142152123Y-96324501D01*
X142092516Y-96330908D01*
X141957671Y-96381202D01*
X141957664Y-96381206D01*
X141842455Y-96467452D01*
X141842452Y-96467455D01*
X141756206Y-96582664D01*
X141756202Y-96582671D01*
X141705908Y-96717517D01*
X141699501Y-96777116D01*
X141699501Y-96777123D01*
X141699500Y-96777135D01*
X96520000Y-96777135D01*
X96520000Y-90624996D01*
X116679435Y-90624996D01*
X116679435Y-90625003D01*
X116699630Y-90804249D01*
X116699631Y-90804254D01*
X116759211Y-90974523D01*
X116855184Y-91127262D01*
X116982738Y-91254816D01*
X117002662Y-91267335D01*
X117132686Y-91349035D01*
X117135478Y-91350789D01*
X117305745Y-91410368D01*
X117305750Y-91410369D01*
X117484996Y-91430565D01*
X117485000Y-91430565D01*
X117485004Y-91430565D01*
X117664249Y-91410369D01*
X117664252Y-91410368D01*
X117664255Y-91410368D01*
X117834522Y-91350789D01*
X117987262Y-91254816D01*
X118114816Y-91127262D01*
X118194134Y-91001027D01*
X118246469Y-90954737D01*
X118299128Y-90943000D01*
X118615207Y-90943000D01*
X118682246Y-90962685D01*
X118728001Y-91015489D01*
X118732248Y-91026045D01*
X118749210Y-91074521D01*
X118749212Y-91074524D01*
X118845184Y-91227262D01*
X118972738Y-91354816D01*
X119016867Y-91382544D01*
X119122479Y-91448905D01*
X119125478Y-91450789D01*
X119242021Y-91491569D01*
X119295745Y-91510368D01*
X119295750Y-91510369D01*
X119474996Y-91530565D01*
X119475000Y-91530565D01*
X119475004Y-91530565D01*
X119654249Y-91510369D01*
X119654252Y-91510368D01*
X119654255Y-91510368D01*
X119824522Y-91450789D01*
X119977262Y-91354816D01*
X120104816Y-91227262D01*
X120200789Y-91074522D01*
X120260368Y-90904255D01*
X120269899Y-90819664D01*
X120280565Y-90725003D01*
X120280565Y-90724996D01*
X120263665Y-90574999D01*
X129224341Y-90574999D01*
X129224341Y-90575000D01*
X129244936Y-90810403D01*
X129244938Y-90810413D01*
X129306094Y-91038655D01*
X129306096Y-91038659D01*
X129306097Y-91038663D01*
X129386004Y-91210023D01*
X129405965Y-91252830D01*
X129405967Y-91252834D01*
X129477376Y-91354816D01*
X129541505Y-91446401D01*
X129708599Y-91613495D01*
X129805384Y-91681265D01*
X129902165Y-91749032D01*
X129902167Y-91749033D01*
X129902170Y-91749035D01*
X130116337Y-91848903D01*
X130344592Y-91910063D01*
X130521034Y-91925500D01*
X130579999Y-91930659D01*
X130580000Y-91930659D01*
X130580001Y-91930659D01*
X130638966Y-91925500D01*
X130815408Y-91910063D01*
X131043663Y-91848903D01*
X131257830Y-91749035D01*
X131451401Y-91613495D01*
X131618495Y-91446401D01*
X131732891Y-91283026D01*
X131748425Y-91260842D01*
X131803002Y-91217217D01*
X131872500Y-91210023D01*
X131934855Y-91241546D01*
X131951575Y-91260842D01*
X132081500Y-91446395D01*
X132081505Y-91446401D01*
X132248599Y-91613495D01*
X132345384Y-91681265D01*
X132442165Y-91749032D01*
X132442167Y-91749033D01*
X132442170Y-91749035D01*
X132656337Y-91848903D01*
X132884592Y-91910063D01*
X133061034Y-91925500D01*
X133119999Y-91930659D01*
X133120000Y-91930659D01*
X133120001Y-91930659D01*
X133178966Y-91925500D01*
X133355408Y-91910063D01*
X133583663Y-91848903D01*
X133797830Y-91749035D01*
X133991401Y-91613495D01*
X134158495Y-91446401D01*
X134272891Y-91283026D01*
X134288425Y-91260842D01*
X134343002Y-91217217D01*
X134412500Y-91210023D01*
X134474855Y-91241546D01*
X134491575Y-91260842D01*
X134621500Y-91446395D01*
X134621505Y-91446401D01*
X134788599Y-91613495D01*
X134885384Y-91681265D01*
X134982165Y-91749032D01*
X134982167Y-91749033D01*
X134982170Y-91749035D01*
X135196337Y-91848903D01*
X135424592Y-91910063D01*
X135601034Y-91925500D01*
X135659999Y-91930659D01*
X135660000Y-91930659D01*
X135660001Y-91930659D01*
X135718966Y-91925500D01*
X135895408Y-91910063D01*
X136123663Y-91848903D01*
X136337830Y-91749035D01*
X136531401Y-91613495D01*
X136698495Y-91446401D01*
X136812891Y-91283026D01*
X136828425Y-91260842D01*
X136883002Y-91217217D01*
X136952500Y-91210023D01*
X137014855Y-91241546D01*
X137031575Y-91260842D01*
X137161500Y-91446395D01*
X137161505Y-91446401D01*
X137328599Y-91613495D01*
X137425384Y-91681265D01*
X137522165Y-91749032D01*
X137522167Y-91749033D01*
X137522170Y-91749035D01*
X137736337Y-91848903D01*
X137964592Y-91910063D01*
X138141034Y-91925500D01*
X138199999Y-91930659D01*
X138200000Y-91930659D01*
X138200001Y-91930659D01*
X138258966Y-91925500D01*
X138435408Y-91910063D01*
X138663663Y-91848903D01*
X138877830Y-91749035D01*
X139071401Y-91613495D01*
X139193329Y-91491566D01*
X139254648Y-91458084D01*
X139324340Y-91463068D01*
X139380274Y-91504939D01*
X139397189Y-91535917D01*
X139446202Y-91667328D01*
X139446206Y-91667335D01*
X139532452Y-91782544D01*
X139532455Y-91782547D01*
X139647664Y-91868793D01*
X139647671Y-91868797D01*
X139782517Y-91919091D01*
X139782516Y-91919091D01*
X139789444Y-91919835D01*
X139842127Y-91925500D01*
X141637872Y-91925499D01*
X141697483Y-91919091D01*
X141832331Y-91868796D01*
X141947546Y-91782546D01*
X142033796Y-91667331D01*
X142084091Y-91532483D01*
X142090500Y-91472873D01*
X142090499Y-89677128D01*
X142084091Y-89617517D01*
X142082810Y-89614083D01*
X142033797Y-89482671D01*
X142033793Y-89482664D01*
X141947547Y-89367455D01*
X141947544Y-89367452D01*
X141832335Y-89281206D01*
X141832328Y-89281202D01*
X141821424Y-89277135D01*
X147884500Y-89277135D01*
X147884500Y-91072870D01*
X147884501Y-91072876D01*
X147890908Y-91132483D01*
X147941202Y-91267328D01*
X147941206Y-91267335D01*
X148027452Y-91382544D01*
X148027455Y-91382547D01*
X148142664Y-91468793D01*
X148142671Y-91468797D01*
X148277517Y-91519091D01*
X148277516Y-91519091D01*
X148284444Y-91519835D01*
X148337127Y-91525500D01*
X150132872Y-91525499D01*
X150192483Y-91519091D01*
X150327331Y-91468796D01*
X150442546Y-91382546D01*
X150528796Y-91267331D01*
X150577810Y-91135916D01*
X150619681Y-91079984D01*
X150685145Y-91055566D01*
X150753418Y-91070417D01*
X150781673Y-91091569D01*
X150903599Y-91213495D01*
X151000384Y-91281265D01*
X151097165Y-91349032D01*
X151097167Y-91349033D01*
X151097170Y-91349035D01*
X151311337Y-91448903D01*
X151311343Y-91448904D01*
X151311344Y-91448905D01*
X151345601Y-91458084D01*
X151539592Y-91510063D01*
X151716034Y-91525500D01*
X151774999Y-91530659D01*
X151775000Y-91530659D01*
X151775001Y-91530659D01*
X151833966Y-91525500D01*
X152010408Y-91510063D01*
X152238663Y-91448903D01*
X152452830Y-91349035D01*
X152646401Y-91213495D01*
X152813495Y-91046401D01*
X152949035Y-90852830D01*
X153048903Y-90638663D01*
X153110063Y-90410408D01*
X153130659Y-90175000D01*
X153110063Y-89939592D01*
X153048903Y-89711337D01*
X152949035Y-89497171D01*
X152938878Y-89482664D01*
X152813494Y-89303597D01*
X152646402Y-89136506D01*
X152646395Y-89136501D01*
X152452834Y-89000967D01*
X152452830Y-89000965D01*
X152420006Y-88985659D01*
X152238663Y-88901097D01*
X152238659Y-88901096D01*
X152238655Y-88901094D01*
X152010413Y-88839938D01*
X152010403Y-88839936D01*
X151775001Y-88819341D01*
X151774999Y-88819341D01*
X151539596Y-88839936D01*
X151539586Y-88839938D01*
X151311344Y-88901094D01*
X151311335Y-88901098D01*
X151097171Y-89000964D01*
X151097169Y-89000965D01*
X150903600Y-89136503D01*
X150781673Y-89258430D01*
X150720350Y-89291914D01*
X150650658Y-89286930D01*
X150594725Y-89245058D01*
X150577810Y-89214081D01*
X150528797Y-89082671D01*
X150528793Y-89082664D01*
X150442547Y-88967455D01*
X150442544Y-88967452D01*
X150327335Y-88881206D01*
X150327328Y-88881202D01*
X150192482Y-88830908D01*
X150192483Y-88830908D01*
X150132883Y-88824501D01*
X150132881Y-88824500D01*
X150132873Y-88824500D01*
X150132864Y-88824500D01*
X148337129Y-88824500D01*
X148337123Y-88824501D01*
X148277516Y-88830908D01*
X148142671Y-88881202D01*
X148142664Y-88881206D01*
X148027455Y-88967452D01*
X148027452Y-88967455D01*
X147941206Y-89082664D01*
X147941202Y-89082671D01*
X147890908Y-89217517D01*
X147884501Y-89277116D01*
X147884500Y-89277135D01*
X141821424Y-89277135D01*
X141697482Y-89230908D01*
X141697483Y-89230908D01*
X141637883Y-89224501D01*
X141637881Y-89224500D01*
X141637873Y-89224500D01*
X141637864Y-89224500D01*
X139842129Y-89224500D01*
X139842123Y-89224501D01*
X139782516Y-89230908D01*
X139647671Y-89281202D01*
X139647664Y-89281206D01*
X139532455Y-89367452D01*
X139532452Y-89367455D01*
X139446206Y-89482664D01*
X139446203Y-89482669D01*
X139397189Y-89614083D01*
X139355317Y-89670016D01*
X139289853Y-89694433D01*
X139221580Y-89679581D01*
X139193326Y-89658430D01*
X139071402Y-89536506D01*
X139071395Y-89536501D01*
X138877834Y-89400967D01*
X138877830Y-89400965D01*
X138877828Y-89400964D01*
X138663663Y-89301097D01*
X138663659Y-89301096D01*
X138663655Y-89301094D01*
X138435413Y-89239938D01*
X138435403Y-89239936D01*
X138200001Y-89219341D01*
X138199999Y-89219341D01*
X137964596Y-89239936D01*
X137964586Y-89239938D01*
X137736344Y-89301094D01*
X137736337Y-89301096D01*
X137736337Y-89301097D01*
X137722816Y-89307401D01*
X137522171Y-89400964D01*
X137522169Y-89400965D01*
X137328597Y-89536505D01*
X137161505Y-89703597D01*
X137031575Y-89889158D01*
X136976998Y-89932783D01*
X136907500Y-89939977D01*
X136845145Y-89908454D01*
X136828425Y-89889158D01*
X136698494Y-89703597D01*
X136531402Y-89536506D01*
X136531395Y-89536501D01*
X136337834Y-89400967D01*
X136337830Y-89400965D01*
X136337828Y-89400964D01*
X136123663Y-89301097D01*
X136123659Y-89301096D01*
X136123655Y-89301094D01*
X135895413Y-89239938D01*
X135895403Y-89239936D01*
X135660001Y-89219341D01*
X135659999Y-89219341D01*
X135424596Y-89239936D01*
X135424586Y-89239938D01*
X135196344Y-89301094D01*
X135196337Y-89301096D01*
X135196337Y-89301097D01*
X135182816Y-89307401D01*
X134982171Y-89400964D01*
X134982169Y-89400965D01*
X134788597Y-89536505D01*
X134621505Y-89703597D01*
X134491575Y-89889158D01*
X134436998Y-89932783D01*
X134367500Y-89939977D01*
X134305145Y-89908454D01*
X134288425Y-89889158D01*
X134158494Y-89703597D01*
X133991402Y-89536506D01*
X133991395Y-89536501D01*
X133797834Y-89400967D01*
X133797830Y-89400965D01*
X133797828Y-89400964D01*
X133583663Y-89301097D01*
X133583659Y-89301096D01*
X133583655Y-89301094D01*
X133355413Y-89239938D01*
X133355403Y-89239936D01*
X133120001Y-89219341D01*
X133119999Y-89219341D01*
X132884596Y-89239936D01*
X132884586Y-89239938D01*
X132656344Y-89301094D01*
X132656337Y-89301096D01*
X132656337Y-89301097D01*
X132642816Y-89307401D01*
X132442171Y-89400964D01*
X132442169Y-89400965D01*
X132248597Y-89536505D01*
X132081505Y-89703597D01*
X131951575Y-89889158D01*
X131896998Y-89932783D01*
X131827500Y-89939977D01*
X131765145Y-89908454D01*
X131748425Y-89889158D01*
X131618494Y-89703597D01*
X131451402Y-89536506D01*
X131451395Y-89536501D01*
X131257834Y-89400967D01*
X131257830Y-89400965D01*
X131257828Y-89400964D01*
X131043663Y-89301097D01*
X131043659Y-89301096D01*
X131043655Y-89301094D01*
X130815413Y-89239938D01*
X130815403Y-89239936D01*
X130580001Y-89219341D01*
X130579999Y-89219341D01*
X130344596Y-89239936D01*
X130344586Y-89239938D01*
X130116344Y-89301094D01*
X130116337Y-89301096D01*
X130116337Y-89301097D01*
X130102816Y-89307401D01*
X129902171Y-89400964D01*
X129902169Y-89400965D01*
X129708597Y-89536505D01*
X129541505Y-89703597D01*
X129405965Y-89897169D01*
X129405964Y-89897171D01*
X129306098Y-90111335D01*
X129306094Y-90111344D01*
X129244938Y-90339586D01*
X129244936Y-90339596D01*
X129224341Y-90574999D01*
X120263665Y-90574999D01*
X120260369Y-90545750D01*
X120260368Y-90545745D01*
X120213013Y-90410413D01*
X120200789Y-90375478D01*
X120104816Y-90222738D01*
X119977262Y-90095184D01*
X119824523Y-89999211D01*
X119654254Y-89939631D01*
X119654249Y-89939630D01*
X119475004Y-89919435D01*
X119474996Y-89919435D01*
X119295750Y-89939630D01*
X119295745Y-89939631D01*
X119125476Y-89999211D01*
X118972737Y-90095184D01*
X118845184Y-90222737D01*
X118845182Y-90222740D01*
X118828699Y-90248973D01*
X118776364Y-90295264D01*
X118723706Y-90307000D01*
X118299128Y-90307000D01*
X118232089Y-90287315D01*
X118194134Y-90248972D01*
X118177650Y-90222738D01*
X118114816Y-90122738D01*
X117987262Y-89995184D01*
X117898852Y-89939632D01*
X117834523Y-89899211D01*
X117664254Y-89839631D01*
X117664249Y-89839630D01*
X117485004Y-89819435D01*
X117484996Y-89819435D01*
X117305750Y-89839630D01*
X117305745Y-89839631D01*
X117135476Y-89899211D01*
X116982737Y-89995184D01*
X116855184Y-90122737D01*
X116759211Y-90275476D01*
X116699631Y-90445745D01*
X116699630Y-90445750D01*
X116679435Y-90624996D01*
X96520000Y-90624996D01*
X96520000Y-87659999D01*
X159474341Y-87659999D01*
X159474341Y-87660000D01*
X159494936Y-87895403D01*
X159494938Y-87895413D01*
X159556094Y-88123655D01*
X159556096Y-88123659D01*
X159556097Y-88123663D01*
X159625369Y-88272217D01*
X159655965Y-88337830D01*
X159655967Y-88337834D01*
X159764281Y-88492521D01*
X159791505Y-88531401D01*
X159958599Y-88698495D01*
X160055384Y-88766265D01*
X160152165Y-88834032D01*
X160152167Y-88834033D01*
X160152170Y-88834035D01*
X160366337Y-88933903D01*
X160594592Y-88995063D01*
X160782918Y-89011539D01*
X160829999Y-89015659D01*
X160830000Y-89015659D01*
X160830001Y-89015659D01*
X160869234Y-89012226D01*
X161065408Y-88995063D01*
X161293663Y-88933903D01*
X161507830Y-88834035D01*
X161701401Y-88698495D01*
X161868495Y-88531401D01*
X162004035Y-88337830D01*
X162103903Y-88123663D01*
X162165063Y-87895408D01*
X162185659Y-87660000D01*
X162165063Y-87424592D01*
X162103903Y-87196337D01*
X162004035Y-86982171D01*
X161990929Y-86963454D01*
X161868496Y-86788600D01*
X161838493Y-86758597D01*
X161746567Y-86666671D01*
X161713084Y-86605351D01*
X161718068Y-86535659D01*
X161759939Y-86479725D01*
X161790915Y-86462810D01*
X161922331Y-86413796D01*
X162037546Y-86327546D01*
X162123796Y-86212331D01*
X162174091Y-86077483D01*
X162180500Y-86017873D01*
X162180499Y-85089999D01*
X163254341Y-85089999D01*
X163254341Y-85090000D01*
X163274936Y-85325403D01*
X163274938Y-85325413D01*
X163336094Y-85553655D01*
X163336096Y-85553659D01*
X163336097Y-85553663D01*
X163416004Y-85725023D01*
X163435965Y-85767830D01*
X163435967Y-85767834D01*
X163544281Y-85922521D01*
X163571501Y-85961396D01*
X163571506Y-85961402D01*
X163738597Y-86128493D01*
X163738603Y-86128498D01*
X163924158Y-86258425D01*
X163967783Y-86313002D01*
X163974977Y-86382500D01*
X163943454Y-86444855D01*
X163924158Y-86461575D01*
X163738597Y-86591505D01*
X163571505Y-86758597D01*
X163435965Y-86952169D01*
X163435964Y-86952171D01*
X163336098Y-87166335D01*
X163336094Y-87166344D01*
X163274938Y-87394586D01*
X163274936Y-87394596D01*
X163254341Y-87629999D01*
X163254341Y-87630000D01*
X163274936Y-87865403D01*
X163274938Y-87865413D01*
X163336094Y-88093655D01*
X163336096Y-88093659D01*
X163336097Y-88093663D01*
X163350087Y-88123664D01*
X163435965Y-88307830D01*
X163435967Y-88307834D01*
X163544281Y-88462521D01*
X163571505Y-88501401D01*
X163738599Y-88668495D01*
X163781448Y-88698498D01*
X163932165Y-88804032D01*
X163932167Y-88804033D01*
X163932170Y-88804035D01*
X164146337Y-88903903D01*
X164374592Y-88965063D01*
X164562918Y-88981539D01*
X164609999Y-88985659D01*
X164610000Y-88985659D01*
X164610001Y-88985659D01*
X164649234Y-88982226D01*
X164845408Y-88965063D01*
X165073663Y-88903903D01*
X165287830Y-88804035D01*
X165481401Y-88668495D01*
X165648495Y-88501401D01*
X165778425Y-88315842D01*
X165833002Y-88272217D01*
X165902500Y-88265023D01*
X165964855Y-88296546D01*
X165981575Y-88315842D01*
X166111500Y-88501395D01*
X166111505Y-88501401D01*
X166278599Y-88668495D01*
X166321448Y-88698498D01*
X166472165Y-88804032D01*
X166472167Y-88804033D01*
X166472170Y-88804035D01*
X166686337Y-88903903D01*
X166914592Y-88965063D01*
X167102918Y-88981539D01*
X167149999Y-88985659D01*
X167150000Y-88985659D01*
X167150001Y-88985659D01*
X167189234Y-88982226D01*
X167385408Y-88965063D01*
X167613663Y-88903903D01*
X167827830Y-88804035D01*
X168021401Y-88668495D01*
X168188495Y-88501401D01*
X168318425Y-88315842D01*
X168373002Y-88272217D01*
X168442500Y-88265023D01*
X168504855Y-88296546D01*
X168521575Y-88315842D01*
X168651500Y-88501395D01*
X168651505Y-88501401D01*
X168818599Y-88668495D01*
X168861448Y-88698498D01*
X169012165Y-88804032D01*
X169012167Y-88804033D01*
X169012170Y-88804035D01*
X169226337Y-88903903D01*
X169454592Y-88965063D01*
X169642918Y-88981539D01*
X169689999Y-88985659D01*
X169690000Y-88985659D01*
X169690001Y-88985659D01*
X169729234Y-88982226D01*
X169925408Y-88965063D01*
X170153663Y-88903903D01*
X170367830Y-88804035D01*
X170561401Y-88668495D01*
X170728495Y-88501401D01*
X170858425Y-88315842D01*
X170913002Y-88272217D01*
X170982500Y-88265023D01*
X171044855Y-88296546D01*
X171061575Y-88315842D01*
X171191500Y-88501395D01*
X171191505Y-88501401D01*
X171358599Y-88668495D01*
X171401448Y-88698498D01*
X171552165Y-88804032D01*
X171552167Y-88804033D01*
X171552170Y-88804035D01*
X171766337Y-88903903D01*
X171994592Y-88965063D01*
X172182918Y-88981539D01*
X172229999Y-88985659D01*
X172230000Y-88985659D01*
X172230001Y-88985659D01*
X172269234Y-88982226D01*
X172465408Y-88965063D01*
X172693663Y-88903903D01*
X172907830Y-88804035D01*
X173101401Y-88668495D01*
X173268495Y-88501401D01*
X173398425Y-88315842D01*
X173453002Y-88272217D01*
X173522500Y-88265023D01*
X173584855Y-88296546D01*
X173601575Y-88315842D01*
X173731500Y-88501395D01*
X173731505Y-88501401D01*
X173898599Y-88668495D01*
X173941448Y-88698498D01*
X174092165Y-88804032D01*
X174092167Y-88804033D01*
X174092170Y-88804035D01*
X174306337Y-88903903D01*
X174534592Y-88965063D01*
X174722918Y-88981539D01*
X174769999Y-88985659D01*
X174770000Y-88985659D01*
X174770001Y-88985659D01*
X174809234Y-88982226D01*
X175005408Y-88965063D01*
X175233663Y-88903903D01*
X175447830Y-88804035D01*
X175641401Y-88668495D01*
X175808495Y-88501401D01*
X175944035Y-88307830D01*
X176043903Y-88093663D01*
X176105063Y-87865408D01*
X176125659Y-87630000D01*
X176105063Y-87394592D01*
X176043903Y-87166337D01*
X175944035Y-86952171D01*
X175938424Y-86944158D01*
X175808496Y-86758600D01*
X175808493Y-86758597D01*
X175686567Y-86636671D01*
X175653084Y-86575351D01*
X175658068Y-86505659D01*
X175699939Y-86449725D01*
X175730915Y-86432810D01*
X175862331Y-86383796D01*
X175977546Y-86297546D01*
X176063796Y-86182331D01*
X176114091Y-86047483D01*
X176120500Y-85987873D01*
X176120499Y-84192128D01*
X176114091Y-84132517D01*
X176113002Y-84129598D01*
X176063797Y-83997671D01*
X176063793Y-83997664D01*
X175977547Y-83882455D01*
X175977544Y-83882452D01*
X175862335Y-83796206D01*
X175862328Y-83796202D01*
X175727482Y-83745908D01*
X175727483Y-83745908D01*
X175667883Y-83739501D01*
X175667881Y-83739500D01*
X175667873Y-83739500D01*
X175667864Y-83739500D01*
X173872129Y-83739500D01*
X173872123Y-83739501D01*
X173812516Y-83745908D01*
X173677671Y-83796202D01*
X173677664Y-83796206D01*
X173562455Y-83882452D01*
X173562452Y-83882455D01*
X173476206Y-83997664D01*
X173476202Y-83997671D01*
X173426997Y-84129598D01*
X173385126Y-84185532D01*
X173319661Y-84209949D01*
X173251388Y-84195097D01*
X173223134Y-84173946D01*
X173101082Y-84051894D01*
X172907578Y-83916399D01*
X172693492Y-83816570D01*
X172693486Y-83816567D01*
X172480000Y-83759364D01*
X172480000Y-84656988D01*
X172422993Y-84624075D01*
X172295826Y-84590000D01*
X172164174Y-84590000D01*
X172037007Y-84624075D01*
X171980000Y-84656988D01*
X171980000Y-83759364D01*
X171979999Y-83759364D01*
X171766513Y-83816567D01*
X171766507Y-83816570D01*
X171552422Y-83916399D01*
X171552420Y-83916400D01*
X171358926Y-84051886D01*
X171358920Y-84051891D01*
X171191891Y-84218920D01*
X171191890Y-84218922D01*
X171061575Y-84405031D01*
X171006998Y-84448655D01*
X170937499Y-84455848D01*
X170875145Y-84424326D01*
X170858425Y-84405031D01*
X170728109Y-84218922D01*
X170728108Y-84218920D01*
X170561082Y-84051894D01*
X170367578Y-83916399D01*
X170153492Y-83816570D01*
X170153486Y-83816567D01*
X169940000Y-83759364D01*
X169940000Y-84656988D01*
X169882993Y-84624075D01*
X169755826Y-84590000D01*
X169624174Y-84590000D01*
X169497007Y-84624075D01*
X169440000Y-84656988D01*
X169440000Y-83759364D01*
X169439999Y-83759364D01*
X169226513Y-83816567D01*
X169226507Y-83816570D01*
X169012422Y-83916399D01*
X169012420Y-83916400D01*
X168818926Y-84051886D01*
X168818920Y-84051891D01*
X168651891Y-84218920D01*
X168651890Y-84218922D01*
X168521880Y-84404595D01*
X168467303Y-84448219D01*
X168397804Y-84455412D01*
X168335450Y-84423890D01*
X168318730Y-84404594D01*
X168188494Y-84218597D01*
X168021402Y-84051506D01*
X168021395Y-84051501D01*
X167827834Y-83915967D01*
X167827830Y-83915965D01*
X167820296Y-83912452D01*
X167613663Y-83816097D01*
X167613659Y-83816096D01*
X167613655Y-83816094D01*
X167385413Y-83754938D01*
X167385403Y-83754936D01*
X167150001Y-83734341D01*
X167149999Y-83734341D01*
X166914596Y-83754936D01*
X166914586Y-83754938D01*
X166686344Y-83816094D01*
X166686335Y-83816098D01*
X166472171Y-83915964D01*
X166472169Y-83915965D01*
X166278597Y-84051505D01*
X166111505Y-84218597D01*
X165981575Y-84404158D01*
X165926998Y-84447783D01*
X165857500Y-84454977D01*
X165795145Y-84423454D01*
X165778425Y-84404158D01*
X165648494Y-84218597D01*
X165481402Y-84051506D01*
X165481395Y-84051501D01*
X165287834Y-83915967D01*
X165287830Y-83915965D01*
X165280296Y-83912452D01*
X165073663Y-83816097D01*
X165073659Y-83816096D01*
X165073655Y-83816094D01*
X164845413Y-83754938D01*
X164845403Y-83754936D01*
X164610001Y-83734341D01*
X164609999Y-83734341D01*
X164374596Y-83754936D01*
X164374586Y-83754938D01*
X164146344Y-83816094D01*
X164146335Y-83816098D01*
X163932171Y-83915964D01*
X163932169Y-83915965D01*
X163738597Y-84051505D01*
X163571505Y-84218597D01*
X163435965Y-84412169D01*
X163435964Y-84412171D01*
X163336098Y-84626335D01*
X163336094Y-84626344D01*
X163274938Y-84854586D01*
X163274936Y-84854596D01*
X163254341Y-85089999D01*
X162180499Y-85089999D01*
X162180499Y-84222128D01*
X162174091Y-84162517D01*
X162162901Y-84132516D01*
X162123797Y-84027671D01*
X162123793Y-84027664D01*
X162037547Y-83912455D01*
X162037544Y-83912452D01*
X161922335Y-83826206D01*
X161922328Y-83826202D01*
X161787482Y-83775908D01*
X161787483Y-83775908D01*
X161727883Y-83769501D01*
X161727881Y-83769500D01*
X161727873Y-83769500D01*
X161727864Y-83769500D01*
X159932129Y-83769500D01*
X159932123Y-83769501D01*
X159872516Y-83775908D01*
X159737671Y-83826202D01*
X159737664Y-83826206D01*
X159622455Y-83912452D01*
X159622452Y-83912455D01*
X159536206Y-84027664D01*
X159536202Y-84027671D01*
X159485908Y-84162517D01*
X159479501Y-84222116D01*
X159479501Y-84222123D01*
X159479500Y-84222135D01*
X159479500Y-86017870D01*
X159479501Y-86017876D01*
X159485908Y-86077483D01*
X159536202Y-86212328D01*
X159536206Y-86212335D01*
X159622452Y-86327544D01*
X159622455Y-86327547D01*
X159737664Y-86413793D01*
X159737671Y-86413797D01*
X159869081Y-86462810D01*
X159925015Y-86504681D01*
X159949432Y-86570145D01*
X159934580Y-86638418D01*
X159913430Y-86666673D01*
X159791503Y-86788600D01*
X159655965Y-86982169D01*
X159655964Y-86982171D01*
X159556098Y-87196335D01*
X159556094Y-87196344D01*
X159494938Y-87424586D01*
X159494936Y-87424596D01*
X159474341Y-87659999D01*
X96520000Y-87659999D01*
X96520000Y-78996996D01*
X161997435Y-78996996D01*
X161997435Y-78997003D01*
X162017630Y-79176249D01*
X162017631Y-79176254D01*
X162077211Y-79346523D01*
X162173184Y-79499262D01*
X162300738Y-79626816D01*
X162363473Y-79666235D01*
X162409762Y-79718566D01*
X162421500Y-79771227D01*
X162421500Y-81927771D01*
X162401815Y-81994810D01*
X162363473Y-82032764D01*
X162300740Y-82072182D01*
X162300737Y-82072184D01*
X162173184Y-82199737D01*
X162077211Y-82352476D01*
X162017631Y-82522745D01*
X162017630Y-82522750D01*
X161997435Y-82701996D01*
X161997435Y-82702003D01*
X162017630Y-82881249D01*
X162017631Y-82881254D01*
X162077211Y-83051523D01*
X162173184Y-83204262D01*
X162300738Y-83331816D01*
X162453478Y-83427789D01*
X162623745Y-83487368D01*
X162623750Y-83487369D01*
X162802996Y-83507565D01*
X162803000Y-83507565D01*
X162803004Y-83507565D01*
X162982249Y-83487369D01*
X162982252Y-83487368D01*
X162982255Y-83487368D01*
X163152522Y-83427789D01*
X163305262Y-83331816D01*
X163432816Y-83204262D01*
X163528789Y-83051522D01*
X163588368Y-82881255D01*
X163608565Y-82702000D01*
X163588368Y-82522745D01*
X163528789Y-82352478D01*
X163432816Y-82199738D01*
X163305262Y-82072184D01*
X163305259Y-82072182D01*
X163242527Y-82032764D01*
X163196236Y-81980429D01*
X163184500Y-81927771D01*
X163184500Y-79771227D01*
X163204185Y-79704188D01*
X163242525Y-79666235D01*
X163305262Y-79626816D01*
X163432816Y-79499262D01*
X163528789Y-79346522D01*
X163588368Y-79176255D01*
X163608565Y-78997000D01*
X163588368Y-78817745D01*
X163528789Y-78647478D01*
X163432816Y-78494738D01*
X163305262Y-78367184D01*
X163152523Y-78271211D01*
X162982254Y-78211631D01*
X162982249Y-78211630D01*
X162803004Y-78191435D01*
X162802996Y-78191435D01*
X162623750Y-78211630D01*
X162623745Y-78211631D01*
X162453476Y-78271211D01*
X162300737Y-78367184D01*
X162173184Y-78494737D01*
X162077211Y-78647476D01*
X162017631Y-78817745D01*
X162017630Y-78817750D01*
X161997435Y-78996996D01*
X96520000Y-78996996D01*
X96520000Y-74841984D01*
X106089500Y-74841984D01*
X106089500Y-76542015D01*
X106100000Y-76644795D01*
X106100001Y-76644796D01*
X106155186Y-76811335D01*
X106155187Y-76811337D01*
X106247286Y-76960651D01*
X106247289Y-76960655D01*
X106371344Y-77084710D01*
X106371348Y-77084713D01*
X106520662Y-77176812D01*
X106520664Y-77176813D01*
X106520666Y-77176814D01*
X106687203Y-77231999D01*
X106789992Y-77242500D01*
X106789997Y-77242500D01*
X108490003Y-77242500D01*
X108490008Y-77242500D01*
X108592797Y-77231999D01*
X108759334Y-77176814D01*
X108908655Y-77084711D01*
X109032711Y-76960655D01*
X109124814Y-76811334D01*
X109179999Y-76644797D01*
X109190500Y-76542008D01*
X109190500Y-75692000D01*
X110685207Y-75692000D01*
X110704348Y-75935219D01*
X110761303Y-76172457D01*
X110854668Y-76397861D01*
X110978504Y-76599942D01*
X111716212Y-75862234D01*
X111727482Y-75904292D01*
X111799890Y-76029708D01*
X111902292Y-76132110D01*
X112027708Y-76204518D01*
X112069765Y-76215787D01*
X111332056Y-76953494D01*
X111534138Y-77077331D01*
X111759542Y-77170696D01*
X111996780Y-77227651D01*
X111996779Y-77227651D01*
X112240000Y-77246792D01*
X112483219Y-77227651D01*
X112720457Y-77170696D01*
X112945861Y-77077331D01*
X113147942Y-76953494D01*
X112410234Y-76215787D01*
X112452292Y-76204518D01*
X112577708Y-76132110D01*
X112680110Y-76029708D01*
X112752518Y-75904292D01*
X112763787Y-75862235D01*
X113501494Y-76599942D01*
X113625331Y-76397861D01*
X113718696Y-76172457D01*
X113775651Y-75935219D01*
X113794792Y-75692000D01*
X113775651Y-75448780D01*
X113718696Y-75211542D01*
X113670831Y-75095984D01*
X121202500Y-75095984D01*
X121202500Y-76796015D01*
X121213000Y-76898795D01*
X121213001Y-76898797D01*
X121233499Y-76960655D01*
X121268186Y-77065335D01*
X121268187Y-77065337D01*
X121360286Y-77214651D01*
X121360289Y-77214655D01*
X121484344Y-77338710D01*
X121484348Y-77338713D01*
X121633662Y-77430812D01*
X121633664Y-77430813D01*
X121633666Y-77430814D01*
X121800203Y-77485999D01*
X121902992Y-77496500D01*
X121902997Y-77496500D01*
X123603003Y-77496500D01*
X123603008Y-77496500D01*
X123705797Y-77485999D01*
X123872334Y-77430814D01*
X124021655Y-77338711D01*
X124145711Y-77214655D01*
X124237814Y-77065334D01*
X124292999Y-76898797D01*
X124303500Y-76796008D01*
X124303500Y-75946000D01*
X125798207Y-75946000D01*
X125817348Y-76189219D01*
X125874303Y-76426457D01*
X125967668Y-76651861D01*
X126091504Y-76853942D01*
X126829212Y-76116234D01*
X126840482Y-76158292D01*
X126912890Y-76283708D01*
X127015292Y-76386110D01*
X127140708Y-76458518D01*
X127182765Y-76469787D01*
X126445056Y-77207494D01*
X126647138Y-77331331D01*
X126872542Y-77424696D01*
X127109780Y-77481651D01*
X127109779Y-77481651D01*
X127353000Y-77500792D01*
X127596219Y-77481651D01*
X127833457Y-77424696D01*
X128058861Y-77331331D01*
X128260942Y-77207494D01*
X127523234Y-76469787D01*
X127565292Y-76458518D01*
X127690708Y-76386110D01*
X127793110Y-76283708D01*
X127865518Y-76158292D01*
X127876787Y-76116235D01*
X128614494Y-76853942D01*
X128738331Y-76651861D01*
X128831696Y-76426457D01*
X128888651Y-76189219D01*
X128907792Y-75946000D01*
X128888651Y-75702780D01*
X128831696Y-75465542D01*
X128738331Y-75240138D01*
X128640188Y-75079984D01*
X136539500Y-75079984D01*
X136539500Y-76780015D01*
X136550000Y-76882795D01*
X136550001Y-76882797D01*
X136553315Y-76892797D01*
X136605186Y-77049335D01*
X136605187Y-77049337D01*
X136697286Y-77198651D01*
X136697289Y-77198655D01*
X136821344Y-77322710D01*
X136821348Y-77322713D01*
X136970662Y-77414812D01*
X136970664Y-77414813D01*
X136970666Y-77414814D01*
X137137203Y-77469999D01*
X137239992Y-77480500D01*
X137239997Y-77480500D01*
X138940003Y-77480500D01*
X138940008Y-77480500D01*
X139042797Y-77469999D01*
X139209334Y-77414814D01*
X139358655Y-77322711D01*
X139482711Y-77198655D01*
X139574814Y-77049334D01*
X139629999Y-76882797D01*
X139640500Y-76780008D01*
X139640500Y-75930000D01*
X141135207Y-75930000D01*
X141154348Y-76173219D01*
X141211303Y-76410457D01*
X141304668Y-76635861D01*
X141428504Y-76837942D01*
X142166212Y-76100234D01*
X142177482Y-76142292D01*
X142249890Y-76267708D01*
X142352292Y-76370110D01*
X142477708Y-76442518D01*
X142519765Y-76453787D01*
X141782056Y-77191494D01*
X141984138Y-77315331D01*
X142209542Y-77408696D01*
X142446780Y-77465651D01*
X142446779Y-77465651D01*
X142690000Y-77484792D01*
X142933219Y-77465651D01*
X143170457Y-77408696D01*
X143395861Y-77315331D01*
X143597942Y-77191494D01*
X142860234Y-76453787D01*
X142902292Y-76442518D01*
X143027708Y-76370110D01*
X143130110Y-76267708D01*
X143202518Y-76142292D01*
X143213787Y-76100234D01*
X143951494Y-76837942D01*
X144075331Y-76635861D01*
X144168696Y-76410457D01*
X144225651Y-76173219D01*
X144244792Y-75930000D01*
X144225651Y-75686780D01*
X144168696Y-75449542D01*
X144075331Y-75224138D01*
X143974736Y-75059984D01*
X150319500Y-75059984D01*
X150319500Y-76760015D01*
X150330000Y-76862795D01*
X150330001Y-76862797D01*
X150339942Y-76892796D01*
X150385186Y-77029335D01*
X150385187Y-77029337D01*
X150477286Y-77178651D01*
X150477289Y-77178655D01*
X150601344Y-77302710D01*
X150601348Y-77302713D01*
X150750662Y-77394812D01*
X150750664Y-77394813D01*
X150750666Y-77394814D01*
X150917203Y-77449999D01*
X151019992Y-77460500D01*
X151019997Y-77460500D01*
X152720003Y-77460500D01*
X152720008Y-77460500D01*
X152822797Y-77449999D01*
X152989334Y-77394814D01*
X153138655Y-77302711D01*
X153262711Y-77178655D01*
X153354814Y-77029334D01*
X153409999Y-76862797D01*
X153420500Y-76760008D01*
X153420500Y-75910000D01*
X154915207Y-75910000D01*
X154934348Y-76153219D01*
X154991303Y-76390457D01*
X155084668Y-76615861D01*
X155208504Y-76817942D01*
X155946212Y-76080234D01*
X155957482Y-76122292D01*
X156029890Y-76247708D01*
X156132292Y-76350110D01*
X156257708Y-76422518D01*
X156299765Y-76433787D01*
X155562056Y-77171494D01*
X155764138Y-77295331D01*
X155989542Y-77388696D01*
X156226780Y-77445651D01*
X156226779Y-77445651D01*
X156470000Y-77464792D01*
X156713219Y-77445651D01*
X156950457Y-77388696D01*
X157175861Y-77295331D01*
X157377942Y-77171494D01*
X156640234Y-76433787D01*
X156682292Y-76422518D01*
X156807708Y-76350110D01*
X156910110Y-76247708D01*
X156982518Y-76122292D01*
X156993787Y-76080235D01*
X157731494Y-76817942D01*
X157855331Y-76615861D01*
X157948696Y-76390457D01*
X158005651Y-76153219D01*
X158024792Y-75910000D01*
X158005651Y-75666780D01*
X157948696Y-75429542D01*
X157855331Y-75204138D01*
X157785377Y-75089984D01*
X165239500Y-75089984D01*
X165239500Y-76790015D01*
X165250000Y-76892795D01*
X165250001Y-76892797D01*
X165270114Y-76953494D01*
X165305186Y-77059335D01*
X165305187Y-77059337D01*
X165397286Y-77208651D01*
X165397289Y-77208655D01*
X165521344Y-77332710D01*
X165521348Y-77332713D01*
X165670662Y-77424812D01*
X165670664Y-77424813D01*
X165670666Y-77424814D01*
X165837203Y-77479999D01*
X165939992Y-77490500D01*
X165939997Y-77490500D01*
X167640003Y-77490500D01*
X167640008Y-77490500D01*
X167742797Y-77479999D01*
X167909334Y-77424814D01*
X168058655Y-77332711D01*
X168182711Y-77208655D01*
X168274814Y-77059334D01*
X168329999Y-76892797D01*
X168340500Y-76790008D01*
X168340500Y-75940000D01*
X169835207Y-75940000D01*
X169854348Y-76183219D01*
X169911303Y-76420457D01*
X170004668Y-76645861D01*
X170128504Y-76847942D01*
X170866212Y-76110234D01*
X170877482Y-76152292D01*
X170949890Y-76277708D01*
X171052292Y-76380110D01*
X171177708Y-76452518D01*
X171219765Y-76463787D01*
X170482056Y-77201494D01*
X170684138Y-77325331D01*
X170909542Y-77418696D01*
X171146780Y-77475651D01*
X171146779Y-77475651D01*
X171390000Y-77494792D01*
X171633219Y-77475651D01*
X171870457Y-77418696D01*
X172095861Y-77325331D01*
X172297942Y-77201494D01*
X171560234Y-76463787D01*
X171602292Y-76452518D01*
X171727708Y-76380110D01*
X171830110Y-76277708D01*
X171902518Y-76152292D01*
X171913787Y-76110234D01*
X172651494Y-76847942D01*
X172775331Y-76645861D01*
X172868696Y-76420457D01*
X172925651Y-76183219D01*
X172944792Y-75940000D01*
X172925651Y-75696780D01*
X172868696Y-75459542D01*
X172775331Y-75234138D01*
X172651494Y-75032056D01*
X171913787Y-75769764D01*
X171902518Y-75727708D01*
X171830110Y-75602292D01*
X171727708Y-75499890D01*
X171602292Y-75427482D01*
X171560233Y-75416212D01*
X172297942Y-74678504D01*
X172095861Y-74554668D01*
X171870457Y-74461303D01*
X171633219Y-74404348D01*
X171633220Y-74404348D01*
X171390000Y-74385207D01*
X171146780Y-74404348D01*
X170909542Y-74461303D01*
X170684146Y-74554665D01*
X170684141Y-74554668D01*
X170482056Y-74678504D01*
X171219765Y-75416212D01*
X171177708Y-75427482D01*
X171052292Y-75499890D01*
X170949890Y-75602292D01*
X170877482Y-75727708D01*
X170866212Y-75769765D01*
X170128504Y-75032056D01*
X170004668Y-75234141D01*
X170004665Y-75234146D01*
X169911303Y-75459542D01*
X169854348Y-75696780D01*
X169835207Y-75940000D01*
X168340500Y-75940000D01*
X168340500Y-75089992D01*
X168329999Y-74987203D01*
X168274814Y-74820666D01*
X168268643Y-74810662D01*
X168182713Y-74671348D01*
X168182710Y-74671344D01*
X168058655Y-74547289D01*
X168058651Y-74547286D01*
X167909337Y-74455187D01*
X167909335Y-74455186D01*
X167813241Y-74423344D01*
X167742797Y-74400001D01*
X167742795Y-74400000D01*
X167640015Y-74389500D01*
X167640008Y-74389500D01*
X165939992Y-74389500D01*
X165939984Y-74389500D01*
X165837204Y-74400000D01*
X165837203Y-74400001D01*
X165670664Y-74455186D01*
X165670662Y-74455187D01*
X165521348Y-74547286D01*
X165521344Y-74547289D01*
X165397289Y-74671344D01*
X165397286Y-74671348D01*
X165305187Y-74820662D01*
X165305186Y-74820664D01*
X165250001Y-74987203D01*
X165250000Y-74987204D01*
X165239500Y-75089984D01*
X157785377Y-75089984D01*
X157731494Y-75002056D01*
X156993787Y-75739764D01*
X156982518Y-75697708D01*
X156910110Y-75572292D01*
X156807708Y-75469890D01*
X156682292Y-75397482D01*
X156640233Y-75386212D01*
X157377942Y-74648504D01*
X157175861Y-74524668D01*
X156950457Y-74431303D01*
X156713219Y-74374348D01*
X156713220Y-74374348D01*
X156470000Y-74355207D01*
X156226780Y-74374348D01*
X155989542Y-74431303D01*
X155764146Y-74524665D01*
X155764141Y-74524668D01*
X155562056Y-74648504D01*
X156299765Y-75386212D01*
X156257708Y-75397482D01*
X156132292Y-75469890D01*
X156029890Y-75572292D01*
X155957482Y-75697708D01*
X155946212Y-75739765D01*
X155208504Y-75002056D01*
X155084668Y-75204141D01*
X155084665Y-75204146D01*
X154991303Y-75429542D01*
X154934348Y-75666780D01*
X154915207Y-75910000D01*
X153420500Y-75910000D01*
X153420500Y-75059992D01*
X153409999Y-74957203D01*
X153354814Y-74790666D01*
X153281215Y-74671345D01*
X153262713Y-74641348D01*
X153262710Y-74641344D01*
X153138655Y-74517289D01*
X153138651Y-74517286D01*
X152989337Y-74425187D01*
X152989335Y-74425186D01*
X152881641Y-74389500D01*
X152822797Y-74370001D01*
X152822795Y-74370000D01*
X152720015Y-74359500D01*
X152720008Y-74359500D01*
X151019992Y-74359500D01*
X151019984Y-74359500D01*
X150917204Y-74370000D01*
X150917203Y-74370001D01*
X150750664Y-74425186D01*
X150750662Y-74425187D01*
X150601348Y-74517286D01*
X150601344Y-74517289D01*
X150477289Y-74641344D01*
X150477286Y-74641348D01*
X150385187Y-74790662D01*
X150385186Y-74790664D01*
X150330001Y-74957203D01*
X150330000Y-74957204D01*
X150319500Y-75059984D01*
X143974736Y-75059984D01*
X143951494Y-75022056D01*
X143213787Y-75759764D01*
X143202518Y-75717708D01*
X143130110Y-75592292D01*
X143027708Y-75489890D01*
X142902292Y-75417482D01*
X142860233Y-75406212D01*
X143597942Y-74668504D01*
X143395861Y-74544668D01*
X143170457Y-74451303D01*
X142933219Y-74394348D01*
X142933220Y-74394348D01*
X142690000Y-74375207D01*
X142446780Y-74394348D01*
X142209542Y-74451303D01*
X141984146Y-74544665D01*
X141984141Y-74544668D01*
X141782056Y-74668504D01*
X142519765Y-75406212D01*
X142477708Y-75417482D01*
X142352292Y-75489890D01*
X142249890Y-75592292D01*
X142177482Y-75717708D01*
X142166212Y-75759765D01*
X141428504Y-75022056D01*
X141304668Y-75224141D01*
X141304665Y-75224146D01*
X141211303Y-75449542D01*
X141154348Y-75686780D01*
X141135207Y-75930000D01*
X139640500Y-75930000D01*
X139640500Y-75079992D01*
X139629999Y-74977203D01*
X139574814Y-74810666D01*
X139562475Y-74790662D01*
X139482713Y-74661348D01*
X139482710Y-74661344D01*
X139358655Y-74537289D01*
X139358651Y-74537286D01*
X139209337Y-74445187D01*
X139209335Y-74445186D01*
X139104200Y-74410348D01*
X139042797Y-74390001D01*
X139042795Y-74390000D01*
X138940015Y-74379500D01*
X138940008Y-74379500D01*
X137239992Y-74379500D01*
X137239984Y-74379500D01*
X137137204Y-74390000D01*
X137137203Y-74390001D01*
X136970664Y-74445186D01*
X136970662Y-74445187D01*
X136821348Y-74537286D01*
X136821344Y-74537289D01*
X136697289Y-74661344D01*
X136697286Y-74661348D01*
X136605187Y-74810662D01*
X136605186Y-74810664D01*
X136550001Y-74977203D01*
X136550000Y-74977204D01*
X136539500Y-75079984D01*
X128640188Y-75079984D01*
X128614494Y-75038056D01*
X127876787Y-75775764D01*
X127865518Y-75733708D01*
X127793110Y-75608292D01*
X127690708Y-75505890D01*
X127565292Y-75433482D01*
X127523233Y-75422212D01*
X128260942Y-74684504D01*
X128058861Y-74560668D01*
X127833457Y-74467303D01*
X127596219Y-74410348D01*
X127596220Y-74410348D01*
X127353000Y-74391207D01*
X127109780Y-74410348D01*
X126872542Y-74467303D01*
X126647146Y-74560665D01*
X126647141Y-74560668D01*
X126445056Y-74684504D01*
X127182765Y-75422212D01*
X127140708Y-75433482D01*
X127015292Y-75505890D01*
X126912890Y-75608292D01*
X126840482Y-75733708D01*
X126829212Y-75775765D01*
X126091504Y-75038056D01*
X125967668Y-75240141D01*
X125967665Y-75240146D01*
X125874303Y-75465542D01*
X125817348Y-75702780D01*
X125798207Y-75946000D01*
X124303500Y-75946000D01*
X124303500Y-75095992D01*
X124292999Y-74993203D01*
X124237814Y-74826666D01*
X124234113Y-74820666D01*
X124145713Y-74677348D01*
X124145710Y-74677344D01*
X124021655Y-74553289D01*
X124021651Y-74553286D01*
X123872337Y-74461187D01*
X123872335Y-74461186D01*
X123763693Y-74425186D01*
X123705797Y-74406001D01*
X123705795Y-74406000D01*
X123603015Y-74395500D01*
X123603008Y-74395500D01*
X121902992Y-74395500D01*
X121902984Y-74395500D01*
X121800204Y-74406000D01*
X121800203Y-74406001D01*
X121633664Y-74461186D01*
X121633662Y-74461187D01*
X121484348Y-74553286D01*
X121484344Y-74553289D01*
X121360289Y-74677344D01*
X121360286Y-74677348D01*
X121268187Y-74826662D01*
X121268186Y-74826664D01*
X121213001Y-74993203D01*
X121213000Y-74993204D01*
X121202500Y-75095984D01*
X113670831Y-75095984D01*
X113625331Y-74986138D01*
X113501494Y-74784056D01*
X112763787Y-75521764D01*
X112752518Y-75479708D01*
X112680110Y-75354292D01*
X112577708Y-75251890D01*
X112452292Y-75179482D01*
X112410233Y-75168212D01*
X113147942Y-74430504D01*
X112945861Y-74306668D01*
X112720457Y-74213303D01*
X112483219Y-74156348D01*
X112483220Y-74156348D01*
X112240000Y-74137207D01*
X111996780Y-74156348D01*
X111759542Y-74213303D01*
X111534146Y-74306665D01*
X111534141Y-74306668D01*
X111332056Y-74430504D01*
X112069765Y-75168212D01*
X112027708Y-75179482D01*
X111902292Y-75251890D01*
X111799890Y-75354292D01*
X111727482Y-75479708D01*
X111716212Y-75521765D01*
X110978504Y-74784056D01*
X110854668Y-74986141D01*
X110854665Y-74986146D01*
X110761303Y-75211542D01*
X110704348Y-75448780D01*
X110685207Y-75692000D01*
X109190500Y-75692000D01*
X109190500Y-74841992D01*
X109179999Y-74739203D01*
X109124814Y-74572666D01*
X109117413Y-74560668D01*
X109032713Y-74423348D01*
X109032710Y-74423344D01*
X108908655Y-74299289D01*
X108908651Y-74299286D01*
X108759337Y-74207187D01*
X108759335Y-74207186D01*
X108605915Y-74156348D01*
X108592797Y-74152001D01*
X108592795Y-74152000D01*
X108490015Y-74141500D01*
X108490008Y-74141500D01*
X106789992Y-74141500D01*
X106789984Y-74141500D01*
X106687204Y-74152000D01*
X106687203Y-74152001D01*
X106520664Y-74207186D01*
X106520662Y-74207187D01*
X106371348Y-74299286D01*
X106371344Y-74299289D01*
X106247289Y-74423344D01*
X106247286Y-74423348D01*
X106155187Y-74572662D01*
X106155186Y-74572664D01*
X106100001Y-74739203D01*
X106100000Y-74739204D01*
X106089500Y-74841984D01*
X96520000Y-74841984D01*
X96520000Y-72514046D01*
X96539685Y-72447007D01*
X96592489Y-72401252D01*
X96644043Y-72390046D01*
X176446047Y-72419953D01*
G37*
%TD.AperFunction*%
%TD*%
M02*
