%TF.GenerationSoftware,KiCad,Pcbnew,8.0.8*%
%TF.CreationDate,2026-04-07T23:23:40-05:00*%
%TF.ProjectId,glove_pcb,676c6f76-655f-4706-9362-2e6b69636164,rev?*%
%TF.SameCoordinates,Original*%
%TF.FileFunction,Paste,Top*%
%TF.FilePolarity,Positive*%
%FSLAX46Y46*%
G04 Gerber Fmt 4.6, Leading zero omitted, Abs format (unit mm)*
G04 Created by KiCad (PCBNEW 8.0.8) date 2026-04-07 23:23:40*
%MOMM*%
%LPD*%
G01*
G04 APERTURE LIST*
G04 Aperture macros list*
%AMRoundRect*
0 Rectangle with rounded corners*
0 $1 Rounding radius*
0 $2 $3 $4 $5 $6 $7 $8 $9 X,Y pos of 4 corners*
0 Add a 4 corners polygon primitive as box body*
4,1,4,$2,$3,$4,$5,$6,$7,$8,$9,$2,$3,0*
0 Add four circle primitives for the rounded corners*
1,1,$1+$1,$2,$3*
1,1,$1+$1,$4,$5*
1,1,$1+$1,$6,$7*
1,1,$1+$1,$8,$9*
0 Add four rect primitives between the rounded corners*
20,1,$1+$1,$2,$3,$4,$5,0*
20,1,$1+$1,$4,$5,$6,$7,0*
20,1,$1+$1,$6,$7,$8,$9,0*
20,1,$1+$1,$8,$9,$2,$3,0*%
G04 Aperture macros list end*
%ADD10RoundRect,0.250000X0.400000X1.450000X-0.400000X1.450000X-0.400000X-1.450000X0.400000X-1.450000X0*%
%ADD11RoundRect,0.250000X-0.337500X-0.475000X0.337500X-0.475000X0.337500X0.475000X-0.337500X0.475000X0*%
%ADD12RoundRect,0.250000X0.475000X-0.337500X0.475000X0.337500X-0.475000X0.337500X-0.475000X-0.337500X0*%
%ADD13RoundRect,0.250000X-0.350000X-0.450000X0.350000X-0.450000X0.350000X0.450000X-0.350000X0.450000X0*%
%ADD14R,0.600000X0.300000*%
%ADD15R,0.300000X0.600000*%
%ADD16R,1.400000X0.300000*%
%ADD17RoundRect,0.250000X0.450000X-0.350000X0.450000X0.350000X-0.450000X0.350000X-0.450000X-0.350000X0*%
%ADD18R,0.450000X1.450000*%
%ADD19R,7.560000X3.050000*%
%ADD20RoundRect,0.250000X0.350000X0.450000X-0.350000X0.450000X-0.350000X-0.450000X0.350000X-0.450000X0*%
%ADD21RoundRect,0.250000X0.337500X0.475000X-0.337500X0.475000X-0.337500X-0.475000X0.337500X-0.475000X0*%
%ADD22RoundRect,0.250000X-0.475000X0.337500X-0.475000X-0.337500X0.475000X-0.337500X0.475000X0.337500X0*%
%ADD23R,0.400000X0.550000*%
%ADD24R,0.550000X0.400000*%
%ADD25RoundRect,0.250001X-2.049999X-0.799999X2.049999X-0.799999X2.049999X0.799999X-2.049999X0.799999X0*%
%ADD26RoundRect,0.250000X0.450000X-0.325000X0.450000X0.325000X-0.450000X0.325000X-0.450000X-0.325000X0*%
%ADD27R,1.525000X0.650000*%
%ADD28R,1.800000X1.000000*%
G04 APERTURE END LIST*
D10*
%TO.C,F2*%
X132908000Y-122301000D03*
X128458000Y-122301000D03*
%TD*%
%TO.C,F1*%
X103952000Y-91567000D03*
X99502000Y-91567000D03*
%TD*%
D11*
%TO.C,C21*%
X144582000Y-80899000D03*
X146657000Y-80899000D03*
%TD*%
D12*
%TO.C,C1*%
X110626000Y-94785000D03*
X110626000Y-92710000D03*
%TD*%
D13*
%TO.C,R23*%
X127040000Y-117360000D03*
X129040000Y-117360000D03*
%TD*%
D11*
%TO.C,C12*%
X162123500Y-109982000D03*
X164198500Y-109982000D03*
%TD*%
D13*
%TO.C,R11*%
X107940000Y-80645000D03*
X109940000Y-80645000D03*
%TD*%
%TO.C,R17*%
X168928000Y-81026000D03*
X170928000Y-81026000D03*
%TD*%
D11*
%TO.C,C17*%
X112945000Y-80645000D03*
X115020000Y-80645000D03*
%TD*%
D13*
%TO.C,R12*%
X120654000Y-81407000D03*
X122654000Y-81407000D03*
%TD*%
D14*
%TO.C,AC1*%
X138821000Y-101464000D03*
X138821000Y-100964000D03*
X138821000Y-100464000D03*
X138821000Y-99964000D03*
D15*
X138171000Y-99814000D03*
X137671000Y-99814000D03*
X137171000Y-99814000D03*
D14*
X136521000Y-99964000D03*
X136521000Y-100464000D03*
X136521000Y-100964000D03*
X136521000Y-101464000D03*
D15*
X137171000Y-101614000D03*
X137671000Y-101614000D03*
X138171000Y-101614000D03*
%TD*%
D16*
%TO.C,IC3*%
X160020000Y-115348000D03*
X160020000Y-115848000D03*
X160020000Y-116348000D03*
X160020000Y-116848000D03*
X160020000Y-117348000D03*
X164420000Y-117348000D03*
X164420000Y-116848000D03*
X164420000Y-116348000D03*
X164420000Y-115848000D03*
X164420000Y-115348000D03*
%TD*%
%TO.C,IC4*%
X109769000Y-115822000D03*
X109769000Y-115322000D03*
X109769000Y-114822000D03*
X109769000Y-114322000D03*
X109769000Y-113822000D03*
X105369000Y-113822000D03*
X105369000Y-114322000D03*
X105369000Y-114822000D03*
X105369000Y-115322000D03*
X105369000Y-115822000D03*
%TD*%
D13*
%TO.C,R1*%
X116237000Y-86995000D03*
X118237000Y-86995000D03*
%TD*%
D11*
%TO.C,C20*%
X173065500Y-81026000D03*
X175140500Y-81026000D03*
%TD*%
%TO.C,C19*%
X158326000Y-80645000D03*
X160401000Y-80645000D03*
%TD*%
%TO.C,C8*%
X136725000Y-96800000D03*
X138800000Y-96800000D03*
%TD*%
D17*
%TO.C,R6*%
X138350000Y-106600000D03*
X138350000Y-104600000D03*
%TD*%
D13*
%TO.C,R15*%
X154083000Y-80645000D03*
X156083000Y-80645000D03*
%TD*%
D18*
%TO.C,IC2*%
X114960000Y-98560000D03*
X115610000Y-98560000D03*
X116260000Y-98560000D03*
X116910000Y-98560000D03*
X117560000Y-98560000D03*
X118210000Y-98560000D03*
X118860000Y-98560000D03*
X119510000Y-98560000D03*
X120160000Y-98560000D03*
X120810000Y-98560000D03*
X121460000Y-98560000D03*
X122110000Y-98560000D03*
X122760000Y-98560000D03*
X123410000Y-98560000D03*
X123410000Y-92710000D03*
X122760000Y-92710000D03*
X122110000Y-92710000D03*
X121460000Y-92710000D03*
X120810000Y-92710000D03*
X120160000Y-92710000D03*
X119510000Y-92710000D03*
X118860000Y-92710000D03*
X118210000Y-92710000D03*
X117560000Y-92710000D03*
X116910000Y-92710000D03*
X116260000Y-92710000D03*
X115610000Y-92710000D03*
X114960000Y-92710000D03*
D19*
X119185000Y-95635000D03*
%TD*%
D20*
%TO.C,R7*%
X142850000Y-101150000D03*
X140850000Y-101150000D03*
%TD*%
D11*
%TO.C,C13*%
X109750000Y-117850000D03*
X111825000Y-117850000D03*
%TD*%
D21*
%TO.C,C16*%
X146558000Y-108966000D03*
X144483000Y-108966000D03*
%TD*%
D22*
%TO.C,C4*%
X120400000Y-100537500D03*
X120400000Y-102612500D03*
%TD*%
D11*
%TO.C,C2*%
X112860000Y-102108000D03*
X114935000Y-102108000D03*
%TD*%
D13*
%TO.C,R19*%
X140339000Y-80899000D03*
X142339000Y-80899000D03*
%TD*%
%TO.C,R4*%
X126905000Y-103251000D03*
X128905000Y-103251000D03*
%TD*%
D23*
%TO.C,IC1*%
X176369000Y-95885000D03*
X175394000Y-95885000D03*
X175019000Y-96835000D03*
X174644000Y-95885000D03*
X174269000Y-96835000D03*
X173894000Y-95885000D03*
X173519000Y-96835000D03*
X173144000Y-95885000D03*
X172769000Y-96835000D03*
X172394000Y-95885000D03*
X172019000Y-96835000D03*
X171644000Y-95885000D03*
X171269000Y-96835000D03*
X170894000Y-95885000D03*
X170519000Y-96835000D03*
X170144000Y-95885000D03*
X169769000Y-96835000D03*
X169394000Y-95885000D03*
X169019000Y-96835000D03*
X168644000Y-95885000D03*
X168269000Y-96835000D03*
X167894000Y-95885000D03*
X167519000Y-96835000D03*
D24*
X166569000Y-95810000D03*
X166569000Y-96560000D03*
X166569000Y-97310000D03*
X167519000Y-97685000D03*
X166569000Y-98060000D03*
X167519000Y-98435000D03*
X166569000Y-98810000D03*
X167519000Y-99185000D03*
X166569000Y-99560000D03*
X167519000Y-99935000D03*
X166569000Y-100310000D03*
X167519000Y-100685000D03*
X166569000Y-101060000D03*
X167519000Y-101435000D03*
X166569000Y-101810000D03*
X167519000Y-102185000D03*
X166569000Y-102560000D03*
X166569000Y-103310000D03*
X166569000Y-104060000D03*
D23*
X167519000Y-103035000D03*
X167894000Y-103985000D03*
X168269000Y-103035000D03*
X168644000Y-103985000D03*
X169019000Y-103035000D03*
X169394000Y-103985000D03*
X169769000Y-103035000D03*
X170144000Y-103985000D03*
X170519000Y-103035000D03*
X170894000Y-103985000D03*
X171269000Y-103035000D03*
X171644000Y-103985000D03*
X172019000Y-103035000D03*
X172394000Y-103985000D03*
X172769000Y-103035000D03*
X173144000Y-103985000D03*
X173519000Y-103035000D03*
X173894000Y-103985000D03*
X176369000Y-103985000D03*
D24*
X174419000Y-97560000D03*
X174419000Y-98210000D03*
X174419000Y-98960000D03*
X174419000Y-99710000D03*
%TD*%
D21*
%TO.C,C7*%
X134786000Y-101599000D03*
X132711000Y-101599000D03*
%TD*%
D13*
%TO.C,R10*%
X102987000Y-80645000D03*
X104987000Y-80645000D03*
%TD*%
D17*
%TO.C,R5*%
X123825000Y-104251000D03*
X123825000Y-102251000D03*
%TD*%
D25*
%TO.C,C6*%
X112866000Y-109728000D03*
X121666000Y-109728000D03*
%TD*%
D11*
%TO.C,C15*%
X105412500Y-119075000D03*
X107487500Y-119075000D03*
%TD*%
D13*
%TO.C,R18*%
X136116000Y-80899000D03*
X138116000Y-80899000D03*
%TD*%
%TO.C,R13*%
X124972000Y-81407000D03*
X126972000Y-81407000D03*
%TD*%
D11*
%TO.C,C18*%
X129342000Y-81407000D03*
X131417000Y-81407000D03*
%TD*%
D20*
%TO.C,R9*%
X133985000Y-111506000D03*
X131985000Y-111506000D03*
%TD*%
D26*
%TO.C,L1*%
X110617000Y-99196000D03*
X110617000Y-97146000D03*
%TD*%
D13*
%TO.C,R22*%
X125310000Y-114040000D03*
X127310000Y-114040000D03*
%TD*%
D22*
%TO.C,C3*%
X110583000Y-88370500D03*
X110583000Y-90445500D03*
%TD*%
D27*
%TO.C,IC5*%
X136480000Y-108966000D03*
X136480000Y-110236000D03*
X136480000Y-111506000D03*
X136480000Y-112776000D03*
X136480000Y-114046000D03*
X136480000Y-115316000D03*
X136480000Y-116586000D03*
X136480000Y-117856000D03*
X141904000Y-117856000D03*
X141904000Y-116586000D03*
X141904000Y-115316000D03*
X141904000Y-114046000D03*
X141904000Y-112776000D03*
X141904000Y-111506000D03*
X141904000Y-110236000D03*
X141904000Y-108966000D03*
%TD*%
D13*
%TO.C,R14*%
X149876000Y-80645000D03*
X151876000Y-80645000D03*
%TD*%
%TO.C,R16*%
X164832000Y-81026000D03*
X166832000Y-81026000D03*
%TD*%
%TO.C,R2*%
X120301000Y-86995000D03*
X122301000Y-86995000D03*
%TD*%
D22*
%TO.C,C14*%
X164450000Y-119200000D03*
X164450000Y-121275000D03*
%TD*%
D28*
%TO.C,Y1*%
X163068000Y-99715000D03*
X163068000Y-102215000D03*
%TD*%
D13*
%TO.C,R3*%
X125728000Y-98679000D03*
X127728000Y-98679000D03*
%TD*%
D11*
%TO.C,C5*%
X125775000Y-96125000D03*
X127850000Y-96125000D03*
%TD*%
M02*
